<svg width="48" height="48" viewBox="0 0 48 48" fill="none" xmlns="http://www.w3.org/2000/svg">
<g id="Icon / help-circle-outline">
<path id="Vector" d="M24 7.5C20.7366 7.5 17.5465 8.46771 14.8331 10.2808C12.1197 12.0938 10.0048 14.6707 8.756 17.6857C7.50715 20.7007 7.18039 24.0183 7.81705 27.219C8.45371 30.4197 10.0252 33.3597 12.3327 35.6673C14.6403 37.9748 17.5803 39.5463 20.781 40.183C23.9817 40.8196 27.2993 40.4929 30.3143 39.244C33.3293 37.9952 35.9062 35.8803 37.7193 33.1669C39.5323 30.4535 40.5 27.2634 40.5 24C40.5 19.6239 38.7616 15.4271 35.6673 12.3327C32.5729 9.23839 28.3761 7.5 24 7.5Z" fill="#E6ECF6" stroke="black" stroke-width="2" stroke-miterlimit="10"/>
<g id="Vector_2">
<path d="M18.75 18.9649C18.75 18.9649 18.8288 17.3243 20.5847 15.9115C21.6263 15.0724 22.875 14.8296 24 14.8127C25.0247 14.7996 25.9397 14.9693 26.4872 15.2299C27.4247 15.6762 29.25 16.7655 29.25 19.0821C29.25 21.5196 27.6563 22.6268 25.8403 23.8446C24.0244 25.0624 23.5312 26.3843 23.5312 27.7502" fill="#E6ECF6"/>
<path d="M18.75 18.9649C18.75 18.9649 18.8288 17.3243 20.5847 15.9115C21.6263 15.0724 22.875 14.8296 24 14.8127C25.0247 14.7996 25.9397 14.9693 26.4872 15.2299C27.4247 15.6762 29.25 16.7655 29.25 19.0821C29.25 21.5196 27.6563 22.6268 25.8403 23.8446C24.0244 25.0624 23.5312 26.3843 23.5312 27.7502" stroke="black" stroke-width="2" stroke-miterlimit="10" stroke-linecap="round"/>
</g>
<path id="Vector_3" d="M23.4375 34.5C24.473 34.5 25.3125 33.6605 25.3125 32.625C25.3125 31.5895 24.473 30.75 23.4375 30.75C22.402 30.75 21.5625 31.5895 21.5625 32.625C21.5625 33.6605 22.402 34.5 23.4375 34.5Z" fill="black"/>
</g>
</svg>
