<svg width="49" height="48" viewBox="0 0 49 48" fill="none" xmlns="http://www.w3.org/2000/svg">
<g id="Icon / megaphone-outline">
<g id="Vector">
<path d="M38.7444 4.89575C38.7444 4.89575 30.6219 15.0001 23 15.0001H8C7.60218 15.0001 7.22064 15.1582 6.93934 15.4395C6.65804 15.7208 6.5 16.1023 6.5 16.5001V25.5001C6.5 25.898 6.65804 26.2795 6.93934 26.5608C7.22064 26.8421 7.60218 27.0001 8 27.0001H23C30.6219 27.0001 38.7444 37.1467 38.7444 37.1467C39.3125 37.8967 41 37.3829 41 36.2251V5.81263C41 4.65857 39.4062 4.04825 38.7444 4.89575ZM6.5 24.0001C6.5 24.0001 5 23.4376 5 21.0001C5 18.5626 6.5 18.0001 6.5 18.0001M42.5 23.0626C42.5 23.0626 44 22.6567 44 21.0001C44 19.3436 42.5 18.9376 42.5 18.9376M24.5 15.0001V27.0001V15.0001ZM11 15.0001V27.0001V15.0001Z" fill="#E6ECF6"/>
<path d="M6.5 24.0001C6.5 24.0001 5 23.4376 5 21.0001C5 18.5626 6.5 18.0001 6.5 18.0001M42.5 23.0626C42.5 23.0626 44 22.6567 44 21.0001C44 19.3436 42.5 18.9376 42.5 18.9376M24.5 15.0001V27.0001M11 15.0001V27.0001M38.7444 4.89575C38.7444 4.89575 30.6219 15.0001 23 15.0001H8C7.60218 15.0001 7.22064 15.1582 6.93934 15.4395C6.65804 15.7208 6.5 16.1023 6.5 16.5001V25.5001C6.5 25.898 6.65804 26.2795 6.93934 26.5608C7.22064 26.8421 7.60218 27.0001 8 27.0001H23C30.6219 27.0001 38.7444 37.1467 38.7444 37.1467C39.3125 37.8967 41 37.3829 41 36.2251V5.81263C41 4.65857 39.4063 4.04825 38.7444 4.89575Z" stroke="black" stroke-width="2" stroke-linecap="round" stroke-linejoin="round"/>
</g>
<g id="Vector_2">
<path d="M14 27V42.75C14 42.9489 14.079 43.1397 14.2197 43.2803C14.3603 43.421 14.5511 43.5 14.75 43.5H19.7188C19.9537 43.5001 20.1854 43.4449 20.3952 43.3391C20.605 43.2332 20.7869 43.0795 20.9264 42.8904C21.0659 42.7013 21.159 42.482 21.1982 42.2504C21.2374 42.0187 21.2217 41.781 21.1522 41.5566C20.3666 39.0366 18.5 36.195 18.5 31.5H20C20.3978 31.5 20.7794 31.342 21.0607 31.0607C21.342 30.7794 21.5 30.3978 21.5 30V28.5C21.5 28.1022 21.342 27.7206 21.0607 27.4393C20.7794 27.158 20.3978 27 20 27H18.5" fill="#E6ECF6"/>
<path d="M14 27V42.75C14 42.9489 14.079 43.1397 14.2197 43.2803C14.3603 43.421 14.5511 43.5 14.75 43.5H19.7188C19.9537 43.5001 20.1854 43.4449 20.3952 43.3391C20.605 43.2332 20.7869 43.0795 20.9264 42.8904C21.0659 42.7013 21.159 42.482 21.1982 42.2504C21.2374 42.0187 21.2217 41.781 21.1522 41.5566C20.3666 39.0366 18.5 36.195 18.5 31.5H20C20.3978 31.5 20.7794 31.342 21.0607 31.0607C21.342 30.7794 21.5 30.3978 21.5 30V28.5C21.5 28.1022 21.342 27.7206 21.0607 27.4393C20.7794 27.158 20.3978 27 20 27H18.5" stroke="black" stroke-width="2" stroke-linecap="round" stroke-linejoin="round"/>
</g>
</g>
</svg>
