<svg width="119" height="121" viewBox="0 0 119 121" fill="none" xmlns="http://www.w3.org/2000/svg">
<rect width="112" height="117" fill="white"/>
<path d="M77.6472 39.2347C75.8826 37.3907 74.8493 34.9187 74.7541 32.3132C74.659 29.7076 75.5089 27.1606 77.1339 25.1814C77.2683 25.0168 77.3382 24.8052 77.3295 24.5891C77.3208 24.3729 77.2343 24.1682 77.0872 24.0158L67.7263 14.226C67.5715 14.0644 67.3617 13.9736 67.1429 13.9736C66.9241 13.9736 66.7143 14.0644 66.5596 14.226L51.6389 29.8127C51.0884 30.3876 50.6737 31.0886 50.4277 31.8602C50.1826 32.6335 49.7684 33.3365 49.218 33.9134C48.6675 34.4904 47.9959 34.9254 47.2565 35.184C46.5174 35.4413 45.8457 35.8744 45.2943 36.4493L7.02963 76.4132C6.87497 76.5749 6.78809 76.7941 6.78809 77.0226C6.78809 77.2512 6.87497 77.4703 7.02963 77.632L16.3906 87.4108C16.5364 87.5645 16.7324 87.6549 16.9393 87.6639C17.1462 87.6729 17.3488 87.5999 17.5063 87.4595C19.4005 85.7602 21.8393 84.8709 24.3343 84.9697C26.8294 85.0686 29.1967 86.1482 30.9622 87.9926C32.7278 89.8369 33.7613 92.3099 33.8559 94.9163C33.9505 97.5228 33.0992 100.07 31.4725 102.049C31.3381 102.214 31.2682 102.425 31.2768 102.641C31.2855 102.858 31.372 103.062 31.5191 103.215L40.8801 112.993C41.0348 113.155 41.2446 113.246 41.4634 113.246C41.6822 113.246 41.892 113.155 42.0468 112.993L80.3136 73.0207C80.8639 72.4447 81.2785 71.743 81.5248 70.971C81.7699 70.1977 82.1841 69.4946 82.7345 68.9177C83.285 68.3407 83.9566 67.9057 84.696 67.6471C85.4346 67.3901 86.1057 66.9569 86.656 66.3818L101.577 50.7951C101.731 50.6335 101.818 50.4143 101.818 50.1857C101.818 49.9572 101.731 49.738 101.577 49.5764L92.2158 39.7976C92.07 39.6439 91.874 39.5535 91.667 39.5444C91.4601 39.5354 91.2576 39.6084 91.1 39.7488C89.208 41.4492 86.7713 42.3409 84.2772 42.2456C81.783 42.1503 79.4152 41.075 77.6472 39.2347Z" stroke="#FF6500" stroke-width="2" stroke-miterlimit="10"/>
<path d="M53.1367 38.0025L49.6345 34.344M62.4743 47.7569L60.1388 45.3194M71.8119 57.5135L69.4786 55.0738M82.3183 68.4867L78.8162 64.8283" stroke="#FF6500" stroke-width="1.5" stroke-miterlimit="10" stroke-linecap="round"/>
<path d="M113 97C113 87.0625 104.938 79 95 79C85.0625 79 77 87.0625 77 97C77 106.938 85.0625 115 95 115C104.938 115 113 106.938 113 97Z" fill="white" stroke="#FF6500" stroke-width="2" stroke-miterlimit="10"/>
<path d="M104 89.5L91.4 104.5L86 98.5" stroke="#FF6500" stroke-width="2" stroke-linecap="round" stroke-linejoin="round"/>
</svg>
