<svg width="80" height="80" viewBox="0 0 80 80" fill="none" xmlns="http://www.w3.org/2000/svg">
<g id="Icon / warning-outline">
<path id="Vector" d="M13.3702 69.7266H66.6296C67.4946 69.7264 68.3448 69.5018 69.097 69.0748C69.8493 68.6478 70.4779 68.0329 70.9214 67.2902C71.365 66.5475 71.6082 65.7025 71.6274 64.8377C71.6467 63.9729 71.4412 63.1179 71.0311 62.3562L44.403 12.9031C42.5139 9.39687 37.4858 9.39687 35.5968 12.9031L8.96864 62.3562C8.55856 63.1179 8.3531 63.9729 8.37233 64.8377C8.39156 65.7025 8.63482 66.5475 9.07834 67.2902C9.52186 68.0329 10.1505 68.6478 10.9027 69.0748C11.655 69.5018 12.5052 69.7264 13.3702 69.7266Z" stroke="#FF6500" stroke-width="3" stroke-linecap="round" stroke-linejoin="round"/>
<path id="Vector_2" d="M39.1031 30.5293L40 49.5918L40.8953 30.5372C40.9009 30.4153 40.8815 30.2937 40.8384 30.1796C40.7953 30.0655 40.7294 29.9614 40.6448 29.8737C40.5601 29.7859 40.4584 29.7164 40.3459 29.6693C40.2335 29.6222 40.1126 29.5985 39.9906 29.5997C39.8708 29.6008 39.7525 29.626 39.6426 29.6737C39.5327 29.7213 39.4334 29.7905 39.3507 29.8772C39.268 29.9638 39.2034 30.0662 39.1609 30.1782C39.1184 30.2902 39.0988 30.4096 39.1031 30.5293Z" stroke="#FF6500" stroke-width="3" stroke-linecap="round" stroke-linejoin="round"/>
<path id="Vector_3" d="M40 62.0703C39.3819 62.0703 38.7777 61.887 38.2638 61.5437C37.7499 61.2003 37.3494 60.7122 37.1129 60.1412C36.8764 59.5702 36.8145 58.9418 36.935 58.3357C37.0556 57.7295 37.3533 57.1726 37.7903 56.7356C38.2273 56.2986 38.7842 56.0009 39.3903 55.8804C39.9965 55.7598 40.6249 55.8217 41.1959 56.0582C41.7669 56.2947 42.255 56.6952 42.5983 57.2092C42.9417 57.7231 43.125 58.3272 43.125 58.9453C43.125 59.7741 42.7958 60.569 42.2097 61.155C41.6237 61.7411 40.8288 62.0703 40 62.0703Z" fill="#FF6500"/>
</g>
</svg>
