<svg width="100" height="100" viewBox="0 0 100 100" fill="none" xmlns="http://www.w3.org/2000/svg">
<g id="Plus">
<path id="Vector" d="M50 25C50.8288 25 51.6237 25.3292 52.2097 25.9153C52.7958 26.5013 53.125 27.2962 53.125 28.125V46.875H71.875C72.7038 46.875 73.4987 47.2042 74.0847 47.7903C74.6708 48.3763 75 49.1712 75 50C75 50.8288 74.6708 51.6237 74.0847 52.2097C73.4987 52.7958 72.7038 53.125 71.875 53.125H53.125V71.875C53.125 72.7038 52.7958 73.4987 52.2097 74.0847C51.6237 74.6708 50.8288 75 50 75C49.1712 75 48.3763 74.6708 47.7903 74.0847C47.2042 73.4987 46.875 72.7038 46.875 71.875V53.125H28.125C27.2962 53.125 26.5013 52.7958 25.9153 52.2097C25.3292 51.6237 25 50.8288 25 50C25 49.1712 25.3292 48.3763 25.9153 47.7903C26.5013 47.2042 27.2962 46.875 28.125 46.875H46.875V28.125C46.875 27.2962 47.2042 26.5013 47.7903 25.9153C48.3763 25.3292 49.1712 25 50 25Z" fill="#3365B4"/>
</g>
</svg>
