<svg width="94" height="18" viewBox="0 0 94 18" fill="none" xmlns="http://www.w3.org/2000/svg">
<g id="Pullmanbus.cl">
<path id="Vector" d="M3.40695 15.8207C3.40695 16.6483 2.99316 17.0621 2.16557 17.0621H0.882812V7.42074C1.00695 4.40006 2.57936 2.9104 5.64143 2.9104C8.78626 2.9104 10.3587 4.60695 10.3587 8.00005C10.3587 11.4345 9.03454 13.2138 6.34488 13.2966C5.1035 13.2966 4.1104 12.8001 3.48971 11.7242V15.8207H3.40695ZM5.55867 11.0621C6.92419 11.0621 7.62764 10.069 7.7104 8.12419C7.7104 6.09661 6.96557 5.06212 5.51729 5.06212C4.06902 5.06212 3.36557 6.05523 3.40695 8.12419C3.48971 10.069 4.19316 11.0621 5.55867 11.0621Z" fill="#003FA2"/>
<path id="Vector_2" d="M20.0001 9.11718C20.0001 10.8551 19.5449 12.0137 18.676 12.5517C17.7656 13.0482 16.7725 13.3379 15.6966 13.3379C14.6622 13.3379 13.7104 13.0482 12.8415 12.4689C11.9725 11.931 11.5173 10.8137 11.5173 9.11718V3.03442H14.0415V9.61374C14.0415 10.731 14.6208 11.3103 15.7794 11.3103C16.938 11.3103 17.5173 10.7724 17.5173 9.61374V4.2758C17.5173 3.44822 17.8897 3.03442 18.7587 3.03442H20.0001V9.11718Z" fill="#003FA2"/>
<path id="Vector_3" d="M23.6413 1.37932V13.131H21.1172V0.137939H22.4413C23.1034 0.137939 23.6413 0.71725 23.6413 1.37932Z" fill="#003FA2"/>
<path id="Vector_4" d="M28.0276 1.37932V13.131H25.5034V0.137939H26.8276C27.4482 0.137939 28.0276 0.71725 28.0276 1.37932Z" fill="#003FA2"/>
<path id="Vector_5" d="M32.0413 6.67579V13.131H29.4758V7.17234C29.4758 4.27579 30.9241 2.8689 33.8207 2.8689C35.1034 2.8689 36.0965 3.15855 36.8413 3.73786C37.5862 3.19993 38.5793 2.91028 39.862 2.91028C42.7586 2.91028 44.1655 4.35855 44.1655 7.21372V13.1723H42.8413C42.0138 13.131 41.6 12.7172 41.6 11.931V6.71717C41.5586 5.68269 40.9793 5.14476 39.862 5.14476C38.7448 5.14476 38.1655 5.64131 38.1241 6.71717V13.131H35.5586V6.67579C35.5172 5.64131 34.9379 5.10338 33.8207 5.10338C32.6207 5.10338 32.0413 5.59993 32.0413 6.67579Z" fill="#003FA2"/>
<path id="Vector_6" d="M48.2206 5.64131H45.6551C45.9448 3.77924 47.2689 2.8689 49.6275 2.8689C52.4 2.8689 53.8482 3.77924 53.8896 5.64131V9.07579C53.8896 11.8482 52.1931 13.0896 49.462 13.2965C47.0206 13.5034 45.3655 12.3448 45.3655 10.1103C45.4069 7.6689 47.1862 7.04821 49.7517 6.79993C50.8275 6.67579 51.4069 6.34476 51.4069 5.80683C51.3655 5.22752 50.8275 4.93786 49.7517 4.93786C48.8413 4.93786 48.3448 5.18614 48.2206 5.64131ZM51.4069 8.99303V8.04131C50.8275 8.28959 50.1241 8.49648 49.3793 8.662C48.3862 8.8689 47.8482 9.32407 47.8482 10.0689C47.8896 10.8551 48.3448 11.2689 49.131 11.2689C50.5793 11.2689 51.4069 10.3999 51.4069 8.99303Z" fill="#003FA2"/>
<path id="Vector_7" d="M62.4139 13.131C61.5863 13.0896 61.1725 12.6758 61.1725 11.8896V6.67579C61.1311 5.64131 60.5518 5.10338 59.4346 5.10338C58.3173 5.10338 57.738 5.59993 57.6966 6.67579V13.131H55.1311V7.17234C55.1311 4.27579 56.5794 2.8689 59.4759 2.8689C62.3725 2.8689 63.7794 4.31717 63.738 7.17234V13.131H62.4139Z" fill="#003FA2"/>
<path id="Vector_8" d="M67.4209 4.44139C68.0829 3.4069 69.0347 2.86897 70.276 2.86897C72.9657 2.95173 74.2898 4.73104 74.2898 8.16553C74.2898 11.5172 72.7174 13.2138 69.5726 13.2966C66.4278 13.2966 64.814 11.8069 64.814 8.78621V0.137939H66.0967C66.9243 0.137939 67.3381 0.593112 67.3381 1.4207V4.44139H67.4209ZM67.4209 8.04139C67.4209 10.069 68.0829 11.1035 69.5312 11.1035C70.9795 11.1035 71.7243 10.069 71.7243 8.04139C71.6829 6.09656 70.9795 5.14484 69.5726 5.14484C68.2071 5.14484 67.5036 6.09656 67.4209 8.04139Z" fill="#003FA2"/>
<path id="Vector_9" d="M83.9725 9.11718C83.9725 10.8551 83.5173 12.0137 82.6484 12.5517C81.738 13.0482 80.7449 13.3379 79.6691 13.3379C78.6346 13.3379 77.6828 13.0482 76.8139 12.4689C75.9449 11.931 75.4897 10.8137 75.4897 9.11718V3.03442H78.0139V9.61374C78.0139 10.731 78.5932 11.3103 79.7518 11.3103C80.9104 11.3103 81.4897 10.7724 81.4897 9.61374V4.2758C81.4897 3.44822 81.8622 3.03442 82.7311 3.03442H84.0139V9.11718H83.9725Z" fill="#003FA2"/>
<path id="Vector_10" d="M89.5173 11.3103C90.5931 11.3103 91.1311 11.0206 91.1311 10.3586C91.1311 9.862 90.2621 9.40683 88.5242 9.11717C86.2897 8.70338 85.1311 7.71028 85.1311 6.13786C85.1311 3.94476 86.869 2.91028 89.1449 2.8689C90.4276 2.8689 91.4621 3.15855 92.2483 3.73786C92.9932 4.31717 93.4069 5.14476 93.4483 6.22062H91.8345C91.2552 6.22062 90.8414 5.97234 90.7173 5.59993C90.5518 5.14476 90.0138 4.89648 89.1863 4.89648C88.1931 4.89648 87.6966 5.14476 87.6966 5.68269C87.6966 6.22062 88.3587 6.59303 89.6828 6.84131C91.4207 7.17234 92.538 7.62752 93.0759 8.12407C93.5725 8.62062 93.7794 9.24131 93.7794 9.90338C93.7794 12.3861 91.8345 13.2965 89.1449 13.2965C87.738 13.2965 86.6621 13.0068 85.9587 12.3861C85.2138 11.8068 84.8 10.9379 84.8 9.77924H87.4069C87.4483 10.8965 88.2345 11.3103 89.5173 11.3103Z" fill="#003FA2"/>
</g>
</svg>
