<svg width="26" height="26" viewBox="0 0 26 26" fill="none" xmlns="http://www.w3.org/2000/svg">
<g id="Icon / Volante">
<path id="Vector 9" d="M12.5272 1C19.3637 1 23.9197 5.64946 24.8315 11.2258M12.5272 1C12.5272 1 13.1966 7.8337 16.2975 10.0593C19.037 12.0255 24.8315 11.2258 24.8315 11.2258M12.5272 1C11.3177 1 10.1293 1.22174 9.0022 1.63125M12.5272 25C18.3837 25 23.8184 20.9314 24.8315 15.2292M12.5272 25C12.5272 25 13.2393 18.3164 16.2975 16.1779C19.0522 14.2516 24.8315 15.2292 24.8315 15.2292M12.5272 25C11.3335 25 10.1418 24.7842 9.0022 24.3834M24.8315 15.2292C24.9421 14.6067 25 13.9647 25 13.3065C25 12.6036 24.943 11.9077 24.8315 11.2258M9.0022 1.63125C4.51496 3.26157 0.999849 7.86794 1 13.3061C1.00015 18.5599 4.61588 22.8411 9.0022 24.3834M9.0022 1.63125C9.0022 1.63125 10.972 8.68436 10.9319 13.3065C10.8938 17.6983 9.0022 24.3834 9.0022 24.3834" stroke="#7F7F7F" stroke-width="1.5"/>
</g>
</svg>
