<svg width="32" height="32" viewBox="0 0 32 32" fill="none" xmlns="http://www.w3.org/2000/svg">
<g id="Icon / paw-outline">
<path id="Vector" d="M28.6086 10.6313C28.3865 10.5439 28.1498 10.4993 27.9111 10.5H27.8861C26.6255 10.5188 25.2118 11.6994 24.4699 13.485C23.5805 15.6213 23.9899 17.8069 25.3911 18.3688C25.6131 18.4561 25.8495 18.5007 26.088 18.5C27.3549 18.5 28.788 17.3125 29.5361 15.515C30.4193 13.3788 30.0036 11.1931 28.6086 10.6313ZM20.4749 18.9675C18.7374 16.0844 17.9874 15 15.9999 15C14.0124 15 13.2561 16.0913 11.5186 18.9675C10.0311 21.4275 7.02489 21.6325 6.27489 23.7219C6.12273 24.1046 6.04632 24.5132 6.04989 24.925C6.04989 26.6244 7.34989 28 8.94989 28C10.9374 28 13.6436 26.4131 16.0061 26.4131C18.3686 26.4131 21.0624 28 23.0499 28C24.6499 28 25.9436 26.625 25.9436 24.925C25.9451 24.5128 25.8665 24.1042 25.7124 23.7219C24.9624 21.625 21.9624 21.4275 20.4749 18.9675ZM12.0318 12.25C12.1154 12.2501 12.199 12.2438 12.2818 12.2313C13.7324 12.0206 14.638 10.0106 14.3093 7.74063C13.9999 5.60063 12.7011 4 11.343 4C11.2593 3.99993 11.1758 4.0062 11.093 4.01875C9.64239 4.22938 8.73676 6.23938 9.06551 8.50938C9.37489 10.6431 10.6736 12.25 12.0318 12.25ZM22.9324 8.50938C23.2611 6.23938 22.3555 4.22938 20.9049 4.01875C20.8221 4.0062 20.7386 3.99993 20.6549 4C19.2968 4 18.0005 5.60063 17.6905 7.74063C17.3618 10.0106 18.2674 12.0206 19.718 12.2313C19.8008 12.2438 19.8843 12.2501 19.968 12.25C21.3261 12.25 22.6249 10.6431 22.9324 8.50938ZM6.61051 18.3688C8.00989 17.8063 8.41864 15.6188 7.53051 13.485C6.78301 11.6875 5.35114 10.5 4.08614 10.5C3.84764 10.4993 3.61118 10.5439 3.38926 10.6313C1.98989 11.1938 1.58114 13.3813 2.46926 15.515C3.21676 17.3125 4.64864 18.5 5.91364 18.5C6.15213 18.5007 6.38859 18.4561 6.61051 18.3688Z" stroke="#7F7F7F" stroke-width="1.5" stroke-miterlimit="10"/>
</g>
</svg>
