<svg width="33" height="32" viewBox="0 0 33 32" fill="none" xmlns="http://www.w3.org/2000/svg">
<g id="Icon / chatbox-ellipses-outline">
<path id="Vector" d="M25.7514 4H6.73702C5.80887 4.00264 4.9195 4.37223 4.26319 5.02804C3.60689 5.68385 3.23702 6.57255 3.23438 7.5V19.5C3.23702 20.4274 3.60689 21.3162 4.26319 21.972C4.9195 22.6278 5.80887 22.9974 6.73702 23H9.23891V28L15.1008 23.1162C15.1909 23.0411 15.3044 23 15.4217 23H25.7514C26.6795 22.9974 27.5689 22.6278 28.2252 21.972C28.8815 21.3162 29.2514 20.4274 29.254 19.5V7.5C29.2514 6.57255 28.8815 5.68385 28.2252 5.02804C27.5689 4.37223 26.6795 4.00264 25.7514 4Z" stroke="white" stroke-width="2" stroke-linejoin="round"/>
<path id="Vector_2" d="M10.2398 15.5C11.3452 15.5 12.2413 14.6046 12.2413 13.5C12.2413 12.3954 11.3452 11.5 10.2398 11.5C9.13439 11.5 8.23828 12.3954 8.23828 13.5C8.23828 14.6046 9.13439 15.5 10.2398 15.5Z" fill="white"/>
<path id="Vector_3" d="M16.2447 15.5C17.3501 15.5 18.2462 14.6046 18.2462 13.5C18.2462 12.3954 17.3501 11.5 16.2447 11.5C15.1393 11.5 14.2432 12.3954 14.2432 13.5C14.2432 14.6046 15.1393 15.5 16.2447 15.5Z" fill="white"/>
<path id="Vector_4" d="M22.2486 15.5C23.354 15.5 24.2501 14.6046 24.2501 13.5C24.2501 12.3954 23.354 11.5 22.2486 11.5C21.1432 11.5 20.2471 12.3954 20.2471 13.5C20.2471 14.6046 21.1432 15.5 22.2486 15.5Z" fill="white"/>
</g>
</svg>
