<svg width="212" height="70" viewBox="0 0 212 70" fill="none" xmlns="http://www.w3.org/2000/svg">
<g id="Group">
<g id="Group_2">
<g id="Group_3">
<g id="Group_4">
<path id="Vector" d="M12.0748 59.8183C12.7133 59.8183 13.2314 59.2979 13.2314 58.6557C13.2314 58.0137 12.7133 57.4922 12.0748 57.4922C11.4381 57.4922 10.9199 58.0137 10.9199 58.6557C10.9199 59.2979 11.4381 59.8183 12.0748 59.8183Z" fill="white"/>
<path id="Vector_2" d="M101.53 68.9316C102.169 68.9316 102.687 68.4112 102.687 67.7695C102.687 67.1269 102.169 66.6055 101.53 66.6055C100.893 66.6055 100.376 67.1269 100.376 67.7695C100.376 68.4112 100.893 68.9316 101.53 68.9316Z" fill="white"/>
<path id="Vector_3" d="M46.809 61.8861L46.8086 61.8822C46.8058 60.5861 46.3557 59.4927 45.5382 58.7541L45.4808 58.7027L45.4677 58.6908H45.4648C44.6958 58.031 43.6547 57.6831 42.4196 57.6712C42.4152 57.6702 42.4047 57.6699 42.393 57.6699C42.3816 57.6699 42.3699 57.6702 42.3584 57.6717L42.3496 57.6712C42.3124 57.6712 42.2875 57.6721 42.2693 57.673C42.2548 57.6721 42.2317 57.6712 42.2045 57.6712L42.186 57.6717C42.1764 57.6708 42.1648 57.6699 42.1497 57.6699H42.1452C42.1466 57.6699 42.143 57.6699 42.1389 57.6699C42.1326 57.6699 42.1241 57.6699 42.1149 57.6712C40.8831 57.6847 39.8455 58.0314 39.0788 58.6908H39.0752L39.005 58.7541C38.1906 59.4895 37.7405 60.5779 37.7346 61.8672L37.7341 61.8686L37.7329 61.8736L37.7266 68.5481C37.7266 68.6373 37.7645 68.7249 37.8311 68.787C37.8977 68.8503 37.991 68.887 38.0847 68.887H39.2736C39.3673 68.887 39.4593 68.8503 39.5267 68.787C39.5941 68.7249 39.6314 68.6373 39.6314 68.5481L39.6341 62.0988C39.6413 61.154 39.8831 60.4841 40.3197 60.0416C40.7425 59.6131 41.3881 59.371 42.2766 59.3538C43.1565 59.371 43.8009 59.6131 44.2239 60.0416C44.6601 60.4841 44.902 61.154 44.9096 62.1008L44.9079 68.5481C44.9079 68.6373 44.9457 68.7249 45.0125 68.787C45.0795 68.8503 45.1723 68.887 45.2661 68.887H46.4567C46.5505 68.887 46.6428 68.8503 46.7099 68.787C46.7779 68.7249 46.815 68.6373 46.815 68.5481L46.809 61.8861Z" fill="white"/>
<path id="Vector_4" d="M88.2602 61.8861L88.2599 61.8822C88.2571 60.5861 87.8069 59.4927 86.9895 58.7541L86.9319 58.7027L86.9189 58.6908H86.9161C86.1472 58.031 85.1059 57.6831 83.871 57.6712C83.8664 57.6702 83.8561 57.6699 83.8443 57.6699C83.8329 57.6699 83.8212 57.6702 83.8098 57.6717L83.8008 57.6712C83.7637 57.6712 83.7387 57.6721 83.7206 57.673C83.7061 57.6721 83.6829 57.6712 83.6559 57.6712L83.6372 57.6717C83.6278 57.6708 83.616 57.6699 83.601 57.6699H83.5965C83.5982 57.6699 83.5942 57.6699 83.5902 57.6699C83.5839 57.6699 83.5752 57.6699 83.5662 57.6712C82.3343 57.6847 81.2968 58.0314 80.5301 58.6908H80.5264L80.4562 58.7541C79.6419 59.4895 79.1919 60.5779 79.1859 61.8672L79.1855 61.8686L79.184 61.8736L79.1777 68.5481C79.1777 68.6373 79.2158 68.7249 79.2823 68.787C79.3489 68.8503 79.4422 68.887 79.5359 68.887H80.7247C80.8186 68.887 80.9105 68.8503 80.9781 68.787C81.0455 68.7249 81.0825 68.6373 81.0825 68.5481L81.0853 62.0988C81.0925 61.154 81.3344 60.4841 81.7709 60.0416C82.1939 59.6131 82.8393 59.371 83.7279 59.3538C84.6078 59.371 85.2523 59.6131 85.6753 60.0416C86.1113 60.4841 86.3532 61.154 86.3609 62.1008L86.359 68.5481C86.359 68.6373 86.3971 68.7249 86.4637 68.787C86.5308 68.8503 86.6235 68.887 86.7173 68.887H87.908C88.0016 68.887 88.0941 68.8503 88.1611 68.787C88.229 68.7249 88.2661 68.6373 88.2661 68.5481L88.2602 61.8861Z" fill="white"/>
<path id="Vector_5" d="M66.0335 63.3083V63.3319V63.3346V63.3591C66.0308 64.422 65.9176 65.4606 65.5132 66.2041C65.1156 66.9191 64.4761 67.3967 63.2343 67.4157C63.2261 67.4148 63.213 67.4148 63.1881 67.4157H63.1673C61.9172 67.4029 61.2692 66.9246 60.8697 66.2029C60.4617 65.4566 60.3476 64.4094 60.3476 63.3396V63.2754C60.3486 62.2127 60.4617 61.3601 60.8697 60.6172C61.2692 59.8953 61.9172 59.4161 63.1673 59.4047H63.1759H63.1962H63.2153C64.4661 59.4161 65.1119 59.8943 65.5145 60.6185C65.92 61.3601 66.0335 62.2127 66.0335 63.2754V63.3083ZM66.3854 58.8087C66.3791 58.8011 66.3729 58.7934 66.3642 58.7856C65.687 58.1617 64.6042 57.7751 63.3498 57.7737C63.3329 57.7715 63.3067 57.7715 63.2822 57.7715C62.2506 57.7711 61.233 57.9865 60.3486 58.7431L60.3476 58.7437V58.0797H60.3494V54.7164C60.3494 54.6277 60.3113 54.5404 60.2447 54.4784C60.1782 54.4155 60.0853 54.3789 59.9913 54.3789H58.8196C58.7263 54.3789 58.6339 54.4155 58.5665 54.4784C58.4989 54.5404 58.4619 54.6277 58.4619 54.7164V58.0797H58.4628V65.22H58.4619V68.5651C58.4619 68.6538 58.5003 68.7411 58.5665 68.8027C58.6334 68.866 58.7263 68.9021 58.8204 68.9021H59.9917C60.0853 68.9021 60.1777 68.866 60.2447 68.8027C60.3127 68.7411 60.3499 68.6538 60.3499 68.5651V67.8735C61.1316 68.747 62.2534 69.0479 63.2822 69.0475H63.3548C64.6064 69.0434 65.6894 68.657 66.3642 68.0338C67.6263 66.84 67.9148 65.0099 67.9188 63.3088C67.9153 61.6168 67.6263 59.9981 66.3854 58.8087Z" fill="white"/>
<path id="Vector_6" d="M34.4347 64.8311C34.4319 65.7239 34.2364 66.2171 33.9737 66.4471C33.34 67.0313 32.5556 67.1192 31.6002 67.121H31.5897H31.572C30.6518 67.1223 30.0472 66.9626 29.7042 66.7145C29.3787 66.4792 29.2107 66.1429 29.2026 65.5642V65.5379C29.2088 64.9637 29.3833 64.6052 29.7125 64.3527C30.0572 64.0906 30.6373 63.9205 31.506 63.9205H31.5135H34.4347V64.8311ZM36.4016 61.3904V61.3827C36.402 60.2509 36.0253 59.2806 35.2353 58.6322C34.4397 57.9792 33.2978 57.6724 31.8279 57.6719H31.7749H31.755C30.2117 57.6674 28.9855 58.0032 28.0522 58.9955L28.0486 58.9919L27.9951 59.0557C27.925 59.1336 27.8562 59.2137 27.7896 59.2993C27.7896 59.2993 27.7882 59.3011 27.7877 59.3019L27.6922 59.4151C27.6351 59.4826 27.6071 59.5735 27.6188 59.6648C27.6288 59.7571 27.6754 59.8455 27.7465 59.9065L27.8005 59.9532C27.8212 59.978 27.8439 60.0011 27.8692 60.0224L28.078 60.1934L28.6333 60.6736C28.7043 60.7356 28.7981 60.7687 28.8891 60.764C28.9793 60.7605 29.0643 60.7193 29.1211 60.6514L29.4779 60.2283C29.7 59.9871 29.928 59.8161 30.2038 59.6957C30.5933 59.5247 31.0932 59.445 31.8153 59.4382H31.8239L31.8483 59.4368C32.8754 59.4395 33.5144 59.6481 33.8804 59.969C34.2454 60.2848 34.4307 60.7618 34.4334 61.5036C34.4334 61.5086 34.4334 61.5216 34.4347 61.5383V62.238H31.3849C30.1546 62.2407 29.1255 62.5186 28.3829 63.0974C27.6451 63.6635 27.2338 64.5351 27.2334 65.5501L27.2338 65.5886C27.2357 66.4344 27.5536 67.2639 28.1315 67.8401C28.9123 68.6089 29.952 68.8882 31.5231 68.8882H31.5407H32.3369C33.7757 68.8895 34.8079 68.5341 35.4727 67.8179C36.1362 67.1014 36.402 66.0655 36.402 64.7772V61.4099L36.4016 61.3904Z" fill="white"/>
<path id="Vector_7" d="M70.6674 65.5788V65.5527C70.6734 64.9792 70.8481 64.6208 71.1774 64.3688C71.5219 64.1063 72.1023 63.9366 72.9708 63.9366H72.9785H75.8996V64.8462C75.8968 65.7385 75.7013 66.2314 75.4384 66.4617C74.805 67.045 74.0206 67.1329 73.0646 67.1351H73.0541H73.037C72.1163 67.136 71.5121 66.9768 71.1693 66.7283C70.8433 66.4934 70.6756 66.1577 70.6674 65.5788ZM77.8665 61.4078V61.4001C77.8669 60.2687 77.4902 59.2994 76.6999 58.6513C75.905 57.9988 74.7629 57.6919 73.2934 57.6914H73.2399H73.2199C71.6761 57.6875 70.4505 58.0227 69.5175 59.0143L69.5136 59.0111L69.4601 59.075C69.39 59.1523 69.321 59.2329 69.254 59.318C69.2535 59.3189 69.2531 59.3197 69.2526 59.3208L69.1571 59.4338C69.1 59.5012 69.072 59.5922 69.0838 59.6836C69.0938 59.7755 69.1404 59.8638 69.2115 59.9253L69.2653 59.9719C69.2862 59.9963 69.3088 60.0194 69.3341 60.0406L69.5429 60.2117L70.0982 60.6915C70.1693 60.753 70.263 60.7864 70.3537 60.782C70.4442 60.7783 70.5288 60.7371 70.5859 60.6693L70.9423 60.2465C71.1647 60.0057 71.393 59.8343 71.6689 59.7138C72.0583 59.5433 72.5582 59.4632 73.2801 59.4568L73.2887 59.4564L73.3132 59.4555C74.3403 59.4578 74.9793 59.6668 75.3453 59.9872C75.7103 60.3026 75.895 60.7796 75.8982 61.5209C75.8982 61.5259 75.8982 61.539 75.8996 61.5557V62.255H72.8499C71.6194 62.2577 70.5905 62.535 69.8477 63.1139C69.11 63.6796 68.6988 64.5507 68.6982 65.5652L68.6988 65.6036C68.7006 66.4492 69.0184 67.2777 69.5964 67.8533C70.3771 68.6217 71.417 68.901 72.9881 68.901H73.0056H73.802C75.2407 68.9023 76.2727 68.547 76.9376 67.831C77.6011 67.1156 77.8669 66.0803 77.8669 64.7928V61.4273L77.8665 61.4078Z" fill="white"/>
<path id="Vector_8" d="M18.0789 57.7114H16.0699L16.0692 55.6767H16.0682L16.0677 54.6921C16.0677 54.5155 15.9129 54.3711 15.7217 54.3711H14.5139C14.423 54.3711 14.3332 54.405 14.2698 54.4648C14.205 54.525 14.167 54.6083 14.167 54.6921V56.5062H14.1679V66.0439C14.1688 66.8187 14.3921 67.5161 14.883 68.0446C15.3508 68.556 16.1089 68.875 16.9849 68.875H16.988H17.5699V68.8678H18.0789C18.1673 68.8678 18.2537 68.8293 18.3155 68.7624C18.3783 68.6954 18.4141 68.6023 18.4141 68.5071V67.3283C18.4141 67.2341 18.3783 67.1409 18.3155 67.0735C18.2537 67.0057 18.1673 66.968 18.0789 66.968H17.1452C16.9562 66.9608 16.8045 66.9377 16.6723 66.8911C16.588 66.8621 16.536 66.8296 16.4875 66.7987C16.4341 66.7612 16.4046 66.7431 16.3522 66.6883C16.1723 66.5005 16.0727 66.2032 16.0699 65.7601V59.6116H18.0789C18.1673 59.6116 18.2537 59.5731 18.3155 59.5061C18.3783 59.4386 18.4141 59.3455 18.4141 59.2509V58.0716C18.4141 57.9775 18.3783 57.8846 18.3155 57.8168C18.2537 57.7489 18.1673 57.7114 18.0789 57.7114Z" fill="white"/>
<path id="Vector_9" d="M26.7407 59.1049L26.6293 58.981C26.6248 58.9663 26.6166 58.9529 26.603 58.9388L26.5356 58.8696L26.4431 58.7736L26.367 58.689L26.3639 58.6922C25.6805 57.9736 24.8299 57.6709 23.9243 57.6699C23.9057 57.6699 23.8839 57.6704 23.8532 57.6709C23.21 57.6709 22.4509 57.9597 21.9954 58.5076L21.6815 58.8801V58.7243V58.0474C21.6815 57.9586 21.6435 57.8713 21.577 57.8097C21.51 57.7464 21.4171 57.7101 21.3228 57.7101H20.1521C20.058 57.7101 19.9655 57.7464 19.8985 57.8097C19.8311 57.8713 19.7939 57.9586 19.7939 58.0474V58.7243V68.553C19.7939 68.6423 19.832 68.7291 19.8985 68.7911C19.965 68.8545 20.058 68.8906 20.1521 68.8906H20.3541C20.3605 68.8911 20.3673 68.8925 20.3736 68.8925H21.1113C21.1182 68.8925 21.1245 68.8911 21.1313 68.8906H21.3234C21.4171 68.8906 21.5094 68.8545 21.577 68.7911C21.6444 68.7291 21.6815 68.6423 21.6815 68.553V68.3711C21.6815 68.3688 21.682 68.3666 21.682 68.3644V62.1315C21.682 62.1234 21.6815 62.1157 21.6815 62.1074V61.6029C21.717 61.0237 21.9007 60.5019 22.2024 60.1231C22.5257 59.7187 22.9994 59.456 23.6385 59.4542C23.9766 59.4542 24.1991 59.4945 24.3917 59.5746C24.5772 59.6556 24.7666 59.7941 25.0152 60.0503L25.0715 60.1082L25.3259 60.3914C25.3857 60.4585 25.4731 60.4978 25.565 60.4986C25.6573 60.5006 25.7512 60.4643 25.8219 60.4001L26.6995 59.6019C26.7697 59.538 26.8145 59.448 26.8223 59.3543C26.8312 59.262 26.8004 59.1715 26.7407 59.1049Z" fill="white"/>
<path id="Vector_10" d="M56.2489 63.1438C56.2442 63.1402 56.2388 63.1376 56.2347 63.1344H56.2334C55.5496 62.6574 54.6836 62.4913 53.7512 62.4117L52.0031 62.2645C51.2758 62.2036 50.8251 62.0524 50.5633 61.8468C50.3414 61.6777 50.2038 61.4047 50.1997 60.9853V60.9758H50.1983L50.1997 60.954C50.2038 60.4577 50.3967 60.097 50.7396 59.8521C51.105 59.5887 51.691 59.4209 52.5197 59.42H52.5266H52.5278C53.5853 59.4218 54.4599 59.6683 55.1895 60.1367L55.1886 60.1382L55.632 60.4491C55.7027 60.4988 55.7932 60.5173 55.8801 60.497C55.9685 60.4781 56.0487 60.4232 56.1012 60.3472L56.7541 59.396C56.8068 59.3195 56.8295 59.2236 56.8167 59.1343C56.81 59.0851 56.7909 59.0389 56.7637 58.9986C56.7397 58.9524 56.7053 58.9109 56.66 58.8787L56.5849 58.8249C55.5427 58.0826 54.0894 57.6663 52.523 57.6641C51.2685 57.6646 50.1983 57.9659 49.4216 58.543C48.6513 59.1104 48.1985 59.9684 48.1979 60.945L48.1985 60.9586V60.965L48.1979 60.9912C48.1979 61.8547 48.5181 62.6176 49.1576 63.1376C49.8035 63.6657 50.7128 63.9471 51.8581 64.0394L53.6547 64.1847C54.3132 64.2449 54.7249 64.391 54.967 64.5938C55.1786 64.7654 55.3136 65.0374 55.315 65.4709V65.4944V65.498C55.31 66.0446 55.0899 66.4216 54.6787 66.6833C54.2375 66.9628 53.5201 67.1339 52.523 67.1339H52.5161C52.5125 67.1339 52.5061 67.1344 52.4975 67.1353H52.4885C51.1729 67.1289 50.2377 66.8334 49.5098 66.2324L49.1309 65.9122C49.0629 65.8546 48.9728 65.8275 48.8818 65.8396C48.7908 65.8514 48.7037 65.8995 48.6436 65.9723L47.8913 66.881C47.8305 66.9538 47.7989 67.0493 47.8043 67.1416C47.8084 67.2331 47.8505 67.319 47.9185 67.3761L48.2753 67.6779L48.274 67.6797C48.2812 67.6851 48.2884 67.6896 48.2954 67.6951L48.3419 67.7341L48.3452 67.7305C49.4497 68.5296 50.8281 68.912 52.5161 68.912H52.546C53.9377 68.9106 55.1121 68.6092 55.9689 68.0182C56.8158 67.4354 57.3207 66.5357 57.3195 65.498V65.4463C57.3212 64.4002 56.9156 63.6114 56.2489 63.1438Z" fill="white"/>
<path id="Vector_11" d="M99.3739 68.4202L97.9084 66.3535L94.9719 62.0688L97.254 59.6467L98.5828 58.2435L98.6634 58.1539C98.8169 57.9995 98.7418 57.839 98.6752 57.7773C98.6087 57.7141 98.5157 57.6774 98.4216 57.6774H96.8959C96.8052 57.6774 96.6875 57.7475 96.6209 57.8068C96.6195 57.8073 96.6223 57.8063 96.6209 57.8068L91.4975 63.2671V58.7041V54.6775C91.4975 54.5888 91.4589 54.5015 91.3928 54.4395C91.3257 54.3761 91.233 54.3398 91.1387 54.3398H89.9676C89.8738 54.3398 89.7814 54.3761 89.7145 54.4395C89.6465 54.5015 89.6094 54.5888 89.6094 54.6775V58.7041V68.5514C89.6094 68.6401 89.6475 68.728 89.7141 68.79C89.781 68.8528 89.8738 68.8895 89.9681 68.8895H91.1392C91.233 68.8895 91.3254 68.8528 91.3928 68.79C91.4604 68.728 91.4975 68.6401 91.4975 68.5514V65.7507L93.717 63.3468L95.2107 65.5804H95.2043L97.3043 68.7166C97.3536 68.7864 97.4312 68.8967 97.6063 68.8967H99.1321C99.2263 68.8967 99.3192 68.8601 99.3858 68.7966C99.4523 68.7346 99.4963 68.5745 99.3739 68.4202Z" fill="white"/>
<path id="Vector_12" d="M86.2578 54.4453H86.4646L86.7722 55.3499L87.0801 54.4453H87.2845V55.5157H87.1468V54.8825C87.1468 54.8603 87.1477 54.8268 87.1477 54.7744C87.1477 54.7236 87.1508 54.6721 87.1508 54.6128L86.8438 55.5157H86.6993L86.3928 54.6128V54.6445V54.7633C86.395 54.82 86.395 54.8585 86.395 54.8825V55.5157H86.2578V54.4453Z" fill="white"/>
<path id="Vector_13" d="M88.3771 54.9346C88.4423 54.9346 88.4953 54.9219 88.5356 54.8942C88.571 54.8694 88.5927 54.82 88.5927 54.7463C88.5927 54.6721 88.5668 54.6187 88.5107 54.5906C88.4812 54.5756 88.4423 54.5688 88.3956 54.5688H88.0488V54.9346H88.3771ZM87.9043 54.4453H88.3934C88.4736 54.4453 88.541 54.4566 88.5908 54.4811C88.6905 54.5249 88.7389 54.6092 88.7389 54.7327C88.7389 54.7964 88.728 54.849 88.7004 54.8907C88.6718 54.93 88.6352 54.9653 88.5868 54.9898C88.6289 55.0078 88.6634 55.0287 88.6841 55.0562C88.7036 55.0838 88.7154 55.1304 88.7154 55.1925L88.7236 55.3336C88.7236 55.3761 88.7289 55.4061 88.733 55.4264C88.7431 55.4582 88.758 55.4802 88.7806 55.4893V55.5157H88.6031C88.598 55.5042 88.5958 55.4935 88.5908 55.4802C88.5868 55.4653 88.5858 55.4373 88.5849 55.3956L88.575 55.2165C88.57 55.1454 88.5469 55.0984 88.4994 55.0753C88.4736 55.0625 88.4279 55.0562 88.3708 55.0562H88.0488V55.5157H87.9043V54.4453Z" fill="white"/>
<path id="Vector_14" d="M87.5999 55.5104C87.5587 55.5104 87.5303 55.4797 87.5303 55.4326C87.5303 55.3855 87.5596 55.3535 87.6045 55.3535C87.6466 55.3535 87.6769 55.3855 87.6769 55.4326C87.6769 55.4797 87.6466 55.5104 87.5999 55.5104Z" fill="white"/>
<path id="Vector_15" d="M89.066 55.5104C89.0234 55.5104 88.9922 55.4797 88.9922 55.4326C88.9922 55.3855 89.0234 55.3535 89.0678 55.3535C89.1126 55.3535 89.1417 55.3855 89.1417 55.4326C89.1417 55.4797 89.1126 55.5104 89.0669 55.5104H89.066Z" fill="white"/>
</g>
<g id="Group_5">
<path id="Vector_16" d="M111.825 27.6318V27.7022V27.71V27.7838C111.816 30.9596 111.479 34.0628 110.27 36.2835C109.082 38.4203 107.171 39.8472 103.461 39.9039C103.437 39.9005 103.397 39.9005 103.322 39.9039H103.261C99.5256 39.8664 97.5903 38.4362 96.3962 36.2802C95.1772 34.0502 94.8355 30.921 94.8355 27.726V27.5331C94.8389 24.3584 95.1772 21.8111 96.3962 19.5915C97.5903 17.4341 99.5256 16.0028 103.261 15.9687H103.286H103.347H103.404C107.142 16.0028 109.07 17.432 110.275 19.5959C111.485 21.8111 111.825 24.3584 111.825 27.5331V27.6318ZM112.876 14.1881C112.857 14.1655 112.838 14.1416 112.813 14.1189C110.79 12.2543 107.555 11.0997 103.806 11.0962C103.756 11.0895 103.678 11.0895 103.605 11.0895C100.522 11.0884 97.4813 11.7314 94.8389 13.9919L94.8355 13.9941V12.0104H94.8412V1.96143C94.8412 1.69602 94.7277 1.43511 94.529 1.25017C94.3303 1.06187 94.0534 0.953125 93.7708 0.953125H90.2702C89.9921 0.953125 89.7163 1.06187 89.5143 1.25017C89.3134 1.43511 89.2021 1.69602 89.2021 1.96143V12.0104H89.2044V33.3437H89.2021V43.3383C89.2021 43.6036 89.3168 43.8646 89.5143 44.0482C89.7152 44.2377 89.9921 44.3455 90.2736 44.3455H93.7719C94.0534 44.3455 94.3292 44.2377 94.529 44.0482C94.7322 43.8646 94.8435 43.6036 94.8435 43.3383V41.2717C97.1783 43.8816 100.53 44.781 103.605 44.7798H103.821C107.561 44.7673 110.796 43.6128 112.813 41.7503C116.583 38.1833 117.445 32.7154 117.457 27.633C117.447 22.5779 116.583 17.7416 112.876 14.1881Z" fill="white"/>
<path id="Vector_17" d="M144.068 28.3111C144.068 31.4857 143.728 34.0331 142.518 36.2483C141.313 38.4123 139.385 39.8415 135.647 39.8754H135.59H135.529H135.504C131.769 39.8415 129.833 38.4101 128.639 36.2529C127.42 34.0331 127.082 31.4857 127.079 28.3111V28.1183C127.079 24.9233 127.42 21.794 128.639 19.5642C129.833 17.408 131.769 15.9778 135.504 15.9404H135.565C135.64 15.9438 135.68 15.9438 135.704 15.9404C139.415 15.9971 141.325 17.4239 142.513 19.5608C143.722 21.7816 144.059 24.8847 144.068 28.0606V28.1342V28.1422V28.2125V28.3111ZM145.119 41.6562C148.826 38.1026 149.69 33.2665 149.7 28.2114C149.688 23.129 148.826 17.661 145.056 14.0939C143.039 12.2315 139.804 11.0769 136.064 11.0645H135.848C132.773 11.0633 129.421 11.9627 127.087 14.5726V12.506C127.087 12.2406 126.975 11.9797 126.772 11.796C126.572 11.6066 126.297 11.4989 126.015 11.4989H122.517C122.235 11.4989 121.958 11.6066 121.757 11.796C121.56 11.9797 121.445 12.2406 121.445 12.506V22.5006H121.448V43.8339H121.445V53.8829C121.445 54.1483 121.557 54.4092 121.757 54.594C121.96 54.7823 122.235 54.8912 122.513 54.8912H126.014C126.297 54.8912 126.574 54.7823 126.772 54.594C126.971 54.4092 127.084 54.1483 127.084 53.8829V43.8339H127.079V41.8502L127.082 41.8524C129.725 44.1129 132.765 44.756 135.848 44.7548C135.921 44.7548 135.999 44.7548 136.049 44.748C139.798 44.7446 143.033 43.5899 145.056 41.7254C145.081 41.7027 145.1 41.6789 145.119 41.6562Z" fill="white"/>
<path id="Vector_18" d="M195.341 47.3972C195.033 48.2303 194.481 49.5748 194.112 50.3829C194.112 50.3829 193.446 51.8472 192.503 52.7918C191.64 53.6532 190.655 54.2481 189.544 54.5775C188.436 54.9056 187.707 54.9568 187.707 54.9568C186.82 55.0183 185.525 55.0696 184.831 55.0696C184.136 55.0696 183.567 54.3426 183.567 53.455V51.0813C183.567 50.1937 183.929 49.4667 184.369 49.4667C184.81 49.4667 185.894 49.3914 186.777 49.3002C186.777 49.3002 187.45 49.2296 188.066 48.7578C188.683 48.2839 188.995 47.6047 188.995 47.6047C189.365 46.7967 189.911 45.4509 190.208 44.6134L190.854 42.788C191.151 41.9503 191.143 40.5829 190.838 39.7488L181.043 12.9953C180.737 12.1611 181.215 11.4785 182.104 11.4785H185.526C186.415 11.4785 187.376 12.1668 187.661 13.0077L194.078 31.9294C194.364 32.7715 194.825 32.7693 195.105 31.926L201.361 13.0124C201.64 12.1679 202.596 11.4785 203.485 11.4785H206.968C207.857 11.4785 208.333 12.1599 208.026 12.994L195.341 47.3972Z" fill="white"/>
<path id="Vector_19" d="M158.043 34.6926V34.6155C158.061 32.9223 158.577 31.8644 159.55 31.1194C160.566 30.3452 162.28 29.8443 164.845 29.8443H164.867H173.493V32.53C173.485 35.1644 172.907 36.6205 172.132 37.3C170.261 39.0224 167.945 39.2816 165.122 39.2888H165.091H165.04C162.322 39.291 160.537 38.8216 159.525 38.087C158.562 37.3935 158.068 36.4021 158.043 34.6926ZM179.301 22.3766V22.3533C179.303 19.0137 178.19 16.1504 175.856 14.2365C173.509 12.3097 170.136 11.4048 165.797 11.4024H165.639H165.581C161.021 11.3907 157.403 12.3809 154.647 15.3085L154.636 15.2991L154.478 15.4882C154.271 15.716 154.068 15.9541 153.869 16.2052C153.868 16.2076 153.867 16.2111 153.866 16.2134L153.584 16.5474C153.415 16.747 153.332 17.0156 153.367 17.2853C153.396 17.5564 153.534 17.8167 153.744 17.9989L153.903 18.1366C153.964 18.209 154.032 18.2767 154.106 18.3387L154.722 18.8442L156.363 20.2607C156.572 20.4429 156.849 20.5421 157.117 20.5282C157.384 20.5177 157.633 20.3962 157.803 20.1953L158.854 18.947V18.9459C159.511 18.2359 160.185 17.7303 161 17.3742C162.15 16.8708 163.626 16.6349 165.758 16.6151L165.784 16.6139L165.855 16.6116C168.889 16.6186 170.776 17.2351 171.856 18.1822C172.934 19.1128 173.481 20.5223 173.489 22.7107C173.489 22.7246 173.489 22.7642 173.493 22.8133V24.8779H164.488C160.854 24.8861 157.816 25.7059 155.623 27.4142C153.445 29.0852 152.23 31.6565 152.229 34.6529L152.23 34.7661C152.236 37.2628 153.174 39.7091 154.881 41.4094C157.186 43.6782 160.257 44.5025 164.896 44.5025H164.947H167.299C171.548 44.5073 174.595 43.4574 176.559 41.3438C178.517 39.2314 179.303 36.1732 179.303 32.3724V22.4338L179.301 22.3766Z" fill="white"/>
<path id="Vector_20" d="M53.0456 11.541C52.1161 11.541 51.1499 12.2721 50.8961 13.1638L44.7778 34.7263C44.5244 35.6196 44.0793 35.6288 43.7888 34.747L36.6731 13.1435C36.3837 12.2625 35.3864 11.541 34.4571 11.541H33.1809C32.2522 11.541 31.2565 12.2626 30.9682 13.1448L23.9087 34.7458C23.6203 35.628 23.1747 35.6208 22.9198 34.7278L16.7467 13.1642C16.4911 12.2713 15.5216 11.541 14.5922 11.541H11.9925C11.0644 11.541 10.534 12.2648 10.8142 13.1495L20.2556 42.9048C20.5368 43.7883 21.5257 44.5134 22.4551 44.5134H24.2405C25.0696 44.5134 25.9635 43.8707 26.2268 43.0851L33.2846 22.0384C33.58 21.1585 34.0639 21.1585 34.3616 22.0374L41.4165 42.9144C41.7144 43.793 42.7176 44.5134 43.6458 44.5134H45.374C46.2342 44.5134 47.1494 43.8426 47.4079 43.0227L56.8262 13.1506C57.105 12.2648 56.5736 11.541 55.6453 11.541L53.0456 11.541Z" fill="white"/>
<path id="Vector_21" d="M85.2018 26.9869C85.2018 17.2006 80.0054 11.1211 71.6411 11.1211C63.1503 11.1211 58.0811 17.3896 58.0811 27.8886C58.0811 38.7005 63.1941 44.6559 72.4779 44.6559C78.2446 44.6559 81.3381 42.7229 84.4607 39.6044L84.876 39.1894L80.8908 35.6938L80.5259 36.0574C77.9815 38.5998 75.909 39.5003 72.6072 39.5003C67.1091 39.5003 63.995 36.0083 63.827 29.6614H85.2018V26.9869ZM63.85 25.0853C63.9659 23.0338 64.1142 22.1156 64.7421 20.5741C65.8963 17.8438 68.5398 16.1481 71.6411 16.1481C74.742 16.1481 77.3849 17.8426 78.5384 20.5696C79.1681 22.1156 79.3159 23.0338 79.4323 25.0853H63.85Z" fill="white"/>
<path id="Vector_22" d="M3.76428 18.3695C5.6178 18.3695 7.12287 16.8577 7.12287 14.993C7.12287 13.1283 5.6178 11.6152 3.76428 11.6152C1.91516 11.6152 0.410156 13.1283 0.410156 14.993C0.410156 16.8577 1.91516 18.3695 3.76428 18.3695Z" fill="#D00070"/>
<path id="Vector_23" d="M207.855 44.4956C209.709 44.4956 211.213 42.9836 211.213 41.1202C211.213 39.2543 209.709 37.7402 207.855 37.7402C206.005 37.7402 204.503 39.2543 204.503 41.1202C204.503 42.9836 206.005 44.4956 207.855 44.4956Z" fill="#D00070"/>
</g>
</g>
</g>
</g>
</svg>
