<svg width="33" height="32" viewBox="0 0 33 32" fill="none" xmlns="http://www.w3.org/2000/svg">
<g id="Icon / location-outline">
<path id="Vector" d="M16.0117 3C11.0392 3 7.00488 6.83687 7.00488 11.5625C7.00488 17 13.0094 25.6169 15.2142 28.5931C15.3057 28.7188 15.4257 28.821 15.5643 28.8915C15.7029 28.962 15.8562 28.9987 16.0117 28.9987C16.1672 28.9987 16.3205 28.962 16.4591 28.8915C16.5977 28.821 16.7176 28.7188 16.8092 28.5931C19.014 25.6181 25.0185 17.0044 25.0185 11.5625C25.0185 6.83687 20.9842 3 16.0117 3Z" stroke="white" stroke-width="2" stroke-linecap="round" stroke-linejoin="round"/>
<path id="Vector_2" d="M16.012 15C17.6701 15 19.0143 13.6569 19.0143 12C19.0143 10.3431 17.6701 9 16.012 9C14.3539 9 13.0098 10.3431 13.0098 12C13.0098 13.6569 14.3539 15 16.012 15Z" stroke="white" stroke-width="2" stroke-linecap="round" stroke-linejoin="round"/>
</g>
</svg>
