<svg width="32" height="33" viewBox="0 0 32 33" fill="none" xmlns="http://www.w3.org/2000/svg">
<g id="Icon / logo-linkedin">
<path id="Vector" d="M27.7606 2.58398H4.3925C3.11562 2.58398 2 3.50273 2 4.76461V28.1846C2 29.4534 3.11562 30.584 4.3925 30.584H27.7537C29.0375 30.584 30 29.4459 30 28.1846V4.76461C30.0075 3.50273 29.0375 2.58398 27.7606 2.58398ZM10.6794 25.9234H6.66813V13.4515H10.6794V25.9234ZM8.8125 11.5552H8.78375C7.5 11.5552 6.66875 10.5996 6.66875 9.40336C6.66875 8.18523 7.52188 7.25211 8.83438 7.25211C10.1469 7.25211 10.95 8.17836 10.9788 9.40336C10.9781 10.5996 10.1469 11.5552 8.8125 11.5552ZM25.3394 25.9234H21.3281V19.104C21.3281 17.4702 20.7444 16.354 19.2931 16.354C18.1844 16.354 17.5281 17.104 17.2362 17.8346C17.1269 18.0971 17.0975 18.4546 17.0975 18.8196V25.9234H13.0863V13.4515H17.0975V15.1871C17.6812 14.3559 18.5931 13.1596 20.715 13.1596C23.3481 13.1596 25.34 14.8952 25.34 18.6371L25.3394 25.9234Z" fill="#3365B4"/>
</g>
</svg>
