<svg width="33" height="32" viewBox="0 0 33 32" fill="none" xmlns="http://www.w3.org/2000/svg">
<g id="Icon / logo-instagram">
<path id="Vector" d="M22.3637 4.33313C23.9107 4.33774 25.393 4.95385 26.4868 6.04689C27.5807 7.13993 28.1973 8.62109 28.2019 10.1669V21.8331C28.1973 23.3789 27.5807 24.8601 26.4868 25.9531C25.393 27.0462 23.9107 27.6623 22.3637 27.6669H10.6887C9.14172 27.6623 7.65944 27.0462 6.56558 25.9531C5.47171 24.8601 4.85513 23.3789 4.85051 21.8331V10.1669C4.85513 8.62109 5.47171 7.13993 6.56558 6.04689C7.65944 4.95385 9.14172 4.33774 10.6887 4.33313H22.3637ZM22.3637 2H10.6887C6.1934 2 2.51562 5.675 2.51562 10.1669V21.8331C2.51562 26.325 6.1934 30 10.6887 30H22.3637C26.859 30 30.5368 26.325 30.5368 21.8331V10.1669C30.5368 5.675 26.859 2 22.3637 2Z" fill="white"/>
<path id="Vector_2" d="M24.1147 10.166C23.7683 10.166 23.4297 10.0634 23.1417 9.87109C22.8537 9.6788 22.6292 9.40548 22.4967 9.08571C22.3641 8.76594 22.3294 8.41408 22.397 8.07461C22.4646 7.73514 22.6314 7.42332 22.8763 7.17858C23.1212 6.93384 23.4333 6.76717 23.773 6.69964C24.1127 6.63212 24.4649 6.66677 24.7849 6.79923C25.1049 6.93168 25.3784 7.15598 25.5708 7.44377C25.7633 7.73155 25.866 8.0699 25.866 8.41602C25.8665 8.64597 25.8215 8.87375 25.7337 9.0863C25.6458 9.29884 25.5169 9.49195 25.3541 9.65456C25.1914 9.81716 24.9982 9.94604 24.7855 10.0338C24.5727 10.1216 24.3448 10.1665 24.1147 10.166ZM16.5258 11.3323C17.4495 11.3323 18.3525 11.606 19.1205 12.1188C19.8886 12.6316 20.4872 13.3604 20.8407 14.2132C21.1942 15.066 21.2867 16.0043 21.1065 16.9096C20.9263 17.8149 20.4814 18.6464 19.8283 19.2991C19.1751 19.9518 18.3429 20.3963 17.437 20.5763C16.531 20.7564 15.5919 20.664 14.7385 20.3108C13.8851 19.9575 13.1557 19.3594 12.6425 18.5919C12.1293 17.8245 11.8554 16.9222 11.8554 15.9991C11.8567 14.7618 12.3492 13.5755 13.2248 12.7006C14.1004 11.8257 15.2875 11.3336 16.5258 11.3323ZM16.5258 8.99914C15.1403 8.99914 13.7859 9.40968 12.6339 10.1789C11.4819 10.948 10.584 12.0413 10.0538 13.3204C9.52354 14.5994 9.38481 16.0069 9.65512 17.3648C9.92542 18.7226 10.5926 19.9699 11.5723 20.9489C12.552 21.9279 13.8002 22.5945 15.1591 22.8646C16.518 23.1347 17.9266 22.9961 19.2066 22.4663C20.4867 21.9365 21.5807 21.0393 22.3505 19.8881C23.1202 18.737 23.5311 17.3836 23.5311 15.9991C23.5311 14.1426 22.793 12.3621 21.4793 11.0494C20.1655 9.73664 18.3837 8.99914 16.5258 8.99914Z" fill="white"/>
</g>
</svg>
