<svg width="32" height="33" viewBox="0 0 32 33" fill="none" xmlns="http://www.w3.org/2000/svg">
<g id="Icon / logo-instagram">
<path id="Vector" d="M21.8331 4.91711C23.3789 4.92173 24.8601 5.53783 25.9531 6.63087C27.0462 7.72392 27.6623 9.20507 27.6669 10.7509V22.4171C27.6623 23.9629 27.0462 25.4441 25.9531 26.5371C24.8601 27.6301 23.3789 28.2462 21.8331 28.2509H10.1669C8.62109 28.2462 7.13993 27.6301 6.04689 26.5371C4.95385 25.4441 4.33774 23.9629 4.33313 22.4171V10.7509C4.33774 9.20507 4.95385 7.72392 6.04689 6.63087C7.13993 5.53783 8.62109 4.92173 10.1669 4.91711H21.8331ZM21.8331 2.58398H10.1669C5.675 2.58398 2 6.25898 2 10.7509V22.4171C2 26.909 5.675 30.584 10.1669 30.584H21.8331C26.325 30.584 30 26.909 30 22.4171V10.7509C30 6.25898 26.325 2.58398 21.8331 2.58398Z" fill="#3365B4"/>
<path id="Vector_2" d="M23.5831 10.75C23.237 10.75 22.8987 10.6474 22.6109 10.4551C22.3231 10.2628 22.0988 9.98947 21.9663 9.6697C21.8339 9.34993 21.7992 8.99806 21.8668 8.65859C21.9343 8.31913 22.101 8.00731 22.3457 7.76256C22.5904 7.51782 22.9023 7.35115 23.2417 7.28363C23.5812 7.2161 23.9331 7.25076 24.2528 7.38321C24.5726 7.51566 24.8459 7.73997 25.0382 8.02775C25.2305 8.31554 25.3331 8.65388 25.3331 9C25.3336 9.22995 25.2887 9.45774 25.2009 9.67028C25.1132 9.88282 24.9843 10.0759 24.8217 10.2385C24.6591 10.4011 24.466 10.53 24.2534 10.6178C24.0409 10.7056 23.8131 10.7505 23.5831 10.75ZM16 11.9163C16.923 11.9163 17.8253 12.19 18.5928 12.7028C19.3602 13.2156 19.9584 13.9444 20.3116 14.7972C20.6649 15.65 20.7573 16.5883 20.5772 17.4936C20.3971 18.3989 19.9527 19.2304 19.3 19.8831C18.6473 20.5358 17.8158 20.9803 16.9105 21.1603C16.0052 21.3404 15.0668 21.248 14.2141 20.8948C13.3613 20.5415 12.6324 19.9434 12.1196 19.1759C11.6068 18.4084 11.3331 17.5061 11.3331 16.5831C11.3345 15.3458 11.8266 14.1595 12.7015 13.2846C13.5764 12.4097 14.7627 11.9176 16 11.9163ZM16 9.58313C14.6155 9.58313 13.2622 9.99367 12.111 10.7628C10.9599 11.532 10.0627 12.6253 9.53285 13.9043C9.00303 15.1834 8.86441 16.5909 9.13451 17.9488C9.4046 19.3066 10.0713 20.5539 11.0503 21.5329C12.0292 22.5118 13.2765 23.1785 14.6344 23.4486C15.9922 23.7187 17.3997 23.5801 18.6788 23.0503C19.9579 22.5205 21.0511 21.6233 21.8203 20.4721C22.5895 19.321 23 17.9676 23 16.5831C23 14.7266 22.2625 12.9461 20.9498 11.6334C19.637 10.3206 17.8565 9.58313 16 9.58313Z" fill="#3365B4"/>
</g>
</svg>
