<svg width="33" height="32" viewBox="0 0 33 32" fill="none" xmlns="http://www.w3.org/2000/svg">
<g id="Icon / logo-linkedin">
<path id="Vector" d="M28.3367 2H4.95095C3.67311 2 2.55664 2.91875 2.55664 4.18062V27.6006C2.55664 28.8694 3.67311 30 4.95095 30H28.3299C29.6146 30 30.5778 28.8619 30.5778 27.6006V4.18062C30.5853 2.91875 29.6146 2 28.3367 2ZM11.2426 25.3394H7.2283V12.8675H11.2426V25.3394ZM9.37429 10.9712H9.34552C8.0608 10.9712 7.22892 10.0156 7.22892 8.81938C7.22892 7.60125 8.08269 6.66813 9.39618 6.66813C10.7097 6.66813 11.5134 7.59438 11.5422 8.81938C11.5416 10.0156 10.7097 10.9712 9.37429 10.9712ZM25.9137 25.3394H21.8994V18.52C21.8994 16.8863 21.3152 15.77 19.8628 15.77C18.7533 15.77 18.0965 16.52 17.8044 17.2506C17.695 17.5131 17.6656 17.8706 17.6656 18.2356V25.3394H13.6513V12.8675H17.6656V14.6031C18.2497 13.7719 19.1623 12.5756 21.2858 12.5756C23.9209 12.5756 25.9143 14.3113 25.9143 18.0531L25.9137 25.3394Z" fill="white"/>
</g>
</svg>
