<svg width="191" height="58" viewBox="0 0 191 58" fill="none" xmlns="http://www.w3.org/2000/svg">
<path d="M41.3307 22.0883C41.1377 24.6905 39.1651 26.8133 36.9994 26.8133C34.8338 26.8133 32.8577 24.691 32.6682 22.0883C32.4713 19.3813 34.3908 17.3633 36.9994 17.3633C39.608 17.3633 41.5276 19.4305 41.3307 22.0883Z" stroke="#3365B4" stroke-width="1.5" stroke-linecap="round" stroke-linejoin="round"/>
<path d="M37.0009 29.9629C32.7189 29.9629 28.3729 32.3254 27.5686 36.7846C27.4717 37.3221 27.7758 37.8379 28.3384 37.8379H45.6634C46.2265 37.8379 46.5306 37.3221 46.4337 36.7846C45.6289 32.3254 41.2829 29.9629 37.0009 29.9629Z" stroke="#3365B4" stroke-width="1.5" stroke-miterlimit="10"/>
<path d="M52.75 29C52.75 20.3047 45.6953 13.25 37 13.25C28.3047 13.25 21.25 20.3047 21.25 29C21.25 37.6953 28.3047 44.75 37 44.75C45.6953 44.75 52.75 37.6953 52.75 29Z" stroke="#3365B4" stroke-width="1.5" stroke-miterlimit="10"/>
<path d="M67.7 36V22.16H69.24V36H67.7ZM73.8619 36H72.3619V26H73.8419V26.7C74.9219 26.1 75.9552 25.8 76.9419 25.8C78.2752 25.8 79.1685 26.16 79.6219 26.88C80.0885 27.6 80.3219 28.88 80.3219 30.72V36H78.8419V30.76C78.8419 29.3733 78.7019 28.4267 78.4219 27.92C78.1552 27.4 77.5752 27.14 76.6819 27.14C76.2552 27.14 75.8019 27.2067 75.3219 27.34C74.8552 27.46 74.4952 27.58 74.2419 27.7L73.8619 27.88V36ZM83.1041 36V26H84.6041V36H83.1041ZM83.1041 23.74V22H84.6041V23.74H83.1041ZM91.2191 25.8C91.6591 25.8 92.4057 25.88 93.4591 26.04L93.9391 26.1L93.8791 27.32C92.8124 27.2 92.0257 27.14 91.5191 27.14C90.3857 27.14 89.6124 27.4133 89.1991 27.96C88.7991 28.4933 88.5991 29.4933 88.5991 30.96C88.5991 32.4133 88.7857 33.4267 89.1591 34C89.5457 34.5733 90.3391 34.86 91.5391 34.86L93.8991 34.68L93.9591 35.92C92.7191 36.1067 91.7924 36.2 91.1791 36.2C89.6191 36.2 88.5391 35.8 87.9391 35C87.3524 34.2 87.0591 32.8533 87.0591 30.96C87.0591 29.0533 87.3791 27.72 88.0191 26.96C88.6591 26.1867 89.7257 25.8 91.2191 25.8ZM96.19 36V26H97.69V36H96.19ZM96.19 23.74V22H97.69V23.74H96.19ZM107.625 29.02V34.14C107.665 34.6333 108.052 34.9267 108.785 35.02L108.725 36.2C107.672 36.2 106.878 35.9333 106.345 35.4C105.145 35.9333 103.945 36.2 102.745 36.2C101.825 36.2 101.125 35.94 100.645 35.42C100.165 34.9 99.925 34.1533 99.925 33.18C99.925 32.2067 100.172 31.4933 100.665 31.04C101.158 30.5733 101.932 30.2867 102.985 30.18L106.125 29.88V29.02C106.125 28.34 105.978 27.8533 105.685 27.56C105.392 27.2667 104.992 27.12 104.485 27.12C103.418 27.12 102.312 27.1867 101.165 27.32L100.545 27.38L100.485 26.24C101.952 25.9467 103.252 25.8 104.385 25.8C105.518 25.8 106.338 26.06 106.845 26.58C107.365 27.1 107.625 27.9133 107.625 29.02ZM101.465 33.1C101.465 34.3267 101.972 34.94 102.985 34.94C103.892 34.94 104.785 34.7867 105.665 34.48L106.125 34.32V31.02L103.165 31.3C102.565 31.3533 102.132 31.5267 101.865 31.82C101.598 32.1133 101.465 32.54 101.465 33.1ZM110.585 36V26H112.065V27.36C113.225 26.56 114.445 26.0333 115.725 25.78V27.3C115.165 27.4067 114.578 27.5733 113.965 27.8C113.365 28.0267 112.905 28.2267 112.585 28.4L112.085 28.66V36H110.585ZM125.033 27.14C123.58 27.14 122.853 27.6467 122.853 28.66C122.853 29.1267 123.02 29.46 123.353 29.66C123.686 29.8467 124.446 30.0467 125.633 30.26C126.82 30.46 127.66 30.7467 128.153 31.12C128.646 31.4933 128.893 32.1933 128.893 33.22C128.893 34.2467 128.56 35 127.893 35.48C127.24 35.96 126.28 36.2 125.013 36.2C124.186 36.2 123.213 36.1067 122.093 35.92L121.493 35.82L121.573 34.52C123.093 34.7467 124.24 34.86 125.013 34.86C125.786 34.86 126.373 34.74 126.773 34.5C127.186 34.2467 127.393 33.8333 127.393 33.26C127.393 32.6733 127.22 32.28 126.873 32.08C126.526 31.8667 125.766 31.6667 124.593 31.48C123.42 31.2933 122.586 31.02 122.093 30.66C121.6 30.3 121.353 29.6333 121.353 28.66C121.353 27.6867 121.693 26.9667 122.373 26.5C123.066 26.0333 123.926 25.8 124.953 25.8C125.766 25.8 126.786 25.8933 128.013 26.08L128.573 26.18L128.533 27.46C127.053 27.2467 125.886 27.14 125.033 27.14ZM137.99 34.76L138.57 34.7L138.61 35.88C137.09 36.0933 135.79 36.2 134.71 36.2C133.27 36.2 132.25 35.7867 131.65 34.96C131.05 34.12 130.75 32.82 130.75 31.06C130.75 27.5533 132.143 25.8 134.93 25.8C136.277 25.8 137.283 26.18 137.95 26.94C138.617 27.6867 138.95 28.8667 138.95 30.48L138.87 31.62H132.27C132.27 32.7267 132.47 33.5467 132.87 34.08C133.27 34.6133 133.963 34.88 134.95 34.88C135.95 34.88 136.963 34.84 137.99 34.76ZM137.45 30.42C137.45 29.1933 137.25 28.3267 136.85 27.82C136.463 27.3133 135.823 27.06 134.93 27.06C134.05 27.06 133.383 27.3267 132.93 27.86C132.49 28.3933 132.263 29.2467 132.25 30.42H137.45ZM144.428 27.14C142.974 27.14 142.248 27.6467 142.248 28.66C142.248 29.1267 142.414 29.46 142.748 29.66C143.081 29.8467 143.841 30.0467 145.028 30.26C146.214 30.46 147.054 30.7467 147.548 31.12C148.041 31.4933 148.288 32.1933 148.288 33.22C148.288 34.2467 147.954 35 147.288 35.48C146.634 35.96 145.674 36.2 144.408 36.2C143.581 36.2 142.608 36.1067 141.488 35.92L140.888 35.82L140.968 34.52C142.488 34.7467 143.634 34.86 144.408 34.86C145.181 34.86 145.768 34.74 146.168 34.5C146.581 34.2467 146.788 33.8333 146.788 33.26C146.788 32.6733 146.614 32.28 146.268 32.08C145.921 31.8667 145.161 31.6667 143.988 31.48C142.814 31.2933 141.981 31.02 141.488 30.66C140.994 30.3 140.748 29.6333 140.748 28.66C140.748 27.6867 141.088 26.9667 141.768 26.5C142.461 26.0333 143.321 25.8 144.348 25.8C145.161 25.8 146.181 25.8933 147.408 26.08L147.968 26.18L147.928 27.46C146.448 27.2467 145.281 27.14 144.428 27.14ZM150.585 36V26H152.085V36H150.585ZM150.585 23.74V22H152.085V23.74H150.585ZM158.8 25.8C160.36 25.8 161.46 26.2067 162.1 27.02C162.753 27.8333 163.08 29.1533 163.08 30.98C163.08 32.8067 162.773 34.1333 162.16 34.96C161.546 35.7867 160.426 36.2 158.8 36.2C157.173 36.2 156.053 35.7867 155.44 34.96C154.826 34.1333 154.52 32.8067 154.52 30.98C154.52 29.1533 154.846 27.8333 155.5 27.02C156.153 26.2067 157.253 25.8 158.8 25.8ZM158.8 34.9C159.933 34.9 160.673 34.6133 161.02 34.04C161.366 33.4533 161.54 32.4267 161.54 30.96C161.54 29.4933 161.346 28.4867 160.96 27.94C160.573 27.38 159.853 27.1 158.8 27.1C157.76 27.1 157.04 27.38 156.64 27.94C156.253 28.4867 156.06 29.4933 156.06 30.96C156.06 32.4133 156.233 33.4333 156.58 34.02C156.94 34.6067 157.68 34.9 158.8 34.9ZM156.6 23.16L160.92 21.2L161.44 22.48L157.02 24.18L156.6 23.16ZM167.026 36H165.526V26H167.006V26.7C168.086 26.1 169.119 25.8 170.106 25.8C171.439 25.8 172.333 26.16 172.786 26.88C173.253 27.6 173.486 28.88 173.486 30.72V36H172.006V30.76C172.006 29.3733 171.866 28.4267 171.586 27.92C171.319 27.4 170.739 27.14 169.846 27.14C169.419 27.14 168.966 27.2067 168.486 27.34C168.019 27.46 167.659 27.58 167.406 27.7L167.026 27.88V36Z" fill="#3365B4"/>
</svg>
