<svg width="48" height="48" viewBox="0 0 48 48" fill="none" xmlns="http://www.w3.org/2000/svg">
<g id="Icon / eye-off-outline">
<path id="Vector" d="M40.4999 42.0002C40.3029 42.0005 40.1078 41.9618 39.9258 41.8864C39.7438 41.8109 39.5786 41.7001 39.4396 41.5605L6.4396 8.5605C6.17017 8.27691 6.02219 7.89928 6.02719 7.50814C6.0322 7.117 6.18981 6.74329 6.46641 6.46668C6.74301 6.19008 7.11673 6.03247 7.50787 6.02747C7.89901 6.02246 8.27664 6.17045 8.56023 6.43988L41.5602 39.4399C41.7699 39.6497 41.9126 39.9169 41.9704 40.2077C42.0283 40.4986 41.9986 40.8001 41.8851 41.0741C41.7716 41.3481 41.5795 41.5823 41.3329 41.7472C41.0864 41.912 40.7965 42.0001 40.4999 42.0002ZM23.968 36.0002C20.0784 36.0002 16.3274 34.8489 12.8193 32.5783C9.62523 30.5158 6.74992 27.5618 4.50367 24.0471V24.0396C6.37304 21.3611 8.42054 19.0961 10.6199 17.2699C10.6398 17.2532 10.656 17.2327 10.6676 17.2094C10.6791 17.1862 10.6857 17.1608 10.6869 17.1349C10.6882 17.109 10.684 17.0832 10.6747 17.0589C10.6655 17.0347 10.6513 17.0127 10.633 16.9943L8.76554 15.1296C8.73236 15.0961 8.68779 15.0764 8.64071 15.0743C8.59363 15.0722 8.54749 15.0879 8.51148 15.1183C6.17523 17.0871 4.00679 19.5021 2.03523 22.3296C1.69603 22.8164 1.50922 23.3931 1.49853 23.9864C1.48785 24.5796 1.65378 25.1627 1.97523 25.6614C4.45117 29.5361 7.63773 32.7996 11.189 35.0974C15.1874 37.6877 19.4905 39.0002 23.968 39.0002C26.3849 38.9927 28.7846 38.5944 31.0743 37.8208C31.1045 37.8106 31.1316 37.7928 31.153 37.7691C31.1744 37.7455 31.1895 37.7168 31.1967 37.6857C31.2039 37.6547 31.2031 37.6223 31.1943 37.5916C31.1855 37.5609 31.1691 37.533 31.1465 37.5105L29.1234 35.4874C29.0768 35.4419 29.0192 35.4094 28.9562 35.393C28.8933 35.3765 28.8271 35.3768 28.7643 35.3936C27.1975 35.7971 25.586 36.0009 23.968 36.0002ZM46.0162 22.3689C43.5355 18.5327 40.3171 15.2739 36.7096 12.9443C32.7187 10.3643 28.3124 9.00019 23.968 9.00019C21.5768 9.00443 19.2034 9.41105 16.9471 10.203C16.917 10.2135 16.8901 10.2314 16.8689 10.2551C16.8477 10.2789 16.8329 10.3076 16.8259 10.3387C16.8188 10.3697 16.8198 10.402 16.8287 10.4326C16.8376 10.4631 16.8542 10.4909 16.8768 10.5133L18.8971 12.5336C18.9441 12.5799 19.0025 12.6129 19.0664 12.6293C19.1303 12.6458 19.1973 12.6451 19.2609 12.6274C20.7955 12.2122 22.3782 12.0013 23.968 12.0002C27.7827 12.0002 31.5224 13.1655 35.0821 15.4689C38.3362 17.5689 41.2452 20.5202 43.4971 24.0002C43.4988 24.0023 43.4997 24.005 43.4997 24.0077C43.4997 24.0104 43.4988 24.013 43.4971 24.0152C41.8625 26.5886 39.8341 28.8894 37.4859 30.8336C37.4657 30.8502 37.4493 30.8708 37.4376 30.8941C37.4259 30.9173 37.4192 30.9428 37.4178 30.9688C37.4165 30.9948 37.4206 31.0208 37.4299 31.0452C37.4392 31.0695 37.4535 31.0917 37.4718 31.1102L39.3374 32.9749C39.3704 33.0082 39.4147 33.028 39.4616 33.0302C39.5085 33.0325 39.5545 33.0171 39.5905 32.9871C42.0974 30.8763 44.2674 28.3952 46.0255 25.6296C46.3363 25.1422 46.5006 24.5759 46.499 23.9979C46.4973 23.4199 46.3297 22.8545 46.0162 22.3689Z" fill="black"/>
<path id="Vector_2" d="M23.9999 15C23.3258 14.9996 22.6538 15.0751 21.9965 15.225C21.9633 15.2319 21.9326 15.2477 21.9077 15.2706C21.8827 15.2936 21.8644 15.3229 21.8548 15.3554C21.8452 15.3879 21.8446 15.4224 21.853 15.4553C21.8615 15.4881 21.8787 15.518 21.9028 15.5419L32.4581 26.0944C32.4819 26.1185 32.5119 26.1357 32.5447 26.1441C32.5775 26.1525 32.612 26.1519 32.6446 26.1423C32.6771 26.1327 32.7064 26.1144 32.7293 26.0895C32.7523 26.0645 32.7681 26.0338 32.7749 26.0006C33.0755 24.6825 33.0752 23.3137 32.7741 21.9957C32.473 20.6778 31.8789 19.4446 31.0359 18.3877C30.1929 17.3308 29.1226 16.4775 27.9045 15.891C26.6864 15.3045 25.3519 15 23.9999 15ZM15.5418 21.9056C15.518 21.8815 15.488 21.8643 15.4552 21.8559C15.4224 21.8475 15.3878 21.8481 15.3553 21.8577C15.3228 21.8673 15.2935 21.8856 15.2706 21.9105C15.2476 21.9355 15.2318 21.9662 15.2249 21.9994C14.885 23.4847 14.9276 25.032 15.349 26.4964C15.7704 27.9607 16.5566 29.294 17.6341 30.3715C18.7115 31.4489 20.0449 32.2352 21.5092 32.6566C22.9735 33.0779 24.5209 33.1206 26.0062 32.7806C26.0394 32.7737 26.0701 32.758 26.095 32.735C26.12 32.712 26.1383 32.6827 26.1479 32.6502C26.1575 32.6177 26.1581 32.5832 26.1497 32.5504C26.1412 32.5175 26.124 32.4876 26.0999 32.4638L15.5418 21.9056Z" fill="black"/>
</g>
</svg>
