<svg width="36" height="32" viewBox="0 0 36 32" fill="none" xmlns="http://www.w3.org/2000/svg">
<path id="Vector" d="M33.3106 9.51473C33.0409 9.40915 32.7535 9.35534 32.4637 9.35613H32.4333C30.9025 9.37879 29.1858 10.8054 28.285 12.963C27.205 15.5443 27.7021 18.1853 29.4036 18.8642C29.6731 18.9698 29.9602 19.0236 30.2499 19.0228C31.7882 19.0228 33.5284 17.5879 34.4369 15.4159C35.5092 12.8346 35.0046 10.1937 33.3106 9.51473ZM23.4339 19.5877C21.3241 16.1039 20.4134 14.7936 18 14.7936C15.5866 14.7936 14.6683 16.1122 12.5584 19.5877C10.7522 22.5602 7.10171 22.8079 6.191 25.3326C6.00624 25.795 5.91345 26.2887 5.91778 26.7863C5.91778 28.8397 7.49636 30.502 9.43922 30.502C11.8526 30.502 15.1312 30.502 18 30.502C20.8687 30.502 24.1473 30.502 26.5607 30.502C28.5036 30.502 30.0745 28.8405 30.0745 26.7863C30.0763 26.2882 29.9809 25.7945 29.7937 25.3326C28.883 22.7988 25.2402 22.5602 23.4339 19.5877ZM13.1815 11.4707C13.2831 11.4708 13.3846 11.4632 13.4851 11.4481C15.2466 11.1936 16.3462 8.7648 15.947 6.02189C15.5714 3.43606 13.9943 1.50197 12.3452 1.50197C12.2435 1.50188 12.1421 1.50946 12.0416 1.52462C10.2801 1.77913 9.18042 4.20788 9.57962 6.95079C9.95529 9.52907 11.5324 11.4707 13.1815 11.4707ZM26.418 6.95079C26.8172 4.20788 25.7175 1.77913 23.956 1.52462C23.8556 1.50946 23.7541 1.50188 23.6525 1.50197C22.0033 1.50197 20.4293 3.43606 20.0529 6.02189C19.6537 8.7648 20.7534 11.1936 22.5148 11.4481C22.6153 11.4632 22.7168 11.4708 22.8184 11.4707C24.4676 11.4707 26.0446 9.52907 26.418 6.95079ZM6.59854 18.8642C8.29779 18.1845 8.79413 15.5413 7.71569 12.963C6.80801 10.791 5.0693 9.35613 3.53322 9.35613C3.24362 9.35534 2.95649 9.40915 2.68702 9.51473C0.98777 10.1944 0.491429 12.8376 1.56987 15.4159C2.47755 17.5879 4.21626 19.0228 5.75234 19.0228C6.04194 19.0236 6.32907 18.9698 6.59854 18.8642Z" stroke="#BFBFBF" stroke-width="1.5" stroke-miterlimit="10"/>
</svg>
