<svg width="36" height="31" viewBox="0 0 36 31" fill="none" xmlns="http://www.w3.org/2000/svg">
<path id="Vector" d="M33.3106 9.26473C33.0409 9.15915 32.7535 9.10534 32.4637 9.10613H32.4333C30.9025 9.12879 29.1858 10.5554 28.285 12.713C27.205 15.2943 27.7021 17.9353 29.4036 18.6142C29.6731 18.7198 29.9602 18.7736 30.2499 18.7728C31.7882 18.7728 33.5284 17.3379 34.4369 15.1659C35.5092 12.5846 35.0046 9.94366 33.3106 9.26473ZM23.4339 19.3377C21.3241 15.8539 20.4134 14.5436 18 14.5436C15.5866 14.5436 14.6683 15.8622 12.5584 19.3377C10.7522 22.3102 7.10171 22.5579 6.191 25.0826C6.00624 25.545 5.91345 26.0387 5.91778 26.5363C5.91778 28.5897 7.49636 30.252 9.43922 30.252C11.8526 30.252 15.1312 30.252 18 30.252C20.8687 30.252 24.1473 30.252 26.5607 30.252C28.5036 30.252 30.0745 28.5905 30.0745 26.5363C30.0763 26.0382 29.9809 25.5445 29.7937 25.0826C28.883 22.5488 25.2402 22.3102 23.4339 19.3377ZM13.1815 11.2207C13.2831 11.2208 13.3846 11.2132 13.4851 11.1981C15.2466 10.9436 16.3462 8.5148 15.947 5.77189C15.5714 3.18606 13.9943 1.25197 12.3452 1.25197C12.2435 1.25188 12.1421 1.25946 12.0416 1.27462C10.2801 1.52913 9.18042 3.95788 9.57962 6.70079C9.95529 9.27907 11.5324 11.2207 13.1815 11.2207ZM26.418 6.70079C26.8172 3.95788 25.7175 1.52913 23.956 1.27462C23.8556 1.25946 23.7541 1.25188 23.6525 1.25197C22.0033 1.25197 20.4293 3.18606 20.0529 5.77189C19.6537 8.5148 20.7534 10.9436 22.5148 11.1981C22.6153 11.2132 22.7168 11.2208 22.8184 11.2207C24.4676 11.2207 26.0446 9.27907 26.418 6.70079ZM6.59854 18.6142C8.29779 17.9345 8.79413 15.2913 7.71569 12.713C6.80801 10.541 5.0693 9.10613 3.53322 9.10613C3.24362 9.10534 2.95649 9.15915 2.68702 9.26473C0.98777 9.94441 0.491429 12.5876 1.56987 15.1659C2.47755 17.3379 4.21626 18.7728 5.75234 18.7728C6.04194 18.7736 6.32907 18.7198 6.59854 18.6142Z" stroke="#3365B4" stroke-width="1.5" stroke-miterlimit="10"/>
</svg>
