<svg width="26" height="26" viewBox="0 0 26 26" fill="none" xmlns="http://www.w3.org/2000/svg">
<path d="M3.7583 8.11117V8.11117C3.7583 4.18378 6.94208 1 10.8695 1L15.13 1C19.0574 1 22.2412 4.18378 22.2412 8.11117V8.11117" stroke="#BFBFBF" stroke-width="1.5"/>
<path d="M1.00001 22.0374L1.00001 10.4562C1.00001 9.16115 2.04983 8.11133 3.34485 8.11133V8.11133C4.63987 8.11133 5.6897 9.15974 5.6897 10.4548C5.6897 12.8494 5.6897 16.5996 5.6897 19.3707" stroke="#BFBFBF" stroke-width="1.5"/>
<path d="M20.3103 19.3707V19.25L20.3103 10.4562C20.3103 9.16115 21.3601 8.11133 22.6552 8.11133V8.11133C23.9502 8.11133 25 9.16115 25 10.4562L25 22.1855" stroke="#BFBFBF" stroke-width="1.5"/>
<path d="M22.1851 25L3.81459 25C2.26 25 0.999756 23.7398 0.999756 22.1852C0.999756 20.6306 2.26 19.3704 3.81459 19.3704L22.1851 19.3704C23.7397 19.3704 24.9999 20.6306 24.9999 22.1852C24.9999 23.7398 23.7397 25 22.1851 25Z" stroke="#BFBFBF" stroke-width="1.5"/>
</svg>
