<svg width="100" height="100" viewBox="0 0 144 144" fill="none" xmlns="http://www.w3.org/2000/svg">
  <path d="M86.8482 48.2996C86.1867 57.2214 79.4232 64.4996 71.9982 64.4996C64.5732 64.4996 57.7979 57.2231 57.1482 48.2996C56.4732 39.0184 63.0544 32.0996 71.9982 32.0996C80.9419 32.0996 87.5232 39.1871 86.8482 48.2996Z" stroke="white" stroke-width="1.5" stroke-linecap="round" stroke-linejoin="round"/>
  <path d="M72 75.3008C57.3188 75.3008 42.4181 83.4008 39.6608 98.6895C39.3283 100.532 40.3712 102.301 42.3 102.301H101.7C103.631 102.301 104.673 100.532 104.341 98.6895C101.582 83.4008 86.6813 75.3008 72 75.3008Z" stroke="white" stroke-width="1.5" stroke-miterlimit="10"/>
  <path d="M126 72C126 42.1875 101.812 18 72 18C42.1875 18 18 42.1875 18 72C18 101.812 42.1875 126 72 126C101.812 126 126 101.812 126 72Z" stroke="white" stroke-width="1.5" stroke-miterlimit="10"/>
</svg>
