<svg width="40" height="40" viewBox="0 0 40 40" fill="none" xmlns="http://www.w3.org/2000/svg">
<g id="Icon / wallet-outline">
<path id="Vector" d="M32.5 11.25H7.5C5.42893 11.25 3.75 12.9289 3.75 15V30C3.75 32.0711 5.42893 33.75 7.5 33.75H32.5C34.5711 33.75 36.25 32.0711 36.25 30V15C36.25 12.9289 34.5711 11.25 32.5 11.25Z" stroke="white" stroke-width="1.5" stroke-linejoin="round"/>
<path id="Vector_2" d="M32.1375 11.2507V8.90695C32.1373 8.33211 32.0103 7.76439 31.7654 7.24431C31.5205 6.72423 31.1639 6.2646 30.721 5.89822C30.278 5.53183 29.7597 5.26772 29.2029 5.12473C28.6461 4.98174 28.0647 4.9634 27.5 5.07101L6.925 8.58273C6.0315 8.753 5.22543 9.22974 4.64582 9.93073C4.0662 10.6317 3.74938 11.513 3.75 12.4226V16.2507" stroke="white" stroke-width="1.5" stroke-linejoin="round"/>
<path id="Vector_3" d="M28.75 25C28.2555 25 27.7722 24.8534 27.3611 24.5787C26.95 24.304 26.6295 23.9135 26.4403 23.4567C26.2511 22.9999 26.2016 22.4972 26.298 22.0123C26.3945 21.5273 26.6326 21.0819 26.9822 20.7322C27.3319 20.3826 27.7773 20.1445 28.2623 20.048C28.7472 19.9516 29.2499 20.0011 29.7067 20.1903C30.1635 20.3795 30.554 20.7 30.8287 21.1111C31.1034 21.5222 31.25 22.0055 31.25 22.5C31.25 23.163 30.9866 23.7989 30.5178 24.2678C30.0489 24.7366 29.413 25 28.75 25Z" fill="white"/>
</g>
</svg>
