<svg width="24" height="25" viewBox="0 0 24 25" fill="none" xmlns="http://www.w3.org/2000/svg">
<g id="Icon / paw-outline">
<path id="Vector" d="M21.4565 8.53789C21.2899 8.47236 21.1124 8.43896 20.9334 8.43945H20.9146C19.9691 8.45352 18.9088 9.33898 18.3524 10.6782C17.6854 12.2804 17.9924 13.9196 19.0434 14.341C19.2098 14.4065 19.3871 14.4399 19.566 14.4395C20.5162 14.4395 21.591 13.5488 22.1521 12.2007C22.8144 10.5985 22.5027 8.9593 21.4565 8.53789ZM15.3562 14.7901C14.053 12.6277 13.4905 11.8145 11.9999 11.8145C10.5093 11.8145 9.9421 12.6329 8.63898 14.7901C7.52335 16.6351 5.26866 16.7888 4.70616 18.3559C4.59205 18.6429 4.53474 18.9493 4.53741 19.2582C4.53741 20.5327 5.51241 21.5645 6.71241 21.5645C8.20304 21.5645 10.2327 20.3743 12.0046 20.3743C13.7765 20.3743 15.7968 21.5645 17.2874 21.5645C18.4874 21.5645 19.4577 20.5332 19.4577 19.2582C19.4588 18.949 19.3999 18.6426 19.2843 18.3559C18.7218 16.7832 16.4718 16.6351 15.3562 14.7901ZM9.02382 9.75195C9.08659 9.752 9.14927 9.7473 9.21132 9.73789C10.2993 9.57992 10.9785 8.07242 10.7319 6.36992C10.4999 4.76492 9.52585 3.56445 8.50726 3.56445C8.44449 3.5644 8.38181 3.5691 8.31976 3.57852C7.23179 3.73648 6.55257 5.24398 6.79913 6.94648C7.03116 8.5468 8.00523 9.75195 9.02382 9.75195ZM17.1993 6.94648C17.4459 5.24398 16.7666 3.73648 15.6787 3.57852C15.6166 3.5691 15.5539 3.5644 15.4912 3.56445C14.4726 3.56445 13.5004 4.76492 13.2679 6.36992C13.0213 8.07242 13.7005 9.57992 14.7885 9.73789C14.8506 9.7473 14.9132 9.752 14.976 9.75195C15.9946 9.75195 16.9687 8.5468 17.1993 6.94648ZM4.95788 14.341C6.00741 13.9191 6.31398 12.2785 5.64788 10.6782C5.08726 9.33008 4.01335 8.43945 3.0646 8.43945C2.88573 8.43896 2.70838 8.47236 2.54195 8.53789C1.49241 8.95977 1.18585 10.6004 1.85195 12.2007C2.41257 13.5488 3.48648 14.4395 4.43523 14.4395C4.6141 14.4399 4.79144 14.4065 4.95788 14.341Z" stroke="#3365B4" stroke-width="1.5" stroke-miterlimit="10"/>
</g>
</svg>
