<svg width="24" height="25" viewBox="0 0 48 48" fill="none" xmlns="http://www.w3.org/2000/svg">
<path d="M42.913 15.9469C42.5798 15.8158 42.2248 15.749 41.8667 15.75H41.8292C39.9383 15.7781 37.8176 17.5491 36.7048 20.2275C35.3708 23.4319 35.9848 26.7103 38.0867 27.5531C38.4196 27.6842 38.7743 27.751 39.132 27.75C41.0323 27.75 43.182 25.9688 44.3042 23.2725C45.6289 20.0681 45.0055 16.7897 42.913 15.9469ZM30.7123 28.4513C28.1061 24.1266 26.9811 22.5 23.9998 22.5C21.0186 22.5 19.8842 24.1369 17.278 28.4513C15.0467 32.1413 10.5373 32.4487 9.41233 35.5828C9.1841 36.1569 9.06948 36.7698 9.07483 37.3875C9.07483 39.9366 11.0248 42 13.4248 42C16.4061 42 20.4655 39.6197 24.0092 39.6197C27.553 39.6197 31.5936 42 34.5748 42C36.9748 42 38.9155 39.9375 38.9155 37.3875C38.9176 36.7692 38.7998 36.1563 38.5686 35.5828C37.4436 32.4375 32.9436 32.1413 30.7123 28.4513ZM18.0476 18.375C18.1732 18.3751 18.2985 18.3657 18.4226 18.3469C20.5986 18.0309 21.957 15.0159 21.4639 11.6109C20.9998 8.40094 19.0517 6 17.0145 6C16.889 5.9999 16.7636 6.0093 16.6395 6.02813C14.4636 6.34406 13.1051 9.35906 13.5983 12.7641C14.0623 15.9647 16.0105 18.375 18.0476 18.375ZM34.3986 12.7641C34.8917 9.35906 33.5333 6.34406 31.3573 6.02813C31.2332 6.0093 31.1079 5.9999 30.9823 6C28.9451 6 27.0008 8.40094 26.5358 11.6109C26.0426 15.0159 27.4011 18.0309 29.577 18.3469C29.7011 18.3657 29.8265 18.3751 29.952 18.375C31.9892 18.375 33.9373 15.9647 34.3986 12.7641ZM9.91577 27.5531C12.0148 26.7094 12.628 23.4281 11.2958 20.2275C10.1745 17.5313 8.0267 15.75 6.1292 15.75C5.77146 15.749 5.41677 15.8158 5.08389 15.9469C2.98483 16.7906 2.3717 20.0719 3.70389 23.2725C4.82514 25.9688 6.97295 27.75 8.87045 27.75C9.2282 27.751 9.58289 27.6842 9.91577 27.5531Z" stroke="#FF6500" stroke-width="3" stroke-miterlimit="10"/>
</svg>
