<svg xmlns="http://www.w3.org/2000/svg" width="27.5" height="26.053" viewBox="0 0 27.5 26.053">
  <g id="Grupo_1743" data-name="Grupo 1743" transform="translate(-3284 -5800)">
    <g id="Grupo_1237" data-name="Grupo 1237" transform="translate(3311.5 5800) rotate(90)">
      <g id="Trazado_32106" data-name="Trazado 32106" transform="translate(0 2.895)" fill="#f6f8fb">
        <path d="M 20.98684501647949 21.21052360534668 L 5.065785884857178 21.21052360534668 C 2.548195600509644 21.21052360534668 0.4999956786632538 19.16232299804688 0.4999956786632538 16.64473342895508 L 0.4999956786632538 5.065792560577393 C 0.4999956786632538 2.548202753067017 2.548195600509644 0.5000027418136597 5.065785884857178 0.5000027418136597 L 20.98684501647949 0.5000027418136597 C 23.50443649291992 0.5000027418136597 25.55263519287109 2.548202753067017 25.55263519287109 5.065792560577393 L 25.55263519287109 16.64473342895508 C 25.55263519287109 19.16232299804688 23.50443649291992 21.21052360534668 20.98684501647949 21.21052360534668 Z" stroke="none"/>
        <path d="M 5.065786361694336 1.000001907348633 C 2.823905944824219 1.000001907348633 0.9999961853027344 2.82391357421875 0.9999961853027344 5.065792083740234 L 0.9999961853027344 16.64473342895508 C 0.9999961853027344 18.88661193847656 2.823905944824219 20.71052360534668 5.065786361694336 20.71052360534668 L 20.98684501647949 20.71052360534668 C 23.22872543334961 20.71052360534668 25.05263519287109 18.88661193847656 25.05263519287109 16.64473342895508 L 25.05263519287109 5.065792083740234 C 25.05263519287109 2.82391357421875 23.22872543334961 1.000001907348633 20.98684501647949 1.000001907348633 L 5.065786361694336 1.000001907348633 M 5.065786361694336 1.9073486328125e-06 L 20.98684501647949 1.9073486328125e-06 C 23.78459548950195 1.9073486328125e-06 26.05263519287109 2.268032073974609 26.05263519287109 5.065792083740234 L 26.05263519287109 16.64473342895508 C 26.05263519287109 19.4424934387207 23.78459548950195 21.71052360534668 20.98684501647949 21.71052360534668 L 5.065786361694336 21.71052360534668 C 2.268026351928711 21.71052360534668 -3.814697265625e-06 19.4424934387207 -3.814697265625e-06 16.64473342895508 L -3.814697265625e-06 5.065792083740234 C -3.814697265625e-06 2.268032073974609 2.268026351928711 1.9073486328125e-06 5.065786361694336 1.9073486328125e-06 Z" stroke="none" fill="#3f64ae"/>
      </g>
      <g id="Trazado_32107" data-name="Trazado 32107" transform="translate(7.237 5.789) rotate(-90)" fill="#f6f8fb">
        <path d="M 2.894736766815186 17.59210205078125 C 1.574276804924011 17.59210205078125 0.4999967813491821 16.51783180236816 0.4999967813491821 15.19737243652344 L 0.4999967813491821 2.894742012023926 C 0.4999967813491821 1.574281930923462 1.574276804924011 0.5000019669532776 2.894736766815186 0.5000019669532776 C 4.21519660949707 0.5000019669532776 5.289476871490479 1.574281930923462 5.289476871490479 2.894742012023926 L 5.289476871490479 15.19737243652344 C 5.289476871490479 16.51783180236816 4.21519660949707 17.59210205078125 2.894736766815186 17.59210205078125 Z" stroke="none"/>
        <path d="M 2.894736766815186 1.000001907348633 C 1.849976778030396 1.000001907348633 0.9999966621398926 1.849971771240234 0.9999966621398926 2.894731521606445 L 0.9999966621398926 15.19737243652344 C 0.9999966621398926 16.24213218688965 1.849976778030396 17.09210205078125 2.894736766815186 17.09210205078125 C 3.939496755599976 17.09210205078125 4.789476871490479 16.24213218688965 4.789476871490479 15.19737243652344 L 4.789476871490479 2.894731521606445 C 4.789476871490479 1.849971771240234 3.939496755599976 1.000001907348633 2.894736766815186 1.000001907348633 M 2.894736766815186 1.9073486328125e-06 C 4.493456840515137 1.9073486328125e-06 5.789476871490479 1.296022415161133 5.789476871490479 2.894731521606445 L 5.789476871490479 15.19737243652344 C 5.789476871490479 16.79608154296875 4.493456840515137 18.09210205078125 2.894736766815186 18.09210205078125 C 1.296016693115234 18.09210205078125 -3.337860107421875e-06 16.79608154296875 -3.337860107421875e-06 15.19737243652344 L -3.337860107421875e-06 2.894731521606445 C -3.337860107421875e-06 1.296022415161133 1.296016693115234 1.9073486328125e-06 2.894736766815186 1.9073486328125e-06 Z" stroke="none" fill="#3f64ae"/>
      </g>
      <g id="Trazado_32108" data-name="Trazado 32108" transform="translate(7.237 27.5) rotate(-90)" fill="#f6f8fb">
        <path d="M 2.894736766815186 17.59210205078125 C 1.574276804924011 17.59210205078125 0.4999967813491821 16.51783180236816 0.4999967813491821 15.19737243652344 L 0.4999967813491821 2.894742012023926 C 0.4999967813491821 1.574281930923462 1.574276804924011 0.5000019669532776 2.894736766815186 0.5000019669532776 C 4.21519660949707 0.5000019669532776 5.289476871490479 1.574281930923462 5.289476871490479 2.894742012023926 L 5.289476871490479 15.19737243652344 C 5.289476871490479 16.51783180236816 4.21519660949707 17.59210205078125 2.894736766815186 17.59210205078125 Z" stroke="none"/>
        <path d="M 2.894736766815186 1.000001907348633 C 1.849976778030396 1.000001907348633 0.9999966621398926 1.849971771240234 0.9999966621398926 2.894731521606445 L 0.9999966621398926 15.19737243652344 C 0.9999966621398926 16.24213218688965 1.849976778030396 17.09210205078125 2.894736766815186 17.09210205078125 C 3.939496755599976 17.09210205078125 4.789476871490479 16.24213218688965 4.789476871490479 15.19737243652344 L 4.789476871490479 2.894731521606445 C 4.789476871490479 1.849971771240234 3.939496755599976 1.000001907348633 2.894736766815186 1.000001907348633 M 2.894736766815186 1.9073486328125e-06 C 4.493456840515137 1.9073486328125e-06 5.789476871490479 1.296022415161133 5.789476871490479 2.894731521606445 L 5.789476871490479 15.19737243652344 C 5.789476871490479 16.79608154296875 4.493456840515137 18.09210205078125 2.894736766815186 18.09210205078125 C 1.296016693115234 18.09210205078125 -3.337860107421875e-06 16.79608154296875 -3.337860107421875e-06 15.19737243652344 L -3.337860107421875e-06 2.894731521606445 C -3.337860107421875e-06 1.296022415161133 1.296016693115234 1.9073486328125e-06 2.894736766815186 1.9073486328125e-06 Z" stroke="none" fill="#3f64ae"/>
      </g>
      <g id="Trazado_32109" data-name="Trazado 32109" transform="translate(18.816)" fill="#f6f8fb">
        <path d="M 3.618421077728271 27 C 1.898921132087708 27 0.500001072883606 25.6010799407959 0.500001072883606 23.8815803527832 L 0.500001072883606 3.618419885635376 C 0.500001072883606 1.898920059204102 1.898921132087708 0.5 3.618421077728271 0.5 C 5.337921142578125 0.5 6.736841201782227 1.898920059204102 6.736841201782227 3.618419885635376 L 6.736841201782227 23.8815803527832 C 6.736841201782227 25.6010799407959 5.337921142578125 27 3.618421077728271 27 Z" stroke="none"/>
        <path d="M 3.618421077728271 1 C 2.174621105194092 1 1.000000953674316 2.174619674682617 1.000000953674316 3.618419647216797 L 1.000000953674316 23.8815803527832 C 1.000000953674316 25.32538032531738 2.174621105194092 26.5 3.618421077728271 26.5 C 5.062221050262451 26.5 6.236841201782227 25.32538032531738 6.236841201782227 23.8815803527832 L 6.236841201782227 3.618419647216797 C 6.236841201782227 2.174619674682617 5.062221050262451 1 3.618421077728271 1 M 3.618421077728271 0 C 5.6168212890625 0 7.236841201782227 1.620019912719727 7.236841201782227 3.618419647216797 L 7.236841201782227 23.8815803527832 C 7.236841201782227 25.87998008728027 5.6168212890625 27.5 3.618421077728271 27.5 C 1.620020866394043 27.5 9.5367431640625e-07 25.87998008728027 9.5367431640625e-07 23.8815803527832 L 9.5367431640625e-07 3.618419647216797 C 9.5367431640625e-07 1.620019912719727 1.620020866394043 0 3.618421077728271 0 Z" stroke="none" fill="#3f64ae"/>
      </g>
    </g>
  </g>
</svg>
