<svg width="36" height="31" viewBox="0 0 36 31" fill="none" xmlns="http://www.w3.org/2000/svg">
<path id="Vector" d="M33.3106 9.01277C33.0409 8.9072 32.7535 8.85338 32.4637 8.85418H32.4333C30.9025 8.87684 29.1858 10.3034 28.285 12.4611C27.205 15.0424 27.7021 17.6833 29.4036 18.3623C29.6731 18.4678 29.9602 18.5216 30.2499 18.5208C31.7882 18.5208 33.5284 17.0859 34.4369 14.914C35.5092 12.3327 35.0046 9.6917 33.3106 9.01277ZM23.4339 19.0857C21.3241 15.602 20.4134 14.2917 18 14.2917C15.5866 14.2917 14.6683 15.6103 12.5584 19.0857C10.7522 22.0582 7.10171 22.306 6.191 24.8306C6.00624 25.293 5.91345 25.7868 5.91778 26.2844C5.91778 28.3378 7.49636 30 9.43922 30C11.8526 30 15.1312 30 18 30C20.8687 30 24.1473 30 26.5607 30C28.5036 30 30.0745 28.3385 30.0745 26.2844C30.0763 25.7863 29.9809 25.2926 29.7937 24.8306C28.883 22.2969 25.2402 22.0582 23.4339 19.0857ZM13.1815 10.9688C13.2831 10.9688 13.3846 10.9613 13.4851 10.9461C15.2466 10.6916 16.3462 8.26285 15.947 5.51993C15.5714 2.93411 13.9943 1.00001 12.3452 1.00001C12.2435 0.99993 12.1421 1.0075 12.0416 1.02267C10.2801 1.27717 9.18042 3.70593 9.57962 6.44884C9.95529 9.02712 11.5324 10.9688 13.1815 10.9688ZM26.418 6.44884C26.8172 3.70593 25.7175 1.27717 23.956 1.02267C23.8556 1.0075 23.7541 0.99993 23.6525 1.00001C22.0033 1.00001 20.4293 2.93411 20.0529 5.51993C19.6537 8.26285 20.7534 10.6916 22.5148 10.9461C22.6153 10.9613 22.7168 10.9688 22.8184 10.9688C24.4676 10.9688 26.0446 9.02712 26.418 6.44884ZM6.59854 18.3623C8.29779 17.6826 8.79413 15.0393 7.71569 12.4611C6.80801 10.2891 5.0693 8.85418 3.53322 8.85418C3.24362 8.85339 2.95649 8.9072 2.68702 9.01277C0.98777 9.69246 0.491429 12.3357 1.56987 14.914C2.47755 17.0859 4.21626 18.5208 5.75234 18.5208C6.04194 18.5216 6.32907 18.4678 6.59854 18.3623Z" stroke="#FF6500" stroke-width="1.5" stroke-miterlimit="10"/>
</svg>
