<svg xmlns="http://www.w3.org/2000/svg" width="38" height="36" viewBox="0 0 38 36">
  <g id="Grupo_1745" data-name="Grupo 1745" transform="translate(3886 -3663) rotate(90)">
    <g id="Trazado_32106" data-name="Trazado 32106" transform="translate(3663 3852)" fill="#ddd">
      <path d="M 29 29.5 L 7 29.5 C 3.415889978408813 29.5 0.5 26.58411026000977 0.5 23 L 0.5 7 C 0.5 3.415889978408813 3.415889978408813 0.5 7 0.5 L 29 0.5 C 32.58411026000977 0.5 35.5 3.415889978408813 35.5 7 L 35.5 23 C 35.5 26.58411026000977 32.58411026000977 29.5 29 29.5 Z" stroke="none"/>
      <path d="M 7 1 C 3.69158935546875 1 1 3.69158935546875 1 7 L 1 23 C 1 26.30841064453125 3.69158935546875 29 7 29 L 29 29 C 32.30841064453125 29 35 26.30841064453125 35 23 L 35 7 C 35 3.69158935546875 32.30841064453125 1 29 1 L 7 1 M 7 0 L 29 0 C 32.86598968505859 0 36 3.134010314941406 36 7 L 36 23 C 36 26.86598968505859 32.86598968505859 30 29 30 L 7 30 C 3.134010314941406 30 0 26.86598968505859 0 23 L 0 7 C 0 3.134010314941406 3.134010314941406 0 7 0 Z" stroke="none" fill="#9a9a9a"/>
    </g>
    <g id="Trazado_32107" data-name="Trazado 32107" transform="translate(3673 3856) rotate(-90)" fill="#ddd">
      <path d="M 4 24.5 C 2.070090055465698 24.5 0.5 22.92991065979004 0.5 21 L 0.5 4 C 0.5 2.070090055465698 2.070090055465698 0.5 4 0.5 C 5.929910182952881 0.5 7.5 2.070090055465698 7.5 4 L 7.5 21 C 7.5 22.92991065979004 5.929910182952881 24.5 4 24.5 Z" stroke="none"/>
      <path d="M 4 1 C 2.345789909362793 1 1 2.345790863037109 1 4 L 1 21 C 1 22.65420913696289 2.345789909362793 24 4 24 C 5.654210090637207 24 7 22.65420913696289 7 21 L 7 4 C 7 2.345790863037109 5.654210090637207 1 4 1 M 4 0 C 6.209139823913574 0 8 1.790859222412109 8 4 L 8 21 C 8 23.20914077758789 6.209139823913574 25 4 25 C 1.790860176086426 25 0 23.20914077758789 0 21 L 0 4 C 0 1.790859222412109 1.790860176086426 0 4 0 Z" stroke="none" fill="#9a9a9a"/>
    </g>
    <g id="Trazado_32108" data-name="Trazado 32108" transform="translate(3673 3886) rotate(-90)" fill="#ddd">
      <path d="M 4 24.5 C 2.070090055465698 24.5 0.5 22.92991065979004 0.5 21 L 0.5 4 C 0.5 2.070090055465698 2.070090055465698 0.5 4 0.5 C 5.929910182952881 0.5 7.5 2.070090055465698 7.5 4 L 7.5 21 C 7.5 22.92991065979004 5.929910182952881 24.5 4 24.5 Z" stroke="none"/>
      <path d="M 4 1 C 2.345789909362793 1 1 2.345790863037109 1 4 L 1 21 C 1 22.65420913696289 2.345789909362793 24 4 24 C 5.654210090637207 24 7 22.65420913696289 7 21 L 7 4 C 7 2.345790863037109 5.654210090637207 1 4 1 M 4 0 C 6.209139823913574 0 8 1.790859222412109 8 4 L 8 21 C 8 23.20914077758789 6.209139823913574 25 4 25 C 1.790860176086426 25 0 23.20914077758789 0 21 L 0 4 C 0 1.790859222412109 1.790860176086426 0 4 0 Z" stroke="none" fill="#9a9a9a"/>
    </g>
    <g id="Trazado_32109" data-name="Trazado 32109" transform="translate(3689 3848)" fill="#ddd">
      <path d="M 5 37.5 C 2.51869010925293 37.5 0.5 35.4813117980957 0.5 33 L 0.5 5 C 0.5 2.51869010925293 2.51869010925293 0.5 5 0.5 C 7.48130989074707 0.5 9.5 2.51869010925293 9.5 5 L 9.5 33 C 9.5 35.4813117980957 7.48130989074707 37.5 5 37.5 Z" stroke="none"/>
      <path d="M 5 1 C 2.794390201568604 1 1 2.794391632080078 1 5 L 1 33 C 1 35.20560836791992 2.794390201568604 37 5 37 C 7.205610275268555 37 9 35.20560836791992 9 33 L 9 5 C 9 2.794391632080078 7.205610275268555 1 5 1 M 5 0 C 7.761420249938965 0 10 2.238571166992188 10 5 L 10 33 C 10 35.76142120361328 7.761420249938965 38 5 38 C 2.238580226898193 38 0 35.76142120361328 0 33 L 0 5 C 0 2.238571166992188 2.238580226898193 0 5 0 Z" stroke="none" fill="#9a9a9a"/>
    </g>
  </g>
</svg>
