<svg xmlns="http://www.w3.org/2000/svg" width="33.939" height="32.618" viewBox="0 0 33.939 32.618">
  <g id="Grupo_1745" data-name="Grupo 1745" transform="translate(-676.5 -824.97)">
    <path id="Unión_1" data-name="Unión 1" d="M16.372,30.621A9.778,9.778,0,0,1,3.164,17.808,6.792,6.792,0,0,1,5.417,5.415a6.793,6.793,0,0,1,10.3-4.355A6.793,6.793,0,0,1,25.978,5.278l.169,0A6.792,6.792,0,0,1,29.623,17.9a9.778,9.778,0,0,1-13.25,12.719Z" transform="translate(677 825.47)" fill="none" stroke="#3f64ae" stroke-width="1"/>
    <g id="Icon_material-pets" data-name="Icon material-pets" transform="translate(682.719 831.064)">
      <g id="Trazado_15" data-name="Trazado 15" transform="translate(-3 -6.2)" fill="none">
        <path d="M8.375,13.187A2.687,2.687,0,1,1,5.687,10.5,2.687,2.687,0,0,1,8.375,13.187Z" stroke="none"/>
        <path d="M 5.687475204467773 10.4999942779541 C 4.203225135803223 10.4999942779541 2.999995231628418 11.70322418212891 2.999995231628418 13.18747425079346 C 2.999995231628418 14.67172431945801 4.203225135803223 15.87495422363281 5.687475204467773 15.87495422363281 C 7.171725273132324 15.87495422363281 8.374955177307129 14.67172431945801 8.374955177307129 13.18747425079346 C 8.374955177307129 11.70322418212891 7.171725273132324 10.4999942779541 5.687475204467773 10.4999942779541 M 5.687475204467773 9.499994277954102 C 7.720755100250244 9.499994277954102 9.374955177307129 11.15419387817383 9.374955177307129 13.18747425079346 C 9.374955177307129 15.22075462341309 7.720755100250244 16.87495422363281 5.687475204467773 16.87495422363281 C 3.654195308685303 16.87495422363281 1.999995231628418 15.22075462341309 1.999995231628418 13.18747425079346 C 1.999995231628418 11.15419387817383 3.654195308685303 9.499994277954102 5.687475204467773 9.499994277954102 Z" stroke="none" fill="#3f64ae"/>
      </g>
      <g id="Trazado_16" data-name="Trazado 16" transform="translate(-4.913 -4.5)" fill="none">
        <path d="M15.125,7.187A2.687,2.687,0,1,1,12.437,4.5a2.687,2.687,0,0,1,2.687,2.687Z" stroke="none"/>
        <path d="M 12.43747329711914 4.500002861022949 C 10.95322322845459 4.500002861022949 9.749993324279785 5.70322322845459 9.749993324279785 7.187472820281982 C 9.749993324279785 8.671722412109375 10.95322322845459 9.874942779541016 12.43747329711914 9.874942779541016 C 13.92172336578369 9.874942779541016 15.1249532699585 8.671732902526855 15.12494373321533 7.187472820281982 L 15.1249532699585 7.187472820281982 C 15.1249532699585 5.70322322845459 13.92172336578369 4.500002861022949 12.43747329711914 4.500002861022949 M 12.43747329711914 3.500002861022949 C 14.47075366973877 3.500002861022949 16.12495422363281 5.154192924499512 16.12495422363281 7.187472820281982 C 16.12495422363281 9.220752716064453 14.47075366973877 10.87494277954102 12.43747329711914 10.87494277954102 C 10.40419292449951 10.87494277954102 8.749992370605469 9.220752716064453 8.749992370605469 7.187472820281982 C 8.749992370605469 5.154192924499512 10.40419292449951 3.500002861022949 12.43747329711914 3.500002861022949 Z" stroke="none" fill="#3f64ae"/>
      </g>
      <g id="Trazado_17" data-name="Trazado 17" transform="translate(-7.463 -4.5)" fill="none">
        <path d="M24.125,7.187A2.687,2.687,0,1,1,21.437,4.5a2.687,2.687,0,0,1,2.687,2.687Z" stroke="none"/>
        <path d="M 21.4374828338623 4.500002861022949 C 19.95321273803711 4.500002861022949 18.75000381469727 5.70322322845459 18.74999237060547 7.187472820281982 C 18.74999237060547 8.671722412109375 19.95321273803711 9.874942779541016 21.43747329711914 9.874942779541016 C 22.92172241210938 9.874942779541016 24.12495422363281 8.671732902526855 24.12494277954102 7.187472820281982 L 24.12495422363281 7.187472820281982 C 24.12495422363281 5.70322322845459 22.92172241210938 4.500002861022949 21.4374828338623 4.500002861022949 M 21.4374828338623 3.500002861022949 C 23.47076416015625 3.500002861022949 25.12495422363281 5.154192924499512 25.12495422363281 7.187472820281982 C 25.12495422363281 9.220752716064453 23.47075271606445 10.87494277954102 21.43747329711914 10.87494277954102 C 19.40419387817383 10.87494277954102 17.74999237060547 9.220752716064453 17.74999237060547 7.187472820281982 C 17.75000381469727 5.154192924499512 19.40420341491699 3.500002861022949 21.4374828338623 3.500002861022949 Z" stroke="none" fill="#3f64ae"/>
      </g>
      <g id="Trazado_18" data-name="Trazado 18" transform="translate(-9.375 -6.2)" fill="none">
        <path d="M30.875,13.187A2.687,2.687,0,1,1,28.187,10.5,2.687,2.687,0,0,1,30.875,13.187Z" stroke="none"/>
        <path d="M 28.18746566772461 10.4999942779541 C 26.70321655273438 10.4999942779541 25.49999618530273 11.70322418212891 25.49999618530273 13.18747425079346 C 25.49999618530273 14.67172431945801 26.70321655273438 15.87495422363281 28.18746566772461 15.87495422363281 C 29.67171478271484 15.87495422363281 30.87493515014648 14.67172431945801 30.87493515014648 13.18747425079346 C 30.87493515014648 11.70322418212891 29.67171478271484 10.4999942779541 28.18746566772461 10.4999942779541 M 28.18746566772461 9.499994277954102 C 30.22074508666992 9.499994277954102 31.87493515014648 11.15419387817383 31.87493515014648 13.18747425079346 C 31.87493515014648 15.22075462341309 30.22074508666992 16.87495422363281 28.18746566772461 16.87495422363281 C 26.1541862487793 16.87495422363281 24.49999618530273 15.22075462341309 24.49999618530273 13.18747425079346 C 24.49999618530273 11.15419387817383 26.1541862487793 9.499994277954102 28.18746566772461 9.499994277954102 Z" stroke="none" fill="#3f64ae"/>
      </g>
      <g id="Trazado_19" data-name="Trazado 19" transform="translate(-3.847 -7.688)" fill="none">
        <path d="M20.338,20.437c-.935-1.1-1.72-2.032-2.666-3.128A4.561,4.561,0,0,0,15.79,15.89a2.176,2.176,0,0,0-.355-.1,5.41,5.41,0,0,0-.838-.043,4.51,4.51,0,0,0-.849.054,2.178,2.178,0,0,0-.355.1,4.631,4.631,0,0,0-1.881,1.419c-.935,1.1-1.72,2.032-2.666,3.128C7.438,21.856,5.707,23.415,6.029,25.6a3.375,3.375,0,0,0,2.5,2.494c.785.161,3.289-.473,5.955-.473h.193c2.666,0,5.171.623,5.955.473a3.391,3.391,0,0,0,2.5-2.494C23.477,23.4,21.746,21.845,20.338,20.437Z" stroke="none"/>
        <path d="M 14.59716415405273 15.7499942779541 C 14.31766414642334 15.7499942779541 14.02741432189941 15.7499942779541 13.74791431427002 15.80374336242676 C 13.62966442108154 15.82524490356445 13.51141452789307 15.85749435424805 13.39316463470459 15.90049362182617 C 12.64067459106445 16.15849494934082 12.01718521118164 16.73899459838867 11.51193428039551 17.31948471069336 C 10.57669448852539 18.41597366333008 9.791954040527344 19.3512134552002 8.845964431762695 20.44771385192871 C 7.437725067138672 21.85594367980957 5.706995010375977 23.4146842956543 6.029483795166016 25.59691429138184 C 6.34123420715332 26.69339370727539 7.125974655151367 27.77914428710938 8.534214019775391 28.09088516235352 C 9.3189697265625 28.25213432312012 11.82368278503418 27.61789512634277 14.48965454101562 27.61789512634277 L 14.68315410614014 27.61789512634277 C 17.3491325378418 27.61789512634277 19.85385513305664 28.24139022827148 20.63859558105469 28.09088516235352 C 22.04684448242188 27.77914428710938 22.83158493041992 26.68265342712402 23.14332389831543 25.59691429138184 C 23.4765739440918 23.40393447875977 21.7458438873291 21.84519386291504 20.33760452270508 20.43695449829102 C 19.40236473083496 19.34047508239746 18.61761474609375 18.40523338317871 17.67163467407227 17.30873489379883 C 17.1771354675293 16.72824478149414 16.54288482666016 16.14774513244629 15.79039478302002 15.88974380493164 C 15.67215442657471 15.84674453735352 15.55390453338623 15.81449508666992 15.43565464019775 15.79299354553223 C 15.16690444946289 15.7499942779541 14.87665462493896 15.7499942779541 14.59716415405273 15.7499942779541 M 14.59716415405273 14.7499942779541 C 14.90148448944092 14.7499942779541 15.24639415740967 14.7499942779541 15.59364414215088 14.8055534362793 L 15.61454486846924 14.80912399291992 C 15.78454685211182 14.84003257751465 15.95566940307617 14.88633346557617 16.12334823608398 14.9467716217041 C 16.93288421630859 15.22645378112793 17.6877326965332 15.78619194030762 18.43066596984863 16.65767478942871 C 19.03871917724609 17.36249351501465 19.57173919677734 17.99071502685547 20.13600540161133 18.65575408935547 C 20.43903350830078 19.01291275024414 20.74678611755371 19.37563323974609 21.07257461547852 19.75768280029297 C 21.14643096923828 19.8314266204834 21.22113227844238 19.90559387207031 21.29633331298828 19.98025512695312 C 22.73332405090332 21.40695381164551 24.52170562744141 23.18251419067383 24.1319751739502 25.74715423583984 L 24.12228393554688 25.81090354919434 L 24.10449409484863 25.87288475036621 C 23.62223434448242 27.55252456665039 22.43773460388184 28.71682357788086 20.8547248840332 29.06724548339844 L 20.826904296875 29.07299423217773 C 20.68186569213867 29.10080337524414 20.51839447021484 29.11432456970215 20.32716369628906 29.11432456970215 C 19.86129379272461 29.11432456970215 19.2537956237793 29.0350456237793 18.48467445373535 28.93468475341797 C 17.40314483642578 28.79354476928711 16.05714416503906 28.61789321899414 14.68315410614014 28.61789321899414 L 14.48965454101562 28.61789321899414 C 13.12811470031738 28.61789321899414 11.79108428955078 28.79384422302246 10.71675491333008 28.93522453308105 C 9.944423675537109 29.0368537902832 9.334394454956055 29.11713409423828 8.863134384155273 29.11713409423828 C 8.659334182739258 29.11713409423828 8.485904693603516 29.10185432434082 8.332923889160156 29.07041549682617 L 8.318075180053711 29.06724548339844 C 6.730045318603516 28.7157039642334 5.545293807983398 27.55049514770508 5.067604064941406 25.87039375305176 L 5.049764633178711 25.80764389038086 L 5.040224075317383 25.74310493469238 C 4.66319465637207 23.19176483154297 6.449785232543945 21.4180736541748 7.885343551635742 19.99289512634277 C 7.961828231811523 19.91695785522461 8.037807464599609 19.84153366088867 8.112903594970703 19.76654624938965 C 8.706594467163086 19.0781307220459 9.230945587158203 18.46011734008789 9.785703659057617 17.80628395080566 C 10.09770393371582 17.43855476379395 10.4146842956543 17.06496429443359 10.7511043548584 16.67053413391113 L 10.75763511657715 16.66295433044434 C 11.53017997741699 15.77536773681641 12.26207733154297 15.23321914672852 13.06027793884277 14.95750045776367 C 13.22611236572266 14.89772796630859 13.39532470703125 14.85179328918457 13.56346321105957 14.82089233398438 C 13.93492221832275 14.7499885559082 14.28666210174561 14.7499942779541 14.59716415405273 14.7499942779541 Z" stroke="none" fill="#3f64ae"/>
      </g>
    </g>
  </g>
</svg>
