<svg xmlns="http://www.w3.org/2000/svg" width="33.717" height="32.404" viewBox="0 0 33.717 32.404">
  <g id="Grupo_1748" data-name="Grupo 1748" transform="translate(3635.615 -8594.438)">
    <path id="Unión_1" data-name="Unión 1" d="M-2594.18-544.82a9.665,9.665,0,0,1-4.274.99,9.712,9.712,0,0,1-9.709-9.708,9.668,9.668,0,0,1,.864-4.008,6.743,6.743,0,0,1-3.142-5.7,6.751,6.751,0,0,1,5.38-6.607,6.751,6.751,0,0,1,6.607-5.378,6.711,6.711,0,0,1,3.619,1.053,6.71,6.71,0,0,1,3.619-1.053,6.751,6.751,0,0,1,6.577,5.242l.168,0a6.748,6.748,0,0,1,6.746,6.745,6.744,6.744,0,0,1-3.294,5.8,9.667,9.667,0,0,1,.823,3.914,9.712,9.712,0,0,1-9.708,9.708A9.667,9.667,0,0,1-2594.18-544.82Z" transform="translate(-1024.674 9170.172)" fill="none" stroke="#eb7f33" stroke-width="1"/>
    <g id="Icon_material-pets" data-name="Icon material-pets" transform="translate(-3629.435 8600.494)">
      <g id="Trazado_15" data-name="Trazado 15" transform="translate(-3 -6.229)" fill="none">
        <path d="M8.339,13.169A2.669,2.669,0,1,1,5.669,10.5,2.669,2.669,0,0,1,8.339,13.169Z" stroke="none"/>
        <path d="M 5.669255256652832 10.4999942779541 C 4.195065021514893 10.4999942779541 2.999995231628418 11.69506454467773 2.999995231628418 13.16925430297852 C 2.999995231628418 14.6434440612793 4.195065021514893 15.83851432800293 5.669255256652832 15.83851432800293 C 7.143445491790771 15.83851432800293 8.338515281677246 14.6434440612793 8.338515281677246 13.16925430297852 C 8.338515281677246 11.69506454467773 7.143445491790771 10.4999942779541 5.669255256652832 10.4999942779541 M 5.669255256652832 9.499994277954102 C 7.692495346069336 9.499994277954102 9.338515281677246 11.14601421356201 9.338515281677246 13.16925430297852 C 9.338515281677246 15.19249439239502 7.692495346069336 16.83851432800293 5.669255256652832 16.83851432800293 C 3.646015167236328 16.83851432800293 1.999995231628418 15.19249439239502 1.999995231628418 13.16925430297852 C 1.999995231628418 11.14601421356201 3.646015167236328 9.499994277954102 5.669255256652832 9.499994277954102 Z" stroke="none" fill="#eb7f33"/>
      </g>
      <g id="Trazado_16" data-name="Trazado 16" transform="translate(-4.945 -4.5)" fill="none">
        <path d="M15.089,7.169A2.669,2.669,0,1,1,12.419,4.5a2.669,2.669,0,0,1,2.669,2.669Z" stroke="none"/>
        <path d="M 12.4192533493042 4.500002861022949 C 10.94506359100342 4.500002861022949 9.749993324279785 5.695062637329102 9.749993324279785 7.169252872467041 C 9.749993324279785 8.64344310760498 10.94506359100342 9.838502883911133 12.4192533493042 9.838502883911133 C 13.89344310760498 9.838502883911133 15.08851337432861 8.64344310760498 15.08850288391113 7.169252872467041 L 15.08851337432861 7.169252872467041 C 15.08851337432861 5.695062637329102 13.89344310760498 4.500002861022949 12.4192533493042 4.500002861022949 M 12.4192533493042 3.500002861022949 C 14.4424934387207 3.500002861022949 16.0885124206543 5.146022796630859 16.0885124206543 7.169252872467041 C 16.0885124206543 9.192482948303223 14.4424934387207 10.83850288391113 12.4192533493042 10.83850288391113 C 10.3960132598877 10.83850288391113 8.749994277954102 9.192482948303223 8.749994277954102 7.169252872467041 C 8.749994277954102 5.146022796630859 10.3960132598877 3.500002861022949 12.4192533493042 3.500002861022949 Z" stroke="none" fill="#eb7f33"/>
      </g>
      <g id="Trazado_17" data-name="Trazado 17" transform="translate(-7.539 -4.5)" fill="none">
        <path d="M24.089,7.169A2.669,2.669,0,1,1,21.419,4.5a2.669,2.669,0,0,1,2.669,2.669Z" stroke="none"/>
        <path d="M 21.41926383972168 4.500002861022949 C 19.94505500793457 4.500002861022949 18.75000381469727 5.695062637329102 18.7499942779541 7.169252872467041 C 18.7499942779541 8.64344310760498 19.94505500793457 9.838502883911133 21.41925430297852 9.838502883911133 C 22.8934440612793 9.838502883911133 24.08851432800293 8.64344310760498 24.08850479125977 7.169252872467041 L 24.08851432800293 7.169252872467041 C 24.08851432800293 5.695062637329102 22.8934440612793 4.500002861022949 21.41926383972168 4.500002861022949 M 21.41926383972168 3.500002861022949 C 23.4424934387207 3.500002861022949 25.08851432800293 5.146022796630859 25.08851432800293 7.169252872467041 C 25.08851432800293 9.192482948303223 23.4424934387207 10.83850288391113 21.41925430297852 10.83850288391113 C 19.39601516723633 10.83850288391113 17.7499942779541 9.192482948303223 17.7499942779541 7.169252872467041 C 17.75000381469727 5.146022796630859 19.39603424072266 3.500002861022949 21.41926383972168 3.500002861022949 Z" stroke="none" fill="#eb7f33"/>
      </g>
      <g id="Trazado_18" data-name="Trazado 18" transform="translate(-9.484 -6.229)" fill="none">
        <path d="M30.838,13.169A2.669,2.669,0,1,1,28.169,10.5,2.669,2.669,0,0,1,30.838,13.169Z" stroke="none"/>
        <path d="M 28.16924667358398 10.4999942779541 C 26.6950569152832 10.4999942779541 25.49999618530273 11.69506454467773 25.49999618530273 13.16925430297852 C 25.49999618530273 14.6434440612793 26.6950569152832 15.83851432800293 28.16924667358398 15.83851432800293 C 29.64343643188477 15.83851432800293 30.83849716186523 14.6434440612793 30.83849716186523 13.16925430297852 C 30.83849716186523 11.69506454467773 29.64343643188477 10.4999942779541 28.16924667358398 10.4999942779541 M 28.16924667358398 9.499994277954102 C 30.19247627258301 9.499994277954102 31.83849716186523 11.14601421356201 31.83849716186523 13.16925430297852 C 31.83849716186523 15.19249439239502 30.19247627258301 16.83851432800293 28.16924667358398 16.83851432800293 C 26.14601707458496 16.83851432800293 24.49999618530273 15.19249439239502 24.49999618530273 13.16925430297852 C 24.49999618530273 11.14601421356201 26.14601707458496 9.499994277954102 28.16924667358398 9.499994277954102 Z" stroke="none" fill="#eb7f33"/>
      </g>
      <g id="Trazado_19" data-name="Trazado 19" transform="translate(-3.862 -7.742)" fill="none">
        <path d="M20.24,20.405c-.929-1.089-1.708-2.018-2.648-3.107a4.53,4.53,0,0,0-1.868-1.409,2.161,2.161,0,0,0-.352-.1,5.374,5.374,0,0,0-.833-.043,4.48,4.48,0,0,0-.843.053,2.163,2.163,0,0,0-.352.1,4.6,4.6,0,0,0-1.868,1.409c-.929,1.089-1.708,2.018-2.648,3.107-1.4,1.4-3.118,2.947-2.8,5.114a3.352,3.352,0,0,0,2.488,2.477c.779.16,3.267-.47,5.915-.47h.192c2.648,0,5.136.619,5.915.47a3.368,3.368,0,0,0,2.488-2.477C23.358,23.352,21.639,21.8,20.24,20.405Z" stroke="none"/>
        <path d="M 14.53880882263184 15.74999237060547 C 14.26120948791504 15.74999237060547 13.97292900085449 15.74999237060547 13.69531917572021 15.80337333679199 C 13.57787895202637 15.82473373413086 13.46042919158936 15.85677337646484 13.34297943115234 15.89947319030762 C 12.59558868408203 16.15572357177734 11.976318359375 16.7322826385498 11.47450828552246 17.3088436126709 C 10.54559898376465 18.39790344238281 9.766180038452148 19.32680320739746 8.82659912109375 20.41586303710938 C 7.427909851074219 21.81454277038574 5.70890998840332 23.36271286010742 6.029218673706055 25.53015327453613 C 6.338859558105469 26.61920356750488 7.118278503417969 27.69758224487305 8.516969680786133 28.0072135925293 C 9.296388626098633 28.16738128662109 11.78413772583008 27.53743362426758 14.43203926086426 27.53743362426758 L 14.62421894073486 27.53743362426758 C 17.27211761474609 27.53743362426758 19.75985908508301 28.15670204162598 20.5392894744873 28.0072135925293 C 21.93797874450684 27.69758224487305 22.71740913391113 26.60853385925293 23.02703857421875 25.53015327453613 C 23.35802841186523 23.35204315185547 21.63902854919434 21.80387306213379 20.24032974243164 20.40518379211426 C 19.31142807006836 19.31612396240234 18.53200912475586 18.38722229003906 17.59243965148926 17.29817390441895 C 17.10129928588867 16.72161293029785 16.47134780883789 16.14505386352539 15.72395896911621 15.88880348205566 C 15.6065092086792 15.84609222412109 15.48906898498535 15.81405258178711 15.37161922454834 15.79270362854004 C 15.1046895980835 15.74999237060547 14.81640911102295 15.74999237060547 14.53880882263184 15.74999237060547 M 14.53880882263184 14.74999237060547 C 14.84131908416748 14.74999237060547 15.18418884277344 14.74999237060547 15.52960872650146 14.80526351928711 L 15.55046939849854 14.80882263183594 C 15.71947860717773 14.83954429626465 15.8896427154541 14.88556861877441 16.05643081665039 14.94565582275391 C 16.86188507080078 15.22382736206055 17.61272811889648 15.78048324584961 18.35159873962402 16.64726066589355 C 18.95574951171875 17.34755325317383 19.48531723022461 17.97171020507812 20.04594802856445 18.63247299194336 C 20.34667015075684 18.98690605163574 20.65206909179688 19.34685516357422 20.97536468505859 19.72598648071289 C 21.04862785339355 19.79913330078125 21.12273406982422 19.87269973754883 21.19732856750488 19.94676208496094 C 22.62566947937012 21.3648624420166 24.40328979492188 23.12973213195801 24.01568984985352 25.68039321899414 L 24.0059986114502 25.74414253234863 L 23.98819923400879 25.80612373352051 C 23.50849914550781 27.47683334350586 22.3302001953125 28.63496398925781 20.75542831420898 28.98357391357422 L 20.72761917114258 28.98932266235352 C 20.5831298828125 29.01702308654785 20.42034912109375 29.03049278259277 20.2299690246582 29.03049278259277 C 19.76681900024414 29.03049278259277 19.16323852539062 28.95173263549805 18.39908981323242 28.85201263427734 C 17.32508850097656 28.71186256408691 15.98844909667969 28.53743362426758 14.62421894073486 28.53743362426758 L 14.43203926086426 28.53743362426758 C 13.08016872406006 28.53743362426758 11.75244903564453 28.71216201782227 10.68559837341309 28.85255432128906 C 9.918258666992188 28.95353317260742 9.312170028686523 29.03329277038574 8.843658447265625 29.03329277038574 C 8.640779495239258 29.03329277038574 8.468069076538086 29.01806259155273 8.315649032592773 28.98673248291016 L 8.30082893371582 28.98357391357422 C 6.721059799194336 28.63386344909668 5.542490005493164 27.47481346130371 5.067338943481445 25.80363273620605 L 5.04949951171875 25.74088287353516 L 5.039958953857422 25.67634391784668 C 4.664968490600586 23.13891220092773 6.440799713134766 21.37591361999512 7.867710113525391 19.95932388305664 C 7.943611145019531 19.88396644592285 8.019012451171875 19.80911254882812 8.093538284301758 19.73469543457031 C 8.68305778503418 19.05111503601074 9.203817367553711 18.43734550476074 9.75469970703125 17.78807258605957 C 10.06462860107422 17.42279243469238 10.3794994354248 17.05169296264648 10.71367835998535 16.65989303588867 L 10.72019958496094 16.65232276916504 C 11.48832702636719 15.76977348327637 12.21620750427246 15.23066902160645 13.0102596282959 14.95641136169434 C 13.17542171478271 14.89690971374512 13.34392356872559 14.85118293762207 13.51132011413574 14.82043838500977 C 13.88070869445801 14.74999237060547 14.23025226593018 14.74999237060547 14.53880882263184 14.74999237060547 Z" stroke="none" fill="#eb7f33"/>
      </g>
    </g>
  </g>
</svg>
