<svg width="26" height="26" viewBox="0 0 26 26" fill="none" xmlns="http://www.w3.org/2000/svg">
<g id="Icon / Asiento">
<path id="Vector 4" d="M8.11117 22.2422V22.2422C4.18378 22.2422 1 19.0584 1 15.131L1 10.8704C1 6.94306 4.18378 3.75928 8.11117 3.75928V3.75928" stroke="#3365B4" stroke-width="1.5"/>
<path id="Vector 2" d="M22.0374 25.0002L10.4562 25.0002C9.16115 25.0002 8.11133 23.9504 8.11133 22.6554V22.6554C8.11133 21.3604 9.15974 20.3105 10.4548 20.3105C12.8494 20.3105 16.5996 20.3105 19.3707 20.3105" stroke="#3365B4" stroke-width="1.5"/>
<path id="Vector 3" d="M19.3707 5.68969H19.25L10.4562 5.68969C9.16115 5.68969 8.11133 4.63987 8.11133 3.34485V3.34485C8.11133 2.04982 9.16115 1 10.4562 1L22.1855 1" stroke="#3365B4" stroke-width="1.5"/>
<path id="Vector 1" d="M25 3.81465L25 22.1852C25 23.7398 23.7398 25 22.1852 25C20.6306 25 19.3704 23.7398 19.3704 22.1852L19.3704 3.81465C19.3704 2.26006 20.6306 0.999813 22.1852 0.999813C23.7398 0.999813 25 2.26006 25 3.81465Z" stroke="#3365B4" stroke-width="1.5"/>
</g>
</svg>
