<svg width="32" height="32" viewBox="0 0 32 32" fill="none" xmlns="http://www.w3.org/2000/svg">
<g id="Icon / bus-outline">
<path id="Vector" d="M25 7H7C5.89543 7 5 7.89543 5 9V17C5 18.1046 5.89543 19 7 19H25C26.1046 19 27 18.1046 27 17V9C27 7.89543 26.1046 7 25 7Z" stroke="#7F7F7F" stroke-width="1.5" stroke-linecap="round" stroke-linejoin="round"/>
<path id="Vector_2" d="M25 19H7C5.89543 19 5 19.8954 5 21V25C5 26.1046 5.89543 27 7 27H25C26.1046 27 27 26.1046 27 25V21C27 19.8954 26.1046 19 25 19Z" stroke="#7F7F7F" stroke-width="1.5" stroke-linecap="round" stroke-linejoin="round"/>
<path id="Vector_3" d="M25 7H7C6.47002 6.99852 5.96218 6.78733 5.58743 6.41257C5.21267 6.03782 5.00148 5.52998 5 5C5.00148 4.47002 5.21267 3.96218 5.58743 3.58743C5.96218 3.21267 6.47002 3.00148 7 3H25C25.53 3.00148 26.0378 3.21267 26.4126 3.58743C26.7873 3.96218 26.9985 4.47002 27 5C26.9985 5.52998 26.7873 6.03782 26.4126 6.41257C26.0378 6.78733 25.53 6.99852 25 7ZM9 27V28.375C9 28.5408 8.93415 28.6997 8.81694 28.8169C8.69973 28.9342 8.54076 29 8.375 29H6.625C6.45924 29 6.30027 28.9342 6.18306 28.8169C6.06585 28.6997 6 28.5408 6 28.375V27H9ZM26 27V28.375C26 28.5408 25.9342 28.6997 25.8169 28.8169C25.6997 28.9342 25.5408 29 25.375 29H23.625C23.4592 29 23.3003 28.9342 23.1831 28.8169C23.0658 28.6997 23 28.5408 23 28.375V27H26Z" stroke="#7F7F7F" stroke-width="1.5" stroke-linecap="round" stroke-linejoin="round"/>
<path id="Vector_4" d="M23 24C23.5523 24 24 23.5523 24 23C24 22.4477 23.5523 22 23 22C22.4477 22 22 22.4477 22 23C22 23.5523 22.4477 24 23 24Z" stroke="#7F7F7F" stroke-width="1.5" stroke-linejoin="round"/>
<path id="Vector_5" d="M9 24C9.55228 24 10 23.5523 10 23C10 22.4477 9.55228 22 9 22C8.44772 22 8 22.4477 8 23C8 23.5523 8.44772 24 9 24Z" stroke="#7F7F7F" stroke-width="1.5" stroke-linejoin="round"/>
<path id="Vector_6" d="M16 7V19M5 5V23M27 5V23" stroke="#7F7F7F" stroke-width="1.5" stroke-linecap="round" stroke-linejoin="round"/>
</g>
</svg>
