<svg xmlns="http://www.w3.org/2000/svg" xmlns:xlink="http://www.w3.org/1999/xlink" width="20" height="36" viewBox="0 0 20 36">
  <defs>
    <clipPath id="clip-path">
      <path id="Trazado_32220" data-name="Trazado 32220" d="M0,0H20V36H0Z" transform="translate(-5393 7667) rotate(180)" fill="#fff"/>
    </clipPath>
  </defs>
  <g id="Enmascarar_grupo_18" data-name="Enmascarar grupo 18" transform="translate(-5393 7667) rotate(180)" clip-path="url(#clip-path)">
    <g id="Trazado_32172" data-name="Trazado 32172" transform="translate(-5393 7732) rotate(180)" fill="#fff">
      <path d="M 520.4632568359375 165.4998779296875 L 15.53622817993164 165.4998779296875 C 11.52269458770752 165.4998779296875 7.74862813949585 163.8894805908203 4.909161567687988 160.9652862548828 C 2.065894842147827 158.0371398925781 0.500028133392334 154.1428833007812 0.500028133392334 149.9999389648438 L 0.500028133392334 117.5143432617188 L 0.500028133392334 15.99994659423828 C 0.500028133392334 11.85701370239258 2.065894842147827 7.962746620178223 4.909161567687988 5.034613132476807 C 7.74862813949585 2.110413312911987 11.52269458770752 0.5000132322311401 15.53622817993164 0.5000132322311401 L 520.4632568359375 0.5000132322311401 C 524.4767456054688 0.5000132322311401 528.2508544921875 2.110413312911987 531.0902099609375 5.034613132476807 C 533.9335327148438 7.962746620178223 535.4994506835938 11.85701370239258 535.4994506835938 15.99994659423828 L 535.4994506835938 149.9999389648438 C 535.4994506835938 154.1428833007812 533.9335327148438 158.0371398925781 531.0902099609375 160.9652862548828 C 528.2508544921875 163.8894805908203 524.4767456054688 165.4998779296875 520.4632568359375 165.4998779296875 Z" stroke="none"/>
      <path d="M 15.5362548828125 1.000015258789062 C 11.6590576171875 1.000015258789062 8.01239013671875 2.556549072265625 5.26788330078125 5.382949829101562 C 2.51568603515625 8.21728515625 0.99993896484375 11.98780822753906 0.99993896484375 15.99995422363281 L 0.99993896484375 149.9999389648438 C 0.99993896484375 154.0120849609375 2.51568603515625 157.7826080322266 5.26788330078125 160.616943359375 C 8.01239013671875 163.4433441162109 11.6590576171875 164.9998779296875 15.5362548828125 164.9998779296875 L 520.463134765625 164.9998779296875 C 524.34033203125 164.9998779296875 527.9869995117188 163.4433441162109 530.7315063476562 160.616943359375 C 533.4837036132812 157.7826843261719 534.9993896484375 154.0121459960938 534.9993896484375 149.9999389648438 L 534.9993896484375 15.99995422363281 C 534.9993896484375 11.98774719238281 533.4837036132812 8.217208862304688 530.7315063476562 5.382949829101562 C 527.9869995117188 2.556549072265625 524.34033203125 1.000015258789062 520.463134765625 1.000015258789062 L 15.5362548828125 1.000015258789062 M 15.5362548828125 1.52587890625e-05 L 520.463134765625 1.52587890625e-05 C 529.0435791015625 1.52587890625e-05 535.9993896484375 7.163406372070312 535.9993896484375 15.99995422363281 L 535.9993896484375 149.9999389648438 C 535.9993896484375 158.8364868164062 529.0435791015625 165.9998779296875 520.463134765625 165.9998779296875 L 15.5362548828125 165.9998779296875 C 6.955810546875 165.9998779296875 -6.103515625e-05 158.8364868164062 -6.103515625e-05 149.9999389648438 L -6.103515625e-05 15.99995422363281 C -6.103515625e-05 7.163406372070312 6.955810546875 1.52587890625e-05 15.5362548828125 1.52587890625e-05 Z" stroke="none" fill="#eb7f33"/>
    </g>
    <g id="Elipse_101" data-name="Elipse 101" transform="translate(-5375.911 7667) rotate(180)" fill="#f6f8fb" stroke="#eb7f33" stroke-width="1">
      <ellipse cx="17.478" cy="18" rx="17.478" ry="18" stroke="none"/>
      <ellipse cx="17.478" cy="18" rx="16.978" ry="17.5" fill="none"/>
    </g>
  </g>
</svg>
