<svg width="32" height="32" viewBox="0 0 32 32" fill="none" xmlns="http://www.w3.org/2000/svg">
<g id="close">
<path id="Vector" d="M17.5908 15.4703L17.0603 16.0008L17.591 16.5311L23.5321 22.4685C23.5321 22.4685 23.5322 22.4686 23.5323 22.4686C23.6733 22.6098 23.7525 22.8011 23.7525 23.0006C23.7525 23.2003 23.6732 23.3917 23.5321 23.5328L24.0624 24.0631L23.5321 23.5328C23.3909 23.674 23.1995 23.7533 22.9999 23.7533C22.8003 23.7533 22.6089 23.674 22.4677 23.5328L16.5302 17.5953L15.9999 17.065L15.4696 17.5953L9.53209 23.5328L10.0624 24.0631L9.53209 23.5328C9.39095 23.674 9.19952 23.7533 8.99992 23.7533C8.80031 23.7533 8.60889 23.674 8.46775 23.5328L7.93795 24.0626L8.46775 23.5328C8.32661 23.3917 8.24731 23.2003 8.24731 23.0006C8.24731 22.801 8.32661 22.6096 8.46775 22.4685L14.4052 16.531L14.9356 16.0006L14.4052 15.4703L8.46775 9.53282C8.32661 9.39168 8.24731 9.20025 8.24731 9.00065C8.24731 8.80105 8.32661 8.60962 8.46775 8.46848C8.60889 8.32734 8.80031 8.24805 8.99992 8.24805C9.19952 8.24805 9.39095 8.32734 9.53209 8.46848L15.4696 14.406L15.9999 14.9363L16.5302 14.406L22.4673 8.46895C22.6083 8.32818 22.7995 8.2492 22.9987 8.24937C23.198 8.24955 23.389 8.32887 23.5297 8.46988C23.6705 8.6109 23.7495 8.80206 23.7493 9.00131C23.7491 9.20056 23.6698 9.39158 23.5288 9.53235L23.5283 9.53282L17.5908 15.4703Z" fill="black" stroke="#3365B4" stroke-width="1.5"/>
</g>
</svg>
