<svg xmlns="http://www.w3.org/2000/svg" width="18.163" height="18.163" viewBox="0 0 18.163 18.163">
  <path id="Icon_open-magnifying-glass" data-name="Icon open-magnifying-glass" d="M7.875-.023a7.875,7.875,0,1,0,0,15.75,7.784,7.784,0,0,0,3.735-.923,2.25,2.25,0,0,0,.292.292l2.25,2.25a2.3,2.3,0,1,0,3.24-3.24l-2.25-2.25a2.25,2.25,0,0,0-.36-.292,7.769,7.769,0,0,0,.99-3.735A7.884,7.884,0,0,0,7.9-.045Zm0,2.25A5.6,5.6,0,0,1,13.5,7.853a5.642,5.642,0,0,1-1.485,3.87l-.068.068a2.25,2.25,0,0,0-.292.292,5.63,5.63,0,0,1-3.8,1.418,5.625,5.625,0,0,1,0-11.25Z" transform="translate(0 0.045)" fill="#fff"/>
</svg>
