<svg xmlns="http://www.w3.org/2000/svg" width="45.395" height="49.769" viewBox="0 0 45.395 49.769">
  <g id="Grupo_1745" data-name="Grupo 1745" transform="translate(-659.999 -684)">
    <path id="Trazado_32217" data-name="Trazado 32217" d="M24.46,0C37.991.021,48.977,10.011,49,22.312s-10.93,22.256-24.46,22.235S.021,34.536,0,22.235,10.93-.021,24.46,0Z" transform="matrix(0.017, 1, -1, 0.017, 704.539, 684)" fill="#f1f4f9"/>
    <path id="Icon_awesome-exchange-alt" data-name="Icon awesome-exchange-alt" d="M0,4.78V4.1A.981.981,0,0,1,.931,3.073H14.894V1.025A.924.924,0,0,1,16.483.3l3.1,3.413a1.1,1.1,0,0,1,0,1.448l-3.1,3.413a.924.924,0,0,1-1.589-.724V5.8H.931A.981.981,0,0,1,0,4.78Zm18.928,6.485H4.965V9.217a.924.924,0,0,0-1.589-.724l-3.1,3.413a1.1,1.1,0,0,0,0,1.448l3.1,3.413a.924.924,0,0,0,1.589-.724V14H18.928a.981.981,0,0,0,.931-1.024v-.683A.981.981,0,0,0,18.928,11.265Z" transform="translate(673 701)" fill="#eb7f33"/>
  </g>
</svg>
