<svg xmlns="http://www.w3.org/2000/svg" width="26.761" height="27.984" viewBox="0 0 26.761 27.984">
  <g id="noun-person-2320510" transform="translate(0.35 0.35)">
    <path id="Trazado_6" data-name="Trazado 6" d="M154.365,265.918a.525.525,0,0,0-.467.941c2.427,1.2,3.82,2.869,3.82,4.574,0,3.472-5.375,6.3-11.981,6.3s-11.981-2.824-11.981-6.3c0-1.705,1.391-3.373,3.819-4.574a.525.525,0,0,0-.466-.941c-2.8,1.385-4.4,3.4-4.4,5.516,0,4.119,5.723,7.346,13.03,7.346s13.03-3.227,13.03-7.346c0-2.12-1.6-4.13-4.4-5.516Z" transform="translate(-132.706 -251.496)" fill="#eb7f33" stroke="#eb7f33" stroke-width="0.7"/>
    <path id="Trazado_7" data-name="Trazado 7" d="M233.241,41.985v4.733a2.627,2.627,0,0,0,2.624,2.623h4.2a2.626,2.626,0,0,0,2.623-2.623V41.986a2.628,2.628,0,0,0,2.427-2.615,7.082,7.082,0,0,0-3.875-6.327,4.156,4.156,0,0,0,.92-2.592,4.2,4.2,0,1,0-8.4,0,4.157,4.157,0,0,0,.925,2.6,7.081,7.081,0,0,0-3.867,6.323,2.626,2.626,0,0,0,2.419,2.614ZM237.962,27.3a3.148,3.148,0,1,1-3.148,3.148A3.152,3.152,0,0,1,237.962,27.3Zm-2.475,6.522a4.124,4.124,0,0,0,4.952,0,6.044,6.044,0,0,1,3.626,5.55,1.577,1.577,0,0,1-1.574,1.573h-.328a.525.525,0,0,0-.525.525v5.249a1.576,1.576,0,0,1-1.574,1.574h-4.2a1.576,1.576,0,0,1-1.574-1.574V41.469a.525.525,0,0,0-.525-.525h-.321a1.576,1.576,0,0,1-1.574-1.573A6.044,6.044,0,0,1,235.487,33.825Z" transform="translate(-224.938 -26.254)" fill="#eb7f33" stroke="#eb7f33" stroke-width="0.7"/>
  </g>
</svg>
