<svg xmlns="http://www.w3.org/2000/svg" width="25.5" height="25.5" viewBox="0 0 25.5 25.5">
  <path id="Icon_awesome-linkedin" data-name="Icon awesome-linkedin" d="M23.679,2.25H1.816A1.829,1.829,0,0,0,0,4.089V25.911A1.829,1.829,0,0,0,1.816,27.75H23.679A1.834,1.834,0,0,0,25.5,25.911V4.089A1.834,1.834,0,0,0,23.679,2.25ZM7.707,24.107H3.927V11.938H7.713V24.107ZM5.817,10.276A2.191,2.191,0,1,1,8.009,8.084a2.192,2.192,0,0,1-2.191,2.191ZM21.874,24.107H18.095v-5.92c0-1.412-.028-3.227-1.964-3.227-1.969,0-2.271,1.537-2.271,3.125v6.022H10.08V11.938h3.626V13.6h.051a3.981,3.981,0,0,1,3.58-1.964c3.825,0,4.536,2.522,4.536,5.8Z" transform="translate(0 -2.25)" fill="#fff"/>
</svg>
