<svg xmlns="http://www.w3.org/2000/svg" width="25.317" height="25.317" viewBox="0 0 25.317 25.317">
  <path id="Icon_awesome-bus" data-name="Icon awesome-bus" d="M23.177,6.079H22.8V3.8C22.8,1.672,18.086,0,12.158,0S1.52,1.672,1.52,3.8v2.28H1.14A1.14,1.14,0,0,0,0,7.219v3.8a1.14,1.14,0,0,0,1.14,1.14h.38v7.6a1.52,1.52,0,0,0,1.52,1.52V22.8a1.52,1.52,0,0,0,1.52,1.52h1.52A1.52,1.52,0,0,0,7.6,22.8v-1.52h9.119V22.8a1.52,1.52,0,0,0,1.52,1.52h1.52a1.52,1.52,0,0,0,1.52-1.52v-1.52h.3A1.2,1.2,0,0,0,22.8,20.061v-7.9h.38a1.14,1.14,0,0,0,1.14-1.14v-3.8A1.14,1.14,0,0,0,23.177,6.079ZM5.319,19a1.52,1.52,0,1,1,1.52-1.52A1.52,1.52,0,0,1,5.319,19Zm.76-5.319a1.52,1.52,0,0,1-1.52-1.52V6.079a1.52,1.52,0,0,1,1.52-1.52H18.238a1.52,1.52,0,0,1,1.52,1.52v6.079a1.52,1.52,0,0,1-1.52,1.52ZM19,19a1.52,1.52,0,1,1,1.52-1.52A1.52,1.52,0,0,1,19,19Z" transform="translate(0.5 0.5)" fill="none" stroke="#9a9a9a" stroke-width="1"/>
</svg>
