<svg xmlns="http://www.w3.org/2000/svg" width="26.761" height="92.619" viewBox="0 0 26.761 92.619">
  <g id="Grupo_1745" data-name="Grupo 1745" transform="translate(-340.65 -536.65)">
    <g id="noun-person-2320510" transform="translate(208.294 510.746)">
      <path id="Trazado_6" data-name="Trazado 6" d="M154.365,265.918a.525.525,0,0,0-.467.941c2.427,1.2,3.82,2.869,3.82,4.574,0,3.472-5.375,6.3-11.981,6.3s-11.981-2.824-11.981-6.3c0-1.705,1.391-3.373,3.819-4.574a.525.525,0,0,0-.466-.941c-2.8,1.385-4.4,3.4-4.4,5.516,0,4.119,5.723,7.346,13.03,7.346s13.03-3.227,13.03-7.346c0-2.12-1.6-4.13-4.4-5.516Z" transform="translate(0 -225.242)" fill="#eb7f33" stroke="#eb7f33" stroke-width="0.7"/>
      <path id="Trazado_7" data-name="Trazado 7" d="M233.241,41.985v4.733a2.627,2.627,0,0,0,2.624,2.623h4.2a2.626,2.626,0,0,0,2.623-2.623V41.986a2.628,2.628,0,0,0,2.427-2.615,7.082,7.082,0,0,0-3.875-6.327,4.156,4.156,0,0,0,.92-2.592,4.2,4.2,0,1,0-8.4,0,4.157,4.157,0,0,0,.925,2.6,7.081,7.081,0,0,0-3.867,6.323,2.626,2.626,0,0,0,2.419,2.614ZM237.962,27.3a3.148,3.148,0,1,1-3.148,3.148A3.152,3.152,0,0,1,237.962,27.3Zm-2.475,6.522a4.124,4.124,0,0,0,4.952,0,6.044,6.044,0,0,1,3.626,5.55,1.577,1.577,0,0,1-1.574,1.573h-.328a.525.525,0,0,0-.525.525v5.249a1.576,1.576,0,0,1-1.574,1.574h-4.2a1.576,1.576,0,0,1-1.574-1.574V41.469a.525.525,0,0,0-.525-.525h-.321a1.576,1.576,0,0,1-1.574-1.573A6.044,6.044,0,0,1,235.487,33.825Z" transform="translate(-92.232 0)" fill="#eb7f33" stroke="#eb7f33" stroke-width="0.7"/>
    </g>
    <g id="Icon_feather-map-pin" data-name="Icon feather-map-pin" transform="translate(340.774 604.945)">
      <path id="Trazado_4" data-name="Trazado 4" d="M22.356,10.428c0,6.944-8.928,12.9-8.928,12.9S4.5,17.372,4.5,10.428a8.928,8.928,0,1,1,17.856,0Z" transform="translate(0 0)" fill="none" stroke="#eb7f33" stroke-linecap="round" stroke-linejoin="round" stroke-width="2"/>
      <path id="Trazado_5" data-name="Trazado 5" d="M19.452,13.476A2.976,2.976,0,1,1,16.476,10.5,2.976,2.976,0,0,1,19.452,13.476Z" transform="translate(-3.048 -3.048)" fill="none" stroke="#eb7f33" stroke-linecap="round" stroke-linejoin="round" stroke-width="2"/>
    </g>
    <line id="Línea_129" data-name="Línea 129" y1="40" transform="translate(353.864 566.783)" fill="none" stroke="#3f64ae" stroke-width="2" stroke-dasharray="3"/>
  </g>
</svg>
