<svg xmlns="http://www.w3.org/2000/svg" width="109.732" height="90.195" viewBox="0 0 109.732 90.195">
  <g id="Grupo_1745" data-name="Grupo 1745" transform="translate(1.061 1.061)">
    <g id="noun-movie-ticket-1807393">
      <path id="Trazado_20" data-name="Trazado 20" d="M80.734,66.434,91.743,77.443,93.686,75.5a7.327,7.327,0,0,1,10.361,10.361L102.1,87.8l11.009,11.009L168.808,43.12,157.8,32.111l-1.943,1.943a7.327,7.327,0,1,1-10.361-10.361l1.943-1.943L136.428,10.74Zm7.772,0L120.238,34.7,144.847,59.31,113.114,91.042l-3.481-3.481A12.783,12.783,0,0,0,91.966,69.893l-3.461-3.461Zm35.619-35.618,12.3-12.3,3.461,3.461a12.783,12.783,0,0,0,17.668,17.667l3.481,3.481-12.3,12.3Z" transform="translate(-80.734 -10.74)" fill="#eb7f33" stroke="#f8f9fc" stroke-width="1.5"/>
    </g>
    <path id="Icon_awesome-check-circle" data-name="Icon awesome-check-circle" d="M33.945,17.254A16.691,16.691,0,1,1,17.254.562,16.691,16.691,0,0,1,33.945,17.254ZM15.323,26.092,27.707,13.708a1.077,1.077,0,0,0,0-1.523l-1.523-1.523a1.077,1.077,0,0,0-1.523,0l-10.1,10.1L9.846,16.046a1.077,1.077,0,0,0-1.523,0L6.8,17.569a1.077,1.077,0,0,0,0,1.523l7,7a1.077,1.077,0,0,0,1.523,0Z" transform="translate(74.726 45.791)" fill="#7dce60"/>
  </g>
</svg>
