<svg width="56" height="56" viewBox="0 0 56 56" fill="none" xmlns="http://www.w3.org/2000/svg">
<path d="M33.7744 18.7834C33.5172 22.253 30.8869 25.0834 27.9994 25.0834C25.1119 25.0834 22.4771 22.2537 22.2244 18.7834C21.9619 15.174 24.5213 12.4834 27.9994 12.4834C31.4775 12.4834 34.0369 15.2396 33.7744 18.7834Z" stroke="#3365B4" stroke-width="2" stroke-linecap="round" stroke-linejoin="round"/>
<path d="M28.0002 29.2833C22.2908 29.2833 16.4962 32.4333 15.4238 38.379C15.2946 39.0956 15.7001 39.7833 16.4502 39.7833H39.5502C40.301 39.7833 40.7065 39.0956 40.5772 38.379C39.5043 32.4333 33.7096 29.2833 28.0002 29.2833Z" stroke="#3365B4" stroke-width="2" stroke-miterlimit="10"/>
<path d="M49 28C49 16.4062 39.5938 7 28 7C16.4062 7 7 16.4062 7 28C7 39.5938 16.4062 49 28 49C39.5938 49 49 39.5938 49 28Z" stroke="#3365B4" stroke-width="2" stroke-miterlimit="10"/>
</svg>
