<svg xmlns="http://www.w3.org/2000/svg" width="25.35" height="24.188" viewBox="0 0 25.35 24.188">
  <g id="Icon_material-pets" data-name="Icon material-pets" transform="translate(1 1)">
    <g id="Trazado_15" data-name="Trazado 15" transform="translate(-3 -5.83)" fill="none">
      <path d="M8.837,13.419A2.919,2.919,0,1,1,5.919,10.5,2.919,2.919,0,0,1,8.837,13.419Z" stroke="none"/>
      <path d="M 5.91874361038208 10.50000190734863 C 4.306763648986816 10.50000190734863 3.000003814697266 11.80677223205566 3.000003814697266 13.41874217987061 C 3.000003814697266 15.03072261810303 4.306763648986816 16.33748245239258 5.91874361038208 16.33748245239258 C 7.530723571777344 16.33748245239258 8.837483406066895 15.03072261810303 8.837483406066895 13.41874217987061 C 8.837483406066895 11.80677223205566 7.530723571777344 10.50000190734863 5.91874361038208 10.50000190734863 M 5.91874361038208 9.500001907348633 C 8.079544067382812 9.500001907348633 9.837483406066895 11.25794219970703 9.837483406066895 13.41874217987061 C 9.837483406066895 15.57954216003418 8.079544067382812 17.33748245239258 5.91874361038208 17.33748245239258 C 3.757943153381348 17.33748245239258 2.000003814697266 15.57954216003418 2.000003814697266 13.41874217987061 C 2.000003814697266 11.25794219970703 3.757943153381348 9.500001907348633 5.91874361038208 9.500001907348633 Z" stroke="none" fill="#9a9a9a"/>
    </g>
    <g id="Trazado_16" data-name="Trazado 16" transform="translate(-4.496 -4.5)" fill="none">
      <path d="M15.587,7.419A2.919,2.919,0,1,1,12.669,4.5a2.919,2.919,0,0,1,2.919,2.919Z" stroke="none"/>
      <path d="M 12.66874122619629 4.500000953674316 C 11.05677127838135 4.500000953674316 9.750000953674316 5.806760787963867 9.750000953674316 7.418741226196289 C 9.750000953674316 9.030721664428711 11.05677127838135 10.33748054504395 12.66874122619629 10.33748054504395 C 14.28072166442871 10.33748054504395 15.58748149871826 9.030721664428711 15.58748149871826 7.418741226196289 C 15.58748149871826 5.806760787963867 14.28072166442871 4.500000953674316 12.66874122619629 4.500000953674316 M 12.66874122619629 3.500000953674316 C 14.82954120635986 3.500000953674316 16.58748245239258 5.257941246032715 16.58748245239258 7.418741226196289 C 16.58748245239258 9.579541206359863 14.82954120635986 11.33748149871826 12.66874122619629 11.33748149871826 C 10.50794124603271 11.33748149871826 8.750001907348633 9.579541206359863 8.750001907348633 7.418741226196289 C 8.750001907348633 5.257941246032715 10.50794124603271 3.500000953674316 12.66874122619629 3.500000953674316 Z" stroke="none" fill="#9a9a9a"/>
    </g>
    <g id="Trazado_17" data-name="Trazado 17" transform="translate(-6.491 -4.5)" fill="none">
      <path d="M24.587,7.419A2.919,2.919,0,1,1,21.669,4.5a2.919,2.919,0,0,1,2.919,2.919Z" stroke="none"/>
      <path d="M 21.66875267028809 4.500000953674316 C 20.0567626953125 4.500000953674316 18.75000381469727 5.806760787963867 18.74999237060547 7.418741226196289 C 18.74999237060547 9.030721664428711 20.0567626953125 10.33748054504395 21.66874313354492 10.33748054504395 C 23.28072357177734 10.33748054504395 24.58749389648438 9.030721664428711 24.58748245239258 7.418741226196289 L 24.58749389648438 7.418741226196289 C 24.58749389648438 5.806760787963867 23.28072357177734 4.500000953674316 21.66875267028809 4.500000953674316 M 21.66875267028809 3.500000953674316 C 23.82955360412598 3.500000953674316 25.58749389648438 5.257941246032715 25.58749389648438 7.418741226196289 C 25.58749389648438 9.579541206359863 23.82955360412598 11.33748149871826 21.66874313354492 11.33748149871826 C 19.50793266296387 11.33748149871826 17.74999237060547 9.579541206359863 17.74999237060547 7.418741226196289 C 17.75000381469727 5.257941246032715 19.50795364379883 3.500000953674316 21.66875267028809 3.500000953674316 Z" stroke="none" fill="#9a9a9a"/>
    </g>
    <g id="Trazado_18" data-name="Trazado 18" transform="translate(-7.988 -5.83)" fill="none">
      <path d="M31.337,13.419A2.919,2.919,0,1,1,28.419,10.5,2.919,2.919,0,0,1,31.337,13.419Z" stroke="none"/>
      <path d="M 28.41873550415039 10.50000190734863 C 26.80675506591797 10.50000190734863 25.49999618530273 11.80677223205566 25.49999618530273 13.41874217987061 C 25.49999618530273 15.03072261810303 26.80675506591797 16.33748245239258 28.41873550415039 16.33748245239258 C 30.03071594238281 16.33748245239258 31.33747482299805 15.03072261810303 31.33747482299805 13.41874217987061 C 31.33747482299805 11.80677223205566 30.03071594238281 10.50000190734863 28.41873550415039 10.50000190734863 M 28.41873550415039 9.500001907348633 C 30.57953643798828 9.500001907348633 32.33747482299805 11.25794219970703 32.33747482299805 13.41874217987061 C 32.33747482299805 15.57954216003418 30.57953643798828 17.33748245239258 28.41873550415039 17.33748245239258 C 26.2579345703125 17.33748245239258 24.49999618530273 15.57954216003418 24.49999618530273 13.41874217987061 C 24.49999618530273 11.25794219970703 26.2579345703125 9.500001907348633 28.41873550415039 9.500001907348633 Z" stroke="none" fill="#9a9a9a"/>
    </g>
    <g id="Trazado_19" data-name="Trazado 19" transform="translate(-3.663 -6.994)" fill="none">
      <path d="M21.572,20.84c-1.016-1.191-1.868-2.207-2.9-3.4A4.953,4.953,0,0,0,16.634,15.9a2.363,2.363,0,0,0-.385-.105,5.876,5.876,0,0,0-.911-.047,4.9,4.9,0,0,0-.922.058,2.365,2.365,0,0,0-.385.105,5.029,5.029,0,0,0-2.043,1.541c-1.016,1.191-1.868,2.207-2.9,3.4-1.529,1.529-3.409,3.222-3.059,5.592a3.666,3.666,0,0,0,2.72,2.709c.852.175,3.573-.514,6.468-.514h.21c2.9,0,5.616.677,6.468.514a3.683,3.683,0,0,0,2.72-2.709C24.981,24.063,23.1,22.37,21.572,20.84Z" stroke="none"/>
      <path d="M 15.33782005310059 15.7499942779541 C 15.03426933288574 15.7499942779541 14.71903991699219 15.7499942779541 14.41548919677734 15.80836296081543 C 14.28706932067871 15.83172416687012 14.15864944458008 15.86675453186035 14.03022003173828 15.91344451904297 C 13.21296882629395 16.19365310668945 12.53582000732422 16.82409477233887 11.98710060119629 17.45454406738281 C 10.97138023376465 18.64539337158203 10.11911010742188 19.66111373901367 9.091709136962891 20.85197448730469 C 7.562290191650391 22.38138389587402 5.682619094848633 24.07425308227539 6.032869338989258 26.44427299499512 C 6.371438980102539 27.6351146697998 7.223709106445312 28.81429290771484 8.753139495849609 29.15286254882812 C 9.605419158935547 29.32799530029297 12.3256664276123 28.63917350769043 15.2210693359375 28.63917350769043 L 15.43122005462646 28.63917350769043 C 18.32661056518555 28.63917350769043 21.04687118530273 29.31632232666016 21.89915084838867 29.15286254882812 C 23.42856979370117 28.81429290771484 24.28084945678711 27.62345314025879 24.61941909790039 26.44427299499512 C 24.9813404083252 24.06258392333984 23.10166931152344 22.36971473693848 21.57225036621094 20.84028434753418 C 20.5565299987793 19.64944458007812 19.70425033569336 18.63372421264648 18.67686080932617 17.44287300109863 C 18.13980865478516 16.81242370605469 17.45098876953125 16.18197441101074 16.63373947143555 15.90177345275879 C 16.50531005859375 15.85507392883301 16.37689018249512 15.82004356384277 16.24845886230469 15.79669380187988 C 15.9565896987915 15.7499942779541 15.64136981964111 15.7499942779541 15.33782005310059 15.7499942779541 M 15.33782005310059 14.7499942779541 C 15.66512012481689 14.7499942779541 16.03609085083008 14.7499942779541 16.40644836425781 14.80925369262695 L 16.42733955383301 14.81282424926758 C 16.60743713378906 14.8455638885498 16.78881645202637 14.8946533203125 16.96665191650391 14.95878219604492 C 17.83123779296875 15.2573299407959 18.63904190063477 15.85702705383301 19.43589210510254 16.79181480407715 C 20.09630584716797 17.55731964111328 20.67522048950195 18.23962593078613 21.28815078735352 18.96203422546387 C 21.61785125732422 19.35061836242676 21.95272827148438 19.74530410766602 22.30727005004883 20.16107177734375 C 22.38833045959473 20.24201011657715 22.47032928466797 20.32342338562012 22.55287933349609 20.4053840637207 C 24.09970092773438 21.94112396240234 26.02475929260254 23.85240364074707 25.60807037353516 26.59450340270996 L 25.59837913513184 26.65826416015625 L 25.58058929443359 26.72024345397949 C 25.06579971313477 28.51314353942871 23.80274963378906 29.75567245483398 22.11528968811035 30.12922286987305 L 22.0875301361084 30.13496398925781 C 21.93540000915527 30.16414260864258 21.76313972473145 30.17832374572754 21.56090927124023 30.17832374572754 C 21.06053924560547 30.17832374572754 20.4032096862793 30.09254455566406 19.57099914550781 29.98394393920898 C 18.39392852783203 29.83034515380859 16.92902946472168 29.63917350769043 15.43122005462646 29.63917350769043 L 15.2210693359375 29.63917350769043 C 13.73671913146973 29.63917350769043 12.28153038024902 29.83067321777344 11.11225891113281 29.98454284667969 C 10.2765998840332 30.09451293945312 9.616539001464844 30.18137359619141 9.110370635986328 30.18137359619141 C 8.894960403442383 30.18137359619141 8.7122802734375 30.16535377502441 8.551889419555664 30.13240432739258 L 8.53700065612793 30.12922286987305 C 6.844160079956055 29.75448417663574 5.580850601196289 28.51104354858398 5.070989608764648 26.71774291992188 L 5.053150177001953 26.65500450134277 L 5.043609619140625 26.59047317504883 C 4.640480041503906 23.86259460449219 6.563699722290039 21.9532642364502 8.109039306640625 20.41909408569336 C 8.19294548034668 20.33579444885254 8.276283264160156 20.25305366516113 8.358654022216797 20.17080116271973 C 9.004571914672852 19.42184257507324 9.57484245300293 18.74972152709961 10.17815971374512 18.03864288330078 C 10.51688957214355 17.63941383361816 10.86103057861328 17.23381423950195 11.22625923156738 16.80560302734375 L 11.23278999328613 16.79802322387695 C 12.06152725219727 15.84585762023926 12.84483909606934 15.2649097442627 13.6970100402832 14.97056007385254 C 13.87351226806641 14.90690422058105 14.05354881286621 14.8580493927002 14.2323112487793 14.82527351379395 C 14.62736129760742 14.74999809265137 15.00471305847168 14.7499942779541 15.33782005310059 14.7499942779541 Z" stroke="none" fill="#9a9a9a"/>
    </g>
  </g>
</svg>
