<svg xmlns="http://www.w3.org/2000/svg" width="33.716" height="32.404" viewBox="0 0 33.716 32.404">
  <g id="Grupo_1509" data-name="Grupo 1509" transform="translate(3635.615 -8594.438)">
    <path id="Unión_1" data-name="Unión 1" d="M-2594.18-544.82a9.665,9.665,0,0,1-4.274.99,9.712,9.712,0,0,1-9.709-9.708,9.668,9.668,0,0,1,.864-4.008,6.743,6.743,0,0,1-3.142-5.7,6.751,6.751,0,0,1,5.38-6.607,6.751,6.751,0,0,1,6.607-5.378,6.711,6.711,0,0,1,3.619,1.053,6.71,6.71,0,0,1,3.619-1.053,6.751,6.751,0,0,1,6.577,5.242l.168,0a6.748,6.748,0,0,1,6.746,6.745,6.744,6.744,0,0,1-3.294,5.8,9.667,9.667,0,0,1,.823,3.914,9.712,9.712,0,0,1-9.708,9.708A9.667,9.667,0,0,1-2594.18-544.82Z" transform="translate(-1024.674 9170.172)" fill="none" stroke="#e75f00" stroke-width="1" opacity="0.6"/>
    <g id="Icon_material-pets" data-name="Icon material-pets" transform="translate(-3629.435 8600.494)" opacity="0.6">
      <path id="Trazado_15" data-name="Trazado 15" d="M8.339,13.169A2.669,2.669,0,1,1,5.669,10.5,2.669,2.669,0,0,1,8.339,13.169Z" transform="translate(-3 -6.229)" fill="#e75f00"/>
      <path id="Trazado_16" data-name="Trazado 16" d="M15.089,7.169A2.669,2.669,0,1,1,12.419,4.5a2.669,2.669,0,0,1,2.669,2.669Z" transform="translate(-4.945 -4.5)" fill="#e75f00"/>
      <path id="Trazado_17" data-name="Trazado 17" d="M24.089,7.169A2.669,2.669,0,1,1,21.419,4.5a2.669,2.669,0,0,1,2.669,2.669Z" transform="translate(-7.539 -4.5)" fill="#e75f00"/>
      <path id="Trazado_18" data-name="Trazado 18" d="M30.838,13.169A2.669,2.669,0,1,1,28.169,10.5,2.669,2.669,0,0,1,30.838,13.169Z" transform="translate(-9.484 -6.229)" fill="#e75f00"/>
      <path id="Trazado_19" data-name="Trazado 19" d="M20.24,20.405c-.929-1.089-1.708-2.018-2.648-3.107a4.53,4.53,0,0,0-1.868-1.409,2.161,2.161,0,0,0-.352-.1,5.374,5.374,0,0,0-.833-.043,4.48,4.48,0,0,0-.843.053,2.163,2.163,0,0,0-.352.1,4.6,4.6,0,0,0-1.868,1.409c-.929,1.089-1.708,2.018-2.648,3.107-1.4,1.4-3.118,2.947-2.8,5.114a3.352,3.352,0,0,0,2.488,2.477c.779.16,3.267-.47,5.915-.47h.192c2.648,0,5.136.619,5.915.47a3.368,3.368,0,0,0,2.488-2.477C23.358,23.352,21.639,21.8,20.24,20.405Z" transform="translate(-3.862 -7.742)" fill="#e75f00"/>
    </g>
  </g>
</svg>
