<svg xmlns="http://www.w3.org/2000/svg" width="17.279" height="15.12" viewBox="0 0 17.279 15.12">
  <path id="Icon_awesome-camera" data-name="Icon awesome-camera" d="M17.28,6.03v9.72a1.62,1.62,0,0,1-1.62,1.62H1.62A1.62,1.62,0,0,1,0,15.75V6.03A1.62,1.62,0,0,1,1.62,4.41H4.59L5.005,3.3A1.618,1.618,0,0,1,6.52,2.25h4.236A1.618,1.618,0,0,1,12.271,3.3l.418,1.11h2.97A1.62,1.62,0,0,1,17.28,6.03Zm-4.59,4.86a4.05,4.05,0,1,0-4.05,4.05A4.053,4.053,0,0,0,12.69,10.89Zm-1.08,0A2.97,2.97,0,1,1,8.64,7.92,2.974,2.974,0,0,1,11.61,10.89Z" transform="translate(0 -2.25)" fill="#fff"/>
</svg>
