<svg xmlns="http://www.w3.org/2000/svg" width="25.785" height="25.183" viewBox="0 0 25.785 25.183">
  <g id="noun-calendar-time-4456993" transform="translate(0.25 0.25)">
    <path id="Trazado_8" data-name="Trazado 8" d="M105,84.678a3.01,3.01,0,0,1,3.01-3.01h19.265a3.01,3.01,0,0,1,3.01,3.01v16.857a3.01,3.01,0,0,1-3.01,3.01H108.01a3.01,3.01,0,0,1-3.01-3.01Zm3.01-1.806a1.806,1.806,0,0,0-1.806,1.806v16.857a1.806,1.806,0,0,0,1.806,1.806h19.265a1.806,1.806,0,0,0,1.806-1.806V84.678a1.806,1.806,0,0,0-1.806-1.806Z" transform="translate(-105 -79.862)" fill="#eb7f33" stroke="#eb7f33" stroke-width="0.5" fill-rule="evenodd"/>
    <path id="Trazado_9" data-name="Trazado 9" d="M105,84.678a3.01,3.01,0,0,1,3.01-3.01h19.265a3.01,3.01,0,0,1,3.01,3.01V88.29a.6.6,0,0,1-.6.6H105.6a.6.6,0,0,1-.6-.6Zm3.01-1.806a1.806,1.806,0,0,0-1.806,1.806v3.01h22.877v-3.01a1.806,1.806,0,0,0-1.806-1.806Z" transform="translate(-105 -79.862)" fill="#eb7f33" stroke="#eb7f33" stroke-width="0.5" fill-rule="evenodd"/>
    <path id="Trazado_10" data-name="Trazado 10" d="M176.2,46.668v4.214H175V46.668Z" transform="translate(-171.386 -46.668)" fill="#eb7f33" stroke="#eb7f33" stroke-width="0.5" fill-rule="evenodd"/>
    <path id="Trazado_11" data-name="Trazado 11" d="M339.538,46.668v4.214h-1.2V46.668Z" transform="translate(-326.293 -46.668)" fill="#eb7f33" stroke="#eb7f33" stroke-width="0.5" fill-rule="evenodd"/>
    <path id="Trazado_12" data-name="Trazado 12" d="M502.872,46.668v4.214h-1.2V46.668Z" transform="translate(-481.199 -46.668)" fill="#eb7f33" stroke="#eb7f33" stroke-width="0.5" fill-rule="evenodd"/>
  </g>
</svg>
