<svg id="Grupo_948" data-name="Grupo 948" xmlns="http://www.w3.org/2000/svg" width="42.749" height="43.659" viewBox="0 0 42.749 43.659">
  <path id="noun-help-1926157" d="M123.241,66.456h-5.663V60.793h5.663Zm1.506-12.175a2.827,2.827,0,0,0-1.506,2.636v1.045h-5.663V56.917a8.373,8.373,0,0,1,5-7.865,2.948,2.948,0,0,0,2.078-2.415c0-1.509-1.985-2.831-4.247-2.831s-4.247,1.322-4.247,2.831H110.5c0-4.683,4.445-8.494,9.91-8.494s9.91,3.811,9.91,8.494a8.408,8.408,0,0,1-5.572,7.645Z" transform="translate(-99.56 -30.043)" fill="#eb7f33"/>
  <g id="Trazado_32" data-name="Trazado 32" transform="translate(0 0)" fill="none">
    <path d="M21.175,0C32.87,0,42.35,9.773,42.35,21.83c0,5.317,1.651,13.288-1.765,17.5-3.533,4.377-12.873,4.332-19.411,4.332C9.48,43.659,0,33.886,0,21.83S9.48,0,21.175,0Z" stroke="none"/>
    <path d="M 21.17512512207031 3 C 16.33767509460449 3 11.78487396240234 4.947071075439453 8.355403900146484 8.482528686523438 C 4.901912689208984 12.04276084899902 2.999996185302734 16.78282928466797 2.999996185302734 21.82958030700684 C 2.999996185302734 26.87632942199707 4.901912689208984 31.61639976501465 8.355403900146484 35.17662811279297 C 11.78487396240234 38.71208953857422 16.33767509460449 40.65916061401367 21.17512512207031 40.65916061401367 L 21.57115364074707 40.6591796875 C 24.61977386474609 40.6591796875 28.41387557983398 40.6591796875 31.76003456115723 40.13729095458984 C 34.99022674560547 39.63348007202148 37.23488616943359 38.70164108276367 38.2513427734375 37.44250106811523 L 38.25607299804688 37.43664932250977 C 39.03098297119141 36.48162841796875 39.49284362792969 35.01322937011719 39.66803359985352 32.94754028320312 C 39.84860229492188 30.81853103637695 39.69295501708984 28.43107032775879 39.54242324829102 26.12222099304199 C 39.44359588623047 24.60638046264648 39.35024261474609 23.17460060119629 39.35024261474609 21.82958030700684 C 39.35024261474609 16.78282928466797 37.44832611083984 12.04276084899902 33.99483489990234 8.482528686523438 C 30.56536483764648 4.947071075439453 26.01257514953613 3 21.17512512207031 3 M 21.17512512207031 0 C 32.86981582641602 0 42.35024261474609 9.773441314697266 42.35024261474609 21.82958030700684 C 42.35024261474609 27.14633941650391 44.00088500976562 35.11788940429688 40.58565521240234 39.32690048217773 C 37.05228424072266 43.70388031005859 27.71237945556641 43.65916061401367 21.17512512207031 43.65916061401367 C 9.480422973632812 43.65916061401367 -3.814697265625e-06 33.88571929931641 -3.814697265625e-06 21.82958030700684 C -3.814697265625e-06 9.773441314697266 9.480422973632812 0 21.17512512207031 0 Z" stroke="none" fill="#eb7f33"/>
  </g>
</svg>
