<svg xmlns="http://www.w3.org/2000/svg" width="40.709" height="46.599" viewBox="0 0 40.709 46.599">
  <path id="Icon_awesome-fire-alt" data-name="Icon awesome-fire-alt" d="M28.029,4.435a51.749,51.749,0,0,0-4.87,5.195A67.211,67.211,0,0,0,14.553,0C6.041,7.9,0,18.188,0,24.394,0,35.417,8.688,44.353,19.4,44.353s19.4-8.936,19.4-19.959c0-4.615-4.5-14.132-10.78-19.959ZM26.342,33.945a11.642,11.642,0,0,1-6.69,2.092c-6.25,0-11.336-4.136-11.336-10.85,0-3.345,2.106-6.292,6.306-11.326.6.691,8.561,10.858,8.561,10.858l5.079-5.794c.359.593.685,1.174.976,1.73A10.333,10.333,0,0,1,26.342,33.945Z" transform="translate(0.95 1.296)" fill="#f8f9fc" stroke="#eb7f33" stroke-width="1.9"/>
</svg>
