<svg xmlns="http://www.w3.org/2000/svg" width="34" height="34" viewBox="0 0 34 34">
  <g id="Grupo_1532" data-name="Grupo 1532" transform="translate(93.744 -4375.256)">
    <g id="Elipse_96" data-name="Elipse 96" transform="translate(-93.744 4375.256)" fill="#fff" stroke="#3f64ae" stroke-width="1">
      <circle cx="17" cy="17" r="17" stroke="none"/>
      <circle cx="17" cy="17" r="16.5" fill="none"/>
    </g>
    <g id="Grupo_1183" data-name="Grupo 1183" transform="translate(-84.213 4381.499)">
      <path id="Trazado_31950" data-name="Trazado 31950" d="M331.478,170.723h0a6.088,6.088,0,1,0-6.093-6.088A6.048,6.048,0,0,0,331.48,170.723Zm-3.165-9.253a4.475,4.475,0,1,1,3.168,7.643h0a4.475,4.475,0,0,1-3.165-7.643Z" transform="translate(-323.763 -158.542)" fill="#3365b4"/>
      <path id="Trazado_31951" data-name="Trazado 31951" d="M340.182,171.857c.005-.217.138-5.361-3.1-8.324a.81.81,0,0,0-1.036-.043c-.036.028-3.612,2.713-6.938.005a.807.807,0,0,0-1.039.018,11.493,11.493,0,0,0-3.321,8.309.8.8,0,0,0,.23.577.805.805,0,0,0,.574.24h0l13.82,0A.808.808,0,0,0,340.182,171.857Zm-13.782-.83a10.169,10.169,0,0,1,2.292-5.84,7.217,7.217,0,0,0,7.742-.015,10.207,10.207,0,0,1,2.111,5.853Z" transform="translate(-324.751 -151.133)" fill="#3365b4"/>
    </g>
  </g>
</svg>
