<svg xmlns="http://www.w3.org/2000/svg" width="102" height="102" viewBox="0 0 102 102">
  <g id="Grupo_1529" data-name="Grupo 1529" transform="translate(93.744 -4375.256)">
    <circle id="Elipse_96" data-name="Elipse 96" cx="51" cy="51" r="51" transform="translate(-93.744 4375.256)" fill="#e5ebf6"/>
    <g id="Grupo_1183" data-name="Grupo 1183" transform="translate(-65.292 4393.892)">
      <path id="Trazado_31950" data-name="Trazado 31950" d="M343.569,194.906h.008a18.186,18.186,0,1,0-.008,0Zm-9.45-27.624a13.361,13.361,0,1,1,9.457,22.815h-.008a13.358,13.358,0,0,1-9.45-22.815Z" transform="translate(-320.54 -158.542)" fill="#3365b4"/>
      <path id="Trazado_31951" data-name="Trazado 31951" d="M370.816,188.818c.016-.648.412-16-9.243-24.85a2.418,2.418,0,0,0-3.093-.13c-.107.084-10.783,8.1-20.713.015a2.408,2.408,0,0,0-3.1.053c-.388.343-9.686,8.6-9.914,24.8a2.376,2.376,0,0,0,.686,1.722,2.4,2.4,0,0,0,1.714.716h0l41.257-.008A2.411,2.411,0,0,0,370.816,188.818Zm-41.142-2.477a30.359,30.359,0,0,1,6.843-17.435c8.679,5.769,17.991,3.033,23.112-.046,4.9,5.54,6.035,13.557,6.3,17.474Z" transform="translate(-324.751 -126.948)" fill="#3365b4"/>
    </g>
  </g>
</svg>
