<svg xmlns="http://www.w3.org/2000/svg" width="26.208" height="16.687" viewBox="0 0 26.208 16.687">
  <g id="Icon_ionic-logo-googleplus" data-name="Icon ionic-logo-googleplus" transform="translate(0 -6.539)" opacity="0.7">
    <path id="Trazado_31648" data-name="Trazado 31648" d="M16.288,13.6l-.082-.358H8.19v3.281h4.643a4.157,4.157,0,0,1-4.3,3.256,4.909,4.909,0,0,1-3.5-1.3,4.971,4.971,0,0,1-1.479-3.6,4.978,4.978,0,0,1,1.413-3.563,4.828,4.828,0,0,1,3.517-1.3,4.431,4.431,0,0,1,2.974,1.08l2.457-2.442A8.319,8.319,0,0,0,8.4,6.539h0A8.488,8.488,0,0,0,2.375,8.986,8.5,8.5,0,0,0,0,14.883a8.4,8.4,0,0,0,2.283,5.8,8.722,8.722,0,0,0,6.291,2.544,7.763,7.763,0,0,0,5.646-2.37,8.312,8.312,0,0,0,2.17-5.769A9.6,9.6,0,0,0,16.288,13.6Z" fill="#ea4336"/>
    <path id="Trazado_31649" data-name="Trazado 31649" d="M33.036,14.66H30.118V11.742h-2.1V14.66H25.1v2.1h2.918v2.918h2.1V16.759h2.918Z" transform="translate(-6.827 -1.415)" fill="#ea4336"/>
  </g>
</svg>
