<svg xmlns="http://www.w3.org/2000/svg" width="14.393" height="25.45" viewBox="0 0 14.393 25.45">
  <path id="Icon_material-attach-money" data-name="Icon material-attach-money" d="M17.228,15.67c-3.209-.834-4.242-1.7-4.242-3.04,0-1.541,1.428-2.616,3.817-2.616,2.517,0,3.45,1.2,3.535,2.969h3.125A5.636,5.636,0,0,0,18.925,7.6V4.5H14.683V7.554c-2.743.594-4.949,2.375-4.949,5.1,0,3.266,2.7,4.892,6.645,5.839,3.535.848,4.242,2.093,4.242,3.407,0,.976-.693,2.531-3.817,2.531-2.913,0-4.058-1.3-4.213-2.969H9.48c.17,3.1,2.488,4.835,5.2,5.415V29.95h4.242V26.91c2.757-.523,4.949-2.121,4.949-5.019C23.873,17.875,20.437,16.5,17.228,15.67Z" transform="translate(-9.48 -4.5)" fill="#fff"/>
</svg>
