<svg id="Grupo_1675" data-name="Grupo 1675" xmlns="http://www.w3.org/2000/svg" width="22.132" height="21.03" viewBox="0 0 22.132 21.03">
  <g id="Icon_material-pets" data-name="Icon material-pets" transform="translate(0 0)">
    <path id="Trazado_15" data-name="Trazado 15" d="M8.533,13.266A2.766,2.766,0,1,1,5.766,10.5,2.766,2.766,0,0,1,8.533,13.266Z" transform="translate(-3 -6.074)" fill="#fff"/>
    <path id="Trazado_16" data-name="Trazado 16" d="M15.283,7.266A2.766,2.766,0,1,1,12.516,4.5a2.766,2.766,0,0,1,2.766,2.766Z" transform="translate(-4.77 -4.5)" fill="#fff"/>
    <path id="Trazado_17" data-name="Trazado 17" d="M24.283,7.266A2.766,2.766,0,1,1,21.516,4.5,2.766,2.766,0,0,1,24.283,7.266Z" transform="translate(-7.131 -4.5)" fill="#fff"/>
    <path id="Trazado_18" data-name="Trazado 18" d="M31.033,13.266A2.766,2.766,0,1,1,28.266,10.5,2.766,2.766,0,0,1,31.033,13.266Z" transform="translate(-8.901 -6.074)" fill="#fff"/>
    <path id="Trazado_19" data-name="Trazado 19" d="M20.759,20.575c-.963-1.129-1.771-2.091-2.744-3.22a4.7,4.7,0,0,0-1.937-1.461,2.24,2.24,0,0,0-.365-.1,5.569,5.569,0,0,0-.863-.044,4.642,4.642,0,0,0-.874.055,2.242,2.242,0,0,0-.365.1,4.767,4.767,0,0,0-1.937,1.461c-.963,1.129-1.771,2.091-2.744,3.22-1.45,1.45-3.231,3.054-2.9,5.3a3.474,3.474,0,0,0,2.578,2.567c.808.166,3.386-.487,6.13-.487h.2c2.744,0,5.323.642,6.13.487a3.491,3.491,0,0,0,2.578-2.567C23.99,23.629,22.209,22.024,20.759,20.575Z" transform="translate(-3.784 -7.451)" fill="#fff"/>
  </g>
</svg>
