<svg xmlns="http://www.w3.org/2000/svg" width="20.653" height="19.065" viewBox="0 0 20.653 19.065">
  <g id="Icon_ionic-ios-wallet" data-name="Icon ionic-ios-wallet" transform="translate(-3.375 -4.499)">
    <path id="Trazado_31650" data-name="Trazado 31650" d="M21.049,11.25H6.354a2.981,2.981,0,0,0-2.979,2.979V22.57a2.981,2.981,0,0,0,2.979,2.979h14.7a2.981,2.981,0,0,0,2.979-2.979V14.229A2.981,2.981,0,0,0,21.049,11.25Z" transform="translate(0 -1.984)" fill="#fff"/>
    <path id="Trazado_31651" data-name="Trazado 31651" d="M18.347,4.549,6.684,6.828c-.894.2-2.184,1.1-2.184,2.189a3.128,3.128,0,0,1,2.433-.943H21.182V7.057a2.851,2.851,0,0,0-.69-1.867h0A2.348,2.348,0,0,0,18.347,4.549Z" transform="translate(-0.331)" fill="#fff"/>
  </g>
</svg>
