<svg xmlns="http://www.w3.org/2000/svg" width="21.935" height="21.935" viewBox="0 0 21.935 21.935">
  <path id="Icon_zocial-instagram" data-name="Icon zocial-instagram" d="M1.947.066a2.608,2.608,0,0,0-1.2.681A2.413,2.413,0,0,0,.083,1.892C.006,2.2,0,2.484,0,10.948c0,9.511-.017,8.988.231,9.523A2.558,2.558,0,0,0,1.48,21.711c.553.244.013.231,9.6.219l8.829-.009.274-.094a2.6,2.6,0,0,0,1.646-1.646l.094-.274.009-8.829c.013-9.806.034-9.073-.279-9.708A2.546,2.546,0,0,0,20.566.285C19.94-.024,20.652,0,10.948,0,3.529.006,2.166.015,1.947.066Zm17.084,2.61c.351.249.36.274.373,1.907.013,1.59,0,1.672-.257,1.924-.236.231-.347.244-1.9.24l-1.414,0-.193-.1a1.054,1.054,0,0,1-.317-.3L15.2,6.152l0-1.419c0-.776.013-1.483.034-1.564a.8.8,0,0,1,.437-.54l.214-.107,1.487.013,1.483.013ZM11.822,6.838a4.254,4.254,0,0,1,3.283,3.3,5.236,5.236,0,0,1,.047,1.393,4.317,4.317,0,0,1-2.2,3.154,4.6,4.6,0,0,1-1.132.42c-.081.009-.253.034-.381.056a4.234,4.234,0,0,1-3.823-1.637A4.193,4.193,0,0,1,7.7,8.317a4.273,4.273,0,0,1,2.829-1.539A4.473,4.473,0,0,1,11.822,6.838ZM4.36,9.62a6.8,6.8,0,0,0,.566,4.35,6.3,6.3,0,0,0,1.282,1.762,6.685,6.685,0,0,0,5.833,1.9,6.79,6.79,0,0,0,5.46-4.972,6.656,6.656,0,0,0,.176-2.4,4.719,4.719,0,0,0-.176-.926c-.013-.021-.009-.039.013-.043.163-.017,1.83-.013,1.86.009s.034,1.916.03,4.783l-.013,4.762-.129.184a1.071,1.071,0,0,1-.321.283l-.193.1L10.922,19.4,3.1,19.392l-.176-.116A1.127,1.127,0,0,1,2.65,19l-.1-.163L2.535,14.1c0-2.606,0-4.753.009-4.779A4.612,4.612,0,0,1,3.5,9.277h.939Z" fill="#fff"/>
</svg>
