<svg xmlns="http://www.w3.org/2000/svg" width="199.499" height="47.522" viewBox="0 0 199.499 47.522">
  <g id="_1.WebpayPlus_FB_80px" data-name="1.WebpayPlus_FB_80px" transform="translate(-0.5 -0.489)">
    <path id="Trazado_31671" data-name="Trazado 31671" d="M3.528,17.845a.756.756,0,1,0-.75-.756.756.756,0,0,0,.75.756" transform="translate(3.474 24.166)" fill="#fff"/>
    <path id="Trazado_31672" data-name="Trazado 31672" d="M26.535,20.191a.756.756,0,1,0-.749-.756.756.756,0,0,0,.749.756" transform="translate(38.565 27.743)" fill="#fff"/>
    <path id="Trazado_31673" data-name="Trazado 31673" d="M15.571,19.12v0a2.673,2.673,0,0,0-.825-2.034l-.038-.033-.009-.008h0a3,3,0,0,0-1.977-.663l-.018,0-.022,0h-.112l-.023,0h-.007l-.016,0a3,3,0,0,0-1.972.663h0l-.045.041a2.67,2.67,0,0,0-.826,2.023h0v0l0,4.338a.212.212,0,0,0,.068.155.24.24,0,0,0,.165.065h.772a.24.24,0,0,0,.164-.065.212.212,0,0,0,.068-.155l0-4.192a1.845,1.845,0,0,1,.446-1.337,2.021,2.021,0,0,1,2.536,0,1.847,1.847,0,0,1,.445,1.338V23.45a.215.215,0,0,0,.068.155.241.241,0,0,0,.165.065h.773a.237.237,0,0,0,.164-.065.209.209,0,0,0,.069-.155Z" transform="translate(13.99 24.235)" fill="#fff"/>
    <path id="Trazado_31674" data-name="Trazado 31674" d="M26.232,19.12v0a2.671,2.671,0,0,0-.826-2.034l-.037-.033-.009-.008h0a3,3,0,0,0-1.978-.663l-.017,0-.022,0H23.23l-.023,0H23.2l-.016,0a3,3,0,0,0-1.972.663h0l-.045.041a2.671,2.671,0,0,0-.826,2.023v0l0,4.338a.212.212,0,0,0,.068.155.239.239,0,0,0,.165.065h.772A.24.24,0,0,0,21.5,23.6a.212.212,0,0,0,.068-.155l0-4.192a1.846,1.846,0,0,1,.445-1.337,2.021,2.021,0,0,1,2.536,0A1.847,1.847,0,0,1,25,19.259V23.45a.215.215,0,0,0,.068.155.241.241,0,0,0,.165.065H26a.237.237,0,0,0,.164-.065.21.21,0,0,0,.069-.155Z" transform="translate(30.25 24.235)" fill="#fff"/>
    <path id="Trazado_31675" data-name="Trazado 31675" d="M20.151,18.412l-.014-.016a2.9,2.9,0,0,0-1.957-.657l-.045,0a2.8,2.8,0,0,0-1.905.632v-.431h0V15.752a.212.212,0,0,0-.068-.155A.243.243,0,0,0,16,15.532h-.76a.247.247,0,0,0-.165.065.21.21,0,0,0-.067.155v9a.211.211,0,0,0,.067.154.241.241,0,0,0,.165.065H16a.239.239,0,0,0,.164-.065.207.207,0,0,0,.068-.154V24.3a2.5,2.5,0,0,0,1.9.763h.048a2.9,2.9,0,0,0,1.954-.658,4.125,4.125,0,0,0,1.01-3.071,3.836,3.836,0,0,0-1-2.924m-.228,2.924v.033a4.053,4.053,0,0,1-.338,1.849,1.533,1.533,0,0,1-1.48.788h-.043a1.536,1.536,0,0,1-1.493-.789,4.045,4.045,0,0,1-.338-1.861v-.041a3.5,3.5,0,0,1,.338-1.729,1.535,1.535,0,0,1,1.493-.788h.031a1.533,1.533,0,0,1,1.493.789,3.5,3.5,0,0,1,.338,1.727Z" transform="translate(22.124 22.944)" fill="#fff"/>
    <path id="Trazado_31676" data-name="Trazado 31676" d="M12.929,18.8v0a2.222,2.222,0,0,0-.757-1.788,3.416,3.416,0,0,0-2.214-.624H9.91a3.058,3.058,0,0,0-2.4.86l0,0-.035.041c-.045.051-.09.1-.133.158l0,0-.062.073a.208.208,0,0,0-.048.163.248.248,0,0,0,.083.157l.035.03a.341.341,0,0,0,.044.045l.136.111.36.312a.237.237,0,0,0,.166.059.205.205,0,0,0,.15-.073l.232-.275h0A1.4,1.4,0,0,1,8.9,17.7a2.673,2.673,0,0,1,1.046-.167h.022a1.992,1.992,0,0,1,1.32.346,1.229,1.229,0,0,1,.359,1v.477H9.67a3.134,3.134,0,0,0-1.95.56,1.953,1.953,0,0,0-.746,1.593v.025A2.087,2.087,0,0,0,7.557,23a2.9,2.9,0,0,0,2.2.682h.528a2.642,2.642,0,0,0,2.037-.7,2.813,2.813,0,0,0,.6-1.976ZM11.651,21.04a1.39,1.39,0,0,1-.3,1.051,2.111,2.111,0,0,1-1.541.438H9.792a2.119,2.119,0,0,1-1.213-.264.84.84,0,0,1-.326-.748V21.5a.894.894,0,0,1,.331-.77,1.933,1.933,0,0,1,1.165-.281h1.9Z" transform="translate(9.873 24.23)" fill="#fff"/>
    <path id="Trazado_31677" data-name="Trazado 31677" d="M23.593,18.807V18.8a2.217,2.217,0,0,0-.757-1.786,3.411,3.411,0,0,0-2.213-.624h-.048a3.06,3.06,0,0,0-2.4.86l0,0-.035.041c-.045.05-.09.1-.134.158v0l-.062.073a.21.21,0,0,0-.048.163.243.243,0,0,0,.083.157l.035.031.045.044.135.112.36.312a.246.246,0,0,0,.167.059.211.211,0,0,0,.151-.073l.231-.275a1.394,1.394,0,0,1,.472-.346,2.656,2.656,0,0,1,1.046-.167h.022a1.984,1.984,0,0,1,1.319.345,1.232,1.232,0,0,1,.36,1v.478H20.335a3.135,3.135,0,0,0-1.95.558,1.958,1.958,0,0,0-.746,1.593v.025A2.078,2.078,0,0,0,18.221,23a2.906,2.906,0,0,0,2.2.681h.528a2.639,2.639,0,0,0,2.037-.7,2.807,2.807,0,0,0,.6-1.974V18.819Zm-4.675,2.711V21.5a.9.9,0,0,1,.331-.769,1.929,1.929,0,0,1,1.165-.281h1.9v.592a1.385,1.385,0,0,1-.3,1.049,2.108,2.108,0,0,1-1.542.438h-.018a2.113,2.113,0,0,1-1.213-.264.837.837,0,0,1-.326-.747" transform="translate(26.138 24.236)" fill="#fff"/>
    <path id="Trazado_31678" data-name="Trazado 31678" d="M6.154,17.7H4.85l0-1.322v-.64a.217.217,0,0,0-.224-.209H3.838a.237.237,0,0,0-.159.061.2.2,0,0,0-.066.147v1.18h0v6.2a1.86,1.86,0,0,0,.464,1.3,1.838,1.838,0,0,0,1.365.54h.38v-.005h.331a.206.206,0,0,0,.153-.069.238.238,0,0,0,.064-.165v-.767a.243.243,0,0,0-.064-.166.206.206,0,0,0-.153-.069H5.547a1.032,1.032,0,0,1-.307-.049.591.591,0,0,1-.12-.06.478.478,0,0,1-.088-.072.851.851,0,0,1-.183-.6v-4h1.3a.212.212,0,0,0,.153-.069.243.243,0,0,0,.064-.166v-.766a.243.243,0,0,0-.064-.166.206.206,0,0,0-.153-.069" transform="translate(4.747 22.941)" fill="#fff"/>
    <path id="Trazado_31679" data-name="Trazado 31679" d="M9.572,17.312l-.072-.08L9.482,17.2l-.043-.044-.06-.063-.05-.055,0,0a2.114,2.114,0,0,0-1.585-.664H7.7a1.628,1.628,0,0,0-1.207.543l-.2.242v-.541a.212.212,0,0,0-.068-.155.242.242,0,0,0-.164-.065h-.76a.244.244,0,0,0-.165.065.212.212,0,0,0-.068.155v6.828a.212.212,0,0,0,.068.155.242.242,0,0,0,.165.065h.761a.243.243,0,0,0,.164-.065.209.209,0,0,0,.068-.155V18.936a1.719,1.719,0,0,1,.339-.962,1.146,1.146,0,0,1,.932-.435,1.211,1.211,0,0,1,.488.078,1.3,1.3,0,0,1,.406.309l.037.037.165.184a.213.213,0,0,0,.156.07.245.245,0,0,0,.167-.064l.57-.519a.253.253,0,0,0,.08-.161.218.218,0,0,0-.053-.163" transform="translate(6.955 24.235)" fill="#fff"/>
    <path id="Trazado_31680" data-name="Trazado 31680" d="M17.749,19.941l-.009-.006h0a3.254,3.254,0,0,0-1.612-.47l-1.135-.1a1.775,1.775,0,0,1-.936-.272.668.668,0,0,1-.236-.56v-.006h0v-.015a.839.839,0,0,1,.35-.716,1.99,1.99,0,0,1,1.157-.281h.006a3.119,3.119,0,0,1,1.729.466h0l.288.2a.2.2,0,0,0,.161.031.233.233,0,0,0,.144-.1l.424-.618a.245.245,0,0,0,.041-.17.21.21,0,0,0-.034-.088.222.222,0,0,0-.067-.078l-.049-.035a4.606,4.606,0,0,0-2.638-.755,3.345,3.345,0,0,0-2.014.571,1.913,1.913,0,0,0-.795,1.562v.03a1.744,1.744,0,0,0,.623,1.4,3.121,3.121,0,0,0,1.754.586l1.167.094a1.546,1.546,0,0,1,.853.266.686.686,0,0,1,.226.57v.018a.854.854,0,0,1-.413.77,2.679,2.679,0,0,1-1.4.293h-.023a2.9,2.9,0,0,1-1.934-.586l-.246-.209a.205.205,0,0,0-.162-.047.24.24,0,0,0-.155.086l-.488.591a.245.245,0,0,0-.057.169.215.215,0,0,0,.074.153l.232.2h0l.013.01.031.025,0,0a4.478,4.478,0,0,0,2.709.768h.019a3.9,3.9,0,0,0,2.223-.581,1.961,1.961,0,0,0,.877-1.638v-.034a1.74,1.74,0,0,0-.7-1.5" transform="translate(17.943 24.231)" fill="#fff"/>
    <path id="Trazado_31681" data-name="Trazado 31681" d="M29.358,24.674l-.952-1.343L26.5,20.546l1.483-1.574.863-.912L28.9,18a.165.165,0,0,0,.008-.245.245.245,0,0,0-.165-.065h-.992a.325.325,0,0,0-.178.084h0l-3.327,3.549V15.742a.216.216,0,0,0-.068-.155.244.244,0,0,0-.166-.065h-.76a.24.24,0,0,0-.164.065.208.208,0,0,0-.069.155v9.017a.216.216,0,0,0,.068.156.246.246,0,0,0,.166.065h.76a.248.248,0,0,0,.165-.065.214.214,0,0,0,.068-.156v-1.82l1.441-1.562.971,1.452h0l1.364,2.038a.227.227,0,0,0,.2.116h.99a.24.24,0,0,0,.165-.065.183.183,0,0,0-.008-.245" transform="translate(34.341 22.928)" fill="#fff"/>
    <path id="Trazado_31682" data-name="Trazado 31682" d="M22.154,15.549h.134l.2.588.2-.588h.133v.7h-.089v-.482l0-.1-.2.587h-.094l-.2-.587v.1l0,.077v.412h-.089Z" transform="translate(33.027 22.97)" fill="#fff"/>
    <path id="Trazado_31683" data-name="Trazado 31683" d="M22.578,15.549h.317a.3.3,0,0,1,.128.023.16.16,0,0,1,.1.163.179.179,0,0,1-.024.1.209.209,0,0,1-.074.065.149.149,0,0,1,.063.043.159.159,0,0,1,.02.088l.006.092a.336.336,0,0,0,.005.06.057.057,0,0,0,.031.041v.017h-.116l-.008-.022,0-.056-.006-.116a.1.1,0,0,0-.05-.091.2.2,0,0,0-.083-.013h-.21v.3h-.094Zm.307.318a.17.17,0,0,0,.1-.027.109.109,0,0,0,.037-.1.1.1,0,0,0-.053-.1.175.175,0,0,0-.075-.014h-.225v.238Z" transform="translate(33.673 22.97)" fill="#fff"/>
    <path id="Trazado_31684" data-name="Trazado 31684" d="M22.527,15.881a.046.046,0,0,1-.045-.051.048.048,0,1,1,.045.051" transform="translate(33.526 23.33)" fill="#fff"/>
    <path id="Trazado_31685" data-name="Trazado 31685" d="M22.906,15.885a.047.047,0,0,1-.048-.051.048.048,0,0,1,.049-.052.051.051,0,0,1,0,.1Z" transform="translate(34.099 23.326)" fill="#fff"/>
    <path id="Trazado_31686" data-name="Trazado 31686" d="M42.038,9.84a.431.431,0,0,0-.044-.048,9.424,9.424,0,0,0-6.359-2.136,1.309,1.309,0,0,0-.141,0A9.068,9.068,0,0,0,29.3,9.7l0,0V8.3h0V1.2a.69.69,0,0,0-.22-.5.785.785,0,0,0-.535-.21H26.078a.794.794,0,0,0-.534.21.687.687,0,0,0-.22.5V8.3h0V23.374h0v7.061a.693.693,0,0,0,.22.5.79.79,0,0,0,.536.21h2.47a.782.782,0,0,0,.535-.21.677.677,0,0,0,.222-.5v-1.46a8.117,8.117,0,0,0,6.186,2.478h.152a9.445,9.445,0,0,0,6.348-2.14,13.4,13.4,0,0,0,3.278-9.975,12.459,12.459,0,0,0-3.234-9.5m-.742,9.5v.107a13.152,13.152,0,0,1-1.1,6.005,4.976,4.976,0,0,1-4.807,2.558.586.586,0,0,0-.1,0h-.044a4.979,4.979,0,0,1-4.846-2.56A13.1,13.1,0,0,1,29.3,19.4v-.136a11.338,11.338,0,0,1,1.1-5.611,4.976,4.976,0,0,1,4.846-2.56h.1a4.98,4.98,0,0,1,4.85,2.563A11.373,11.373,0,0,1,41.3,19.269Z" transform="translate(37.862 0)" fill="#fff"/>
    <path id="Trazado_31687" data-name="Trazado 31687" d="M51.053,24.936a12.458,12.458,0,0,0,3.233-9.5,13.4,13.4,0,0,0-3.278-9.974,9.438,9.438,0,0,0-6.348-2.141h-.153A8.117,8.117,0,0,0,38.321,5.8V4.341a.678.678,0,0,0-.222-.5.781.781,0,0,0-.535-.21H35.1a.786.786,0,0,0-.536.21.692.692,0,0,0-.221.5V11.4h0V26.475h0v7.1a.685.685,0,0,0,.221.5.787.787,0,0,0,.533.21h2.471a.781.781,0,0,0,.536-.21.689.689,0,0,0,.22-.5v-7.1h0v-1.4l0,0a9.076,9.076,0,0,0,6.189,2.05,1.3,1.3,0,0,0,.141,0,9.423,9.423,0,0,0,6.359-2.135.571.571,0,0,0,.045-.049m-.742-9.428a11.372,11.372,0,0,1-1.095,5.607,4.981,4.981,0,0,1-4.85,2.563h-.1a4.976,4.976,0,0,1-4.846-2.56,11.335,11.335,0,0,1-1.1-5.61v-.136a13.107,13.107,0,0,1,1.1-6.044,4.981,4.981,0,0,1,4.846-2.56h.044a.648.648,0,0,0,.1,0,4.973,4.973,0,0,1,4.807,2.558,13.14,13.14,0,0,1,1.1,6.005v.177Z" transform="translate(51.61 4.311)" fill="#fff"/>
    <path id="Trazado_31688" data-name="Trazado 31688" d="M61.141,28.814c-.217.589-.607,1.539-.867,2.11a6.774,6.774,0,0,1-1.136,1.7,4.884,4.884,0,0,1-2.09,1.261,6.711,6.711,0,0,1-1.3.268c-.627.044-1.54.081-2.031.081a1.044,1.044,0,0,1-.892-1.141V31.417c0-.628.256-1.141.566-1.141s1.077-.053,1.7-.117a2,2,0,0,0,.91-.384,2.422,2.422,0,0,0,.656-.815c.262-.57.647-1.521.857-2.113l.457-1.29a3.7,3.7,0,0,0-.011-2.147l-6.916-18.9A.747.747,0,0,1,51.8,3.436h2.416A1.705,1.705,0,0,1,55.72,4.517l4.53,13.369c.2.595.528.593.724,0L65.391,4.52a1.69,1.69,0,0,1,1.5-1.084h2.459A.745.745,0,0,1,70.1,4.507Z" transform="translate(76.977 4.489)" fill="#fff"/>
    <path id="Trazado_31689" data-name="Trazado 31689" d="M62.059,11.188v-.016a7.12,7.12,0,0,0-2.432-5.735,10.954,10.954,0,0,0-7.1-2h-.153a9.822,9.822,0,0,0-7.718,2.76l-.009-.006-.112.134c-.145.161-.289.329-.43.506l0,.006-.2.236a.678.678,0,0,0-.154.522.789.789,0,0,0,.267.5l.112.1a1.077,1.077,0,0,0,.144.142l.435.358,1.158,1a.76.76,0,0,0,.532.189.67.67,0,0,0,.485-.235l.742-.882v0a4.456,4.456,0,0,1,1.515-1.111,8.575,8.575,0,0,1,3.36-.536h.018l.05,0A6.391,6.391,0,0,1,56.8,8.225a3.943,3.943,0,0,1,1.153,3.2.623.623,0,0,0,0,.073v1.458H51.6a10.062,10.062,0,0,0-6.258,1.792,6.277,6.277,0,0,0-2.4,5.114v.08a6.674,6.674,0,0,0,1.872,4.694,9.317,9.317,0,0,0,7.07,2.186h1.7a8.476,8.476,0,0,0,6.537-2.232,9.016,9.016,0,0,0,1.937-6.338V11.228Zm-15.008,8.7v-.054a2.87,2.87,0,0,1,1.064-2.47,6.206,6.206,0,0,1,3.738-.9H57.96v1.9A4.457,4.457,0,0,1,57,21.732a6.776,6.776,0,0,1-4.949,1.405h-.058a6.793,6.793,0,0,1-3.893-.849,2.692,2.692,0,0,1-1.046-2.4" transform="translate(64.736 4.436)" fill="#fff"/>
    <path id="Trazado_31690" data-name="Trazado 31690" d="M33.262,3.453A1.674,1.674,0,0,0,31.744,4.6L27.425,19.834c-.179.632-.493.638-.7.015L21.7,4.586a1.76,1.76,0,0,0-1.564-1.133h-.9a1.756,1.756,0,0,0-1.562,1.133L12.692,19.849c-.2.623-.518.618-.7-.013L7.635,4.6A1.68,1.68,0,0,0,6.114,3.453H4.279a.824.824,0,0,0-.832,1.137l6.666,21.022a1.74,1.74,0,0,0,1.553,1.137h1.261a1.583,1.583,0,0,0,1.4-1.009L19.31,10.87c.209-.621.551-.621.761,0l4.98,14.75a1.782,1.782,0,0,0,1.573,1.13h1.22A1.607,1.607,0,0,0,29.281,25.7l6.649-21.1A.825.825,0,0,0,35.1,3.453Z" transform="translate(4.398 4.517)" fill="#fff"/>
    <path id="Trazado_31691" data-name="Trazado 31691" d="M20.7,13.2a8.35,8.35,0,0,1,.631-3.187,5.357,5.357,0,0,1,9.74,0A8.357,8.357,0,0,1,31.7,13.2ZM35.77,14.544c0-6.914-3.668-11.21-9.574-11.21-5.994,0-9.574,4.43-9.574,11.847,0,7.638,3.611,11.846,10.164,11.846a10.669,10.669,0,0,0,8.46-3.569l.293-.292L32.727,20.7l-.257.257a7,7,0,0,1-5.59,2.433c-3.882,0-6.08-2.467-6.2-6.952H35.77Z" transform="translate(24.591 4.339)" fill="#fff"/>
    <path id="Trazado_31692" data-name="Trazado 31692" d="M2.868,8.245A2.386,2.386,0,1,0,.5,5.859,2.386,2.386,0,0,0,2.868,8.245" transform="translate(0 4.55)" fill="#fff"/>
    <path id="Trazado_31693" data-name="Trazado 31693" d="M59.926,15.554A2.386,2.386,0,1,0,57.56,13.17a2.386,2.386,0,0,0,2.367,2.384" transform="translate(87.027 15.698)" fill="#fff"/>
    <path id="Trazado_31694" data-name="Trazado 31694" d="M67.1,5.985H64.476V9.922H67.1a1.9,1.9,0,0,0,2.08-1.959A1.915,1.915,0,0,0,67.1,5.985m.141,6.461H64.476v5.411H61.67V3.481h5.573a4.49,4.49,0,1,1,0,8.965" transform="translate(93.296 4.552)" fill="#fff"/>
    <path id="Trazado_31695" data-name="Trazado 31695" d="M66.4,17.854V3.476h2.806V15.349h6.523v2.5Z" transform="translate(100.512 4.556)" fill="#fff"/>
    <path id="Trazado_31696" data-name="Trazado 31696" d="M75.672,17.974a5,5,0,0,1-5.29-5.048V3.476h2.807v9.349a2.5,2.5,0,1,0,4.988,0V3.476h2.786v9.45a5,5,0,0,1-5.291,5.048" transform="translate(106.584 4.556)" fill="#fff"/>
    <path id="Trazado_31697" data-name="Trazado 31697" d="M80.558,18.068a6.742,6.742,0,0,1-5.243-1.9l1.815-1.815a4.7,4.7,0,0,0,3.468,1.21c1.654,0,2.542-.625,2.542-1.774a1.6,1.6,0,0,0-.444-1.211,2.139,2.139,0,0,0-1.271-.5l-1.734-.241a4.875,4.875,0,0,1-2.782-1.19A3.793,3.793,0,0,1,75.88,7.825a4.423,4.423,0,0,1,5-4.355,6.152,6.152,0,0,1,4.638,1.673L83.744,6.9A4,4,0,0,0,80.8,5.909c-1.493,0-2.218.827-2.218,1.815a1.382,1.382,0,0,0,.423,1.029,2.463,2.463,0,0,0,1.33.564l1.693.242a4.748,4.748,0,0,1,2.743,1.109,4.022,4.022,0,0,1,1.109,3.045c0,2.783-2.32,4.355-5.324,4.355" transform="translate(114.109 4.488)" fill="#fff"/>
  </g>
</svg>
