<svg xmlns="http://www.w3.org/2000/svg" xmlns:xlink="http://www.w3.org/1999/xlink" width="9" height="129" viewBox="0 0 9 129">
  <defs>
    <clipPath id="clip-path">
      <rect width="9" height="129" fill="none"/>
    </clipPath>
  </defs>
  <g id="Cuadrícula_de_repetición_2" data-name="Cuadrícula de repetición 2" clip-path="url(#clip-path)">
    <g transform="translate(-850 -303)">
      <circle id="Elipse_143" data-name="Elipse 143" cx="2.5" cy="2.5" r="2.5" transform="translate(850 303)" fill="#ddd"/>
    </g>
    <g transform="translate(-850 -290)">
      <circle id="Elipse_143-2" data-name="Elipse 143" cx="2.5" cy="2.5" r="2.5" transform="translate(850 303)" fill="#ddd"/>
    </g>
    <g transform="translate(-850 -277)">
      <circle id="Elipse_143-3" data-name="Elipse 143" cx="2.5" cy="2.5" r="2.5" transform="translate(850 303)" fill="#ddd"/>
    </g>
    <g transform="translate(-850 -264)">
      <circle id="Elipse_143-4" data-name="Elipse 143" cx="2.5" cy="2.5" r="2.5" transform="translate(850 303)" fill="#ddd"/>
    </g>
    <g transform="translate(-850 -251)">
      <circle id="Elipse_143-5" data-name="Elipse 143" cx="2.5" cy="2.5" r="2.5" transform="translate(850 303)" fill="#ddd"/>
    </g>
    <g transform="translate(-850 -238)">
      <circle id="Elipse_143-6" data-name="Elipse 143" cx="2.5" cy="2.5" r="2.5" transform="translate(850 303)" fill="#ddd"/>
    </g>
    <g transform="translate(-850 -225)">
      <circle id="Elipse_143-7" data-name="Elipse 143" cx="2.5" cy="2.5" r="2.5" transform="translate(850 303)" fill="#ddd"/>
    </g>
    <g transform="translate(-850 -212)">
      <circle id="Elipse_143-8" data-name="Elipse 143" cx="2.5" cy="2.5" r="2.5" transform="translate(850 303)" fill="#ddd"/>
    </g>
    <g transform="translate(-850 -199)">
      <circle id="Elipse_143-9" data-name="Elipse 143" cx="2.5" cy="2.5" r="2.5" transform="translate(850 303)" fill="#ddd"/>
    </g>
    <g transform="translate(-850 -186)">
      <circle id="Elipse_143-10" data-name="Elipse 143" cx="2.5" cy="2.5" r="2.5" transform="translate(850 303)" fill="#ddd"/>
    </g>
  </g>
</svg>
