<svg width="110" height="115" viewBox="0 0 110 115" fill="none" xmlns="http://www.w3.org/2000/svg">
<g id="Icon / ticket-outline">
<path id="Vector" d="M78.1473 33.2357C76.3826 31.3916 75.3494 28.9197 75.2542 26.3141C75.1591 23.7086 76.009 21.1616 77.634 19.1824C77.7684 19.0178 77.8382 18.8062 77.8296 18.59C77.8209 18.3739 77.7344 18.1691 77.5873 18.0168L68.2264 8.22694C68.0716 8.06537 67.8618 7.97461 67.643 7.97461C67.4242 7.97461 67.2144 8.06537 67.0597 8.22694L52.139 23.8136C51.5885 24.3886 51.1738 25.0896 50.9278 25.8611C50.6827 26.6344 50.2685 27.3375 49.7181 27.9144C49.1676 28.4914 48.496 28.9264 47.7566 29.185C47.0175 29.4423 46.3458 29.8754 45.7944 30.4503L7.52972 70.4142C7.37506 70.5759 7.28818 70.795 7.28818 71.0236C7.28818 71.2521 7.37506 71.4713 7.52972 71.633L16.8907 81.4118C17.0365 81.5654 17.2325 81.6558 17.4394 81.6649C17.6463 81.6739 17.8489 81.6009 18.0064 81.4605C19.9006 79.7611 22.3394 78.8719 24.8344 78.9707C27.3295 79.0695 29.6968 80.1492 31.4623 81.9936C33.2278 83.8379 34.2614 86.3109 34.356 88.9173C34.4506 91.5237 33.5993 94.0713 31.9726 96.0501C31.8382 96.2147 31.7683 96.4263 31.7769 96.6424C31.7856 96.8586 31.8721 97.0633 32.0192 97.2156L41.3802 106.994C41.5349 107.156 41.7447 107.247 41.9635 107.247C42.1823 107.247 42.3921 107.156 42.5468 106.994L80.8137 67.0217C81.364 66.4457 81.7786 65.744 82.0249 64.9719C82.27 64.1986 82.6842 63.4956 83.2346 62.9187C83.7851 62.3417 84.4567 61.9067 85.1961 61.6481C85.9347 61.3911 86.6058 60.9579 87.1561 60.3828L102.077 44.7961C102.231 44.6344 102.318 44.4153 102.318 44.1867C102.318 43.9582 102.231 43.739 102.077 43.5773L92.7159 33.7985C92.5701 33.6449 92.3741 33.5545 92.1671 33.5454C91.9602 33.5364 91.7577 33.6094 91.6001 33.7498C89.7081 35.4502 87.2714 36.3419 84.7773 36.2466C82.2831 36.1513 79.9153 35.076 78.1473 33.2357Z" stroke="#FF6500" stroke-width="2" stroke-miterlimit="10"/>
<path id="Vector_2" d="M53.6366 32.0022L50.1345 28.3438M62.9742 41.7567L60.6388 39.3192M72.3118 51.5133L69.9785 49.0736M82.8182 62.4865L79.3161 58.828" stroke="#FF6500" stroke-width="1.5" stroke-miterlimit="10" stroke-linecap="round"/>
</g>
</svg>
