<svg xmlns="http://www.w3.org/2000/svg" width="710" height="199.305" viewBox="0 0 720 201" fill="none">
  <g filter="url(#filter0_d_3401_1382)">
    <path d="M0 16C0 7.16344 7.16344 0 16 0H664C672.837 0 680 7.16344 680 16V59C671.716 59 665 70.1929 665 84C665 97.8071 671.716 109 680 109V152C680 160.837 672.837 168 664 168H16C7.16344 168 0 160.837 0 152V109C8.28427 109 15 97.8071 15 84C15 70.1929 8.28427 59 0 59V16Z" fill="white"/>
    <path d="M0.5 16C0.5 7.43959 7.43959 0.5 16 0.5H664C672.56 0.5 679.5 7.43959 679.5 16V58.5129C675.318 58.7284 671.622 61.6366 668.965 66.0651C666.196 70.6793 664.5 77.0214 664.5 84C664.5 90.9786 666.196 97.3207 668.965 101.935C671.622 106.363 675.318 109.272 679.5 109.487V152C679.5 160.56 672.56 167.5 664 167.5H16C7.43959 167.5 0.5 160.56 0.5 152V109.487C4.68173 109.272 8.37824 106.363 11.0353 101.935C13.8039 97.3207 15.5 90.9786 15.5 84C15.5 77.0214 13.8039 70.6793 11.0353 66.0651C8.37824 61.6366 4.68173 58.7284 0.5 58.5129V16Z" stroke="#D9D9D9"/>
  </g>
  <defs>
    <filter id="filter0_d_3401_1382" x="-4" y="0" width="728" height="201" filterUnits="userSpaceOnUse" color-interpolation-filters="sRGB">
      <feFlood flood-opacity="0" result="BackgroundImageFix"/>
      <feColorMatrix in="SourceAlpha" type="matrix" values="0 0 0 0 0 0 0 0 0 0 0 0 0 0 0 0 0 0 127 0" result="hardAlpha"/>
      <feOffset dy="4"/>
      <feGaussianBlur stdDeviation="2"/>
      <feComposite in2="hardAlpha" operator="out"/>
      <feColorMatrix type="matrix" values="0 0 0 0 0 0 0 0 0 0 0 0 0 0 0 0 0 0 0.25 0"/>
      <feBlend mode="normal" in2="BackgroundImageFix" result="effect1_dropShadow_3401_1382"/>
      <feBlend mode="normal" in="SourceGraphic" in2="effect1_dropShadow_3401_1382" result="shape"/>
    </filter>
  </defs>
</svg>
