<svg xmlns="http://www.w3.org/2000/svg" width="340" height="250.4" viewBox="0 0 279 181" fill="none">
  <g filter="url(#filter0_d_4957_1152)">
    <path d="M275 161.839C275 168.003 269.222 173 262.095 173L16.9048 173C9.77767 173 4 168.003 4 161.839L4 103.94C10.6815 103.939 16.098 96.1315 16.098 86.5C16.098 76.8685 10.6815 69.0607 4 69.0605L4 11.1613C4 4.99709 9.77767 0 16.9048 0L262.095 0C269.222 0 275 4.99707 275 11.1613V69.0605C268.318 69.0605 262.902 76.8684 262.902 86.5C262.902 96.1316 268.318 103.94 275 103.94V161.839Z" fill="white"/>
    <path d="M274.5 161.839C274.5 167.661 269.017 172.5 262.095 172.5L16.9048 172.5C9.98322 172.5 4.5 167.661 4.5 161.839L4.5 104.426C7.84712 104.241 10.8187 102.211 12.9654 99.1165C15.2197 95.8669 16.598 91.4048 16.598 86.5C16.598 81.5952 15.2197 77.1331 12.9654 73.8835C10.8187 70.7891 7.84712 68.759 4.5 68.5743L4.5 11.1613C4.5 5.33888 9.98322 0.5 16.9048 0.5L262.095 0.5C269.017 0.5 274.5 5.33887 274.5 11.1613V68.5742C271.153 68.7589 268.181 70.789 266.034 73.8834C263.78 77.133 262.402 81.5952 262.402 86.5C262.402 91.4048 263.78 95.867 266.034 99.1166C268.181 102.211 271.153 104.241 274.5 104.426V161.839Z" stroke="#D9D9D9"/>
  </g>
  <defs>
    <filter id="filter0_d_4957_1152" x="0" y="0" width="400" height="250.4" filterUnits="userSpaceOnUse" color-interpolation-filters="sRGB">
      <feFlood flood-opacity="0" result="BackgroundImageFix"/>
      <feColorMatrix in="SourceAlpha" type="matrix" values="0 0 0 0 0 0 0 0 0 0 0 0 0 0 0 0 0 0 127 0" result="hardAlpha"/>
      <feOffset dy="4"/>
      <feGaussianBlur stdDeviation="2"/>
      <feComposite in2="hardAlpha" operator="out"/>
      <feColorMatrix type="matrix" values="0 0 0 0 0 0 0 0 0 0 0 0 0 0 0 0 0 0 0.25 0"/>
      <feBlend mode="normal" in2="BackgroundImageFix" result="effect1_dropShadow_4957_1152"/>
      <feBlend mode="normal" in="SourceGraphic" in2="effect1_dropShadow_4957_1152" result="shape"/>
    </filter>
  </defs>
</svg>
