<svg width="109" height="115" viewBox="0 0 109 115" fill="none" xmlns="http://www.w3.org/2000/svg">
<g id="Icon / ticket-outline">
<path id="Vector" d="M77.6472 33.2347C75.8826 31.3907 74.8493 28.9187 74.7541 26.3132C74.659 23.7076 75.5089 21.1606 77.1339 19.1814C77.2683 19.0168 77.3382 18.8052 77.3295 18.5891C77.3208 18.3729 77.2343 18.1682 77.0872 18.0158L67.7263 8.22596C67.5715 8.06439 67.3617 7.97363 67.1429 7.97363C66.9241 7.97363 66.7143 8.06439 66.5596 8.22596L51.6389 23.8127C51.0884 24.3876 50.6737 25.0886 50.4277 25.8602C50.1826 26.6335 49.7684 27.3365 49.218 27.9134C48.6675 28.4904 47.9959 28.9254 47.2565 29.184C46.5174 29.4413 45.8457 29.8744 45.2943 30.4493L7.02963 70.4132C6.87497 70.5749 6.78809 70.7941 6.78809 71.0226C6.78809 71.2512 6.87497 71.4703 7.02963 71.632L16.3906 81.4108C16.5364 81.5645 16.7324 81.6549 16.9393 81.6639C17.1462 81.6729 17.3488 81.5999 17.5063 81.4595C19.4005 79.7602 21.8393 78.8709 24.3343 78.9697C26.8294 79.0686 29.1967 80.1482 30.9622 81.9926C32.7278 83.8369 33.7613 86.3099 33.8559 88.9163C33.9505 91.5228 33.0992 94.0704 31.4725 96.0491C31.3381 96.2137 31.2682 96.4253 31.2768 96.6414C31.2855 96.8576 31.372 97.0624 31.5191 97.2147L40.8801 106.993C41.0348 107.155 41.2446 107.246 41.4634 107.246C41.6822 107.246 41.892 107.155 42.0468 106.993L80.3136 67.0207C80.8639 66.4447 81.2785 65.743 81.5248 64.971C81.7699 64.1977 82.1841 63.4946 82.7345 62.9177C83.285 62.3407 83.9566 61.9057 84.696 61.6471C85.4346 61.3901 86.1057 60.9569 86.656 60.3818L101.577 44.7951C101.731 44.6335 101.818 44.4143 101.818 44.1857C101.818 43.9572 101.731 43.738 101.577 43.5764L92.2158 33.7976C92.07 33.6439 91.874 33.5535 91.667 33.5444C91.4601 33.5354 91.2576 33.6084 91.1 33.7488C89.208 35.4492 86.7713 36.3409 84.2772 36.2456C81.783 36.1503 79.4152 35.075 77.6472 33.2347Z" stroke="#FF6500" stroke-width="2" stroke-miterlimit="10"/>
<path id="Vector_2" d="M53.1364 32.0032L49.6343 28.3447M62.474 41.7576L60.1386 39.3201M71.8117 51.5143L69.4783 49.0746M82.3181 62.4875L78.8159 58.829" stroke="#FF6500" stroke-width="1.5" stroke-miterlimit="10" stroke-linecap="round"/>
</g>
</svg>
