<svg width="61" height="20" viewBox="0 0 61 20" fill="none" xmlns="http://www.w3.org/2000/svg">
<g id="Group">
<g id="Group_2">
<g id="Group_3">
<path id="Vector" d="M3.35246 17.3473C3.53597 17.3473 3.68488 17.1977 3.68488 17.0131C3.68488 16.8286 3.53597 16.6787 3.35246 16.6787C3.16943 16.6787 3.02051 16.8286 3.02051 17.0131C3.02051 17.1977 3.16943 17.3473 3.35246 17.3473Z" fill="#D00070"/>
<path id="Vector_2" d="M29.0637 19.9664C29.2473 19.9664 29.3962 19.8168 29.3962 19.6324C29.3962 19.4477 29.2473 19.2979 29.0637 19.2979C28.8806 19.2979 28.7319 19.4477 28.7319 19.6324C28.7319 19.8168 28.8806 19.9664 29.0637 19.9664Z" fill="#D00070"/>
<path id="Vector_3" d="M13.3361 17.9413L13.336 17.9402C13.3352 17.5677 13.2058 17.2534 12.9708 17.0411L12.9543 17.0263L12.9506 17.0229H12.9497C12.7287 16.8333 12.4295 16.7333 12.0745 16.7299C12.0732 16.7296 12.0702 16.7295 12.0668 16.7295C12.0635 16.7295 12.0602 16.7296 12.0569 16.73L12.0543 16.7299C12.0437 16.7299 12.0365 16.7301 12.0313 16.7304C12.0271 16.7301 12.0205 16.7299 12.0127 16.7299L12.0073 16.73C12.0046 16.7297 12.0012 16.7295 11.9969 16.7295H11.9956C11.996 16.7295 11.995 16.7295 11.9938 16.7295C11.992 16.7295 11.9895 16.7295 11.9869 16.7299C11.6328 16.7337 11.3346 16.8334 11.1142 17.0229H11.1132L11.093 17.0411C10.859 17.2525 10.7296 17.5653 10.7279 17.9359L10.7278 17.9363L10.7274 17.9377L10.7256 19.8561C10.7256 19.8818 10.7365 19.907 10.7556 19.9248C10.7748 19.943 10.8016 19.9535 10.8285 19.9535H11.1702C11.1972 19.9535 11.2236 19.943 11.243 19.9248C11.2623 19.907 11.2731 19.8818 11.2731 19.8561L11.2738 18.0025C11.2759 17.7309 11.3454 17.5384 11.4709 17.4112C11.5924 17.288 11.778 17.2184 12.0334 17.2135C12.2863 17.2184 12.4715 17.288 12.5931 17.4112C12.7184 17.5384 12.788 17.7309 12.7902 18.003L12.7897 19.8561C12.7897 19.8818 12.8005 19.907 12.8197 19.9248C12.839 19.943 12.8657 19.9535 12.8926 19.9535H13.2348C13.2618 19.9535 13.2883 19.943 13.3076 19.9248C13.3271 19.907 13.3378 19.8818 13.3378 19.8561L13.3361 17.9413Z" fill="#D00070"/>
<path id="Vector_4" d="M25.2502 17.9413L25.2501 17.9402C25.2493 17.5677 25.1199 17.2534 24.8849 17.0411L24.8684 17.0263L24.8646 17.0229H24.8638C24.6428 16.8333 24.3435 16.7333 23.9886 16.7299C23.9873 16.7296 23.9843 16.7295 23.9809 16.7295C23.9777 16.7295 23.9743 16.7296 23.971 16.73L23.9684 16.7299C23.9577 16.7299 23.9506 16.7301 23.9454 16.7304C23.9412 16.7301 23.9345 16.7299 23.9268 16.7299L23.9214 16.73C23.9187 16.7297 23.9153 16.7295 23.911 16.7295H23.9097C23.9102 16.7295 23.9091 16.7295 23.9079 16.7295C23.9061 16.7295 23.9036 16.7295 23.901 16.7299C23.5469 16.7337 23.2487 16.8334 23.0283 17.0229H23.0273L23.0071 17.0411C22.7731 17.2525 22.6437 17.5653 22.642 17.9359L22.6419 17.9363L22.6415 17.9377L22.6396 19.8561C22.6396 19.8818 22.6506 19.907 22.6697 19.9248C22.6888 19.943 22.7157 19.9535 22.7426 19.9535H23.0843C23.1113 19.9535 23.1377 19.943 23.1571 19.9248C23.1765 19.907 23.1871 19.8818 23.1871 19.8561L23.1879 18.0025C23.19 17.7309 23.2595 17.5384 23.385 17.4112C23.5066 17.288 23.6921 17.2184 23.9475 17.2135C24.2004 17.2184 24.3856 17.288 24.5072 17.4112C24.6325 17.5384 24.702 17.7309 24.7043 18.003L24.7037 19.8561C24.7037 19.8818 24.7147 19.907 24.7338 19.9248C24.7531 19.943 24.7797 19.9535 24.8067 19.9535H25.1489C25.1758 19.9535 25.2024 19.943 25.2217 19.9248C25.2412 19.907 25.2518 19.8818 25.2518 19.8561L25.2502 17.9413Z" fill="#D00070"/>
<path id="Vector_5" d="M18.8613 18.3507V18.3575V18.3583V18.3653C18.8605 18.6708 18.828 18.9693 18.7118 19.183C18.5975 19.3885 18.4137 19.5258 18.0567 19.5312C18.0544 19.531 18.0506 19.531 18.0435 19.5312H18.0375C17.6782 19.5276 17.4919 19.3901 17.3771 19.1827C17.2598 18.9682 17.227 18.6672 17.227 18.3597V18.3412C17.2273 18.0358 17.2598 17.7907 17.3771 17.5772C17.4919 17.3697 17.6782 17.232 18.0375 17.2287H18.04H18.0458H18.0513C18.4108 17.232 18.5964 17.3694 18.7121 17.5776C18.8287 17.7907 18.8613 18.0358 18.8613 18.3412V18.3507ZM18.9624 17.0574C18.9606 17.0552 18.9589 17.053 18.9563 17.0508C18.7617 16.8714 18.4505 16.7603 18.09 16.7599C18.0851 16.7593 18.0776 16.7593 18.0705 16.7593C17.774 16.7592 17.4815 16.8211 17.2273 17.0385L17.227 17.0387V16.8479H17.2276V15.8812C17.2276 15.8557 17.2166 15.8306 17.1975 15.8128C17.1784 15.7947 17.1517 15.7842 17.1246 15.7842H16.7879C16.7611 15.7842 16.7345 15.7947 16.7151 15.8128C16.6957 15.8306 16.6851 15.8557 16.6851 15.8812V16.8479H16.6853V18.9002H16.6851V19.8616C16.6851 19.8871 16.6961 19.9122 16.7151 19.9299C16.7344 19.9481 16.7611 19.9585 16.7881 19.9585H17.1248C17.1517 19.9585 17.1782 19.9481 17.1975 19.9299C17.217 19.9122 17.2277 19.8871 17.2277 19.8616V19.6628C17.4524 19.9139 17.7748 20.0004 18.0705 20.0003H18.0914C18.4511 19.9991 18.7624 19.888 18.9563 19.7089C19.3191 19.3658 19.402 18.8398 19.4032 18.3508C19.4022 17.8645 19.3191 17.3993 18.9624 17.0574Z" fill="#D00070"/>
<path id="Vector_6" d="M9.77927 18.7892C9.77849 19.0458 9.72228 19.1875 9.64678 19.2536C9.46466 19.4216 9.23921 19.4468 8.96458 19.4473H8.96158H8.95649C8.69199 19.4477 8.51821 19.4018 8.41964 19.3305C8.32609 19.2629 8.27778 19.1662 8.27546 18.9999V18.9923C8.27725 18.8273 8.3274 18.7243 8.42203 18.6517C8.52109 18.5763 8.68782 18.5275 8.93751 18.5275H8.93967H9.77927V18.7892ZM10.3446 17.8002V17.798C10.3447 17.4727 10.2364 17.1938 10.0094 17.0075C9.78071 16.8198 9.45252 16.7316 9.03004 16.7315H9.0148H9.00907C8.56549 16.7301 8.21306 16.8267 7.94481 17.1119L7.94378 17.1109L7.92842 17.1292C7.90825 17.1516 7.88847 17.1746 7.86933 17.1992C7.86933 17.1992 7.86894 17.1997 7.86879 17.1999L7.84133 17.2325C7.82492 17.2519 7.81687 17.278 7.82024 17.3043C7.82311 17.3308 7.83653 17.3562 7.85696 17.3737L7.87247 17.3872C7.87843 17.3943 7.88494 17.4009 7.89223 17.407L7.95224 17.4562L8.11183 17.5942C8.13224 17.612 8.15921 17.6215 8.18536 17.6202C8.21128 17.6192 8.23572 17.6073 8.25203 17.5878L8.3546 17.4662C8.41843 17.3969 8.48397 17.3477 8.56323 17.3131C8.67519 17.264 8.81888 17.2411 9.0264 17.2391H9.02889L9.03591 17.2387C9.3311 17.2395 9.51478 17.2995 9.61998 17.3917C9.72487 17.4825 9.77812 17.6196 9.77891 17.8328C9.77891 17.8342 9.77891 17.838 9.77927 17.8428V18.0438H8.90272C8.54908 18.0446 8.2533 18.1245 8.03986 18.2909C7.82782 18.4536 7.7096 18.7041 7.70947 18.9958L7.7096 19.0069C7.71013 19.25 7.80151 19.4884 7.96761 19.654C8.19201 19.875 8.49085 19.9553 8.94242 19.9553H8.94749H9.17634C9.58989 19.9556 9.88655 19.8535 10.0776 19.6476C10.2683 19.4417 10.3447 19.144 10.3447 18.7737V17.8058L10.3446 17.8002Z" fill="#D00070"/>
<path id="Vector_7" d="M20.1929 19.0024V18.9949C20.1946 18.83 20.2449 18.727 20.3395 18.6546C20.4385 18.5791 20.6054 18.5304 20.855 18.5304H20.8572H21.6968V18.7918C21.696 19.0483 21.6398 19.1899 21.5642 19.2561C21.3822 19.4238 21.1567 19.4491 20.8819 19.4497H20.8789H20.874C20.6094 19.4499 20.4357 19.4042 20.3372 19.3328C20.2435 19.2652 20.1953 19.1687 20.1929 19.0024ZM22.2621 17.8035V17.8013C22.2622 17.4761 22.1539 17.1975 21.9268 17.0112C21.6983 16.8237 21.3701 16.7355 20.9477 16.7354H20.9323H20.9266C20.4828 16.7342 20.1306 16.8306 19.8624 17.1156L19.8613 17.1147L19.8459 17.133C19.8258 17.1552 19.8059 17.1784 19.7867 17.2029C19.7866 17.2031 19.7864 17.2034 19.7863 17.2037L19.7588 17.2361C19.7424 17.2555 19.7344 17.2817 19.7378 17.3079C19.7406 17.3344 19.754 17.3597 19.7745 17.3774L19.7899 17.3908C19.7959 17.3978 19.8024 17.4045 19.8097 17.4106L19.8697 17.4598L20.0293 17.5976C20.0498 17.6153 20.0767 17.6249 20.1028 17.6236C20.1288 17.6226 20.1531 17.6107 20.1695 17.5913L20.272 17.4697C20.3359 17.4005 20.4015 17.3513 20.4808 17.3166C20.5927 17.2676 20.7364 17.2446 20.9439 17.2428L20.9464 17.2427L20.9534 17.2424C21.2486 17.2431 21.4323 17.3031 21.5375 17.3952C21.6424 17.4859 21.6955 17.623 21.6964 17.836C21.6964 17.8375 21.6964 17.8412 21.6968 17.846V18.047H20.8202C20.4666 18.0478 20.1708 18.1275 19.9573 18.2939C19.7453 18.4565 19.6271 18.7069 19.627 18.9985L19.6271 19.0095C19.6276 19.2525 19.719 19.4907 19.8851 19.6561C20.1095 19.877 20.4084 19.9573 20.86 19.9573H20.865H21.0939C21.5074 19.9576 21.804 19.8555 21.9951 19.6497C22.1858 19.4441 22.2622 19.1465 22.2622 18.7764V17.8091L22.2621 17.8035Z" fill="#D00070"/>
<path id="Vector_8" d="M5.07797 16.7423H4.50056L4.50034 16.1575H4.50007L4.49993 15.8745C4.49993 15.8237 4.45542 15.7822 4.40048 15.7822H4.05333C4.02718 15.7822 4.00139 15.792 3.98317 15.8092C3.96454 15.8265 3.95361 15.8504 3.95361 15.8745V16.3959H3.95388V19.1373C3.95413 19.36 4.01831 19.5604 4.15941 19.7123C4.29386 19.8593 4.51176 19.951 4.76354 19.951H4.76445H4.93169V19.9489H5.07797C5.1034 19.9489 5.12823 19.9378 5.14597 19.9186C5.16405 19.8993 5.17432 19.8726 5.17432 19.8452V19.5064C5.17432 19.4793 5.16405 19.4526 5.14597 19.4332C5.12823 19.4137 5.1034 19.4029 5.07797 19.4029H4.80963C4.75531 19.4008 4.7117 19.3942 4.6737 19.3808C4.64947 19.3724 4.63452 19.3631 4.62059 19.3542C4.60523 19.3434 4.59677 19.3382 4.58169 19.3225C4.52999 19.2685 4.50136 19.183 4.50056 19.0557V17.2885H5.07797C5.1034 17.2885 5.12823 17.2774 5.14597 17.2581C5.16405 17.2387 5.17432 17.212 5.17432 17.1848V16.8458C5.17432 16.8188 5.16405 16.7921 5.14597 16.7726C5.12823 16.7531 5.1034 16.7423 5.07797 16.7423Z" fill="#D00070"/>
<path id="Vector_9" d="M7.56795 17.1419L7.53591 17.1063C7.53462 17.1021 7.53228 17.0983 7.52837 17.0942L7.50901 17.0743L7.48241 17.0467L7.46053 17.0224L7.45965 17.0233C7.26322 16.8168 7.01874 16.7298 6.75843 16.7295C6.75309 16.7295 6.74683 16.7296 6.738 16.7298C6.55315 16.7298 6.33496 16.8128 6.20403 16.9703L6.11382 17.0773V17.0325V16.838C6.11382 16.8125 6.1029 16.7874 6.08377 16.7697C6.06451 16.7515 6.03783 16.741 6.01072 16.741H5.67423C5.64718 16.741 5.6206 16.7515 5.60134 16.7697C5.58197 16.7874 5.57129 16.8125 5.57129 16.838V17.0325V19.8575C5.57129 19.8832 5.58222 19.9081 5.60134 19.926C5.62046 19.9442 5.64718 19.9546 5.67423 19.9546H5.73229C5.73412 19.9547 5.73607 19.9551 5.7379 19.9551H5.94992C5.95191 19.9551 5.95372 19.9547 5.95567 19.9546H6.01088C6.03783 19.9546 6.06434 19.9442 6.08377 19.926C6.10314 19.9081 6.11382 19.8832 6.11382 19.8575V19.8053C6.11382 19.8046 6.11395 19.8039 6.11395 19.8033V18.0119C6.11395 18.0095 6.11382 18.0073 6.11382 18.0049V17.8599C6.12401 17.6935 6.17681 17.5435 6.26353 17.4346C6.35645 17.3183 6.4926 17.2429 6.6763 17.2423C6.77349 17.2423 6.83743 17.2539 6.89278 17.2769C6.94612 17.3002 7.00055 17.34 7.072 17.4137L7.08816 17.4303L7.16128 17.5117C7.17849 17.531 7.20361 17.5423 7.23003 17.5425C7.25656 17.5431 7.28353 17.5327 7.30386 17.5142L7.5561 17.2848C7.57627 17.2664 7.58915 17.2405 7.59141 17.2136C7.59395 17.1871 7.5851 17.1611 7.56795 17.1419Z" fill="#D00070"/>
<path id="Vector_10" d="M16.0489 18.3025C16.0476 18.3015 16.046 18.3008 16.0448 18.2998H16.0445C15.8479 18.1627 15.599 18.115 15.331 18.0921L14.8286 18.0498C14.6195 18.0323 14.49 17.9888 14.4148 17.9298C14.351 17.8811 14.3114 17.8027 14.3102 17.6821V17.6794H14.3098L14.3102 17.6731C14.3114 17.5305 14.3669 17.4268 14.4654 17.3564C14.5704 17.2807 14.7389 17.2325 14.9771 17.2322H14.9791H14.9794C15.2833 17.2328 15.5347 17.3036 15.7444 17.4382L15.7442 17.4387L15.8716 17.528C15.8919 17.5423 15.9179 17.5476 15.9429 17.5418C15.9683 17.5363 15.9914 17.5206 16.0065 17.4987L16.1941 17.2253C16.2093 17.2034 16.2158 17.1758 16.2121 17.1501C16.2102 17.136 16.2047 17.1227 16.1969 17.1111C16.19 17.0978 16.1801 17.0859 16.1671 17.0766L16.1455 17.0612C15.8459 16.8478 15.4282 16.7282 14.978 16.7275C14.6175 16.7277 14.3098 16.8143 14.0866 16.9802C13.8652 17.1433 13.735 17.3899 13.7349 17.6706L13.735 17.6745V17.6763L13.7349 17.6838C13.7349 17.932 13.8269 18.1513 14.0107 18.3008C14.1964 18.4525 14.4577 18.5334 14.7869 18.56L15.3033 18.6017C15.4926 18.619 15.6109 18.661 15.6805 18.7193C15.7413 18.7686 15.7801 18.8468 15.7805 18.9714V18.9782V18.9792C15.779 19.1363 15.7158 19.2447 15.5976 19.3199C15.4708 19.4002 15.2646 19.4494 14.978 19.4494H14.976C14.975 19.4494 14.9732 19.4495 14.9707 19.4498H14.9681C14.59 19.4479 14.3212 19.363 14.112 19.1903L14.0031 19.0982C13.9835 19.0817 13.9576 19.0739 13.9315 19.0774C13.9053 19.0808 13.8803 19.0946 13.863 19.1155L13.6467 19.3767C13.6293 19.3976 13.6202 19.4251 13.6218 19.4516C13.6229 19.4779 13.635 19.5026 13.6546 19.519L13.7571 19.6057L13.7568 19.6063C13.7588 19.6078 13.7609 19.6091 13.7629 19.6107L13.7763 19.6219L13.7772 19.6209C14.0947 19.8505 14.4909 19.9605 14.976 19.9605H14.9846C15.3846 19.96 15.7222 19.8734 15.9684 19.7036C16.2119 19.536 16.357 19.2775 16.3566 18.9792V18.9643C16.3571 18.6636 16.2405 18.4369 16.0489 18.3025Z" fill="#D00070"/>
<path id="Vector_11" d="M28.4442 19.8195L28.023 19.2254L27.179 17.9939L27.8349 17.2978L28.2169 16.8945L28.24 16.8687C28.2841 16.8243 28.2626 16.7782 28.2434 16.7605C28.2243 16.7423 28.1976 16.7318 28.1705 16.7318H27.732C27.7059 16.7318 27.6721 16.7519 27.653 16.7689C27.6526 16.7691 27.6534 16.7688 27.653 16.7689L26.1804 18.3384V17.0268V15.8695C26.1804 15.844 26.1693 15.8189 26.1503 15.8011C26.131 15.7829 26.1044 15.7725 26.0773 15.7725H25.7407C25.7137 15.7725 25.6872 15.7829 25.6679 15.8011C25.6484 15.8189 25.6377 15.844 25.6377 15.8695V17.0268V19.8572C25.6377 19.8827 25.6486 19.9079 25.6678 19.9258C25.687 19.9438 25.7137 19.9544 25.7408 19.9544H26.0774C26.1044 19.9544 26.1309 19.9438 26.1503 19.9258C26.1697 19.9079 26.1804 19.8827 26.1804 19.8572V19.0522L26.8183 18.3613L27.2476 19.0033H27.2458L27.8494 19.9047C27.8636 19.9247 27.8859 19.9564 27.9362 19.9564H28.3747C28.4018 19.9564 28.4285 19.9459 28.4477 19.9277C28.4668 19.9098 28.4794 19.8638 28.4442 19.8195Z" fill="#D00070"/>
<path id="Vector_12" d="M24.6738 15.8037H24.7333L24.8217 16.0637L24.9102 15.8037H24.9689V16.1114H24.9294V15.9294C24.9294 15.923 24.9296 15.9134 24.9296 15.8983C24.9296 15.8837 24.9305 15.8689 24.9305 15.8519L24.8423 16.1114H24.8007L24.7126 15.8519V15.8609V15.8951C24.7133 15.9114 24.7133 15.9225 24.7133 15.9294V16.1114H24.6738V15.8037Z" fill="#D00070"/>
<path id="Vector_13" d="M25.2833 15.9443C25.3021 15.9443 25.3173 15.9407 25.3289 15.9327C25.3391 15.9256 25.3453 15.9114 25.3453 15.8902C25.3453 15.8689 25.3379 15.8535 25.3218 15.8455C25.3133 15.8412 25.3021 15.8392 25.2887 15.8392H25.189V15.9443H25.2833ZM25.1475 15.8037H25.288C25.3111 15.8037 25.3305 15.807 25.3448 15.814C25.3734 15.8266 25.3873 15.8508 25.3873 15.8863C25.3873 15.9046 25.3842 15.9197 25.3763 15.9317C25.3681 15.943 25.3576 15.9532 25.3436 15.9602C25.3557 15.9654 25.3656 15.9714 25.3716 15.9793C25.3772 15.9872 25.3806 16.0006 25.3806 16.0185L25.3829 16.059C25.3829 16.0713 25.3845 16.0799 25.3857 16.0857C25.3885 16.0948 25.3928 16.1012 25.3993 16.1038V16.1114H25.3483C25.3469 16.1081 25.3462 16.105 25.3448 16.1012C25.3436 16.0969 25.3433 16.0888 25.3431 16.0769L25.3402 16.0254C25.3388 16.0049 25.3321 15.9914 25.3185 15.9848C25.3111 15.9811 25.2979 15.9793 25.2815 15.9793H25.189V16.1114H25.1475V15.8037Z" fill="#D00070"/>
<path id="Vector_14" d="M25.0601 16.1086C25.0482 16.1086 25.04 16.0997 25.04 16.0862C25.04 16.0727 25.0485 16.0635 25.0614 16.0635C25.0735 16.0635 25.0822 16.0727 25.0822 16.0862C25.0822 16.0997 25.0735 16.1086 25.0601 16.1086Z" fill="#D00070"/>
<path id="Vector_15" d="M25.4812 16.1086C25.4689 16.1086 25.46 16.0997 25.46 16.0862C25.46 16.0727 25.4689 16.0635 25.4817 16.0635C25.4946 16.0635 25.5029 16.0727 25.5029 16.0862C25.5029 16.0997 25.4946 16.1086 25.4814 16.1086H25.4812Z" fill="#D00070"/>
</g>
<g id="Group_4">
<path id="Vector_16" d="M32.0228 8.09677V8.11699V8.11925V8.14045C32.0202 9.05324 31.9233 9.94517 31.5759 10.5835C31.2343 11.1976 30.6853 11.6077 29.6188 11.624C29.6119 11.6231 29.6005 11.6231 29.579 11.624H29.5614C28.4877 11.6133 27.9315 11.2022 27.5882 10.5825C27.2379 9.94155 27.1396 9.04216 27.1396 8.12385V8.06839C27.1406 7.15593 27.2379 6.42376 27.5882 5.78579C27.9315 5.16572 28.4877 4.75433 29.5614 4.74454H29.5685H29.5861H29.6025C30.6768 4.75433 31.231 5.1651 31.5772 5.78706C31.925 6.42376 32.0228 7.15593 32.0228 8.06839V8.09677ZM32.3249 4.23275C32.3194 4.22624 32.3138 4.21939 32.3067 4.21286C31.7253 3.67694 30.7955 3.34507 29.7179 3.34405C29.7036 3.34214 29.6811 3.34214 29.6602 3.34214C28.7741 3.34181 27.9001 3.52664 27.1406 4.17635L27.1396 4.17699V3.60683H27.1413V0.718521C27.1413 0.642236 27.1087 0.567243 27.0516 0.514088C26.9945 0.459968 26.9149 0.428711 26.8336 0.428711H25.8275C25.7476 0.428711 25.6683 0.459968 25.6102 0.514088C25.5525 0.567243 25.5205 0.642236 25.5205 0.718521V3.60683H25.5211V9.7385H25.5205V12.6112C25.5205 12.6874 25.5535 12.7624 25.6102 12.8152C25.668 12.8697 25.7476 12.9006 25.8285 12.9006H26.834C26.9149 12.9006 26.9941 12.8697 27.0516 12.8152C27.11 12.7624 27.1419 12.6874 27.1419 12.6112V12.0172C27.813 12.7673 28.7764 13.0258 29.6602 13.0255H29.7222C30.7972 13.0219 31.7269 12.6901 32.3067 12.1547C33.3905 11.1295 33.6381 9.55789 33.6416 8.0971C33.6387 6.64416 33.3905 5.25409 32.3249 4.23275Z" fill="#D00070"/>
<path id="Vector_17" d="M41.2904 8.29204C41.2904 9.20448 41.1925 9.93667 40.8448 10.5734C40.4986 11.1953 39.9443 11.6061 38.87 11.6159H38.8537H38.8361H38.8289C37.7552 11.6061 37.199 11.1947 36.8558 10.5747C36.5054 9.93667 36.4082 9.20448 36.4072 8.29204V8.23663C36.4072 7.31831 36.5054 6.41888 36.8558 5.77797C37.199 5.15825 37.7552 4.74717 38.8289 4.73642H38.8465C38.868 4.7374 38.8794 4.7374 38.8863 4.73642C39.9528 4.75271 40.5019 5.16281 40.8435 5.77701C41.1909 6.41531 41.2878 7.30721 41.2904 8.22002V8.2412V8.24348V8.2637V8.29204ZM41.5925 12.1277C42.658 11.1063 42.9063 9.71632 42.9092 8.26337C42.9056 6.80258 42.658 5.23097 41.5742 4.2057C40.9945 3.67039 40.0647 3.33853 38.9897 3.33496H38.9278C38.044 3.33463 37.0806 3.59314 36.4095 4.34329V3.74929C36.4095 3.673 36.3775 3.59803 36.3192 3.54522C36.2617 3.49079 36.1824 3.45983 36.1015 3.45983H35.096C35.0152 3.45983 34.9356 3.49079 34.8778 3.54522C34.821 3.59803 34.7881 3.673 34.7881 3.74929V6.62197H34.7887V12.7536H34.7881V15.642C34.7881 15.7182 34.8201 15.7932 34.8778 15.8463C34.9359 15.9004 35.0152 15.9317 35.0951 15.9317H36.1012C36.1824 15.9317 36.2621 15.9004 36.3192 15.8463C36.3762 15.7932 36.4089 15.7182 36.4089 15.642V12.7536H36.4072V12.1835L36.4082 12.1841C37.1677 12.8338 38.0417 13.0187 38.9278 13.0183C38.9487 13.0183 38.9712 13.0183 38.9855 13.0164C40.0631 13.0154 40.9928 12.6835 41.5742 12.1476C41.5814 12.1411 41.587 12.1342 41.5925 12.1277Z" fill="#D00070"/>
<path id="Vector_18" d="M56.0272 13.7779C55.9388 14.0174 55.7801 14.4038 55.6742 14.6361C55.6742 14.6361 55.4828 15.057 55.2118 15.3285C54.9636 15.5761 54.6804 15.7471 54.3612 15.8417C54.0426 15.936 53.8332 15.9507 53.8332 15.9507C53.5781 15.9684 53.2061 15.9832 53.0065 15.9832C52.8069 15.9832 52.6433 15.7742 52.6433 15.5191V14.8368C52.6433 14.5817 52.7472 14.3728 52.8738 14.3728C53.0006 14.3728 53.312 14.3511 53.566 14.3249C53.566 14.3249 53.7594 14.3046 53.9364 14.169C54.1137 14.0328 54.2032 13.8376 54.2032 13.8376C54.3097 13.6053 54.4667 13.2185 54.552 12.9778L54.7378 12.4532C54.823 12.2124 54.8207 11.8194 54.7332 11.5796L51.9177 3.89006C51.8298 3.65028 51.9672 3.4541 52.2228 3.4541H53.2064C53.4618 3.4541 53.7381 3.65193 53.82 3.89363L55.6644 9.33214C55.7467 9.57419 55.8791 9.57356 55.9594 9.33118L57.7576 3.89496C57.8378 3.65225 58.1125 3.4541 58.3682 3.4541H59.3692C59.6249 3.4541 59.7615 3.64996 59.6734 3.88969L56.0272 13.7779Z" fill="#D00070"/>
<path id="Vector_19" d="M45.3076 10.1268V10.1046C45.3126 9.61794 45.4611 9.31387 45.7405 9.09975C46.0327 8.87721 46.5251 8.73324 47.2624 8.73324H47.2687H49.7483V9.50517C49.7459 10.2624 49.5796 10.6809 49.357 10.8762C48.8192 11.3712 48.1535 11.4457 47.342 11.4478H47.3332H47.3185C46.5372 11.4484 46.0243 11.3135 45.7335 11.1024C45.4567 10.9031 45.3146 10.6181 45.3076 10.1268ZM51.4176 6.58687V6.58016C51.4179 5.62029 51.0982 4.7973 50.4274 4.24722C49.7526 3.69342 48.7833 3.43332 47.5361 3.43265H47.4908H47.474C46.1634 3.42926 45.1235 3.71388 44.3315 4.55533L44.3281 4.55262L44.2828 4.60699C44.2233 4.67246 44.1649 4.74091 44.1078 4.81307C44.1074 4.81374 44.1071 4.81475 44.1068 4.81543L44.0258 4.91141C43.9771 4.9688 43.9533 5.04598 43.9634 5.12352C43.9717 5.20143 44.0114 5.27626 44.0718 5.32861L44.1175 5.3682C44.135 5.38901 44.1545 5.40847 44.1759 5.42628L44.353 5.57159L44.8245 5.97871C44.8847 6.03106 44.9643 6.05959 45.0412 6.05559C45.1181 6.05257 45.1897 6.01764 45.2384 5.95991L45.5407 5.60112V5.60081C45.7294 5.39675 45.9232 5.2514 46.1574 5.14905C46.4878 5.00438 46.9121 4.93657 47.525 4.93087L47.5324 4.93054L47.5529 4.92988C48.4249 4.93187 48.9673 5.10909 49.2777 5.38129C49.5874 5.64877 49.7446 6.0539 49.7469 6.68288C49.7469 6.68689 49.7469 6.69828 49.7483 6.71237V7.30581H47.16C46.1154 7.30815 45.2421 7.54377 44.6119 8.03479C43.9858 8.51506 43.6366 9.25413 43.6362 10.1153L43.6366 10.1479C43.6382 10.8655 43.9079 11.5686 44.3986 12.0573C45.061 12.7094 45.9437 12.9464 47.2772 12.9464H47.2919H47.9677C49.189 12.9477 50.065 12.646 50.6293 12.0385C51.1922 11.4313 51.4179 10.5523 51.4179 9.45987V6.60331L51.4176 6.58687Z" fill="#D00070"/>
<path id="Vector_20" d="M15.1285 3.47168C14.8614 3.47168 14.5837 3.6818 14.5107 3.93809L12.7522 10.1357C12.6793 10.3924 12.5514 10.3951 12.4679 10.1416L10.4227 3.93226C10.3395 3.67905 10.0529 3.47168 9.78578 3.47168H9.41899C9.15205 3.47168 8.86586 3.67909 8.78299 3.93265L6.75396 10.1412C6.67104 10.3948 6.54298 10.3928 6.4697 10.1361L4.69543 3.93822C4.62196 3.68159 4.34331 3.47168 4.07619 3.47168H3.32896C3.0622 3.47168 2.90976 3.6797 2.99028 3.93399L5.70395 12.4863C5.78477 12.7403 6.06901 12.9487 6.33614 12.9487H6.8493C7.08761 12.9487 7.34453 12.764 7.42022 12.5382L9.44878 6.48887C9.5337 6.23597 9.67277 6.23597 9.75834 6.48857L11.7861 12.4891C11.8717 12.7416 12.16 12.9487 12.4268 12.9487H12.9236C13.1708 12.9487 13.4338 12.7559 13.5082 12.5202L16.2152 3.93432C16.2953 3.6797 16.1426 3.47168 15.8758 3.47168L15.1285 3.47168Z" fill="#D00070"/>
<path id="Vector_21" d="M24.3713 7.91078C24.3713 5.09796 22.8777 3.35059 20.4736 3.35059C18.0332 3.35059 16.5762 5.15229 16.5762 8.16993C16.5762 11.2775 18.0458 12.9892 20.7142 12.9892C22.3716 12.9892 23.2608 12.4336 24.1583 11.5373L24.2776 11.4181L23.1322 10.4133L23.0273 10.5178C22.296 11.2486 21.7003 11.5074 20.7513 11.5074C19.171 11.5074 18.276 10.5037 18.2277 8.67948H24.3713V7.91078ZM18.2343 7.36421C18.2676 6.77457 18.3102 6.51064 18.4907 6.06761C18.8224 5.28284 19.5823 4.79545 20.4736 4.79545C21.3649 4.79545 22.1245 5.28251 22.4561 6.06629C22.6371 6.51064 22.6796 6.77457 22.713 7.36421H18.2343Z" fill="#D00070"/>
<path id="Vector_22" d="M0.96405 5.43448C1.49679 5.43448 1.92938 4.99997 1.92938 4.464C1.92938 3.92805 1.49679 3.49316 0.96405 3.49316C0.432571 3.49316 0 3.92805 0 4.464C2.05388e-08 4.99997 0.432571 5.43448 0.96405 5.43448Z" fill="#D00070"/>
<path id="Vector_23" d="M59.624 12.9426C60.1571 12.9426 60.5894 12.508 60.5894 11.9724C60.5894 11.4362 60.1571 11.001 59.624 11.001C59.0922 11.001 58.6606 11.4362 58.6606 11.9724C58.6606 12.508 59.0922 12.9426 59.624 12.9426Z" fill="#D00070"/>
</g>
</g>
</g>
</svg>
