<svg width="20" height="20" viewBox="0 0 20 20" fill="none" xmlns="http://www.w3.org/2000/svg">
<g id="Icon / information-circle-outline">
<path id="Vector" d="M10 2.5C5.85829 2.5 2.5 5.85829 2.5 10C2.5 14.1417 5.85829 17.5 10 17.5C14.1417 17.5 17.5 14.1417 17.5 10C17.5 5.85829 14.1417 2.5 10 2.5Z" stroke="black" stroke-width="2" stroke-miterlimit="10"/>
<path id="Vector_2" d="M9.16663 8.59375H10.4166V13.125" stroke="black" stroke-width="2" stroke-linecap="round" stroke-linejoin="round"/>
<path id="Vector_3" d="M8.33337 13.2812H11.7709" stroke="black" stroke-width="2" stroke-miterlimit="10" stroke-linecap="round"/>
<path id="Vector_4" d="M10.1823 5.07812C9.98138 5.07812 9.78502 5.13769 9.618 5.24929C9.45098 5.36089 9.32081 5.51951 9.24394 5.70509C9.16707 5.89067 9.14695 6.09488 9.18614 6.29189C9.22533 6.4889 9.32206 6.66987 9.4641 6.81191C9.60613 6.95394 9.7871 7.05067 9.98411 7.08986C10.1811 7.12905 10.3853 7.10894 10.5709 7.03207C10.7565 6.95519 10.9151 6.82502 11.0267 6.658C11.1383 6.49098 11.1979 6.29462 11.1979 6.09375C11.1979 5.82439 11.0909 5.56606 10.9004 5.37559C10.7099 5.18513 10.4516 5.07812 10.1823 5.07812Z" fill="black"/>
</g>
</svg>
