<svg width="12" height="12" viewBox="0 0 48 48" fill="none" xmlns="http://www.w3.org/2000/svg">
<g id="Icon / search-outline">
<path id="Vector" d="M20.7272 6C17.8144 6 14.9671 6.86373 12.5452 8.48198C10.1233 10.1002 8.23571 12.4003 7.12105 15.0913C6.00638 17.7824 5.71473 20.7435 6.28299 23.6003C6.85124 26.4571 8.25387 29.0812 10.3135 31.1409C12.3731 33.2005 14.9973 34.6031 17.8541 35.1714C20.7109 35.7396 23.672 35.448 26.363 34.3333C29.0541 33.2187 31.3542 31.331 32.9724 28.9092C34.5906 26.4873 35.4544 23.6399 35.4544 20.7272C35.4541 16.8214 33.9024 13.0756 31.1406 10.3138C28.3788 7.55194 24.633 6.00025 20.7272 6Z" stroke="orange" stroke-width="1.5" stroke-miterlimit="10"/>
<path id="Vector_2" d="M31.7148 31.7148L42.0002 42.0002" stroke="orange" stroke-width="1.5" stroke-miterlimit="10" stroke-linecap="round"/>
</g>
</svg>
