<svg width="61" height="20" viewBox="0 0 61 20" fill="none" xmlns="http://www.w3.org/2000/svg">
<g id="Group">
<g id="Group_2">
<g id="Group_3">
<path id="Vector" d="M3.35264 16.9186C3.53615 16.9186 3.68506 16.769 3.68506 16.5844C3.68506 16.3999 3.53615 16.25 3.35264 16.25C3.16962 16.25 3.02069 16.3999 3.02069 16.5844C3.02069 16.769 3.16962 16.9186 3.35264 16.9186Z" fill="#D00070"/>
<path id="Vector_2" d="M29.064 19.5377C29.2475 19.5377 29.3964 19.3881 29.3964 19.2037C29.3964 19.019 29.2475 18.8691 29.064 18.8691C28.8808 18.8691 28.7321 19.019 28.7321 19.2037C28.7321 19.3881 28.8808 19.5377 29.064 19.5377Z" fill="#D00070"/>
<path id="Vector_3" d="M13.3361 17.5126L13.3359 17.5115C13.3351 17.139 13.2058 16.8247 12.9708 16.6124L12.9543 16.5976L12.9505 16.5942H12.9497C12.7287 16.4046 12.4294 16.3046 12.0744 16.3012C12.0732 16.3009 12.0702 16.3008 12.0668 16.3008C12.0635 16.3008 12.0601 16.3009 12.0569 16.3013L12.0543 16.3012C12.0436 16.3012 12.0365 16.3014 12.0313 16.3017C12.0271 16.3014 12.0204 16.3012 12.0126 16.3012L12.0073 16.3013C12.0046 16.301 12.0012 16.3008 11.9969 16.3008H11.9956C11.996 16.3008 11.9949 16.3008 11.9938 16.3008C11.9919 16.3008 11.9895 16.3008 11.9869 16.3012C11.6328 16.305 11.3346 16.4047 11.1142 16.5942H11.1132L11.093 16.6124C10.8589 16.8238 10.7296 17.1366 10.7279 17.5072L10.7277 17.5076L10.7274 17.509L10.7256 19.4274C10.7256 19.453 10.7365 19.4782 10.7556 19.4961C10.7747 19.5143 10.8016 19.5248 10.8285 19.5248H11.1702C11.1971 19.5248 11.2236 19.5143 11.2429 19.4961C11.2623 19.4782 11.273 19.453 11.273 19.4274L11.2738 17.5737C11.2759 17.3022 11.3454 17.1096 11.4709 16.9825C11.5924 16.8593 11.778 16.7897 12.0333 16.7848C12.2862 16.7897 12.4715 16.8593 12.593 16.9825C12.7184 17.1096 12.7879 17.3022 12.7901 17.5743L12.7896 19.4274C12.7896 19.453 12.8005 19.4782 12.8197 19.4961C12.8389 19.5143 12.8656 19.5248 12.8926 19.5248H13.2348C13.2618 19.5248 13.2883 19.5143 13.3076 19.4961C13.3271 19.4782 13.3378 19.453 13.3378 19.4274L13.3361 17.5126Z" fill="#D00070"/>
<path id="Vector_4" d="M25.2501 17.5126L25.25 17.5115C25.2492 17.139 25.1198 16.8247 24.8849 16.6124L24.8683 16.5976L24.8646 16.5942H24.8638C24.6428 16.4046 24.3435 16.3046 23.9886 16.3012C23.9872 16.3009 23.9843 16.3008 23.9809 16.3008C23.9776 16.3008 23.9743 16.3009 23.971 16.3013L23.9684 16.3012C23.9577 16.3012 23.9505 16.3014 23.9453 16.3017C23.9412 16.3014 23.9345 16.3012 23.9267 16.3012L23.9214 16.3013C23.9187 16.301 23.9153 16.3008 23.911 16.3008H23.9097C23.9102 16.3008 23.909 16.3008 23.9079 16.3008C23.906 16.3008 23.9036 16.3008 23.901 16.3012C23.5469 16.305 23.2487 16.4047 23.0283 16.5942H23.0272L23.0071 16.6124C22.773 16.8238 22.6437 17.1366 22.642 17.5072L22.6418 17.5076L22.6414 17.509L22.6396 19.4274C22.6396 19.453 22.6505 19.4782 22.6697 19.4961C22.6888 19.5143 22.7156 19.5248 22.7426 19.5248H23.0843C23.1112 19.5248 23.1376 19.5143 23.1571 19.4961C23.1764 19.4782 23.1871 19.453 23.1871 19.4274L23.1879 17.5737C23.19 17.3022 23.2595 17.1096 23.385 16.9825C23.5065 16.8593 23.692 16.7897 23.9474 16.7848C24.2003 16.7897 24.3856 16.8593 24.5072 16.9825C24.6325 17.1096 24.702 17.3022 24.7042 17.5743L24.7037 19.4274C24.7037 19.453 24.7146 19.4782 24.7338 19.4961C24.753 19.5143 24.7797 19.5248 24.8067 19.5248H25.1489C25.1758 19.5248 25.2024 19.5143 25.2216 19.4961C25.2411 19.4782 25.2518 19.453 25.2518 19.4274L25.2501 17.5126Z" fill="#D00070"/>
<path id="Vector_5" d="M18.8617 17.922V17.9288V17.9295V17.9366C18.8609 18.2421 18.8284 18.5406 18.7121 18.7543C18.5978 18.9598 18.414 19.0971 18.0571 19.1025C18.0548 19.1023 18.051 19.1023 18.0438 19.1025H18.0378C17.6786 19.0989 17.4923 18.9614 17.3775 18.7539C17.2602 18.5395 17.2274 18.2385 17.2274 17.931V17.9125C17.2277 17.6071 17.2602 17.362 17.3775 17.1485C17.4923 16.941 17.6786 16.8033 18.0378 16.8H18.0403H18.0462H18.0516C18.4112 16.8033 18.5968 16.9407 18.7125 17.1489C18.829 17.362 18.8617 17.6071 18.8617 17.9125V17.922ZM18.9628 16.6287C18.961 16.6265 18.9592 16.6243 18.9567 16.6221C18.7621 16.4427 18.4509 16.3316 18.0903 16.3312C18.0855 16.3306 18.0779 16.3306 18.0709 16.3306C17.7744 16.3304 17.4819 16.3924 17.2277 16.6098L17.2274 16.61V16.4192H17.2279V15.4525C17.2279 15.427 17.217 15.4019 17.1978 15.3841C17.1787 15.366 17.152 15.3555 17.125 15.3555H16.7882C16.7614 15.3555 16.7349 15.366 16.7155 15.3841C16.6961 15.4019 16.6854 15.427 16.6854 15.4525V16.4192H16.6857V18.4714H16.6854V19.4329C16.6854 19.4584 16.6965 19.4835 16.7155 19.5012C16.7347 19.5194 16.7614 19.5298 16.7885 19.5298H17.1251C17.152 19.5298 17.1786 19.5194 17.1978 19.5012C17.2174 19.4835 17.2281 19.4584 17.2281 19.4329V19.2341C17.4528 19.4852 17.7752 19.5717 18.0709 19.5716H18.0918C18.4515 19.5704 18.7628 19.4593 18.9567 19.2802C19.3195 18.9371 19.4024 18.4111 19.4036 17.9221C19.4025 17.4358 19.3195 16.9706 18.9628 16.6287Z" fill="#D00070"/>
<path id="Vector_6" d="M9.77943 18.3605C9.77865 18.6171 9.72243 18.7588 9.64693 18.8249C9.46481 18.9928 9.23936 19.0181 8.96473 19.0186H8.96174H8.95664C8.69214 19.019 8.51836 18.9731 8.4198 18.9018C8.32624 18.8342 8.27794 18.7375 8.27561 18.5712V18.5636C8.2774 18.3986 8.32756 18.2955 8.42218 18.2229C8.52124 18.1476 8.68797 18.0987 8.93766 18.0987H8.93982H9.77943V18.3605ZM10.3448 17.3715V17.3693C10.3449 17.044 10.2366 16.7651 10.0096 16.5788C9.78087 16.3911 9.45268 16.3029 9.03019 16.3027H9.01495H9.00922C8.56564 16.3014 8.21322 16.398 7.94496 16.6832L7.94393 16.6821L7.92857 16.7005C7.9084 16.7229 7.88862 16.7459 7.86948 16.7705C7.86948 16.7705 7.86909 16.771 7.86895 16.7712L7.84149 16.8038C7.82507 16.8232 7.81702 16.8493 7.82039 16.8756C7.82327 16.9021 7.83668 16.9275 7.85711 16.945L7.87262 16.9584C7.87858 16.9656 7.88509 16.9722 7.89238 16.9783L7.95239 17.0275L8.11198 17.1655C8.1324 17.1833 8.15936 17.1928 8.18551 17.1915C8.21143 17.1905 8.23587 17.1786 8.25218 17.1591L8.35475 17.0375C8.41859 16.9682 8.48412 16.919 8.56338 16.8844C8.67534 16.8353 8.81903 16.8124 9.02656 16.8104H9.02904L9.03607 16.81C9.33125 16.8108 9.51493 16.8708 9.62013 16.963C9.72502 17.0538 9.77828 17.1909 9.77906 17.4041C9.77906 17.4055 9.77906 17.4092 9.77943 17.414V17.6151H8.90287C8.54923 17.6159 8.25345 17.6958 8.04001 17.8621C7.82797 18.0249 7.70975 18.2754 7.70963 18.5671L7.70975 18.5782C7.71028 18.8213 7.80166 19.0597 7.96776 19.2253C8.19217 19.4463 8.49101 19.5265 8.94257 19.5265H8.94765H9.17649C9.59004 19.5269 9.8867 19.4248 10.0778 19.2189C10.2685 19.013 10.3449 18.7153 10.3449 18.345V17.3771L10.3448 17.3715Z" fill="#D00070"/>
<path id="Vector_7" d="M20.1934 18.5737V18.5661C20.1951 18.4013 20.2453 18.2983 20.34 18.2259C20.439 18.1504 20.6058 18.1017 20.8554 18.1017H20.8577H21.6973V18.3631C21.6965 18.6196 21.6402 18.7612 21.5647 18.8274C21.3826 18.9951 21.1572 19.0203 20.8824 19.021H20.8794H20.8745C20.6098 19.0212 20.4362 18.9755 20.3376 18.9041C20.2439 18.8365 20.1958 18.74 20.1934 18.5737ZM22.2626 17.3748V17.3726C22.2627 17.0474 22.1544 16.7688 21.9273 16.5825C21.6988 16.395 21.3705 16.3068 20.9482 16.3067H20.9328H20.927C20.4833 16.3055 20.1311 16.4019 19.8629 16.6869L19.8618 16.686L19.8464 16.7043C19.8262 16.7265 19.8064 16.7497 19.7871 16.7741C19.787 16.7744 19.7869 16.7746 19.7868 16.775L19.7593 16.8074C19.7429 16.8268 19.7348 16.853 19.7382 16.8792C19.7411 16.9057 19.7545 16.931 19.7749 16.9487L19.7904 16.9621C19.7964 16.9691 19.8029 16.9758 19.8102 16.9818L19.8702 17.031L20.0298 17.1689C20.0502 17.1866 20.0772 17.1962 20.1032 17.1949C20.1292 17.1939 20.1536 17.182 20.17 17.1626L20.2724 17.041C20.3363 16.9718 20.402 16.9226 20.4812 16.8879C20.5932 16.8389 20.7369 16.8159 20.9443 16.814L20.9468 16.8139L20.9539 16.8137C21.2491 16.8144 21.4327 16.8744 21.5379 16.9665C21.6428 17.0572 21.6959 17.1943 21.6968 17.4073C21.6968 17.4088 21.6968 17.4125 21.6973 17.4173V17.6183H20.8207C20.467 17.6191 20.1713 17.6988 19.9578 17.8652C19.7458 18.0278 19.6276 18.2782 19.6274 18.5698L19.6276 18.5808C19.6281 18.8238 19.7194 19.062 19.8856 19.2274C20.1099 19.4483 20.4089 19.5285 20.8604 19.5285H20.8655H21.0943C21.5079 19.5289 21.8045 19.4268 21.9956 19.221C22.1863 19.0154 22.2627 18.7178 22.2627 18.3477V17.3804L22.2626 17.3748Z" fill="#D00070"/>
<path id="Vector_8" d="M5.07821 16.3136H4.50081L4.50058 15.7288H4.50031L4.50017 15.4458C4.50017 15.395 4.45566 15.3535 4.40072 15.3535H4.05357C4.02743 15.3535 4.00163 15.3633 3.98341 15.3805C3.96478 15.3977 3.95386 15.4217 3.95386 15.4458V15.9672H3.95412V18.7085C3.95437 18.9312 4.01855 19.1317 4.15966 19.2836C4.2941 19.4306 4.512 19.5223 4.76379 19.5223H4.76469H4.93194V19.5202H5.07821C5.10364 19.5202 5.12847 19.5091 5.14622 19.4899C5.16429 19.4706 5.17456 19.4439 5.17456 19.4165V19.0777C5.17456 19.0506 5.16429 19.0238 5.14622 19.0045C5.12847 18.985 5.10364 18.9742 5.07821 18.9742H4.80988C4.75555 18.9721 4.71195 18.9655 4.67395 18.9521C4.64971 18.9437 4.63476 18.9344 4.62084 18.9255C4.60547 18.9147 4.59701 18.9095 4.58194 18.8938C4.53024 18.8398 4.50161 18.7543 4.50081 18.627V16.8598H5.07821C5.10364 16.8598 5.12847 16.8487 5.14622 16.8294C5.16429 16.81 5.17456 16.7833 5.17456 16.7561V16.4171C5.17456 16.3901 5.16429 16.3634 5.14622 16.3439C5.12847 16.3244 5.10364 16.3136 5.07821 16.3136Z" fill="#D00070"/>
<path id="Vector_9" d="M7.56817 16.7132L7.53613 16.6776C7.53483 16.6734 7.53249 16.6695 7.52859 16.6655L7.50922 16.6456L7.48262 16.618L7.46075 16.5937L7.45986 16.5946C7.26343 16.3881 7.01896 16.301 6.75865 16.3008C6.75331 16.3008 6.74704 16.3009 6.73821 16.301C6.55336 16.301 6.33518 16.3841 6.20424 16.5415L6.11404 16.6486V16.6038V16.4093C6.11404 16.3838 6.10311 16.3587 6.08399 16.341C6.06472 16.3228 6.03804 16.3123 6.01093 16.3123H5.67444C5.64739 16.3123 5.62082 16.3228 5.60155 16.341C5.58218 16.3587 5.5715 16.3838 5.5715 16.4093V16.6038V19.4288C5.5715 19.4545 5.58243 19.4794 5.60155 19.4972C5.62067 19.5155 5.64739 19.5259 5.67444 19.5259H5.73251C5.73433 19.526 5.73629 19.5264 5.73811 19.5264H5.95014C5.95213 19.5264 5.95394 19.526 5.95589 19.5259H6.0111C6.03804 19.5259 6.06456 19.5155 6.08399 19.4972C6.10336 19.4794 6.11404 19.4545 6.11404 19.4288V19.3765C6.11404 19.3759 6.11416 19.3752 6.11416 19.3746V17.5831C6.11416 17.5808 6.11404 17.5786 6.11404 17.5762V17.4312C6.12422 17.2647 6.17703 17.1148 6.26374 17.0059C6.35666 16.8896 6.49281 16.8142 6.67651 16.8136C6.7737 16.8136 6.83764 16.8252 6.89299 16.8482C6.94633 16.8715 7.00076 16.9113 7.07221 16.9849L7.08838 17.0016L7.1615 17.083C7.17871 17.1023 7.20383 17.1136 7.23024 17.1138C7.25678 17.1144 7.28374 17.104 7.30408 17.0855L7.55631 16.8561C7.57648 16.8377 7.58936 16.8118 7.59162 16.7849C7.59417 16.7584 7.58532 16.7324 7.56817 16.7132Z" fill="#D00070"/>
<path id="Vector_10" d="M16.0492 17.8738C16.0478 17.8728 16.0463 17.872 16.0451 17.8711H16.0447C15.8482 17.734 15.5993 17.6863 15.3313 17.6634L14.8288 17.6211C14.6198 17.6036 14.4903 17.5601 14.415 17.501C14.3512 17.4524 14.3117 17.374 14.3105 17.2534V17.2507H14.3101L14.3105 17.2444C14.3117 17.1018 14.3671 16.9981 14.4657 16.9277C14.5707 16.852 14.7392 16.8038 14.9773 16.8035H14.9793H14.9797C15.2836 16.8041 15.535 16.8749 15.7447 17.0095L15.7444 17.0099L15.8719 17.0993C15.8922 17.1136 15.9182 17.1189 15.9432 17.1131C15.9686 17.1076 15.9917 17.0919 16.0067 17.07L16.1944 16.7966C16.2095 16.7746 16.2161 16.7471 16.2124 16.7214C16.2105 16.7073 16.205 16.694 16.1972 16.6824C16.1903 16.6691 16.1804 16.6572 16.1674 16.6479L16.1458 16.6325C15.8462 16.4191 15.4285 16.2995 14.9783 16.2988C14.6177 16.299 14.3101 16.3856 14.0869 16.5515C13.8655 16.7145 13.7353 16.9612 13.7352 17.2419L13.7353 17.2458V17.2476L13.7352 17.2551C13.7352 17.5033 13.8272 17.7226 14.011 17.872C14.1966 18.0238 14.458 18.1047 14.7872 18.1313L15.3036 18.173C15.4928 18.1903 15.6112 18.2323 15.6808 18.2906C15.7416 18.3399 15.7804 18.4181 15.7808 18.5427V18.5495V18.5505C15.7793 18.7076 15.7161 18.816 15.5979 18.8911C15.4711 18.9715 15.2649 19.0207 14.9783 19.0207H14.9763C14.9753 19.0207 14.9734 19.0208 14.971 19.0211H14.9684C14.5902 19.0192 14.3214 18.9343 14.1122 18.7616L14.0033 18.6695C13.9838 18.653 13.9579 18.6452 13.9317 18.6487C13.9056 18.6521 13.8805 18.6659 13.8633 18.6868L13.647 18.948C13.6296 18.9689 13.6205 18.9964 13.622 19.0229C13.6232 19.0492 13.6353 19.0739 13.6548 19.0903L13.7574 19.177L13.757 19.1776C13.7591 19.1791 13.7612 19.1804 13.7632 19.182L13.7765 19.1932L13.7775 19.1921C14.095 19.4218 14.4911 19.5317 14.9763 19.5317H14.9849C15.3849 19.5313 15.7225 19.4447 15.9687 19.2749C16.2121 19.1073 16.3573 18.8487 16.3569 18.5505V18.5356C16.3574 18.2349 16.2408 18.0082 16.0492 17.8738Z" fill="#D00070"/>
<path id="Vector_11" d="M28.4443 19.3908L28.0231 18.7967L27.1791 17.5652L27.835 16.8691L28.217 16.4657L28.2401 16.44C28.2842 16.3956 28.2626 16.3495 28.2435 16.3317C28.2244 16.3136 28.1977 16.3031 28.1706 16.3031H27.7321C27.706 16.3031 27.6722 16.3232 27.6531 16.3402C27.6527 16.3404 27.6534 16.3401 27.6531 16.3402L26.1805 17.9097V16.5981V15.4408C26.1805 15.4153 26.1694 15.3902 26.1504 15.3724C26.1311 15.3542 26.1045 15.3438 26.0774 15.3438H25.7407C25.7138 15.3438 25.6872 15.3542 25.668 15.3724C25.6485 15.3902 25.6378 15.4153 25.6378 15.4408V16.5981V19.4285C25.6378 19.454 25.6487 19.4792 25.6679 19.4971C25.6871 19.5151 25.7138 19.5256 25.7409 19.5256H26.0775C26.1045 19.5256 26.131 19.5151 26.1504 19.4971C26.1698 19.4792 26.1805 19.454 26.1805 19.4285V18.6235L26.8184 17.9325L27.2477 18.5746H27.2459L27.8495 19.476C27.8637 19.496 27.8859 19.5277 27.9363 19.5277H28.3748C28.4019 19.5277 28.4286 19.5172 28.4477 19.499C28.4669 19.4811 28.4795 19.4351 28.4443 19.3908Z" fill="#D00070"/>
<path id="Vector_12" d="M24.6742 15.375H24.7336L24.822 15.635L24.9105 15.375H24.9692V15.6826H24.9297V15.5006C24.9297 15.4943 24.9299 15.4847 24.9299 15.4696C24.9299 15.455 24.9308 15.4402 24.9308 15.4231L24.8426 15.6826H24.8011L24.713 15.4231V15.4322V15.4664C24.7136 15.4827 24.7136 15.4937 24.7136 15.5006V15.6826H24.6742V15.375Z" fill="#D00070"/>
<path id="Vector_13" d="M25.2834 15.5156C25.3022 15.5156 25.3174 15.512 25.329 15.504C25.3392 15.4969 25.3454 15.4827 25.3454 15.4615C25.3454 15.4402 25.338 15.4248 25.3218 15.4168C25.3134 15.4125 25.3022 15.4105 25.2888 15.4105H25.1891V15.5156H25.2834ZM25.1476 15.375H25.2881C25.3112 15.375 25.3306 15.3782 25.3449 15.3853C25.3735 15.3979 25.3874 15.4221 25.3874 15.4576C25.3874 15.4759 25.3843 15.491 25.3764 15.503C25.3682 15.5143 25.3576 15.5244 25.3437 15.5315C25.3558 15.5367 25.3657 15.5427 25.3717 15.5506C25.3773 15.5585 25.3807 15.5719 25.3807 15.5898L25.383 15.6303C25.383 15.6425 25.3846 15.6511 25.3857 15.657C25.3886 15.6661 25.3929 15.6725 25.3994 15.6751V15.6826H25.3484C25.3469 15.6794 25.3463 15.6763 25.3449 15.6725C25.3437 15.6682 25.3434 15.6601 25.3432 15.6481L25.3403 15.5967C25.3389 15.5762 25.3322 15.5627 25.3186 15.5561C25.3112 15.5524 25.298 15.5506 25.2816 15.5506H25.1891V15.6826H25.1476V15.375Z" fill="#D00070"/>
<path id="Vector_14" d="M25.0603 15.6799C25.0484 15.6799 25.0403 15.671 25.0403 15.6575C25.0403 15.644 25.0487 15.6348 25.0616 15.6348C25.0737 15.6348 25.0824 15.644 25.0824 15.6575C25.0824 15.671 25.0737 15.6799 25.0603 15.6799Z" fill="#D00070"/>
<path id="Vector_15" d="M25.4815 15.6799C25.4693 15.6799 25.4603 15.671 25.4603 15.6575C25.4603 15.644 25.4693 15.6348 25.482 15.6348C25.4949 15.6348 25.5033 15.644 25.5033 15.6575C25.5033 15.671 25.4949 15.6799 25.4818 15.6799H25.4815Z" fill="#D00070"/>
</g>
<g id="Group_4">
<path id="Vector_16" d="M32.023 7.66806V7.68828V7.69054V7.71174C32.0204 8.62453 31.9235 9.51646 31.576 10.1548C31.2345 10.7689 30.6854 11.179 29.6189 11.1953C29.6121 11.1944 29.6007 11.1944 29.5791 11.1953H29.5615C28.4878 11.1845 27.9316 10.7735 27.5884 10.1538C27.238 9.51284 27.1398 8.61345 27.1398 7.69513V7.63968C27.1408 6.72721 27.238 5.99504 27.5884 5.35708C27.9316 4.73701 28.4878 4.32562 29.5615 4.31583H29.5687H29.5863H29.6026C30.6769 4.32562 31.2312 4.73639 31.5774 5.35835C31.9251 5.99504 32.023 6.72721 32.023 7.63968V7.66806ZM32.3251 3.80404C32.3195 3.79753 32.314 3.79068 32.3068 3.78415C31.7255 3.24822 30.7957 2.91636 29.7181 2.91534C29.7037 2.91343 29.6812 2.91343 29.6603 2.91343C28.7743 2.9131 27.9003 3.09793 27.1408 3.74764L27.1398 3.74828V3.17812H27.1414V0.28981C27.1414 0.213525 27.1088 0.138532 27.0517 0.085377C26.9946 0.031257 26.915 0 26.8338 0H25.8277C25.7477 0 25.6684 0.031257 25.6104 0.085377C25.5526 0.138532 25.5207 0.213525 25.5207 0.28981V3.17812H25.5213V9.30979H25.5207V12.1825C25.5207 12.2587 25.5536 12.3337 25.6104 12.3865C25.6681 12.4409 25.7477 12.4719 25.8286 12.4719H26.8341C26.915 12.4719 26.9943 12.4409 27.0517 12.3865C27.1101 12.3337 27.1421 12.2587 27.1421 12.1825V11.5885C27.8132 12.3386 28.7765 12.5971 29.6603 12.5968H29.7223C30.7973 12.5932 31.7271 12.2613 32.3068 11.726C33.3906 10.7008 33.6382 9.12918 33.6418 7.66839C33.6389 6.21544 33.3906 4.82538 32.3251 3.80404Z" fill="#D00070"/>
<path id="Vector_17" d="M41.2906 7.86333C41.2906 8.77577 41.1927 9.50796 40.8449 10.1447C40.4988 10.7666 39.9445 11.1774 38.8702 11.1872H38.8539H38.8363H38.8291C37.7554 11.1774 37.1992 10.766 36.856 10.146C36.5056 9.50796 36.4084 8.77577 36.4074 7.86333V7.80792C36.4074 6.8896 36.5056 5.99017 36.856 5.34926C37.1992 4.72954 37.7554 4.31846 38.8291 4.30771H38.8467C38.8682 4.30869 38.8796 4.30869 38.8865 4.30771C39.953 4.324 40.5021 4.7341 40.8437 5.3483C41.1911 5.98659 41.288 6.8785 41.2906 7.79131V7.81249V7.81477V7.83499V7.86333ZM41.5927 11.699C42.6582 10.6776 42.9065 9.28761 42.9094 7.83466C42.9058 6.37387 42.6582 4.80226 41.5744 3.77699C40.9947 3.24168 40.0649 2.90982 38.9899 2.90625H38.9279C38.0441 2.90592 37.0808 3.16443 36.4097 3.91458V3.32058C36.4097 3.24429 36.3777 3.16932 36.3193 3.11651C36.2619 3.06208 36.1826 3.03111 36.1017 3.03111H35.0962C35.0153 3.03111 34.9357 3.06208 34.878 3.11651C34.8212 3.16932 34.7883 3.24429 34.7883 3.32058V6.19326H34.7889V12.3249H34.7883V15.2132C34.7883 15.2895 34.8202 15.3645 34.878 15.4176C34.9361 15.4717 35.0153 15.503 35.0953 15.503H36.1014C36.1826 15.503 36.2622 15.4717 36.3193 15.4176C36.3764 15.3645 36.4091 15.2895 36.4091 15.2132V12.3249H36.4074V11.7548L36.4084 11.7554C37.1679 12.4051 38.0419 12.5899 38.9279 12.5896C38.9488 12.5896 38.9713 12.5896 38.9857 12.5877C40.0633 12.5867 40.993 12.2548 41.5744 11.7189C41.5816 11.7124 41.5871 11.7055 41.5927 11.699Z" fill="#D00070"/>
<path id="Vector_18" d="M56.0274 13.3492C55.9389 13.5887 55.7803 13.9751 55.6744 14.2074C55.6744 14.2074 55.483 14.6283 55.212 14.8998C54.9638 15.1473 54.6806 15.3183 54.3614 15.413C54.0428 15.5073 53.8333 15.522 53.8333 15.522C53.5783 15.5397 53.2063 15.5544 53.0067 15.5544C52.8071 15.5544 52.6435 15.3455 52.6435 15.0904V14.4081C52.6435 14.153 52.7474 13.944 52.8739 13.944C53.0008 13.944 53.3122 13.9224 53.5662 13.8962C53.5662 13.8962 53.7596 13.8759 53.9366 13.7403C54.1139 13.6041 54.2034 13.4089 54.2034 13.4089C54.3099 13.1766 54.4669 12.7898 54.5522 12.5491L54.738 12.0245C54.8232 11.7837 54.8209 11.3907 54.7334 11.1509L51.9179 3.46135C51.83 3.22157 51.9673 3.02539 52.223 3.02539H53.2066C53.462 3.02539 53.7383 3.22321 53.8202 3.46492L55.6646 8.90343C55.7469 9.14548 55.8793 9.14485 55.9596 8.90247L57.7578 3.46625C57.838 3.22354 58.1127 3.02539 58.3684 3.02539H59.3694C59.625 3.02539 59.7617 3.22124 59.6736 3.46098L56.0274 13.3492Z" fill="#D00070"/>
<path id="Vector_19" d="M45.3075 9.69805V9.67588C45.3125 9.18923 45.461 8.88516 45.7404 8.67104C46.0326 8.4485 46.5251 8.30453 47.2623 8.30453H47.2687H49.7482V9.07646C49.7459 9.83364 49.5796 10.2522 49.3569 10.4475C48.8191 10.9425 48.1534 11.017 47.342 11.0191H47.3332H47.3184C46.5372 11.0197 46.0243 10.8848 45.7334 10.6737C45.4566 10.4743 45.3145 10.1894 45.3075 9.69805ZM51.4175 6.15816V6.15145C51.4178 5.19158 51.0981 4.36859 50.4274 3.81851C49.7526 3.26471 48.7832 3.00461 47.5361 3.00394H47.4907H47.4739C46.1633 3.00055 45.1234 3.28517 44.3314 4.12662L44.3281 4.12391L44.2827 4.17828C44.2233 4.24375 44.1648 4.31219 44.1077 4.38435C44.1074 4.38503 44.107 4.38604 44.1067 4.38671L44.0258 4.4827C43.9771 4.54009 43.9532 4.61727 43.9633 4.69481C43.9717 4.77272 44.0114 4.84755 44.0718 4.8999L44.1175 4.93949C44.135 4.9603 44.1544 4.97976 44.1759 4.99757L44.3529 5.14288L44.8245 5.55C44.8846 5.60235 44.9642 5.63088 45.0412 5.62688C45.118 5.62386 45.1896 5.58893 45.2383 5.5312L45.5406 5.17241V5.1721C45.7294 4.96804 45.9232 4.82269 46.1573 4.72034C46.4878 4.57567 46.912 4.50786 47.525 4.50216L47.5324 4.50183L47.5529 4.50117C48.4248 4.50316 48.9673 4.68038 49.2776 4.95258C49.5873 5.22006 49.7445 5.62519 49.7469 6.25417C49.7469 6.25817 49.7469 6.26956 49.7482 6.28366V6.8771H47.1599C46.1153 6.87944 45.242 7.11506 44.6119 7.60608C43.9858 8.08635 43.6365 8.82541 43.6362 9.68663L43.6365 9.71918C43.6382 10.4368 43.9079 11.1399 44.3986 11.6286C45.0609 12.2807 45.9436 12.5176 47.2771 12.5176H47.2919H47.9677C49.1889 12.519 50.0649 12.2173 50.6292 11.6098C51.1922 11.0026 51.4178 10.1236 51.4178 9.03116V6.1746L51.4175 6.15816Z" fill="#D00070"/>
<path id="Vector_20" d="M15.1285 3.04297C14.8613 3.04297 14.5836 3.25309 14.5106 3.50938L12.7521 9.70695C12.6793 9.9637 12.5513 9.96635 12.4678 9.71288L10.4226 3.50355C10.3394 3.25034 10.0528 3.04297 9.78569 3.04297H9.4189C9.15196 3.04297 8.86577 3.25038 8.7829 3.50394L6.75387 9.71253C6.67095 9.9661 6.54289 9.96405 6.46961 9.70738L4.69534 3.5095C4.62187 3.25288 4.34322 3.04297 4.07609 3.04297H3.32887C3.06211 3.04297 2.90967 3.25099 2.99018 3.50528L5.70386 12.0576C5.78468 12.3116 6.06892 12.52 6.33604 12.52H6.84921C7.08752 12.52 7.34444 12.3352 7.42012 12.1095L9.44868 6.06016C9.53361 5.80725 9.67268 5.80725 9.75824 6.05986L11.786 12.0604C11.8716 12.3129 12.16 12.52 12.4267 12.52H12.9235C13.1707 12.52 13.4338 12.3272 13.5081 12.0915L16.2151 3.50561C16.2952 3.25099 16.1425 3.04297 15.8757 3.04297L15.1285 3.04297Z" fill="#D00070"/>
<path id="Vector_21" d="M24.3711 7.48207C24.3711 4.66925 22.8775 2.92188 20.4734 2.92188C18.033 2.92188 16.5759 4.72358 16.5759 7.74122C16.5759 10.8488 18.0455 12.5605 20.7139 12.5605C22.3714 12.5605 23.2605 12.0049 24.158 11.1086L24.2774 10.9893L23.132 9.98462L23.0271 10.0891C22.2958 10.8199 21.7001 11.0787 20.7511 11.0787C19.1708 11.0787 18.2757 10.075 18.2274 8.25077H24.3711V7.48207ZM18.234 6.9355C18.2674 6.34586 18.31 6.08193 18.4905 5.63889C18.8222 4.85412 19.582 4.36674 20.4734 4.36674C21.3647 4.36674 22.1243 4.8538 22.4558 5.63758C22.6368 6.08193 22.6793 6.34586 22.7127 6.9355H18.234Z" fill="#D00070"/>
<path id="Vector_22" d="M0.96405 5.00577C1.49679 5.00577 1.92938 4.57125 1.92938 4.03529C1.92938 3.49934 1.49679 3.06445 0.96405 3.06445C0.432571 3.06445 0 3.49934 0 4.03529C2.05388e-08 4.57125 0.432571 5.00577 0.96405 5.00577Z" fill="#D00070"/>
<path id="Vector_23" d="M59.6241 12.5139C60.1572 12.5139 60.5895 12.0793 60.5895 11.5437C60.5895 11.0074 60.1572 10.5723 59.6241 10.5723C59.0924 10.5723 58.6608 11.0074 58.6608 11.5437C58.6608 12.0793 59.0924 12.5139 59.6241 12.5139Z" fill="#D00070"/>
</g>
</g>
</g>
</svg>
