<svg width="18" height="19" viewBox="0 0 18 19" fill="none" xmlns="http://www.w3.org/2000/svg">
<path d="M15.1566 9.60956C16.1746 9.60956 16.9999 8.53669 16.9999 7.21323C16.9999 5.88977 16.1746 4.81689 15.1566 4.81689C14.1385 4.81689 13.3132 5.88977 13.3132 7.21323C13.3132 8.53669 14.1385 9.60956 15.1566 9.60956Z" stroke="#3365B4" stroke-width="1.5" stroke-miterlimit="10"/>
<path d="M2.84333 9.60956C3.86138 9.60956 4.68667 8.53669 4.68667 7.21323C4.68667 5.88977 3.86138 4.81689 2.84333 4.81689C1.82529 4.81689 1 5.88977 1 7.21323C1 8.53669 1.82529 9.60956 2.84333 9.60956Z" stroke="#3365B4" stroke-width="1.5" stroke-miterlimit="10"/>
<path d="M6.51106 5.55414C7.5291 5.55414 8.35439 4.48127 8.35439 3.15781C8.35439 1.83435 7.5291 0.761474 6.51106 0.761475C5.49301 0.761475 4.66772 1.83435 4.66772 3.15781C4.66772 4.48127 5.49301 5.55414 6.51106 5.55414Z" stroke="#3365B4" stroke-width="1.5" stroke-miterlimit="10"/>
<path d="M11.378 5.55414C12.396 5.55414 13.2213 4.48127 13.2213 3.15781C13.2213 1.83435 12.396 0.761474 11.378 0.761475C10.36 0.761475 9.53467 1.83435 9.53467 3.15781C9.53467 4.48127 10.36 5.55414 11.378 5.55414Z" stroke="#3365B4" stroke-width="1.5" stroke-miterlimit="10"/>
<path d="M7.37775 18.181C7.91232 18.0335 8.59436 17.9598 9.33169 17.9598C9.86626 17.9598 10.364 17.9967 10.7879 18.0704C10.7879 18.0704 10.8064 18.0704 10.8248 18.0704C10.8432 18.0704 10.8617 18.0704 10.8801 18.0704C11.2119 18.1257 12.4469 18.31 13.3686 17.8308C13.4055 17.8123 13.4239 17.8123 13.4423 17.7939C14.6958 17.1303 15.4884 16.1902 15.4884 15.1395C15.4884 14.6418 15.3225 14.181 14.9907 13.7386C14.9723 13.6833 14.9354 13.6464 14.8986 13.5911C14.0138 12.227 13.387 10.697 13.1105 9.95972C12.7603 8.19011 11.0829 6.84448 9.05519 6.84448C7.19342 6.84448 5.62659 7.98735 5.11045 9.55418L5.09202 9.55418C5.09202 9.55418 4.33625 11.7477 3.13809 13.5911C3.10122 13.6464 3.08279 13.6833 3.06435 13.7201C2.73255 14.1625 2.56665 14.6234 2.56665 15.1395C2.56665 16.3192 3.56205 17.3699 5.11046 18.0335C5.16576 18.052 6.29019 18.3653 7.37775 18.181Z" stroke="#3365B4" stroke-width="1.5" stroke-miterlimit="10"/>
</svg>
