<svg width="32" height="33" viewBox="0 0 32 33" fill="none" xmlns="http://www.w3.org/2000/svg">
<g id="Icon / briefcase-outline">
<path id="Vector" d="M27 8.93311H5C3.34315 8.93311 2 10.2763 2 11.9331V25.9331C2 27.59 3.34315 28.9331 5 28.9331H27C28.6569 28.9331 30 27.59 30 25.9331V11.9331C30 10.2763 28.6569 8.93311 27 8.93311Z" fill="#E6ECF6" stroke="black" stroke-width="1.5" stroke-linejoin="round"/>
<path id="Vector_2" d="M9 8.93311V6.93311C9 6.40267 9.21071 5.89396 9.58579 5.51889C9.96086 5.14382 10.4696 4.93311 11 4.93311H21C21.5304 4.93311 22.0391 5.14382 22.4142 5.51889C22.7893 5.89396 23 6.40267 23 6.93311V8.93311M30 15.9331H2M20 15.9331V17.4331C20 17.5657 19.9473 17.6929 19.8536 17.7867C19.7598 17.8804 19.6326 17.9331 19.5 17.9331H12.5C12.3674 17.9331 12.2402 17.8804 12.1464 17.7867C12.0527 17.6929 12 17.5657 12 17.4331V15.9331" stroke="black" stroke-width="1.5" stroke-linecap="round" stroke-linejoin="round"/>
</g>
</svg>
