<svg width="32" height="33" viewBox="0 0 32 33" fill="none" xmlns="http://www.w3.org/2000/svg">
<g id="Icon / bus-outline">
<rect width="32" height="32" transform="translate(0 0.65625)" fill="white"/>
<path id="Vector" d="M25 7.65625H7C5.89543 7.65625 5 8.55168 5 9.65625V17.6562C5 18.7608 5.89543 19.6562 7 19.6562H25C26.1046 19.6562 27 18.7608 27 17.6562V9.65625C27 8.55168 26.1046 7.65625 25 7.65625Z" fill="#E6ECF6" stroke="black" stroke-width="1.5" stroke-linecap="round" stroke-linejoin="round"/>
<path id="Vector_2" d="M25 19.6562H7C5.89543 19.6562 5 20.5517 5 21.6562V25.6562C5 26.7608 5.89543 27.6562 7 27.6562H25C26.1046 27.6562 27 26.7608 27 25.6562V21.6562C27 20.5517 26.1046 19.6562 25 19.6562Z" fill="#E6ECF6" stroke="black" stroke-width="1.5" stroke-linecap="round" stroke-linejoin="round"/>
<path id="Vector_3" d="M25 7.65625H7C6.47002 7.65477 5.96218 7.44358 5.58743 7.06882C5.21267 6.69407 5.00148 6.18623 5 5.65625C5.00148 5.12627 5.21267 4.61843 5.58743 4.24368C5.96218 3.86892 6.47002 3.65773 7 3.65625H25C25.53 3.65773 26.0378 3.86892 26.4126 4.24368C26.7873 4.61843 26.9985 5.12627 27 5.65625C26.9985 6.18623 26.7873 6.69407 26.4126 7.06882C26.0378 7.44358 25.53 7.65477 25 7.65625ZM9 27.6562V29.0312C9 29.197 8.93415 29.356 8.81694 29.4732C8.69973 29.5904 8.54076 29.6562 8.375 29.6562H6.625C6.45924 29.6562 6.30027 29.5904 6.18306 29.4732C6.06585 29.356 6 29.197 6 29.0312V27.6562H9ZM26 27.6562V29.0312C26 29.197 25.9342 29.356 25.8169 29.4732C25.6997 29.5904 25.5408 29.6562 25.375 29.6562H23.625C23.4592 29.6562 23.3003 29.5904 23.1831 29.4732C23.0658 29.356 23 29.197 23 29.0312V27.6562H26Z" fill="#E6ECF6" stroke="black" stroke-width="1.5" stroke-linecap="round" stroke-linejoin="round"/>
<path id="Vector_4" d="M23 24.6562C23.5523 24.6562 24 24.2085 24 23.6562C24 23.104 23.5523 22.6562 23 22.6562C22.4477 22.6562 22 23.104 22 23.6562C22 24.2085 22.4477 24.6562 23 24.6562Z" fill="#E6ECF6" stroke="black" stroke-width="1.5" stroke-linejoin="round"/>
<path id="Vector_5" d="M9 24.6562C9.55228 24.6562 10 24.2085 10 23.6562C10 23.104 9.55228 22.6562 9 22.6562C8.44772 22.6562 8 23.104 8 23.6562C8 24.2085 8.44772 24.6562 9 24.6562Z" fill="#E6ECF6" stroke="black" stroke-width="1.5" stroke-linejoin="round"/>
<g id="Vector_6">
<path d="M16 7.65625V19.6562V7.65625ZM5 5.65625V23.6562V5.65625ZM27 5.65625V23.6562V5.65625Z" fill="#E6ECF6"/>
<path d="M16 7.65625V19.6562M5 5.65625V23.6562M27 5.65625V23.6562" stroke="black" stroke-width="1.5" stroke-linecap="round" stroke-linejoin="round"/>
</g>
</g>
</svg>
