<svg width="32" height="33" viewBox="0 0 32 33" fill="none" xmlns="http://www.w3.org/2000/svg">
<g id="Icon / chatbox-ellipses-outline">
<path id="Vector" d="M25.5 4.45117H6.5C5.57255 4.45381 4.68385 4.82341 4.02804 5.47921C3.37223 6.13502 3.00264 7.02373 3 7.95117V19.9512C3.00264 20.8786 3.37223 21.7673 4.02804 22.4231C4.68385 23.0789 5.57255 23.4485 6.5 23.4512H9V28.4512L14.8575 23.5674C14.9474 23.4923 15.0609 23.4511 15.1781 23.4512H25.5C26.4274 23.4485 27.3162 23.0789 27.972 22.4231C28.6278 21.7673 28.9974 20.8786 29 19.9512V7.95117C28.9974 7.02373 28.6278 6.13502 27.972 5.47921C27.3162 4.82341 26.4274 4.45381 25.5 4.45117Z" fill="#E6ECF6" stroke="black" stroke-width="1.5" stroke-linejoin="round"/>
<path id="Vector_2" d="M10 15.9512C11.1046 15.9512 12 15.0557 12 13.9512C12 12.8466 11.1046 11.9512 10 11.9512C8.89543 11.9512 8 12.8466 8 13.9512C8 15.0557 8.89543 15.9512 10 15.9512Z" fill="black"/>
<path id="Vector_3" d="M16 15.9512C17.1046 15.9512 18 15.0557 18 13.9512C18 12.8466 17.1046 11.9512 16 11.9512C14.8954 11.9512 14 12.8466 14 13.9512C14 15.0557 14.8954 15.9512 16 15.9512Z" fill="black"/>
<path id="Vector_4" d="M22 15.9512C23.1046 15.9512 24 15.0557 24 13.9512C24 12.8466 23.1046 11.9512 22 11.9512C20.8954 11.9512 20 12.8466 20 13.9512C20 15.0557 20.8954 15.9512 22 15.9512Z" fill="black"/>
</g>
</svg>
