<svg width="32" height="33" viewBox="0 0 32 33" fill="none" xmlns="http://www.w3.org/2000/svg">
<g id="Devoluci&#195;&#179;n" clip-path="url(#clip0_3228_22491)">
<path id="Vector" d="M23.545 10.4833C23.0251 9.9632 22.7207 9.26598 22.6926 8.53108C22.6646 7.79619 22.915 7.07779 23.3938 6.51957C23.4334 6.47314 23.454 6.41346 23.4514 6.35249C23.4489 6.29153 23.4234 6.23378 23.38 6.19082L20.6219 3.42957C20.5763 3.384 20.5145 3.3584 20.45 3.3584C20.3856 3.3584 20.3238 3.384 20.2782 3.42957L15.8819 7.82582C15.7197 7.98798 15.5975 8.18571 15.525 8.40332C15.4528 8.62143 15.3308 8.81972 15.1686 8.98245C15.0064 9.14518 14.8085 9.26788 14.5907 9.34082C14.3729 9.41338 14.175 9.53555 14.0125 9.69769L2.73816 20.9696C2.69259 21.0152 2.66699 21.077 2.66699 21.1414C2.66699 21.2059 2.69259 21.2677 2.73816 21.3133L5.49629 24.0714C5.53924 24.1148 5.597 24.1403 5.65796 24.1428C5.71893 24.1454 5.77861 24.1248 5.82504 24.0852C6.38314 23.6059 7.1017 23.3551 7.83685 23.3829C8.572 23.4108 9.26949 23.7153 9.78969 24.2355C10.3099 24.7557 10.6144 25.4532 10.6423 26.1884C10.6702 26.9235 10.4193 27.6421 9.94004 28.2002C9.90044 28.2466 9.87985 28.3063 9.8824 28.3673C9.88495 28.4282 9.91045 28.486 9.95379 28.5289L12.7119 31.2871C12.7575 31.3326 12.8193 31.3582 12.8838 31.3582C12.9482 31.3582 13.0101 31.3326 13.0557 31.2871L24.3307 20.0127C24.4928 19.8502 24.615 19.6523 24.6875 19.4346C24.7597 19.2165 24.8818 19.0182 25.044 18.8554C25.2062 18.6927 25.404 18.57 25.6219 18.4971C25.8395 18.4246 26.0373 18.3024 26.1994 18.1402L30.5957 13.7439C30.6412 13.6984 30.6668 13.6365 30.6668 13.5721C30.6668 13.5076 30.6412 13.4458 30.5957 13.4002L27.8375 10.6421C27.7946 10.5987 27.7368 10.5732 27.6759 10.5707C27.6149 10.5681 27.5552 10.5887 27.5088 10.6283C26.9513 11.1079 26.2334 11.3594 25.4985 11.3325C24.7636 11.3057 24.066 11.0024 23.545 10.4833Z" fill="#E6ECF6" stroke="black" stroke-width="1.5" stroke-miterlimit="10"/>
<g id="Vector_2">
<path d="M16.3229 10.1359L15.291 9.104L16.3229 10.1359ZM19.0741 12.8871L18.386 12.1996L19.0741 12.8871ZM21.8254 15.639L21.1379 14.9509L21.8254 15.639ZM24.921 18.734L23.8891 17.7021L24.921 18.734Z" fill="#E6ECF6"/>
<path d="M16.3229 10.1359L15.291 9.104M19.0741 12.8871L18.386 12.1996M21.8254 15.639L21.1379 14.9509M24.921 18.734L23.8891 17.7021" stroke="black" stroke-width="1.5" stroke-miterlimit="10" stroke-linecap="round"/>
</g>
<path id="Vector_3" d="M28.8 27.2885C28.8 27.7564 28.6277 28.1307 28.2585 28.4347C27.9138 28.7388 27.3969 28.926 26.7077 28.9962V30.0254H26.0431V29.0195C25.2062 28.9962 24.5169 28.8792 24 28.6453V27.6394C24.2954 27.7798 24.6154 27.8967 25.0092 27.9669C25.4031 28.0605 25.7477 28.1073 26.0431 28.1073V26.3061L25.6246 26.1657C25.0831 25.9552 24.6646 25.7213 24.4185 25.4406C24.1723 25.1599 24.0492 24.809 24.0492 24.4114C24.0492 23.9669 24.2215 23.616 24.5908 23.3353C24.96 23.0546 25.4523 22.8909 26.0677 22.8207V22.0254H26.7077V22.8207C27.3969 22.8441 28.0369 22.9845 28.6523 23.2184L28.2831 24.0839C27.7662 23.8967 27.2492 23.7564 26.7077 23.733V25.464L27.1015 25.6043C27.7415 25.8383 28.1846 26.0722 28.4308 26.3529C28.6769 26.6102 28.8 26.9143 28.8 27.2885ZM25.2308 24.4114C25.2308 24.5985 25.28 24.7388 25.4031 24.8558C25.5262 24.9728 25.7477 25.0897 26.0431 25.2067V23.7564C25.7723 23.8032 25.5754 23.8733 25.4277 23.9903C25.3046 24.1073 25.2308 24.2476 25.2308 24.4114ZM27.5938 27.3587C27.5938 27.1716 27.52 27.0312 27.3969 26.8909C27.2492 26.7739 27.0277 26.657 26.7077 26.54V28.0605C27.2985 28.0137 27.5938 27.7564 27.5938 27.3587Z" fill="black"/>
<path id="Vector_4" fill-rule="evenodd" clip-rule="evenodd" d="M3.58477 13.3304C1.61502 11.5254 1.56139 8.5397 3.48682 6.60737C5.28629 4.80145 8.16093 4.60262 10.1085 6.07635L9.33477 6.85289C9.20881 6.97931 9.19247 7.13708 9.24894 7.29247C9.24977 7.36232 9.32341 7.4298 9.39704 7.49727C9.43386 7.53101 9.48909 7.58162 9.5803 7.5961L12.6841 8.29825C12.867 8.36215 13.0482 8.28635 13.1561 8.17799C13.2821 8.05158 13.3712 7.89142 13.278 7.7023L12.4055 4.76081C12.3682 4.69215 12.349 4.60542 12.3122 4.57169L12.2754 4.53795C12.2385 4.50421 12.1289 4.47286 12.0741 4.45718C11.9277 4.39208 11.7281 4.45102 11.5841 4.5955L10.7923 5.3901C8.45855 3.59706 4.98304 3.79807 2.80569 5.98323C0.52037 8.27674 0.56304 11.8743 2.90097 14.0166L3.58477 13.3304Z" fill="black"/>
</g>
<defs>
<clipPath id="clip0_3228_22491">
<rect width="32" height="32" fill="white" transform="translate(0 0.691895)"/>
</clipPath>
</defs>
</svg>
