<svg width="32" height="33" viewBox="0 0 32 33" fill="none" xmlns="http://www.w3.org/2000/svg">
<g id="Icon / paw-outline">
<path id="Vector" d="M28.6086 11.5287C28.3865 11.4413 28.1498 11.3968 27.9111 11.3975H27.8861C26.6255 11.4162 25.2118 12.5968 24.4699 14.3825C23.5805 16.5187 23.9899 18.7043 25.3911 19.2662C25.6131 19.3536 25.8495 19.3981 26.088 19.3975C27.3549 19.3975 28.788 18.21 29.5361 16.4125C30.4193 14.2762 30.0036 12.0906 28.6086 11.5287ZM20.4749 19.865C18.7374 16.9818 17.9874 15.8975 15.9999 15.8975C14.0124 15.8975 13.2561 16.9887 11.5186 19.865C10.0311 22.325 7.02489 22.53 6.27489 24.6193C6.12273 25.002 6.04632 25.4106 6.04989 25.8225C6.04989 27.5218 7.34989 28.8975 8.94989 28.8975C10.9374 28.8975 13.6436 27.3106 16.0061 27.3106C18.3686 27.3106 21.0624 28.8975 23.0499 28.8975C24.6499 28.8975 25.9436 27.5225 25.9436 25.8225C25.9451 25.4102 25.8665 25.0016 25.7124 24.6193C24.9624 22.5225 21.9624 22.325 20.4749 19.865ZM12.0318 13.1475C12.1154 13.1475 12.199 13.1413 12.2818 13.1287C13.7324 12.9181 14.638 10.9081 14.3093 8.63809C13.9999 6.49809 12.7011 4.89746 11.343 4.89746C11.2593 4.89739 11.1758 4.90366 11.093 4.91621C9.64239 5.12684 8.73676 7.13684 9.06551 9.40684C9.37489 11.5406 10.6736 13.1475 12.0318 13.1475ZM22.9324 9.40684C23.2611 7.13684 22.3555 5.12684 20.9049 4.91621C20.8221 4.90366 20.7386 4.89739 20.6549 4.89746C19.2968 4.89746 18.0005 6.49809 17.6905 8.63809C17.3618 10.9081 18.2674 12.9181 19.718 13.1287C19.8008 13.1413 19.8843 13.1475 19.968 13.1475C21.3261 13.1475 22.6249 11.5406 22.9324 9.40684ZM6.61051 19.2662C8.00989 18.7037 8.41864 16.5162 7.53051 14.3825C6.78301 12.585 5.35114 11.3975 4.08614 11.3975C3.84764 11.3968 3.61118 11.4413 3.38926 11.5287C1.98989 12.0912 1.58114 14.2787 2.46926 16.4125C3.21676 18.21 4.64864 19.3975 5.91364 19.3975C6.15213 19.3981 6.38859 19.3536 6.61051 19.2662Z" fill="#E6ECF6" stroke="black" stroke-width="1.5" stroke-miterlimit="10"/>
</g>
</svg>
