<svg width="32" height="33" viewBox="0 0 32 33" fill="none" xmlns="http://www.w3.org/2000/svg">
<g id="Icon / people-outline">
<path id="Vector" d="M25.1255 10.915C24.9424 13.4569 23.0567 15.415 21.0005 15.415C18.9442 15.415 17.0555 13.4575 16.8755 10.915C16.688 8.27066 18.5236 6.41504 21.0005 6.41504C23.4774 6.41504 25.313 8.31879 25.1255 10.915Z" fill="#E6ECF6" stroke="black" stroke-width="1.5" stroke-linecap="round" stroke-linejoin="round"/>
<path id="Vector_2" d="M20.9998 19.415C16.9266 19.415 13.0098 21.4382 12.0285 25.3782C11.8985 25.8994 12.2254 26.415 12.761 26.415H29.2391C29.7748 26.415 30.0998 25.8994 29.9716 25.3782C28.9904 21.375 25.0735 19.415 20.9998 19.415Z" fill="#E6ECF6" stroke="black" stroke-width="1.5" stroke-miterlimit="10"/>
<path id="Vector_3" d="M12.4996 12.0363C12.3534 14.0663 10.8296 15.665 9.18712 15.665C7.54462 15.665 6.01837 14.0669 5.87462 12.0363C5.72525 9.92441 7.20837 8.41504 9.18712 8.41504C11.1659 8.41504 12.649 9.96316 12.4996 12.0363Z" fill="#E6ECF6" stroke="black" stroke-width="1.5" stroke-linecap="round" stroke-linejoin="round"/>
<g id="Vector_4">
<path d="M12.8746 19.5398C11.7465 19.023 10.504 18.8242 9.18713 18.8242C5.93713 18.8242 2.80588 20.4398 2.02151 23.5867C1.91838 24.003 2.17963 24.4148 2.60713 24.4148H9.62463" fill="#E6ECF6"/>
<path d="M12.8746 19.5398C11.7465 19.023 10.504 18.8242 9.18713 18.8242C5.93713 18.8242 2.80588 20.4398 2.02151 23.5867C1.91838 24.003 2.17963 24.4148 2.60713 24.4148H9.62463" stroke="black" stroke-width="1.5" stroke-miterlimit="10" stroke-linecap="round"/>
</g>
</g>
</svg>
