<svg width="32" height="33" viewBox="0 0 32 33" fill="none" xmlns="http://www.w3.org/2000/svg">
<g id="Icon / pricetag-outline">
<path id="Vector" d="M27.2029 3.17432H19.5217C19.2828 3.17414 19.0536 3.26852 18.8842 3.43682L3.52793 18.7931C3.19169 19.131 3.00293 19.5883 3.00293 20.0649C3.00293 20.5416 3.19169 20.9989 3.52793 21.3368L10.8404 28.6493C11.1783 28.9856 11.6356 29.1743 12.1123 29.1743C12.589 29.1743 13.0463 28.9856 13.3842 28.6493L28.7342 13.2993C28.9025 13.1299 28.9969 12.9007 28.9967 12.6618V4.97432C28.9978 4.73814 28.9523 4.50407 28.8626 4.28557C28.773 4.06707 28.641 3.86846 28.4743 3.70117C28.3076 3.53387 28.1094 3.4012 27.8912 3.31078C27.673 3.22036 27.4391 3.17399 27.2029 3.17432Z" fill="#E6ECF6" stroke="black" stroke-width="1.5" stroke-linecap="round" stroke-linejoin="round"/>
<path id="Vector_2" d="M24 10.1743C23.6044 10.1743 23.2178 10.057 22.8889 9.83726C22.56 9.61749 22.3036 9.30514 22.1522 8.93968C22.0009 8.57423 21.9613 8.1721 22.0384 7.78414C22.1156 7.39618 22.3061 7.03981 22.5858 6.7601C22.8655 6.4804 23.2219 6.28992 23.6098 6.21275C23.9978 6.13558 24.3999 6.17518 24.7654 6.32656C25.1308 6.47793 25.4432 6.73428 25.6629 7.06318C25.8827 7.39208 26 7.77876 26 8.17432C26 8.70475 25.7893 9.21346 25.4142 9.58853C25.0391 9.9636 24.5304 10.1743 24 10.1743Z" fill="black"/>
</g>
</svg>
