<svg width="32" height="33" viewBox="0 0 32 33" fill="none" xmlns="http://www.w3.org/2000/svg">
<g id="Icon / ticket-outline">
<path id="Vector" d="M22.878 9.2631C22.3581 8.74299 22.0537 8.04577 22.0256 7.31087C21.9976 6.57597 22.248 5.85758 22.7268 5.29935C22.7664 5.25293 22.787 5.19325 22.7844 5.13228C22.7819 5.07131 22.7564 5.01356 22.713 4.9706L19.9549 2.20935C19.9093 2.16378 19.8475 2.13818 19.783 2.13818C19.7186 2.13818 19.6568 2.16378 19.6112 2.20935L15.2149 6.6056C15.0527 6.76777 14.9305 6.96549 14.858 7.1831C14.7858 7.40122 14.6638 7.5995 14.5016 7.76223C14.3394 7.92496 14.1415 8.04767 13.9237 8.1206C13.7059 8.19316 13.508 8.31533 13.3455 8.47748L2.07117 19.7494C2.0256 19.7949 2 19.8568 2 19.9212C2 19.9857 2.0256 20.0475 2.07117 20.0931L4.82929 22.8512C4.87225 22.8946 4.93 22.9201 4.99097 22.9226C5.05194 22.9252 5.11162 22.9046 5.15804 22.865C5.71615 22.3857 6.4347 22.1348 7.16985 22.1627C7.905 22.1906 8.6025 22.4951 9.1227 23.0153C9.6429 23.5355 9.94743 24.233 9.9753 24.9682C10.0032 25.7033 9.75236 26.4219 9.27304 26.98C9.23344 27.0264 9.21286 27.0861 9.21541 27.1471C9.21796 27.208 9.24346 27.2658 9.28679 27.3087L12.0449 30.0669C12.0905 30.1124 12.1523 30.138 12.2168 30.138C12.2813 30.138 12.3431 30.1124 12.3887 30.0669L23.6637 18.7925C23.8258 18.63 23.948 18.4321 24.0205 18.2144C24.0928 17.9962 24.2148 17.798 24.377 17.6352C24.5392 17.4725 24.7371 17.3498 24.9549 17.2769C25.1725 17.2044 25.3703 17.0822 25.5324 16.92L29.9287 12.5237C29.9742 12.4781 29.9998 12.4163 29.9998 12.3519C29.9998 12.2874 29.9742 12.2256 29.9287 12.18L27.1705 9.42185C27.1276 9.37851 27.0698 9.35301 27.0089 9.35046C26.9479 9.34791 26.8882 9.3685 26.8418 9.4081C26.2843 9.88771 25.5664 10.1392 24.8315 10.1123C24.0966 10.0855 23.399 9.78216 22.878 9.2631Z" fill="#E6ECF6" stroke="black" stroke-width="1.5" stroke-miterlimit="10"/>
<path id="Vector_2" d="M15.6559 8.91566L14.624 7.88379M18.4071 11.6669L17.719 10.9794M21.1584 14.4188L20.4709 13.7307M24.254 17.5138L23.2221 16.4819" stroke="black" stroke-width="1.5" stroke-miterlimit="10" stroke-linecap="round"/>
</g>
</svg>
