<svg xmlns="http://www.w3.org/2000/svg" width="18.208" height="18.208" viewBox="0 0 18.208 18.208">
  <path id="Icon_awesome-facebook-square" data-name="Icon awesome-facebook-square" d="M16.258,2.25H1.951A1.951,1.951,0,0,0,0,4.2V18.508a1.951,1.951,0,0,0,1.951,1.951H7.529V14.268H4.969V11.354H7.529V9.133a3.556,3.556,0,0,1,3.807-3.921,15.513,15.513,0,0,1,2.257.2V7.888H12.322a1.457,1.457,0,0,0-1.643,1.574v1.892h2.8l-.447,2.914H10.679v6.191h5.578a1.951,1.951,0,0,0,1.951-1.951V4.2A1.951,1.951,0,0,0,16.258,2.25Z" transform="translate(0 -2.25)" fill="#3365b4"/>
</svg>
