<svg xmlns="http://www.w3.org/2000/svg" width="18.655" height="24.873" viewBox="0 0 18.655 24.873">
  <g id="noun-travel-2667336" transform="translate(-140 -0.005)">
    <path id="Trazado_26" data-name="Trazado 26" d="M195.993,75.846H182.959a1.073,1.073,0,0,1-1.072-1.072V69.916a1.073,1.073,0,0,1,1.072-1.072h13.034a.777.777,0,0,1,.636.331L198.54,71.9a.776.776,0,0,1,0,.893l-1.911,2.724a.778.778,0,0,1-.636.331Zm-12.551-1.555h12.147l1.366-1.946L195.589,70.4H183.442Z" transform="translate(-40.027 -65.781)" fill="#eb7f33"/>
    <path id="Trazado_27" data-name="Trazado 27" d="M155.723,269.505H142.689a.777.777,0,0,1-.636-.331l-1.911-2.723a.776.776,0,0,1,0-.893l1.911-2.724a.778.778,0,0,1,.636-.331h13.034a1.073,1.073,0,0,1,1.072,1.072v4.858a1.073,1.073,0,0,1-1.072,1.072Zm-12.63-1.555H155.24v-3.893H143.093L141.727,266Zm12.63-3.893h0Z" transform="translate(0 -250.839)" fill="#eb7f33"/>
    <path id="Trazado_28" data-name="Trazado 28" d="M303.377,4.618h-2.915a.777.777,0,0,1-.777-.777V.782A.777.777,0,0,1,300.462,0h2.915a.777.777,0,0,1,.777.777V3.841A.777.777,0,0,1,303.377,4.618ZM301.24,3.063h1.36V1.56h-1.36Z" transform="translate(-152.592)" fill="#eb7f33"/>
    <path id="Trazado_29" data-name="Trazado 29" d="M303.377,196.2h-2.915a.777.777,0,0,1-.777-.777v-3.154a.777.777,0,0,1,.777-.777h2.915a.777.777,0,0,1,.777.777v3.154A.777.777,0,0,1,303.377,196.2Zm-2.138-1.555h1.36v-1.6h-1.36Z" transform="translate(-152.592 -182.982)" fill="#eb7f33"/>
    <path id="Trazado_30" data-name="Trazado 30" d="M303.377,392.907h-2.915a.777.777,0,0,1-.777-.777v-6.212a.777.777,0,0,1,.777-.777h2.915a.777.777,0,0,1,.777.777v6.212A.777.777,0,0,1,303.377,392.907Zm-2.138-1.555h1.36v-4.658h-1.36Z" transform="translate(-152.592 -368.029)" fill="#eb7f33"/>
    <path id="Trazado_31" data-name="Trazado 31" d="M157.878,526.555h-17.1a.777.777,0,1,1,0-1.555h17.1a.777.777,0,1,1,0,1.555Z" transform="translate(0 -501.677)" fill="#eb7f33"/>
  </g>
</svg>
