<svg xmlns="http://www.w3.org/2000/svg" width="22.306" height="22.098" viewBox="0 0 22.306 22.098">
  <g id="Grupo_1745" data-name="Grupo 1745" transform="translate(-36 -246.902)">
    <path id="noun-help-1926157" d="M115.534,49.329H113.3V47.092h2.237Zm.6-4.81a1.117,1.117,0,0,0-.6,1.041v.413H113.3V45.56a3.308,3.308,0,0,1,1.975-3.108,1.165,1.165,0,0,0,.821-.954c0-.6-.784-1.119-1.678-1.119s-1.678.522-1.678,1.119H110.5a3.962,3.962,0,0,1,7.83,0,3.322,3.322,0,0,1-2.2,3.02Z" transform="translate(-67.593 214.519)" fill="#eb7f33"/>
    <g id="Trazado_32" data-name="Trazado 32" transform="translate(36 246.902)" fill="none">
      <path d="M11.049,0A11.049,11.049,0,0,1,22.1,11.049c0,2.691.861,6.726-.921,8.856C19.334,22.121,14.46,22.1,11.049,22.1a11.049,11.049,0,0,1,0-22.1Z" stroke="none"/>
      <path d="M 11.04916000366211 2.000003814697266 C 6.059440612792969 2.000003814697266 2 6.059432983398438 2 11.04915332794189 C 2 16.03887367248535 6.059440612792969 20.09831237792969 11.04916000366211 20.09831237792969 L 11.25576019287109 20.09832382202148 C 12.8335599899292 20.09832382202148 14.79718971252441 20.09832382202148 16.51438903808594 19.83852386474609 C 18.62160873413086 19.51972389221191 19.3773307800293 18.94209289550781 19.6402587890625 18.62616348266602 L 19.64348983764648 18.62228393554688 C 20.49217987060547 17.60770416259766 20.33004951477051 15.19548320770264 20.19977951049805 13.25723361968994 C 20.1476001739502 12.48091316223145 20.09831047058105 11.74763298034668 20.09831047058105 11.04915332794189 C 20.09831047058105 6.059432983398438 16.03887939453125 2.000003814697266 11.04916000366211 2.000003814697266 M 11.04916000366211 3.814697265625e-06 C 17.15143966674805 3.814697265625e-06 22.09831047058105 4.946872711181641 22.09831047058105 11.04915332794189 C 22.09831047058105 13.74026298522949 22.95961952209473 17.77510452270508 21.17754936218262 19.90551376342773 C 19.33383941650391 22.12094306945801 14.46028518676758 22.09831428527832 11.04916000366211 22.09831428527832 C 4.946880340576172 22.09831428527832 0 17.15143394470215 0 11.04915332794189 C 0 4.946872711181641 4.946880340576172 3.814697265625e-06 11.04916000366211 3.814697265625e-06 Z" stroke="none" fill="#eb7f33"/>
    </g>
  </g>
</svg>
