<svg xmlns="http://www.w3.org/2000/svg" width="23.029" height="26.385" viewBox="0 0 23.029 26.385">
  <path id="Icon_awesome-fire-alt" data-name="Icon awesome-fire-alt" d="M15.4,2.438a28.44,28.44,0,0,0-2.677,2.855A36.938,36.938,0,0,0,8,0C3.32,4.34,0,10,0,13.407A10.82,10.82,0,0,0,10.664,24.376,10.82,10.82,0,0,0,21.329,13.407c0-2.536-2.475-7.767-5.924-10.969Zm-.927,16.218a6.4,6.4,0,0,1-3.677,1.15c-3.435,0-6.23-2.273-6.23-5.963,0-1.838,1.157-3.458,3.465-6.225.33.38,4.705,5.967,4.705,5.967L15.532,10.4c.2.326.377.645.537.951A5.679,5.679,0,0,1,14.477,18.655Z" transform="translate(0.85 1.16)" fill="none" stroke="#eb7f33" stroke-width="1.7"/>
</svg>
