<svg xmlns="http://www.w3.org/2000/svg" width="27.403" height="27.404" viewBox="0 0 27.403 27.404">
  <path id="Trazado_32221" data-name="Trazado 32221" d="M80.734,28.069l3.425,3.425.6-.6a2.28,2.28,0,1,1,3.224,3.224l-.6.6,3.425,3.425,17.329-17.329-3.425-3.425-.6.6a2.28,2.28,0,1,1-3.224-3.224l.6-.6L98.063,10.74Zm2.418,0L93.026,18.2l7.657,7.657-9.873,9.873-1.083-1.083a3.977,3.977,0,0,0-5.5-5.5l-1.077-1.077ZM94.235,16.986l3.828-3.828,1.077,1.077a3.977,3.977,0,0,0,5.5,5.5l1.083,1.083-3.829,3.828Z" transform="translate(-80.734 -10.74)" fill="#eb7f33"/>
</svg>
