<svg xmlns="http://www.w3.org/2000/svg" width="18.219" height="18.215" viewBox="0 0 18.219 18.215">
  <path id="Icon_awesome-instagram" data-name="Icon awesome-instagram" d="M9.106,6.675a4.67,4.67,0,1,0,4.67,4.67A4.663,4.663,0,0,0,9.106,6.675Zm0,7.706a3.036,3.036,0,1,1,3.036-3.036A3.042,3.042,0,0,1,9.106,14.381Zm5.95-7.9a1.089,1.089,0,1,1-1.089-1.089A1.087,1.087,0,0,1,15.056,6.484ZM18.149,7.59a5.39,5.39,0,0,0-1.471-3.816A5.426,5.426,0,0,0,12.862,2.3c-1.5-.085-6.011-.085-7.515,0A5.418,5.418,0,0,0,1.53,3.769,5.408,5.408,0,0,0,.059,7.585c-.085,1.5-.085,6.011,0,7.515A5.39,5.39,0,0,0,1.53,18.917a5.433,5.433,0,0,0,3.816,1.471c1.5.085,6.011.085,7.515,0a5.39,5.39,0,0,0,3.816-1.471A5.426,5.426,0,0,0,18.149,15.1c.085-1.5.085-6.007,0-7.511Zm-1.943,9.125a3.074,3.074,0,0,1-1.731,1.731c-1.2.476-4.044.366-5.369.366s-4.174.106-5.369-.366a3.074,3.074,0,0,1-1.731-1.731c-.476-1.2-.366-4.044-.366-5.369s-.106-4.174.366-5.369A3.074,3.074,0,0,1,3.737,4.244c1.2-.476,4.044-.366,5.369-.366s4.174-.106,5.369.366a3.074,3.074,0,0,1,1.731,1.731c.476,1.2.366,4.044.366,5.369S16.682,15.519,16.207,16.714Z" transform="translate(0.005 -2.238)" fill="#3365b4"/>
</svg>
