<svg xmlns="http://www.w3.org/2000/svg" width="22.403" height="22.402" viewBox="0 0 22.403 22.402">
  <g id="noun-like-1307863" transform="translate(-110.087 -55.9)">
    <path id="Trazado_21" data-name="Trazado 21" d="M145.427,64.326H140.8a.924.924,0,0,1-.925-.925V59.7a3.7,3.7,0,0,0-3.7-3.7h-.925a.924.924,0,0,0-.925.925v4.625a2.776,2.776,0,0,1-2.775,2.775h-3.7A1.856,1.856,0,0,0,126,66.176V74.5a1.856,1.856,0,0,0,1.851,1.85h3.7a4.6,4.6,0,0,0,3.7,1.848v0h10.176a2.776,2.776,0,0,0,2.774-2.775h0V67.1a2.776,2.776,0,0,0-2.775-2.775ZM127.851,74.5V66.176h3.7V74.5Zm18.5.925a.924.924,0,0,1-.925.925H135.252v0A1.851,1.851,0,0,1,133.4,74.5V65.786a4.624,4.624,0,0,0,2.775-4.235v-3.7a1.85,1.85,0,0,1,1.85,1.85v3.7a2.776,2.776,0,0,0,2.775,2.775h4.626a.924.924,0,0,1,.925.925v8.326Z" transform="translate(-15.813 0)" fill="#eb7f33" stroke="#fff" stroke-width="0.2"/>
  </g>
</svg>
