<svg width="248" height="378" viewBox="0 0 248 378" fill="none" xmlns="http://www.w3.org/2000/svg">
<g filter="url(#filter0_d_3772_7669)">
<path d="M19.4839 370C10.9324 370 4 362.112 4 352.381V17.6191C4 7.88833 10.9324 0 19.4839 0H99.8064C99.8067 9.1224 110.638 16.5175 124 16.5175C137.362 16.5175 148.193 9.1224 148.194 0H228.516C237.068 0 244 7.88833 244 17.6191V352.381C244 362.112 237.068 370 228.516 370H148.194C148.194 360.877 137.362 353.482 124 353.482C110.638 353.482 99.8064 360.877 99.8064 370H19.4839Z" fill="white"/>
<path d="M19.4839 369.5C11.2672 369.5 4.5 361.898 4.5 352.381V17.6191C4.5 8.10183 11.2672 0.5 19.4839 0.5H99.3169C99.5073 5.07235 102.298 9.14838 106.611 12.0926C111.082 15.1454 117.232 17.0175 124 17.0175C130.768 17.0175 136.918 15.1454 141.389 12.0926C145.702 9.14838 148.493 5.07235 148.683 0.5H228.516C236.733 0.5 243.5 8.10183 243.5 17.6191V352.381C243.5 361.898 236.733 369.5 228.516 369.5H148.683C148.493 364.928 145.702 360.851 141.389 357.907C136.918 354.854 130.768 352.982 124 352.982C117.232 352.982 111.082 354.854 106.611 357.907C102.298 360.851 99.5071 364.928 99.3168 369.5H19.4839Z" stroke="#D9D9D9"/>
</g>
<defs>
<filter id="filter0_d_3772_7669" x="0" y="0" width="248" height="378" filterUnits="userSpaceOnUse" color-interpolation-filters="sRGB">
<feFlood flood-opacity="0" result="BackgroundImageFix"/>
<feColorMatrix in="SourceAlpha" type="matrix" values="0 0 0 0 0 0 0 0 0 0 0 0 0 0 0 0 0 0 127 0" result="hardAlpha"/>
<feOffset dy="4"/>
<feGaussianBlur stdDeviation="2"/>
<feComposite in2="hardAlpha" operator="out"/>
<feColorMatrix type="matrix" values="0 0 0 0 0 0 0 0 0 0 0 0 0 0 0 0 0 0 0.25 0"/>
<feBlend mode="normal" in2="BackgroundImageFix" result="effect1_dropShadow_3772_7669"/>
<feBlend mode="normal" in="SourceGraphic" in2="effect1_dropShadow_3772_7669" result="shape"/>
</filter>
</defs>
</svg>
