<svg width="162" height="51" viewBox="0 0 162 51" fill="none" xmlns="http://www.w3.org/2000/svg">
<g id="Logo-webpay color">
<path d="M8.964 44.0872C9.45467 44.0872 9.8528 43.6975 9.8528 43.2165C9.8528 42.7356 9.45467 42.345 8.964 42.345C8.47465 42.345 8.07646 42.7356 8.07646 43.2165C8.07646 43.6975 8.47465 44.0872 8.964 44.0872Z" fill="#009CDD"/>
<path d="M77.7096 50.9123C78.2004 50.9123 78.5985 50.5225 78.5985 50.0419C78.5985 49.5606 78.2004 49.1701 77.7096 49.1701C77.2199 49.1701 76.8224 49.5606 76.8224 50.0419C76.8224 50.5225 77.2199 50.9123 77.7096 50.9123Z" fill="#6D2077"/>
<path d="M35.6569 45.6357L35.6565 45.6328C35.6544 44.6621 35.3085 43.8432 34.6803 43.29L34.6361 43.2515L34.6261 43.2426H34.6239C34.0329 42.7484 33.2328 42.4878 32.2836 42.479C32.2802 42.4782 32.2722 42.478 32.2632 42.478C32.2544 42.478 32.2454 42.4782 32.2366 42.4793L32.2298 42.479C32.2013 42.479 32.1821 42.4797 32.1682 42.4803C32.157 42.4797 32.1393 42.479 32.1184 42.479L32.1041 42.4793C32.0968 42.4786 32.0878 42.478 32.0762 42.478H32.0728C32.0728 42.478 32.0711 42.478 32.0679 42.478C32.0631 42.478 32.0565 42.478 32.0495 42.479C31.1029 42.4891 30.3054 42.7488 29.7163 43.2426H29.7135L29.6596 43.29C29.0337 43.8408 28.6878 44.6559 28.6833 45.6216L28.6829 45.6226L28.6819 45.6264L28.6771 50.6253C28.6771 50.6921 28.7062 50.7578 28.7574 50.8043C28.8086 50.8517 28.8803 50.8792 28.9523 50.8792H29.866C29.9379 50.8792 30.0087 50.8517 30.0605 50.8043C30.1122 50.7578 30.1409 50.6921 30.1409 50.6253L30.143 45.7951C30.1485 45.0874 30.3344 44.5857 30.6699 44.2543C30.9948 43.9333 31.4909 43.752 32.1737 43.7391C32.8499 43.752 33.3452 43.9333 33.6703 44.2543C34.0055 44.5857 34.1913 45.0874 34.1972 45.7966L34.1959 50.6253C34.1959 50.6921 34.225 50.7578 34.2762 50.8043C34.3277 50.8517 34.3991 50.8792 34.4711 50.8792H35.3861C35.4582 50.8792 35.5291 50.8517 35.5807 50.8043C35.6329 50.7578 35.6614 50.6921 35.6614 50.6253L35.6569 45.6357Z" fill="#D00070"/>
<path d="M67.5118 45.6357L67.5116 45.6328C67.5095 44.6621 67.1635 43.8432 66.5353 43.29L66.4911 43.2515L66.481 43.2426H66.4789C65.888 42.7484 65.0878 42.4878 64.1388 42.479C64.1352 42.4782 64.1273 42.478 64.1183 42.478C64.1095 42.478 64.1005 42.4782 64.0918 42.4793L64.0848 42.479C64.0563 42.479 64.0371 42.4797 64.0232 42.4803C64.012 42.4797 63.9942 42.479 63.9735 42.479L63.9591 42.4793C63.9518 42.4786 63.9428 42.478 63.9313 42.478H63.9278C63.9278 42.478 63.9261 42.478 63.923 42.478C63.9181 42.478 63.9115 42.478 63.9046 42.479C62.9578 42.4891 62.1606 42.7488 61.5713 43.2426H61.5685L61.5145 43.29C60.8888 43.8408 60.5429 44.6559 60.5383 45.6216L60.538 45.6226L60.5369 45.6264L60.5321 50.6253C60.5321 50.6921 60.5613 50.7578 60.6124 50.8043C60.6636 50.8517 60.7353 50.8792 60.8073 50.8792H61.7209C61.793 50.8792 61.8636 50.8517 61.9156 50.8043C61.9674 50.7578 61.9959 50.6921 61.9959 50.6253L61.998 45.7951C62.0035 45.0874 62.1894 44.5857 62.5249 44.2543C62.85 43.9333 63.3459 43.752 64.0288 43.7391C64.705 43.752 65.2003 43.9333 65.5254 44.2543C65.8604 44.5857 66.0463 45.0874 66.0522 45.7966L66.0508 50.6253C66.0508 50.6921 66.0801 50.7578 66.1313 50.8043C66.1828 50.8517 66.2541 50.8792 66.3261 50.8792H67.2412C67.3131 50.8792 67.3842 50.8517 67.4357 50.8043C67.4878 50.7578 67.5163 50.6921 67.5163 50.6253L67.5118 45.6357Z" fill="#D00070"/>
<path d="M50.4308 46.7396C50.4286 47.5357 50.3417 48.3136 50.0309 48.8704C49.7253 49.4059 49.2339 49.7636 48.2796 49.7778C48.2733 49.7771 48.2632 49.7771 48.2441 49.7778H48.2281C47.2674 49.7683 46.7694 49.4101 46.4624 48.8695C46.1489 48.3106 46.0612 47.5262 46.0612 46.725V46.6769C46.0619 45.881 46.1489 45.2424 46.4624 44.686C46.7694 44.1454 47.2674 43.7865 48.2281 43.7779H48.265C49.2262 43.7865 49.7225 44.1446 50.0319 44.687C50.3435 45.2424 50.4308 45.881 50.4308 46.6769V46.7396ZM50.7012 43.3315C50.6963 43.3259 50.6916 43.32 50.6849 43.3143C50.1645 42.847 49.3324 42.5574 48.3684 42.5563C48.3554 42.5547 48.3353 42.5547 48.3164 42.5547C47.5236 42.5544 46.7416 42.7157 46.0619 43.2824L46.0612 42.7855H46.0626V40.2666C46.0626 40.2001 46.0333 40.1347 45.9821 40.0883C45.931 40.0412 45.8596 40.0138 45.7874 40.0138H44.887C44.8153 40.0138 44.7442 40.0412 44.6924 40.0883C44.6405 40.1347 44.6121 40.2001 44.6121 40.2666V42.7855L44.6127 48.1333L44.6121 50.6387C44.6121 50.7051 44.6416 50.7705 44.6924 50.8167C44.7439 50.8641 44.8153 50.8911 44.8876 50.8911H45.7877C45.8596 50.8911 45.9306 50.8641 45.9821 50.8167C46.0344 50.7705 46.063 50.7051 46.063 50.6387V50.1207C46.6637 50.7749 47.5258 51.0003 48.3164 51H48.3722C49.3341 50.997 50.1663 50.7075 50.6849 50.2408C51.6548 49.3466 51.8765 47.976 51.8796 46.7019C51.8769 45.4347 51.6548 44.2223 50.7012 43.3315Z" fill="#D00070"/>
<path d="M26.1474 47.8422C26.1453 48.5108 25.995 48.8803 25.7932 49.0525C25.3062 49.4901 24.7034 49.5559 23.9692 49.5572H23.9475C23.2403 49.5582 22.7757 49.4386 22.5121 49.2528C22.262 49.0766 22.1328 48.8247 22.1266 48.3913V48.3716C22.1314 47.9415 22.2655 47.673 22.5185 47.4839C22.7834 47.2876 23.2292 47.1602 23.8968 47.1602H26.1474V47.8422ZM27.659 45.2652V45.2595C27.6593 44.4118 27.3698 43.6851 26.7627 43.1995C26.1513 42.7104 25.2738 42.4806 24.1442 42.4802H24.0881C22.9021 42.4768 21.9598 42.7283 21.2426 43.4716L21.2398 43.4689L21.1987 43.5167C21.1448 43.575 21.0919 43.635 21.0407 43.6991L21.0393 43.701L20.9659 43.7858C20.922 43.8364 20.9005 43.9044 20.9095 43.9729C20.9172 44.042 20.953 44.1082 21.0077 44.1539L21.0491 44.1889C21.0651 44.2074 21.0825 44.2247 21.102 44.2407L21.2624 44.3688L21.6891 44.7284C21.7437 44.7748 21.8158 44.7996 21.8857 44.7961C21.955 44.7934 22.0204 44.7626 22.064 44.7117L22.3382 44.3949C22.5089 44.2143 22.6841 44.0861 22.8961 43.996C23.1954 43.8679 23.5796 43.8082 24.1344 43.8031H24.1411L24.1599 43.802C24.9491 43.8041 25.4402 43.9603 25.7215 44.2007C26.0019 44.4372 26.1443 44.7945 26.1464 45.3501C26.1464 45.3537 26.1464 45.3635 26.1474 45.376V45.9H23.8037C22.8582 45.9021 22.0674 46.1102 21.4967 46.5437C20.9298 46.9677 20.6137 47.6205 20.6133 48.3807L20.6137 48.4095C20.6151 49.043 20.8594 49.6643 21.3035 50.0958C21.9035 50.6716 22.7025 50.8808 23.9099 50.8808H24.5353C25.641 50.8818 26.4342 50.6156 26.9452 50.0792C27.4551 49.5426 27.6593 48.7667 27.6593 47.8018V45.2798L27.659 45.2652Z" fill="#D00070"/>
<path d="M53.9914 48.4009V48.3813C53.996 47.9518 54.1303 47.6834 54.3834 47.4947C54.6482 47.298 55.0942 47.171 55.7616 47.171H58.0124V47.8522C58.0102 48.5205 57.8599 48.8897 57.658 49.0622C57.1711 49.499 56.5683 49.5649 55.8337 49.5665H55.8125C55.1049 49.5672 54.6406 49.4479 54.3771 49.2619C54.1266 49.0859 53.9978 48.8345 53.9914 48.4009ZM59.5239 45.2769V45.2712C59.5242 44.4238 59.2347 43.6979 58.6274 43.2124C58.0165 42.7237 57.1388 42.4939 56.0095 42.4936H55.9531C54.7666 42.4906 53.8248 42.7416 53.1078 43.4843L53.1048 43.482L53.0637 43.5298C53.0098 43.5877 52.9568 43.648 52.9053 43.7118L52.9042 43.7139L52.8308 43.7985C52.7869 43.849 52.7654 43.9172 52.7745 43.9856C52.7821 44.0545 52.8179 44.1206 52.8726 44.1666L52.914 44.2015C52.93 44.2198 52.9474 44.2371 52.9668 44.253L53.1273 44.3812L53.554 44.7405C53.6087 44.7865 53.6807 44.8116 53.7504 44.8083C53.8199 44.8055 53.8849 44.7746 53.9288 44.7239L54.2027 44.4072C54.3736 44.2268 54.5491 44.0985 54.7611 44.0083C55.0603 43.8805 55.4445 43.8205 55.9993 43.8157L56.0059 43.8155L56.0247 43.8148C56.8141 43.8165 57.3051 43.9731 57.5863 44.213C57.8669 44.4492 58.0088 44.8065 58.0113 45.3617C58.0113 45.3654 58.0113 45.3752 58.0124 45.3878V45.9115H55.6687C54.7231 45.9135 53.9324 46.1212 53.3615 46.5548C52.7946 46.9785 52.4786 47.6309 52.4782 48.3907L52.4786 48.4195C52.48 49.0528 52.7242 49.6733 53.1684 50.1044C53.7684 50.6799 54.5675 50.8891 55.7749 50.8891H56.4003C57.506 50.89 58.299 50.624 58.81 50.0877C59.3199 49.5519 59.5242 48.7765 59.5242 47.8122V45.2915L59.5239 45.2769Z" fill="#D00070"/>
<path d="M13.5778 42.5096H12.034L12.0334 40.9856L12.0323 40.2482C12.0323 40.116 11.9133 40.0078 11.7664 40.0078H10.8382C10.7683 40.0078 10.6993 40.0332 10.6506 40.078C10.6008 40.1231 10.5716 40.1855 10.5716 40.2482V41.6069L10.5723 48.7503C10.573 49.3306 10.7446 49.853 11.1218 50.2488C11.4813 50.6318 12.0639 50.8707 12.7371 50.8707H13.1867V50.8653H13.5778C13.6458 50.8653 13.7122 50.8365 13.7596 50.7864C13.808 50.7362 13.8354 50.6664 13.8354 50.5952V49.7123C13.8354 49.6417 13.808 49.5719 13.7596 49.5215C13.7122 49.4706 13.6458 49.4425 13.5778 49.4425H12.8603C12.7151 49.4371 12.5985 49.4198 12.4969 49.3849C12.4321 49.3632 12.3921 49.3388 12.3549 49.3157C12.3138 49.2875 12.2912 49.274 12.2509 49.233C12.1127 49.0923 12.0361 48.8696 12.034 48.5378V43.9328H13.5778C13.6458 43.9328 13.7122 43.9039 13.7596 43.8538C13.808 43.8032 13.8354 43.7335 13.8354 43.6626V42.7793C13.8354 42.7089 13.808 42.6393 13.7596 42.5885C13.7122 42.5377 13.6458 42.5096 13.5778 42.5096Z" fill="#D00070"/>
<path d="M20.2349 43.5527L20.1492 43.4599C20.1458 43.449 20.1395 43.4389 20.1291 43.4283L20.0773 43.3765L20.0062 43.3046L19.9477 43.2412L19.9453 43.2437C19.4201 42.7054 18.7665 42.4787 18.0705 42.478C18.0562 42.478 18.0395 42.4784 18.0158 42.4787C17.5216 42.4787 16.9382 42.695 16.5882 43.1054L16.347 43.3844V42.7607C16.347 42.6942 16.3178 42.6288 16.2666 42.5827C16.2151 42.5353 16.1438 42.5081 16.0713 42.5081H15.1716C15.0993 42.5081 15.0282 42.5353 14.9767 42.5827C14.9249 42.6288 14.8964 42.6942 14.8964 42.7607V50.629C14.8964 50.6959 14.9256 50.7609 14.9767 50.8073C15.0278 50.8548 15.0993 50.8819 15.1716 50.8819H15.3269C15.3317 50.8822 15.337 50.8833 15.3419 50.8833H15.9087C15.9141 50.8833 15.9189 50.8822 15.9241 50.8819H16.0717C16.1438 50.8819 16.2147 50.8548 16.2666 50.8073C16.3184 50.7609 16.347 50.6959 16.347 50.629V50.4928L16.3473 50.4877V45.8196C16.3473 45.8135 16.347 45.8077 16.347 45.8015V45.4236C16.3742 44.9899 16.5154 44.599 16.7472 44.3153C16.9957 44.0124 17.3597 43.8157 17.8509 43.8143C18.1107 43.8143 18.2817 43.8446 18.4297 43.9045C18.5723 43.9652 18.7178 44.0689 18.9089 44.2608L18.9521 44.3042L19.1476 44.5163C19.1936 44.5665 19.2608 44.596 19.3314 44.5966C19.4023 44.5981 19.4744 44.5709 19.5288 44.5228L20.2032 43.9249C20.2572 43.8771 20.2916 43.8097 20.2976 43.7395C20.3044 43.6704 20.2808 43.6026 20.2349 43.5527Z" fill="#D00070"/>
<path d="M42.9113 46.5775C42.9077 46.5748 42.9035 46.5729 42.9004 46.5705H42.8994C42.3739 46.2132 41.7084 46.0888 40.9918 46.0292L39.6484 45.919C39.0895 45.8733 38.7432 45.7601 38.542 45.6061C38.3714 45.4794 38.2657 45.275 38.2625 44.9609V44.9538H38.2615L38.2625 44.9374C38.2657 44.5657 38.414 44.2956 38.6775 44.1122C38.9583 43.9149 39.4086 43.7892 40.0455 43.7885H40.0517C40.8644 43.7899 41.5365 43.9745 42.0972 44.3253L42.0964 44.3264L42.4372 44.5593C42.4916 44.5965 42.5611 44.6104 42.6279 44.5951C42.6958 44.581 42.7575 44.5399 42.7978 44.483L43.2996 43.7705C43.3401 43.7133 43.3575 43.6414 43.3477 43.5745C43.3425 43.5377 43.3278 43.5031 43.3069 43.4729C43.2885 43.4383 43.2621 43.4072 43.2273 43.3831L43.1695 43.3428C42.3686 42.7869 41.2518 42.475 40.048 42.4734C39.084 42.4738 38.2615 42.6995 37.6646 43.1317C37.0726 43.5567 36.7246 44.1993 36.7242 44.9307L36.7246 44.9409V44.9457L36.7242 44.9653C36.7242 45.612 36.9703 46.1834 37.4617 46.5729C37.9581 46.9684 38.6569 47.1792 39.537 47.2483L40.9177 47.3571C41.4237 47.4022 41.7401 47.5116 41.9262 47.6635C42.0888 47.792 42.1926 47.9957 42.1936 48.3204V48.3407C42.1898 48.7501 42.0206 49.0325 41.7046 49.2284C41.3656 49.4378 40.8143 49.5659 40.048 49.5659H40.0427C40.0399 49.5659 40.035 49.5663 40.0284 49.567H40.0215C39.0105 49.5622 38.2918 49.3409 37.7324 48.8908L37.4412 48.6509C37.389 48.6078 37.3197 48.5875 37.2498 48.5966C37.1798 48.6054 37.1129 48.6414 37.0667 48.6959L36.4886 49.3765C36.4419 49.4311 36.4176 49.5026 36.4217 49.5717C36.4249 49.6403 36.4573 49.7046 36.5095 49.7474L36.7837 49.9734L36.7827 49.9747C36.7882 49.9788 36.7938 49.9821 36.7991 49.9863L36.8349 50.0154L36.8374 50.0128C37.6862 50.6113 38.7455 50.8977 40.0427 50.8977H40.0657C41.1352 50.8966 42.0377 50.6709 42.6961 50.2283C43.347 49.7917 43.735 49.118 43.734 48.3407V48.302C43.7354 47.5185 43.4236 46.9277 42.9113 46.5775Z" fill="#D00070"/>
<path d="M76.0524 50.5296L74.9261 48.9817L72.6695 45.7727L74.4232 43.9586L75.4444 42.9076L75.5063 42.8405C75.6243 42.725 75.5666 42.6047 75.5154 42.5585C75.4643 42.5112 75.3928 42.4837 75.3205 42.4837H74.148C74.0783 42.4837 73.9879 42.5362 73.9367 42.5806L69.9994 46.6702V40.2369C69.9994 40.1705 69.9698 40.1051 69.9189 40.0586C69.8674 40.0111 69.7962 39.984 69.7237 39.984H68.8237C68.7517 39.984 68.6806 40.0111 68.6292 40.0586C68.577 40.1051 68.5484 40.1705 68.5484 40.2369V50.6279C68.5484 50.6943 68.5777 50.7601 68.6289 50.8066C68.6803 50.8536 68.7517 50.8811 68.8241 50.8811H69.724C69.7961 50.8811 69.8671 50.8536 69.9189 50.8066C69.9709 50.7601 69.9994 50.6943 69.9994 50.6279V48.5303L71.7051 46.7298L72.853 48.4028H72.8481L74.4619 50.7516C74.4998 50.8039 74.5594 50.8865 74.694 50.8865H75.8665C75.939 50.8865 76.0104 50.8591 76.0615 50.8116C76.1126 50.7651 76.1464 50.6452 76.0524 50.5296Z" fill="#D00070"/>
<path d="M65.9725 40.0635H66.1314L66.3678 40.741L66.6044 40.0635H66.7614V40.8652H66.6556V40.3909C66.6556 40.3743 66.6563 40.3492 66.6563 40.31C66.6563 40.272 66.6587 40.2334 66.6587 40.189L66.4228 40.8652H66.3117L66.0762 40.189V40.3017C66.0779 40.3442 66.0779 40.3729 66.0779 40.3909V40.8652H65.9725V40.0635Z" fill="#D00070"/>
<path d="M67.6011 40.4299C67.6513 40.4299 67.692 40.4204 67.7229 40.3997C67.7502 40.3811 67.7668 40.3442 67.7668 40.2889C67.7668 40.2334 67.7469 40.1933 67.7038 40.1723C67.6811 40.1611 67.6513 40.156 67.6154 40.156H67.3488V40.4299H67.6011ZM67.2378 40.0635H67.6136C67.6753 40.0635 67.7271 40.0719 67.7654 40.0903C67.842 40.1231 67.8792 40.1862 67.8792 40.2788C67.8792 40.3265 67.8708 40.3659 67.8496 40.3971C67.8277 40.4265 67.7995 40.4529 67.7623 40.4713C67.7946 40.4848 67.8212 40.5004 67.8371 40.5211C67.852 40.5417 67.8612 40.5766 67.8612 40.6231L67.8674 40.7288C67.8674 40.7607 67.8715 40.7831 67.8747 40.7983C67.8824 40.8221 67.8939 40.8386 67.9112 40.8454V40.8652H67.7748C67.7709 40.8566 67.7692 40.8485 67.7654 40.8386C67.7623 40.8275 67.7615 40.8064 67.7609 40.7753L67.7532 40.6411C67.7494 40.5879 67.7316 40.5527 67.6951 40.5354C67.6753 40.5258 67.6402 40.5211 67.5963 40.5211H67.3488V40.8652H67.2378V40.0635Z" fill="#D00070"/>
<path d="M67.004 40.8609C66.9723 40.8609 66.9504 40.8379 66.9504 40.8026C66.9504 40.7674 66.973 40.7434 67.0074 40.7434C67.0398 40.7434 67.0631 40.7674 67.0631 40.8026C67.0631 40.8379 67.0398 40.8609 67.004 40.8609Z" fill="#D00070"/>
<path d="M68.1308 40.8609C68.0981 40.8609 68.0741 40.8379 68.0741 40.8026C68.0741 40.7674 68.0981 40.7434 68.1322 40.7434C68.1666 40.7434 68.1889 40.7674 68.1889 40.8026C68.1889 40.8379 68.1659 40.8609 68.1308 40.8609Z" fill="#D00070"/>
<path d="M85.6212 20.0952C85.6143 22.4737 85.3552 24.7979 84.4262 26.4612C83.513 28.0615 82.0449 29.1302 79.1935 29.1727C79.1751 29.1702 79.1446 29.1702 79.087 29.1727H79.0399C76.1692 29.1446 74.682 28.0735 73.7643 26.4586C72.8275 24.7885 72.5649 22.4449 72.5649 20.0519V19.9074C72.5676 17.5297 72.8275 15.6218 73.7643 13.9594C74.682 12.3436 76.1692 11.2717 79.0399 11.2461H79.1498C82.0222 11.2717 83.5042 12.342 84.4297 13.9627C85.3596 15.6218 85.6212 17.5297 85.6212 19.9074V20.0952ZM86.429 9.91253C86.4142 9.89557 86.3993 9.87771 86.3801 9.8607C84.8257 8.4642 82.3397 7.59943 79.4585 7.59676C79.4202 7.59178 79.36 7.59179 79.3042 7.59179C76.9351 7.59093 74.5982 8.07257 72.5676 9.76556L72.5649 9.76722V8.28151H72.5693V0.755184C72.5693 0.5564 72.4821 0.360986 72.3294 0.222475C72.1767 0.0814493 71.9639 0 71.7467 0H69.0566C68.8429 0 68.6309 0.0814493 68.4757 0.222475C68.3213 0.360987 68.2358 0.5564 68.2358 0.755184V8.28151H68.2375V24.2594H68.2358V31.7449C68.2358 31.9437 68.3239 32.1391 68.4757 32.2766C68.6301 32.4185 68.8429 32.4993 69.0592 32.4993H71.7476C71.9639 32.4993 72.1758 32.4185 72.3294 32.2766C72.4856 32.1391 72.5711 31.9437 72.5711 31.7449V30.1971C74.3654 32.1519 76.9411 32.8255 79.3042 32.8246H79.4699C82.3441 32.8152 84.8301 31.9505 86.3801 30.5556C89.2779 27.884 89.9399 23.7887 89.9495 19.9822C89.9416 16.1961 89.2779 12.5739 86.429 9.91253Z" fill="#6D2077"/>
<path d="M110.4 20.4901C110.4 22.8678 110.138 24.7757 109.208 26.4348C108.283 28.0555 106.801 29.126 103.928 29.1513H103.819C100.948 29.126 99.4606 28.0539 98.5429 26.4382C97.6061 24.7757 97.3462 22.8678 97.3436 20.4901V20.3457C97.3436 17.9528 97.6061 15.6091 98.5429 13.939C99.4606 12.3241 100.948 11.2529 103.819 11.2249H103.866C103.923 11.2275 103.954 11.2275 103.972 11.2249C106.824 11.2674 108.292 12.336 109.205 13.9365C110.134 15.5997 110.393 17.9239 110.4 20.3025V20.4901ZM111.208 30.4851C114.056 27.8236 114.72 24.2015 114.728 20.4154C114.719 16.6089 114.056 12.5136 111.159 9.84199C109.609 8.44708 107.123 7.58232 104.249 7.57301H104.083C101.72 7.57216 99.144 8.24579 97.3497 10.2005V8.65266C97.3497 8.45387 97.2642 8.25851 97.1081 8.12091C96.9546 7.97908 96.7426 7.89838 96.5263 7.89838H93.8378C93.6216 7.89838 93.4088 7.97908 93.2543 8.12091C93.1026 8.25851 93.0145 8.45387 93.0145 8.65266V16.1383H93.0162V32.1161H93.0145V39.6425C93.0145 39.8412 93.1 40.0366 93.2543 40.175C93.4096 40.316 93.6216 40.3976 93.8353 40.3976H96.5254C96.7426 40.3976 96.9555 40.316 97.1081 40.175C97.2607 40.0366 97.348 39.8412 97.348 39.6425V32.1161H97.3436V30.6304L97.3462 30.6321C99.377 32.3251 101.714 32.8067 104.083 32.8059C104.139 32.8059 104.199 32.8059 104.237 32.8007C107.118 32.7982 109.604 31.9334 111.159 30.5369C111.178 30.5199 111.193 30.5021 111.208 30.4851Z" fill="#6D2077"/>
<path d="M149.802 34.7847C149.565 35.4086 149.141 36.4157 148.858 37.0209C148.858 37.0209 148.346 38.1176 147.621 38.8251C146.958 39.4702 146.201 39.9158 145.347 40.1624C144.495 40.4082 143.935 40.4466 143.935 40.4466C143.254 40.4926 142.259 40.531 141.725 40.531C141.191 40.531 140.754 39.9865 140.754 39.3217V37.544C140.754 36.8792 141.032 36.3346 141.37 36.3346C141.709 36.3346 142.542 36.2783 143.221 36.21C143.221 36.21 143.738 36.1571 144.211 35.8038C144.685 35.4488 144.925 34.9401 144.925 34.9401C145.21 34.3349 145.629 33.327 145.857 32.6998L146.354 31.3326C146.582 30.7052 146.576 29.6811 146.342 29.0563L138.814 9.01894C138.579 8.39414 138.946 7.88293 139.63 7.88293H142.26C142.942 7.88293 143.681 8.39842 143.9 9.02824L148.832 23.1999C149.052 23.8306 149.406 23.829 149.62 23.1974L154.428 9.03172C154.643 8.39927 155.377 7.88293 156.061 7.88293H158.737C159.421 7.88293 159.786 8.39328 159.551 9.01797L149.802 34.7847Z" fill="#6D2077"/>
<path d="M121.14 25.269V25.2113C121.153 23.9432 121.55 23.1508 122.297 22.5929C123.078 22.013 124.395 21.6378 126.366 21.6378H133.013V23.6493C133.007 25.6224 132.562 26.713 131.967 27.2219C130.529 28.5119 128.749 28.7061 126.579 28.7114H126.516C124.427 28.7131 123.056 28.3616 122.278 27.8114C121.538 27.2919 121.158 26.5494 121.14 25.269ZM137.476 16.0449V16.0274C137.477 13.5261 136.622 11.3816 134.829 9.9482C133.025 8.50511 130.433 7.82736 127.098 7.8256H126.932C123.428 7.81677 120.648 8.55843 118.53 10.7511L118.521 10.744L118.4 10.8857C118.241 11.0563 118.084 11.2346 117.932 11.4227C117.931 11.4244 117.929 11.4288 117.929 11.4288L117.713 11.679C117.582 11.8285 117.519 12.0296 117.546 12.2317C117.568 12.4347 117.674 12.6297 117.836 12.7661L117.958 12.8692C118.005 12.9235 118.057 12.9742 118.114 13.0206L118.587 13.3992L119.848 14.4601C120.009 14.5965 120.222 14.6709 120.428 14.6604C120.633 14.6526 120.824 14.5616 120.955 14.4111L121.763 13.4762C122.268 12.9444 122.786 12.5649 123.412 12.2982C124.295 11.9212 125.43 11.7445 127.069 11.7297L127.088 11.7288L127.143 11.7271C129.475 11.7323 130.925 12.1941 131.755 12.9034C132.583 13.6004 133.003 14.656 133.009 16.295C133.009 16.3055 133.009 16.3351 133.013 16.3719V17.9182H126.092C123.3 17.9243 120.965 18.5383 119.28 19.8178C117.606 21.0693 116.672 22.9952 116.671 25.2393L116.672 25.3241C116.676 27.194 117.397 29.0262 118.709 30.2997C120.48 31.9989 122.841 32.6163 126.406 32.6163H128.252C131.518 32.6199 133.86 31.8336 135.369 30.2506C136.874 28.6685 137.477 26.3779 137.477 23.5313V16.0877L137.476 16.0449Z" fill="#6D2077"/>
<path d="M40.4497 7.93052C39.7354 7.93052 38.9929 8.47805 38.7979 9.1459L34.096 25.2955C33.9012 25.9645 33.5592 25.9714 33.3359 25.3109L27.8676 9.13071C27.6452 8.47088 26.8788 7.93052 26.1646 7.93052H25.1839C24.4702 7.93052 23.705 8.47099 23.4834 9.13173L18.0583 25.31C17.8367 25.9708 17.4943 25.9654 17.2983 25.2966L12.5544 9.14622C12.358 8.47751 11.6129 7.93052 10.8987 7.93052H8.90084C8.18761 7.93052 7.78002 8.47259 7.99529 9.1352L15.2509 31.4208C15.467 32.0825 16.227 32.6256 16.9412 32.6256H18.3133C18.9504 32.6256 19.6374 32.1443 19.8397 31.5559L25.2636 15.7927C25.4906 15.1337 25.8625 15.1337 26.0912 15.7919L31.5129 31.428C31.7418 32.0861 32.5128 32.6256 33.226 32.6256H34.5542C35.2152 32.6256 35.9185 32.1232 36.1172 31.5091L43.3551 9.13606C43.5693 8.47259 43.1609 7.93052 42.4476 7.93052L40.4497 7.93052Z" fill="#6D2077"/>
<path d="M65.1616 19.4984C65.1616 12.1688 61.1682 7.61548 54.7403 7.61548C48.2153 7.61548 44.3196 12.3103 44.3196 20.1737C44.3196 28.2714 48.2489 32.7318 55.3834 32.7318C59.815 32.7318 62.1924 31.284 64.592 28.9484L64.9112 28.6376L61.8486 26.0195L61.5682 26.2918C59.6129 28.196 58.0202 28.8705 55.4828 28.8705C51.2576 28.8705 48.8644 26.2551 48.7353 21.5015H65.1616V19.4984ZM48.753 18.0741C48.842 16.5377 48.956 15.8499 49.4386 14.6955C50.3255 12.6505 52.357 11.3805 54.7403 11.3805C57.1234 11.3805 59.1544 12.6497 60.0408 14.692C60.5247 15.8499 60.6384 16.5377 60.7278 18.0741H48.753Z" fill="#6D2077"/>
<path d="M2.57761 13.0448C4.00202 13.0448 5.15864 11.9125 5.15864 10.5159C5.15864 9.11932 4.00202 7.98609 2.57761 7.98609C1.15658 7.98609 0 9.11932 0 10.5159C5.49153e-08 11.9125 1.15658 13.0448 2.57761 13.0448Z" fill="#D00070"/>
<path d="M159.419 32.6111C160.844 32.6111 162 31.4787 162 30.0831C162 28.6856 160.844 27.5516 159.419 27.5516C157.997 27.5516 156.843 28.6856 156.843 30.0831C156.843 31.4787 157.997 32.6111 159.419 32.6111Z" fill="#D00070"/>
</g>
</svg>
