<svg width="25" height="24" viewBox="0 0 25 24" fill="none" xmlns="http://www.w3.org/2000/svg">
<g id="Icon / search-outline">
<path id="Vector" d="M10.7406 3C9.28417 3 7.86049 3.43187 6.64956 4.24099C5.43862 5.05011 4.49481 6.20015 3.93748 7.54567C3.38014 8.89119 3.23432 10.3718 3.51845 11.8002C3.80257 13.2286 4.50389 14.5406 5.5337 15.5704C6.56352 16.6003 7.87559 17.3016 9.30398 17.5857C10.7324 17.8698 12.213 17.724 13.5585 17.1667C14.904 16.6093 16.054 15.6655 16.8632 14.4546C17.6723 13.2437 18.1041 11.82 18.1041 10.3636C18.104 8.41069 17.3282 6.5378 15.9473 5.15688C14.5663 3.77597 12.6935 3.00012 10.7406 3Z" stroke="white" stroke-width="2" stroke-miterlimit="10"/>
<path id="Vector_2" d="M16.2344 15.8574L21.377 21.0001" stroke="white" stroke-width="2" stroke-miterlimit="10" stroke-linecap="round"/>
</g>
</svg>
