<svg width="34" height="35" viewBox="0 0 34 35" fill="none" xmlns="http://www.w3.org/2000/svg">
<g id="Icon / ticket-outline">
<path id="Vector" d="M24.2159 10.4346C23.6656 9.88404 23.3433 9.14605 23.3137 8.36818C23.284 7.59032 23.549 6.82992 24.0558 6.23906C24.0977 6.18992 24.1195 6.12675 24.1168 6.06222C24.1141 5.99769 24.0871 5.93656 24.0413 5.89109L21.1219 2.9684C21.0736 2.92016 21.0082 2.89307 20.94 2.89307C20.8717 2.89307 20.8063 2.92016 20.758 2.9684L16.1047 7.62168C15.9331 7.79333 15.8037 8.00261 15.727 8.23295C15.6506 8.46381 15.5214 8.67369 15.3497 8.84594C15.1781 9.01818 14.9686 9.14806 14.738 9.22526C14.5075 9.30206 14.298 9.43138 14.1261 9.603L2.19252 21.5339C2.14428 21.5822 2.11719 21.6476 2.11719 21.7158C2.11719 21.7841 2.14428 21.8495 2.19252 21.8978L5.1119 24.8171C5.15737 24.863 5.2185 24.89 5.28303 24.8927C5.34756 24.8954 5.41073 24.8736 5.45987 24.8317C6.05061 24.3244 6.81117 24.0589 7.58931 24.0884C8.36744 24.1179 9.10571 24.4402 9.65633 24.9908C10.2069 25.5414 10.5293 26.2797 10.5588 27.0579C10.5883 27.836 10.3228 28.5965 9.81546 29.1873C9.77355 29.2364 9.75176 29.2996 9.75446 29.3641C9.75716 29.4287 9.78415 29.4898 9.83002 29.5353L12.7494 32.4546C12.7977 32.5029 12.8631 32.53 12.9313 32.53C12.9996 32.53 13.065 32.5029 13.1133 32.4546L25.0475 20.5211C25.2191 20.3491 25.3484 20.1396 25.4252 19.9092C25.5016 19.6783 25.6308 19.4684 25.8025 19.2962C25.9742 19.1239 26.1836 18.9941 26.4142 18.9168C26.6445 18.8401 26.8538 18.7108 27.0255 18.5391L31.6788 13.8858C31.727 13.8376 31.7541 13.7721 31.7541 13.7039C31.7541 13.6357 31.727 13.5702 31.6788 13.522L28.7594 10.6026C28.7139 10.5567 28.6528 10.5297 28.5882 10.527C28.5237 10.5243 28.4606 10.5461 28.4114 10.588C27.8214 11.0957 27.0614 11.3619 26.2836 11.3334C25.5057 11.305 24.7673 10.984 24.2159 10.4346Z" fill="#E6ECF6" stroke="#3365B4" stroke-width="1.5" stroke-miterlimit="10"/>
</g>
</svg>
