<svg width="32" height="33" viewBox="0 0 32 33" fill="none" xmlns="http://www.w3.org/2000/svg">
<g id="Icon / business-outline">
<g id="Vector">
<path d="M11 26.0488V30.0488V26.0488ZM5 2.04883H17C17.5304 2.04883 18.0391 2.25954 18.4142 2.63461C18.7893 3.00969 19 3.5184 19 4.04883V29.7988C19 29.8651 18.9737 29.9287 18.9268 29.9756C18.8799 30.0225 18.8163 30.0488 18.75 30.0488H3V4.04883C3 3.5184 3.21071 3.00969 3.58579 2.63461C3.96086 2.25954 4.46957 2.04883 5 2.04883ZM20 12.0488H27C27.5304 12.0488 28.0391 12.2595 28.4142 12.6346C28.7893 13.0097 29 13.5184 29 14.0488V30.0488H19V13.0488C19 12.7836 19.1054 12.5293 19.2929 12.3417C19.4804 12.1542 19.7348 12.0488 20 12.0488Z" fill="#E6ECF6"/>
<path d="M11 26.0488V30.0488M5 2.04883H17C17.5304 2.04883 18.0391 2.25954 18.4142 2.63461C18.7893 3.00969 19 3.5184 19 4.04883V29.7988C19 29.8651 18.9737 29.9287 18.9268 29.9756C18.8799 30.0225 18.8163 30.0488 18.75 30.0488H3V4.04883C3 3.5184 3.21071 3.00969 3.58579 2.63461C3.96086 2.25954 4.46957 2.04883 5 2.04883ZM20 12.0488H27C27.5304 12.0488 28.0391 12.2595 28.4142 12.6346C28.7893 13.0097 29 13.5184 29 14.0488V30.0488H19V13.0488C19 12.7836 19.1054 12.5293 19.2929 12.3417C19.4804 12.1542 19.7348 12.0488 20 12.0488Z" stroke="black" stroke-width="1.5" stroke-linecap="round" stroke-linejoin="round"/>
</g>
<path id="Vector_2" d="M6.12968 27.0404C5.92258 27.0675 5.71218 27.029 5.52804 26.9304C5.3439 26.8319 5.19524 26.6781 5.10294 26.4907C5.01064 26.3034 4.97932 26.0918 5.01339 25.8857C5.04746 25.6796 5.1452 25.4894 5.29289 25.3417C5.44059 25.194 5.63082 25.0963 5.8369 25.0622C6.04297 25.0282 6.25454 25.0595 6.44191 25.1518C6.62928 25.2441 6.78304 25.3927 6.88162 25.5769C6.9802 25.761 7.01864 25.9714 6.99156 26.1785C6.96297 26.3971 6.86297 26.6001 6.70711 26.7559C6.55124 26.9118 6.34825 27.0118 6.12968 27.0404ZM6.12968 22.0404C5.92258 22.0675 5.71218 22.029 5.52804 21.9304C5.3439 21.8319 5.19524 21.6781 5.10294 21.4907C5.01064 21.3034 4.97932 21.0918 5.01339 20.8857C5.04746 20.6796 5.1452 20.4894 5.29289 20.3417C5.44059 20.194 5.63082 20.0963 5.8369 20.0622C6.04297 20.0282 6.25454 20.0595 6.44191 20.1518C6.62928 20.2441 6.78304 20.3927 6.88162 20.5769C6.9802 20.761 7.01864 20.9714 6.99156 21.1785C6.96297 21.3971 6.86297 21.6001 6.70711 21.7559C6.55124 21.9118 6.34825 22.0118 6.12968 22.0404ZM6.12968 17.0404C5.92258 17.0675 5.71218 17.029 5.52804 16.9304C5.3439 16.8319 5.19524 16.6781 5.10294 16.4907C5.01064 16.3034 4.97932 16.0918 5.01339 15.8857C5.04746 15.6796 5.1452 15.4894 5.29289 15.3417C5.44059 15.194 5.63082 15.0963 5.8369 15.0622C6.04297 15.0282 6.25454 15.0595 6.44191 15.1518C6.62928 15.2441 6.78304 15.3927 6.88162 15.5769C6.9802 15.761 7.01864 15.9714 6.99156 16.1785C6.96297 16.3971 6.86297 16.6001 6.70711 16.7559C6.55124 16.9118 6.34825 17.0118 6.12968 17.0404ZM6.12968 12.0404C5.92258 12.0675 5.71218 12.029 5.52804 11.9304C5.3439 11.8319 5.19524 11.6781 5.10294 11.4907C5.01064 11.3034 4.97932 11.0918 5.01339 10.8857C5.04746 10.6796 5.1452 10.4894 5.29289 10.3417C5.44059 10.194 5.63082 10.0963 5.8369 10.0622C6.04297 10.0282 6.25454 10.0595 6.44191 10.1518C6.62928 10.2441 6.78304 10.3927 6.88162 10.5769C6.9802 10.761 7.01864 10.9714 6.99156 11.1785C6.96297 11.3971 6.86297 11.6001 6.70711 11.7559C6.55124 11.9118 6.34825 12.0118 6.12968 12.0404ZM6.12968 7.04039C5.92258 7.06747 5.71218 7.02903 5.52804 6.93045C5.3439 6.83187 5.19524 6.67811 5.10294 6.49074C5.01064 6.30337 4.97932 6.0918 5.01339 5.88572C5.04746 5.67965 5.1452 5.48942 5.29289 5.34172C5.44059 5.19403 5.63082 5.09629 5.8369 5.06222C6.04297 5.02815 6.25454 5.05947 6.44191 5.15177C6.62928 5.24407 6.78304 5.39272 6.88162 5.57687C6.9802 5.76101 7.01864 5.9714 6.99156 6.17851C6.96297 6.39707 6.86297 6.60007 6.70711 6.75594C6.55124 6.9118 6.34825 7.0118 6.12968 7.04039ZM11.1297 22.0404C10.9226 22.0675 10.7122 22.029 10.528 21.9304C10.3439 21.8319 10.1952 21.6781 10.1029 21.4907C10.0106 21.3034 9.97932 21.0918 10.0134 20.8857C10.0475 20.6796 10.1452 20.4894 10.2929 20.3417C10.4406 20.194 10.6308 20.0963 10.8369 20.0622C11.043 20.0282 11.2545 20.0595 11.4419 20.1518C11.6293 20.2441 11.783 20.3927 11.8816 20.5769C11.9802 20.761 12.0186 20.9714 11.9916 21.1785C11.963 21.3971 11.863 21.6001 11.7071 21.7559C11.5512 21.9118 11.3482 22.0118 11.1297 22.0404ZM11.1297 17.0404C10.9226 17.0675 10.7122 17.029 10.528 16.9304C10.3439 16.8319 10.1952 16.6781 10.1029 16.4907C10.0106 16.3034 9.97932 16.0918 10.0134 15.8857C10.0475 15.6796 10.1452 15.4894 10.2929 15.3417C10.4406 15.194 10.6308 15.0963 10.8369 15.0622C11.043 15.0282 11.2545 15.0595 11.4419 15.1518C11.6293 15.2441 11.783 15.3927 11.8816 15.5769C11.9802 15.761 12.0186 15.9714 11.9916 16.1785C11.963 16.3971 11.863 16.6001 11.7071 16.7559C11.5512 16.9118 11.3482 17.0118 11.1297 17.0404ZM11.1297 12.0404C10.9226 12.0675 10.7122 12.029 10.528 11.9304C10.3439 11.8319 10.1952 11.6781 10.1029 11.4907C10.0106 11.3034 9.97932 11.0918 10.0134 10.8857C10.0475 10.6796 10.1452 10.4894 10.2929 10.3417C10.4406 10.194 10.6308 10.0963 10.8369 10.0622C11.043 10.0282 11.2545 10.0595 11.4419 10.1518C11.6293 10.2441 11.783 10.3927 11.8816 10.5769C11.9802 10.761 12.0186 10.9714 11.9916 11.1785C11.963 11.3971 11.863 11.6001 11.7071 11.7559C11.5512 11.9118 11.3482 12.0118 11.1297 12.0404ZM11.1297 7.04039C10.9226 7.06747 10.7122 7.02903 10.528 6.93045C10.3439 6.83187 10.1952 6.67811 10.1029 6.49074C10.0106 6.30337 9.97932 6.0918 10.0134 5.88572C10.0475 5.67965 10.1452 5.48942 10.2929 5.34172C10.4406 5.19403 10.6308 5.09629 10.8369 5.06222C11.043 5.02815 11.2545 5.05947 11.4419 5.15177C11.6293 5.24407 11.783 5.39272 11.8816 5.57687C11.9802 5.76101 12.0186 5.9714 11.9916 6.17851C11.963 6.39707 11.863 6.60007 11.7071 6.75594C11.5512 6.9118 11.3482 7.0118 11.1297 7.04039ZM16.1297 27.0404C15.9226 27.0675 15.7122 27.029 15.528 26.9304C15.3439 26.8319 15.1952 26.6781 15.1029 26.4907C15.0106 26.3034 14.9793 26.0918 15.0134 25.8857C15.0475 25.6796 15.1452 25.4894 15.2929 25.3417C15.4406 25.194 15.6308 25.0963 15.8369 25.0622C16.043 25.0282 16.2545 25.0595 16.4419 25.1518C16.6293 25.2441 16.783 25.3927 16.8816 25.5769C16.9802 25.761 17.0186 25.9714 16.9916 26.1785C16.963 26.3971 16.863 26.6001 16.7071 26.7559C16.5512 26.9118 16.3482 27.0118 16.1297 27.0404ZM16.1297 22.0404C15.9226 22.0675 15.7122 22.029 15.528 21.9304C15.3439 21.8319 15.1952 21.6781 15.1029 21.4907C15.0106 21.3034 14.9793 21.0918 15.0134 20.8857C15.0475 20.6796 15.1452 20.4894 15.2929 20.3417C15.4406 20.194 15.6308 20.0963 15.8369 20.0622C16.043 20.0282 16.2545 20.0595 16.4419 20.1518C16.6293 20.2441 16.783 20.3927 16.8816 20.5769C16.9802 20.761 17.0186 20.9714 16.9916 21.1785C16.963 21.3971 16.863 21.6001 16.7071 21.7559C16.5512 21.9118 16.3482 22.0118 16.1297 22.0404ZM16.1297 17.0404C15.9226 17.0675 15.7122 17.029 15.528 16.9304C15.3439 16.8319 15.1952 16.6781 15.1029 16.4907C15.0106 16.3034 14.9793 16.0918 15.0134 15.8857C15.0475 15.6796 15.1452 15.4894 15.2929 15.3417C15.4406 15.194 15.6308 15.0963 15.8369 15.0622C16.043 15.0282 16.2545 15.0595 16.4419 15.1518C16.6293 15.2441 16.783 15.3927 16.8816 15.5769C16.9802 15.761 17.0186 15.9714 16.9916 16.1785C16.963 16.3971 16.863 16.6001 16.7071 16.7559C16.5512 16.9118 16.3482 17.0118 16.1297 17.0404Z" fill="black"/>
<path id="Vector_3" d="M16.7087 11.7569C17.098 11.3676 17.0964 10.7348 16.7051 10.3436C16.3139 9.9523 15.6811 9.95072 15.2918 10.34C14.9025 10.7293 14.9041 11.3621 15.2953 11.7534C15.6866 12.1446 16.3194 12.1462 16.7087 11.7569Z" fill="black"/>
<path id="Vector_4" d="M16.1297 7.04039C15.9226 7.06747 15.7122 7.02903 15.528 6.93045C15.3439 6.83187 15.1952 6.67811 15.1029 6.49074C15.0106 6.30337 14.9793 6.0918 15.0134 5.88572C15.0475 5.67965 15.1452 5.48942 15.2929 5.34172C15.4406 5.19403 15.6308 5.09629 15.8369 5.06222C16.043 5.02815 16.2545 5.05947 16.4419 5.15177C16.6293 5.24407 16.783 5.39272 16.8816 5.57687C16.9802 5.76101 17.0186 5.9714 16.9916 6.17851C16.963 6.39707 16.863 6.60007 16.7071 6.75594C16.5512 6.9118 16.3482 7.0118 16.1297 7.04039ZM24.9997 25.0485C24.8019 25.0485 24.6086 25.1072 24.4441 25.217C24.2797 25.3269 24.1515 25.4831 24.0758 25.6658C24.0001 25.8486 23.9803 26.0496 24.0189 26.2436C24.0575 26.4376 24.1527 26.6158 24.2926 26.7556C24.4324 26.8955 24.6106 26.9907 24.8046 27.0293C24.9986 27.0679 25.1996 27.0481 25.3824 26.9724C25.5651 26.8967 25.7213 26.7685 25.8312 26.6041C25.941 26.4396 25.9997 26.2463 25.9997 26.0485C25.9997 25.7833 25.8943 25.5289 25.7068 25.3414C25.5193 25.1539 25.2649 25.0485 24.9997 25.0485ZM24.9997 20.0485C24.8019 20.0485 24.6086 20.1072 24.4441 20.217C24.2797 20.3269 24.1515 20.4831 24.0758 20.6658C24.0001 20.8486 23.9803 21.0496 24.0189 21.2436C24.0575 21.4376 24.1527 21.6158 24.2926 21.7556C24.4324 21.8955 24.6106 21.9907 24.8046 22.0293C24.9986 22.0679 25.1996 22.0481 25.3824 21.9724C25.5651 21.8967 25.7213 21.7685 25.8312 21.6041C25.941 21.4396 25.9997 21.2463 25.9997 21.0485C25.9997 20.7833 25.8943 20.5289 25.7068 20.3414C25.5193 20.1539 25.2649 20.0485 24.9997 20.0485ZM24.9997 15.0485C24.8019 15.0485 24.6086 15.1072 24.4441 15.217C24.2797 15.3269 24.1515 15.4831 24.0758 15.6658C24.0001 15.8486 23.9803 16.0496 24.0189 16.2436C24.0575 16.4376 24.1527 16.6158 24.2926 16.7556C24.4324 16.8955 24.6106 16.9907 24.8046 17.0293C24.9986 17.0679 25.1996 17.0481 25.3824 16.9724C25.5651 16.8967 25.7213 16.7685 25.8312 16.6041C25.941 16.4396 25.9997 16.2463 25.9997 16.0485C25.9997 15.7833 25.8943 15.5289 25.7068 15.3414C25.5193 15.1539 25.2649 15.0485 24.9997 15.0485ZM20.9997 25.0485C20.8019 25.0485 20.6086 25.1072 20.4441 25.217C20.2797 25.3269 20.1515 25.4831 20.0758 25.6658C20.0001 25.8486 19.9803 26.0496 20.0189 26.2436C20.0575 26.4376 20.1527 26.6158 20.2926 26.7556C20.4324 26.8955 20.6106 26.9907 20.8046 27.0293C20.9986 27.0679 21.1996 27.0481 21.3824 26.9724C21.5651 26.8967 21.7213 26.7685 21.8312 26.6041C21.941 26.4396 21.9997 26.2463 21.9997 26.0485C21.9997 25.7833 21.8943 25.5289 21.7068 25.3414C21.5193 25.1539 21.2649 25.0485 20.9997 25.0485ZM20.9997 20.0485C20.8019 20.0485 20.6086 20.1072 20.4441 20.217C20.2797 20.3269 20.1515 20.4831 20.0758 20.6658C20.0001 20.8486 19.9803 21.0496 20.0189 21.2436C20.0575 21.4376 20.1527 21.6158 20.2926 21.7556C20.4324 21.8955 20.6106 21.9907 20.8046 22.0293C20.9986 22.0679 21.1996 22.0481 21.3824 21.9724C21.5651 21.8967 21.7213 21.7685 21.8312 21.6041C21.941 21.4396 21.9997 21.2463 21.9997 21.0485C21.9997 20.7833 21.8943 20.5289 21.7068 20.3414C21.5193 20.1539 21.2649 20.0485 20.9997 20.0485ZM20.9997 15.0485C20.8019 15.0485 20.6086 15.1072 20.4441 15.217C20.2797 15.3269 20.1515 15.4831 20.0758 15.6658C20.0001 15.8486 19.9803 16.0496 20.0189 16.2436C20.0575 16.4376 20.1527 16.6158 20.2926 16.7556C20.4324 16.8955 20.6106 16.9907 20.8046 17.0293C20.9986 17.0679 21.1996 17.0481 21.3824 16.9724C21.5651 16.8967 21.7213 16.7685 21.8312 16.6041C21.941 16.4396 21.9997 16.2463 21.9997 16.0485C21.9997 15.7833 21.8943 15.5289 21.7068 15.3414C21.5193 15.1539 21.2649 15.0485 20.9997 15.0485Z" fill="black"/>
</g>
</svg>
