<svg width="32" height="33" viewBox="0 0 32 33" fill="none" xmlns="http://www.w3.org/2000/svg">
<g id="Icon / business-outline">
<path id="Vector" d="M11 26.6523V30.6523M5 2.65234H17C17.5304 2.65234 18.0391 2.86306 18.4142 3.23813C18.7893 3.6132 19 4.12191 19 4.65234V30.4023C19 30.4686 18.9737 30.5322 18.9268 30.5791C18.8799 30.626 18.8163 30.6523 18.75 30.6523H3V4.65234C3 4.12191 3.21071 3.6132 3.58579 3.23813C3.96086 2.86306 4.46957 2.65234 5 2.65234ZM20 12.6523H27C27.5304 12.6523 28.0391 12.8631 28.4142 13.2381C28.7893 13.6132 29 14.1219 29 14.6523V30.6523H19V13.6523C19 13.3871 19.1054 13.1328 19.2929 12.9452C19.4804 12.7577 19.7348 12.6523 20 12.6523Z" stroke="black" stroke-width="1.5" stroke-linecap="round" stroke-linejoin="round"/>
<path id="Vector_2" d="M6.12968 27.6439C5.92258 27.671 5.71218 27.6325 5.52804 27.534C5.3439 27.4354 5.19524 27.2816 5.10294 27.0943C5.01064 26.9069 4.97932 26.6953 5.01339 26.4892C5.04746 26.2832 5.1452 26.0929 5.29289 25.9452C5.44059 25.7975 5.63082 25.6998 5.8369 25.6657C6.04297 25.6317 6.25454 25.663 6.44191 25.7553C6.62928 25.8476 6.78304 25.9962 6.88162 26.1804C6.9802 26.3645 7.01864 26.5749 6.99156 26.782C6.96297 27.0006 6.86297 27.2036 6.70711 27.3595C6.55124 27.5153 6.34825 27.6153 6.12968 27.6439ZM6.12968 22.6439C5.92258 22.671 5.71218 22.6325 5.52804 22.534C5.3439 22.4354 5.19524 22.2816 5.10294 22.0943C5.01064 21.9069 4.97932 21.6953 5.01339 21.4892C5.04746 21.2832 5.1452 21.0929 5.29289 20.9452C5.44059 20.7975 5.63082 20.6998 5.8369 20.6657C6.04297 20.6317 6.25454 20.663 6.44191 20.7553C6.62928 20.8476 6.78304 20.9962 6.88162 21.1804C6.9802 21.3645 7.01864 21.5749 6.99156 21.782C6.96297 22.0006 6.86297 22.2036 6.70711 22.3595C6.55124 22.5153 6.34825 22.6153 6.12968 22.6439ZM6.12968 17.6439C5.92258 17.671 5.71218 17.6325 5.52804 17.534C5.3439 17.4354 5.19524 17.2816 5.10294 17.0943C5.01064 16.9069 4.97932 16.6953 5.01339 16.4892C5.04746 16.2832 5.1452 16.0929 5.29289 15.9452C5.44059 15.7975 5.63082 15.6998 5.8369 15.6657C6.04297 15.6317 6.25454 15.663 6.44191 15.7553C6.62928 15.8476 6.78304 15.9962 6.88162 16.1804C6.9802 16.3645 7.01864 16.5749 6.99156 16.782C6.96297 17.0006 6.86297 17.2036 6.70711 17.3595C6.55124 17.5153 6.34825 17.6153 6.12968 17.6439ZM6.12968 12.6439C5.92258 12.671 5.71218 12.6325 5.52804 12.534C5.3439 12.4354 5.19524 12.2816 5.10294 12.0943C5.01064 11.9069 4.97932 11.6953 5.01339 11.4892C5.04746 11.2832 5.1452 11.0929 5.29289 10.9452C5.44059 10.7975 5.63082 10.6998 5.8369 10.6657C6.04297 10.6317 6.25454 10.663 6.44191 10.7553C6.62928 10.8476 6.78304 10.9962 6.88162 11.1804C6.9802 11.3645 7.01864 11.5749 6.99156 11.782C6.96297 12.0006 6.86297 12.2036 6.70711 12.3595C6.55124 12.5153 6.34825 12.6153 6.12968 12.6439ZM6.12968 7.6439C5.92258 7.67099 5.71218 7.63254 5.52804 7.53396C5.3439 7.43539 5.19524 7.28162 5.10294 7.09425C5.01064 6.90688 4.97932 6.69531 5.01339 6.48924C5.04746 6.28317 5.1452 6.09293 5.29289 5.94524C5.44059 5.79754 5.63082 5.6998 5.8369 5.66574C6.04297 5.63167 6.25454 5.66298 6.44191 5.75528C6.62928 5.84758 6.78304 5.99624 6.88162 6.18038C6.9802 6.36453 7.01864 6.57492 6.99156 6.78203C6.96297 7.00059 6.86297 7.20359 6.70711 7.35945C6.55124 7.51532 6.34825 7.61532 6.12968 7.6439ZM11.1297 22.6439C10.9226 22.671 10.7122 22.6325 10.528 22.534C10.3439 22.4354 10.1952 22.2816 10.1029 22.0943C10.0106 21.9069 9.97932 21.6953 10.0134 21.4892C10.0475 21.2832 10.1452 21.0929 10.2929 20.9452C10.4406 20.7975 10.6308 20.6998 10.8369 20.6657C11.043 20.6317 11.2545 20.663 11.4419 20.7553C11.6293 20.8476 11.783 20.9962 11.8816 21.1804C11.9802 21.3645 12.0186 21.5749 11.9916 21.782C11.963 22.0006 11.863 22.2036 11.7071 22.3595C11.5512 22.5153 11.3482 22.6153 11.1297 22.6439ZM11.1297 17.6439C10.9226 17.671 10.7122 17.6325 10.528 17.534C10.3439 17.4354 10.1952 17.2816 10.1029 17.0943C10.0106 16.9069 9.97932 16.6953 10.0134 16.4892C10.0475 16.2832 10.1452 16.0929 10.2929 15.9452C10.4406 15.7975 10.6308 15.6998 10.8369 15.6657C11.043 15.6317 11.2545 15.663 11.4419 15.7553C11.6293 15.8476 11.783 15.9962 11.8816 16.1804C11.9802 16.3645 12.0186 16.5749 11.9916 16.782C11.963 17.0006 11.863 17.2036 11.7071 17.3595C11.5512 17.5153 11.3482 17.6153 11.1297 17.6439ZM11.1297 12.6439C10.9226 12.671 10.7122 12.6325 10.528 12.534C10.3439 12.4354 10.1952 12.2816 10.1029 12.0943C10.0106 11.9069 9.97932 11.6953 10.0134 11.4892C10.0475 11.2832 10.1452 11.0929 10.2929 10.9452C10.4406 10.7975 10.6308 10.6998 10.8369 10.6657C11.043 10.6317 11.2545 10.663 11.4419 10.7553C11.6293 10.8476 11.783 10.9962 11.8816 11.1804C11.9802 11.3645 12.0186 11.5749 11.9916 11.782C11.963 12.0006 11.863 12.2036 11.7071 12.3595C11.5512 12.5153 11.3482 12.6153 11.1297 12.6439ZM11.1297 7.6439C10.9226 7.67099 10.7122 7.63254 10.528 7.53396C10.3439 7.43539 10.1952 7.28162 10.1029 7.09425C10.0106 6.90688 9.97932 6.69531 10.0134 6.48924C10.0475 6.28317 10.1452 6.09293 10.2929 5.94524C10.4406 5.79754 10.6308 5.6998 10.8369 5.66574C11.043 5.63167 11.2545 5.66298 11.4419 5.75528C11.6293 5.84758 11.783 5.99624 11.8816 6.18038C11.9802 6.36453 12.0186 6.57492 11.9916 6.78203C11.963 7.00059 11.863 7.20359 11.7071 7.35945C11.5512 7.51532 11.3482 7.61532 11.1297 7.6439ZM16.1297 27.6439C15.9226 27.671 15.7122 27.6325 15.528 27.534C15.3439 27.4354 15.1952 27.2816 15.1029 27.0943C15.0106 26.9069 14.9793 26.6953 15.0134 26.4892C15.0475 26.2832 15.1452 26.0929 15.2929 25.9452C15.4406 25.7975 15.6308 25.6998 15.8369 25.6657C16.043 25.6317 16.2545 25.663 16.4419 25.7553C16.6293 25.8476 16.783 25.9962 16.8816 26.1804C16.9802 26.3645 17.0186 26.5749 16.9916 26.782C16.963 27.0006 16.863 27.2036 16.7071 27.3595C16.5512 27.5153 16.3482 27.6153 16.1297 27.6439ZM16.1297 22.6439C15.9226 22.671 15.7122 22.6325 15.528 22.534C15.3439 22.4354 15.1952 22.2816 15.1029 22.0943C15.0106 21.9069 14.9793 21.6953 15.0134 21.4892C15.0475 21.2832 15.1452 21.0929 15.2929 20.9452C15.4406 20.7975 15.6308 20.6998 15.8369 20.6657C16.043 20.6317 16.2545 20.663 16.4419 20.7553C16.6293 20.8476 16.783 20.9962 16.8816 21.1804C16.9802 21.3645 17.0186 21.5749 16.9916 21.782C16.963 22.0006 16.863 22.2036 16.7071 22.3595C16.5512 22.5153 16.3482 22.6153 16.1297 22.6439ZM16.1297 17.6439C15.9226 17.671 15.7122 17.6325 15.528 17.534C15.3439 17.4354 15.1952 17.2816 15.1029 17.0943C15.0106 16.9069 14.9793 16.6953 15.0134 16.4892C15.0475 16.2832 15.1452 16.0929 15.2929 15.9452C15.4406 15.7975 15.6308 15.6998 15.8369 15.6657C16.043 15.6317 16.2545 15.663 16.4419 15.7553C16.6293 15.8476 16.783 15.9962 16.8816 16.1804C16.9802 16.3645 17.0186 16.5749 16.9916 16.782C16.963 17.0006 16.863 17.2036 16.7071 17.3595C16.5512 17.5153 16.3482 17.6153 16.1297 17.6439Z" fill="black"/>
<path id="Vector_3" d="M16.7087 12.3604C17.098 11.9711 17.0964 11.3383 16.7051 10.9471C16.3139 10.5558 15.6811 10.5542 15.2918 10.9435C14.9025 11.3328 14.9041 11.9656 15.2953 12.3569C15.6866 12.7481 16.3194 12.7497 16.7087 12.3604Z" fill="black"/>
<path id="Vector_4" d="M16.1297 7.6439C15.9226 7.67099 15.7122 7.63254 15.528 7.53396C15.3439 7.43539 15.1952 7.28162 15.1029 7.09425C15.0106 6.90688 14.9793 6.69531 15.0134 6.48924C15.0475 6.28317 15.1452 6.09293 15.2929 5.94524C15.4406 5.79754 15.6308 5.6998 15.8369 5.66574C16.043 5.63167 16.2545 5.66298 16.4419 5.75528C16.6293 5.84758 16.783 5.99624 16.8816 6.18038C16.9802 6.36453 17.0186 6.57492 16.9916 6.78203C16.963 7.00059 16.863 7.20359 16.7071 7.35945C16.5512 7.51532 16.3482 7.61532 16.1297 7.6439ZM24.9997 25.652C24.8019 25.652 24.6086 25.7107 24.4441 25.8206C24.2797 25.9304 24.1515 26.0866 24.0758 26.2693C24.0001 26.4521 23.9803 26.6531 24.0189 26.8471C24.0575 27.0411 24.1527 27.2193 24.2926 27.3591C24.4324 27.499 24.6106 27.5942 24.8046 27.6328C24.9986 27.6714 25.1996 27.6516 25.3824 27.5759C25.5651 27.5002 25.7213 27.372 25.8312 27.2076C25.941 27.0431 25.9997 26.8498 25.9997 26.652C25.9997 26.3868 25.8943 26.1325 25.7068 25.9449C25.5193 25.7574 25.2649 25.652 24.9997 25.652ZM24.9997 20.652C24.8019 20.652 24.6086 20.7107 24.4441 20.8206C24.2797 20.9304 24.1515 21.0866 24.0758 21.2693C24.0001 21.4521 23.9803 21.6531 24.0189 21.8471C24.0575 22.0411 24.1527 22.2193 24.2926 22.3591C24.4324 22.499 24.6106 22.5942 24.8046 22.6328C24.9986 22.6714 25.1996 22.6516 25.3824 22.5759C25.5651 22.5002 25.7213 22.372 25.8312 22.2076C25.941 22.0431 25.9997 21.8498 25.9997 21.652C25.9997 21.3868 25.8943 21.1325 25.7068 20.9449C25.5193 20.7574 25.2649 20.652 24.9997 20.652ZM24.9997 15.652C24.8019 15.652 24.6086 15.7107 24.4441 15.8206C24.2797 15.9304 24.1515 16.0866 24.0758 16.2693C24.0001 16.4521 23.9803 16.6531 24.0189 16.8471C24.0575 17.0411 24.1527 17.2193 24.2926 17.3591C24.4324 17.499 24.6106 17.5942 24.8046 17.6328C24.9986 17.6714 25.1996 17.6516 25.3824 17.5759C25.5651 17.5002 25.7213 17.372 25.8312 17.2076C25.941 17.0431 25.9997 16.8498 25.9997 16.652C25.9997 16.3868 25.8943 16.1325 25.7068 15.9449C25.5193 15.7574 25.2649 15.652 24.9997 15.652ZM20.9997 25.652C20.8019 25.652 20.6086 25.7107 20.4441 25.8206C20.2797 25.9304 20.1515 26.0866 20.0758 26.2693C20.0001 26.4521 19.9803 26.6531 20.0189 26.8471C20.0575 27.0411 20.1527 27.2193 20.2926 27.3591C20.4324 27.499 20.6106 27.5942 20.8046 27.6328C20.9986 27.6714 21.1996 27.6516 21.3824 27.5759C21.5651 27.5002 21.7213 27.372 21.8312 27.2076C21.941 27.0431 21.9997 26.8498 21.9997 26.652C21.9997 26.3868 21.8943 26.1325 21.7068 25.9449C21.5193 25.7574 21.2649 25.652 20.9997 25.652ZM20.9997 20.652C20.8019 20.652 20.6086 20.7107 20.4441 20.8206C20.2797 20.9304 20.1515 21.0866 20.0758 21.2693C20.0001 21.4521 19.9803 21.6531 20.0189 21.8471C20.0575 22.0411 20.1527 22.2193 20.2926 22.3591C20.4324 22.499 20.6106 22.5942 20.8046 22.6328C20.9986 22.6714 21.1996 22.6516 21.3824 22.5759C21.5651 22.5002 21.7213 22.372 21.8312 22.2076C21.941 22.0431 21.9997 21.8498 21.9997 21.652C21.9997 21.3868 21.8943 21.1325 21.7068 20.9449C21.5193 20.7574 21.2649 20.652 20.9997 20.652ZM20.9997 15.652C20.8019 15.652 20.6086 15.7107 20.4441 15.8206C20.2797 15.9304 20.1515 16.0866 20.0758 16.2693C20.0001 16.4521 19.9803 16.6531 20.0189 16.8471C20.0575 17.0411 20.1527 17.2193 20.2926 17.3591C20.4324 17.499 20.6106 17.5942 20.8046 17.6328C20.9986 17.6714 21.1996 17.6516 21.3824 17.5759C21.5651 17.5002 21.7213 17.372 21.8312 17.2076C21.941 17.0431 21.9997 16.8498 21.9997 16.652C21.9997 16.3868 21.8943 16.1325 21.7068 15.9449C21.5193 15.7574 21.2649 15.652 20.9997 15.652Z" fill="black"/>
</g>
</svg>
