<svg width="32" height="33" viewBox="0 0 32 33" fill="none" xmlns="http://www.w3.org/2000/svg">
<g id="Cambio de boleto" clip-path="url(#clip0_2159_9701)">
<path id="Vector" d="M23.545 9.11515C23.0251 8.59504 22.7207 7.89782 22.6926 7.16292C22.6646 6.42802 22.915 5.70963 23.3938 5.1514C23.4334 5.10498 23.454 5.0453 23.4514 4.98433C23.4489 4.92336 23.4234 4.86561 23.38 4.82265L20.6219 2.0614C20.5763 2.01583 20.5145 1.99023 20.45 1.99023C20.3856 1.99023 20.3238 2.01583 20.2782 2.0614L15.8819 6.45765C15.7197 6.61982 15.5975 6.81754 15.525 7.03515C15.4528 7.25327 15.3308 7.45155 15.1686 7.61428C15.0064 7.77702 14.8085 7.89972 14.5907 7.97265C14.3729 8.04521 14.175 8.16739 14.0125 8.32953L2.73816 19.6014C2.69259 19.647 2.66699 19.7088 2.66699 19.7733C2.66699 19.8377 2.69259 19.8996 2.73816 19.9452L5.49629 22.7033C5.53924 22.7466 5.597 22.7721 5.65796 22.7747C5.71893 22.7772 5.77861 22.7566 5.82504 22.717C6.38314 22.2377 7.1017 21.9869 7.83685 22.0148C8.572 22.0426 9.26949 22.3472 9.78969 22.8674C10.3099 23.3876 10.6144 24.0851 10.6423 24.8202C10.6702 25.5554 10.4193 26.2739 9.94004 26.832C9.90044 26.8785 9.87985 26.9381 9.8824 26.9991C9.88495 27.0601 9.91045 27.1178 9.95379 27.1608L12.7119 29.9189C12.7575 29.9645 12.8193 29.9901 12.8838 29.9901C12.9482 29.9901 13.0101 29.9645 13.0557 29.9189L24.3307 18.6445C24.4928 18.4821 24.615 18.2842 24.6875 18.0664C24.7597 17.8483 24.8818 17.65 25.044 17.4873C25.2062 17.3245 25.404 17.2018 25.6219 17.1289C25.8395 17.0564 26.0373 16.9342 26.1994 16.772L30.5957 12.3758C30.6412 12.3302 30.6668 12.2684 30.6668 12.2039C30.6668 12.1394 30.6412 12.0776 30.5957 12.032L27.8375 9.2739C27.7946 9.23057 27.7368 9.20507 27.6759 9.20252C27.6149 9.19997 27.5552 9.22055 27.5088 9.26015C26.9513 9.73976 26.2334 9.99127 25.4985 9.96439C24.7636 9.9375 24.066 9.63421 23.545 9.11515Z" fill="#E6ECF6" stroke="black" stroke-width="1.5" stroke-miterlimit="10"/>
<path id="Vector_2" d="M16.3229 8.76625L15.291 7.73438M19.0741 11.5175L18.386 10.83M21.8254 14.2694L21.1379 13.5812M24.921 17.3644L23.8891 16.3325" stroke="black" stroke-width="1.5" stroke-miterlimit="10" stroke-linecap="round"/>
<path id="Vector_3" fill-rule="evenodd" clip-rule="evenodd" d="M3.58477 11.9608C1.61501 10.1558 1.56139 7.17007 3.48682 5.23774C5.28629 3.43183 8.16093 3.23299 10.1085 4.70672L9.33477 5.48326C9.20881 5.60968 9.19247 5.76745 9.24894 5.92284C9.24977 5.99269 9.32341 6.06017 9.39704 6.12764C9.43386 6.16138 9.48909 6.21199 9.5803 6.22647L12.6841 6.92862C12.867 6.99252 13.0482 6.91672 13.1561 6.80836C13.2821 6.68195 13.3712 6.5218 13.278 6.33267L12.4055 3.39118C12.3682 3.32252 12.349 3.2358 12.3122 3.20206L12.2754 3.16832C12.2385 3.13458 12.1289 3.10323 12.0741 3.08755C11.9277 3.02246 11.7281 3.08139 11.5841 3.22587L10.7923 4.02047C8.45855 2.22743 4.98304 2.42844 2.80569 4.6136C0.520369 6.90712 0.56304 10.5047 2.90097 12.647L3.58477 11.9608Z" fill="black"/>
<path id="Vector_4" fill-rule="evenodd" clip-rule="evenodd" d="M28.3151 20.7851C30.3024 22.5707 30.3852 25.5558 28.4787 27.5068C26.6969 29.3302 23.8244 29.5571 21.8625 28.1024L22.6286 27.3184C22.7533 27.1907 22.7681 27.0328 22.7101 26.878C22.7086 26.8081 22.6343 26.7414 22.5601 26.6746C22.5229 26.6412 22.4672 26.5912 22.3758 26.5776L19.2653 25.9057C19.0818 25.8436 18.9014 25.9212 18.7945 26.0306C18.6698 26.1582 18.5822 26.3193 18.6773 26.5075L19.5785 29.4403C19.6164 29.5086 19.6365 29.5951 19.6736 29.6285L19.7107 29.6619C19.7479 29.6953 19.8578 29.7255 19.9128 29.7407C20.0599 29.8043 20.2589 29.7435 20.4014 29.5976L21.1854 28.7953C23.5366 30.5655 27.0099 30.3306 29.1659 28.1243C31.4287 25.8086 31.3509 22.2116 28.9922 20.0922L28.3151 20.7851Z" fill="black"/>
</g>
<defs>
<clipPath id="clip0_2159_9701">
<rect width="32" height="32" fill="white" transform="translate(0 0.65625)"/>
</clipPath>
</defs>
</svg>
