<svg width="32" height="33" viewBox="0 0 32 33" fill="none" xmlns="http://www.w3.org/2000/svg">
<g id="Confirmaci&#195;&#179;n" clip-path="url(#clip0_2159_9700)">
<path id="Vector" d="M23.545 10.6874C23.0251 10.1673 22.7207 9.47008 22.6926 8.73519C22.6646 8.00029 22.915 7.28189 23.3938 6.72367C23.4334 6.67724 23.454 6.61756 23.4514 6.5566C23.4489 6.49563 23.4234 6.43788 23.38 6.39492L20.6219 3.63367C20.5763 3.5881 20.5145 3.5625 20.45 3.5625C20.3856 3.5625 20.3238 3.5881 20.2782 3.63367L15.8819 8.02992C15.7197 8.19208 15.5975 8.38981 15.525 8.60742C15.4528 8.82553 15.3308 9.02382 15.1686 9.18655C15.0064 9.34928 14.8085 9.47198 14.5907 9.54492C14.3729 9.61748 14.175 9.73965 14.0125 9.90179L2.73816 21.1737C2.69259 21.2193 2.66699 21.2811 2.66699 21.3455C2.66699 21.41 2.69259 21.4718 2.73816 21.5174L5.49629 24.2755C5.53924 24.3189 5.597 24.3444 5.65796 24.3469C5.71893 24.3495 5.77861 24.3289 5.82504 24.2893C6.38314 23.81 7.1017 23.5592 7.83685 23.587C8.572 23.6149 9.26949 23.9194 9.78969 24.4396C10.3099 24.9598 10.6144 25.6573 10.6423 26.3925C10.6702 27.1276 10.4193 27.8462 9.94004 28.4043C9.90044 28.4507 9.87985 28.5104 9.8824 28.5714C9.88495 28.6323 9.91045 28.6901 9.95379 28.733L12.7119 31.4912C12.7575 31.5367 12.8193 31.5623 12.8838 31.5623C12.9482 31.5623 13.0101 31.5367 13.0557 31.4912L24.3307 20.2168C24.4928 20.0543 24.615 19.8564 24.6875 19.6387C24.7597 19.4206 24.8818 19.2223 25.044 19.0595C25.2062 18.8968 25.404 18.7741 25.6219 18.7012C25.8395 18.6287 26.0373 18.5065 26.1994 18.3443L30.5957 13.948C30.6412 13.9025 30.6668 13.8406 30.6668 13.7762C30.6668 13.7117 30.6412 13.6499 30.5957 13.6043L27.8375 10.8462C27.7946 10.8028 27.7368 10.7773 27.6759 10.7748C27.6149 10.7722 27.5552 10.7928 27.5088 10.8324C26.9513 11.312 26.2334 11.5635 25.4985 11.5367C24.7636 11.5098 24.066 11.2065 23.545 10.6874Z" fill="#E6ECF6" stroke="black" stroke-width="1.5" stroke-miterlimit="10"/>
<path id="Vector_2" d="M16.3229 10.3405L15.291 9.30859M19.0741 13.0917L18.386 12.4042M21.8254 15.8436L21.1379 15.1555M24.921 18.9386L23.8891 17.9067" stroke="black" stroke-width="1.5" stroke-miterlimit="10" stroke-linecap="round"/>
<path id="Vector_3" fill-rule="evenodd" clip-rule="evenodd" d="M3.58477 13.535C1.61502 11.73 1.56139 8.74429 3.48682 6.81196C5.28629 5.00604 8.16093 4.80721 10.1085 6.28094L9.33477 7.05748C9.20881 7.1839 9.19247 7.34167 9.24894 7.49706C9.24977 7.56691 9.32341 7.63439 9.39704 7.70186C9.43386 7.7356 9.48909 7.78621 9.5803 7.80069L12.6841 8.50284C12.867 8.56674 13.0482 8.49094 13.1561 8.38258C13.2821 8.25617 13.3712 8.09601 13.278 7.90689L12.4055 4.9654C12.3682 4.89674 12.349 4.81001 12.3122 4.77628L12.2754 4.74254C12.2385 4.7088 12.1289 4.67745 12.0741 4.66177C11.9277 4.59667 11.7281 4.65561 11.5841 4.80009L10.7923 5.59469C8.45855 3.80165 4.98304 4.00266 2.80569 6.18782C0.52037 8.48133 0.56304 12.0789 2.90097 14.2212L3.58477 13.535Z" fill="black"/>
<g id="Icon / checkmark-circle-outline" clip-path="url(#clip1_2159_9700)">
<path id="Vector_4" d="M29.333 27.5645C29.333 25.3561 27.5413 23.5645 25.333 23.5645C23.1247 23.5645 21.333 25.3561 21.333 27.5645C21.333 29.7728 23.1247 31.5645 25.333 31.5645C27.5413 31.5645 29.333 29.7728 29.333 27.5645Z" fill="#E6ECF6" stroke="black" stroke-miterlimit="10"/>
<path id="Vector_5" d="M27.333 25.8965L24.533 29.2298L23.333 27.8965" stroke="black" stroke-linecap="round" stroke-linejoin="round"/>
</g>
</g>
<defs>
<clipPath id="clip0_2159_9700">
<rect width="32" height="32" fill="white" transform="translate(0 0.896484)"/>
</clipPath>
<clipPath id="clip1_2159_9700">
<rect width="10.6667" height="10.6667" fill="white" transform="translate(20 22.2305)"/>
</clipPath>
</defs>
</svg>
