<svg width="32" height="33" viewBox="0 0 32 33" fill="none" xmlns="http://www.w3.org/2000/svg">
<g id="Cuponera" clip-path="url(#clip0_2159_9699)">
<path id="Vector" d="M21.8956 12.9118C21.4499 12.466 21.189 11.8684 21.1649 11.2384C21.1409 10.6085 21.3555 9.99276 21.7659 9.51428C21.7999 9.47448 21.8175 9.42333 21.8153 9.37107C21.8131 9.31881 21.7913 9.26931 21.7541 9.23249L19.39 6.86569C19.3509 6.82663 19.2979 6.80469 19.2427 6.80469C19.1874 6.80469 19.1345 6.82663 19.0954 6.86569L15.3271 10.6339C15.1881 10.7729 15.0834 10.9424 15.0212 11.1289C14.9593 11.3159 14.8547 11.4858 14.7157 11.6253C14.5767 11.7648 14.4071 11.87 14.2203 11.9325C14.0337 11.9947 13.8641 12.0994 13.7248 12.2384L4.061 21.9001C4.02194 21.9391 4 21.9921 4 22.0474C4 22.1026 4.02194 22.1556 4.061 22.1947L6.42512 24.5588C6.46194 24.596 6.51145 24.6178 6.5637 24.62C6.61596 24.6222 6.66712 24.6046 6.70691 24.5706C7.18529 24.1598 7.8012 23.9448 8.43133 23.9687C9.06146 23.9926 9.65932 24.2536 10.1052 24.6995C10.5511 25.1454 10.8121 25.7432 10.836 26.3734C10.8599 27.0035 10.6449 27.6194 10.2341 28.0978C10.2001 28.1376 10.1825 28.1887 10.1847 28.241C10.1869 28.2932 10.2087 28.3427 10.2459 28.3796L12.61 30.7437C12.6491 30.7827 12.7021 30.8047 12.7573 30.8047C12.8126 30.8047 12.8655 30.7827 12.9046 30.7437L22.569 21.0799C22.7079 20.9406 22.8127 20.771 22.8749 20.5843C22.9368 20.3974 23.0414 20.2274 23.1804 20.0879C23.3194 19.9485 23.489 19.8433 23.6758 19.7808C23.8623 19.7186 24.0318 19.6139 24.1708 19.4749L27.939 15.7066C27.9781 15.6676 28 15.6146 28 15.5593C28 15.5041 27.9781 15.4511 27.939 15.412L25.5749 13.0479C25.5381 13.0107 25.4886 12.9889 25.4363 12.9867C25.384 12.9845 25.3329 13.0021 25.2931 13.0361C24.8153 13.4472 24.1999 13.6628 23.57 13.6397C22.9401 13.6167 22.3421 13.3567 21.8956 12.9118Z" fill="#E6ECF6" stroke="black" stroke-width="1.5" stroke-miterlimit="10"/>
<path id="Vector_2" d="M23.2286 7.57976C22.7829 7.13395 22.522 6.53633 22.4979 5.90641C22.4739 5.2765 22.6885 4.66073 23.0989 4.18225C23.1329 4.14245 23.1505 4.0913 23.1483 4.03904C23.1462 3.98678 23.1243 3.93728 23.0871 3.90046L20.723 1.53366C20.6839 1.4946 20.631 1.47266 20.5757 1.47266C20.5205 1.47266 20.4675 1.4946 20.4284 1.53366L16.6601 5.30189C16.5211 5.44089 16.4164 5.61037 16.3543 5.7969C16.2924 5.98385 16.1878 6.15381 16.0487 6.2933C15.9097 6.43278 15.7401 6.53796 15.5534 6.60047C15.3667 6.66267 15.1971 6.76739 15.0578 6.90637L5.39401 16.568C5.35495 16.6071 5.33301 16.6601 5.33301 16.7154C5.33301 16.7706 5.35495 16.8236 5.39401 16.8627L7.75813 19.2268C7.79495 19.2639 7.84445 19.2858 7.89671 19.288C7.94897 19.2902 8.00012 19.2725 8.03992 19.2386C8.5183 18.8277 9.1342 18.6127 9.76434 18.6366C10.3945 18.6605 10.9923 18.9216 11.4382 19.3674C11.8841 19.8133 12.1451 20.4112 12.169 21.0413C12.1929 21.6715 11.9779 22.2874 11.5671 22.7657C11.5331 22.8055 11.5155 22.8567 11.5177 22.909C11.5199 22.9612 11.5417 23.0107 11.5789 23.0475L13.943 25.4117C13.9821 25.4507 14.0351 25.4727 14.0903 25.4727C14.1456 25.4727 14.1986 25.4507 14.2376 25.4117L23.902 15.7478C24.041 15.6086 24.1457 15.439 24.2079 15.2523C24.2698 15.0654 24.3744 14.8954 24.5134 14.7559C24.6524 14.6164 24.822 14.5113 25.0088 14.4487C25.1953 14.3866 25.3648 14.2819 25.5038 14.1428L29.272 10.3746C29.3111 10.3355 29.333 10.2825 29.333 10.2273C29.333 10.172 29.3111 10.119 29.272 10.08L26.9079 7.71584C26.8711 7.67869 26.8216 7.65683 26.7693 7.65465C26.717 7.65246 26.6659 7.67011 26.6261 7.70405C26.1483 8.11515 25.5329 8.33072 24.903 8.30768C24.2731 8.28464 23.6751 8.02467 23.2286 7.57976Z" fill="#E6ECF6" stroke="black" stroke-width="1.5" stroke-miterlimit="10" stroke-linejoin="round"/>
<path id="Vector_3" d="M16.8572 7.6619L16 6.80469M19.1428 9.94747L18.5711 9.37634M21.4283 12.2336L20.8572 11.6619M24 14.8047L23.1428 13.9475" stroke="black" stroke-width="1.5" stroke-miterlimit="10" stroke-linecap="round"/>
</g>
<defs>
<clipPath id="clip0_2159_9699">
<rect width="32" height="32" fill="white" transform="translate(0 0.138672)"/>
</clipPath>
</defs>
</svg>
