<svg width="32" height="33" viewBox="0 0 32 33" fill="none" xmlns="http://www.w3.org/2000/svg">
<g id="Devoluci&#195;&#179;n" clip-path="url(#clip0_2159_9702)">
<path id="Vector" d="M23.545 9.88469C23.0251 9.36457 22.7207 8.66735 22.6926 7.93245C22.6646 7.19756 22.915 6.47916 23.3938 5.92094C23.4334 5.87451 23.454 5.81483 23.4514 5.75386C23.4489 5.69289 23.4234 5.63514 23.38 5.59219L20.6219 2.83094C20.5763 2.78536 20.5145 2.75977 20.45 2.75977C20.3856 2.75977 20.3238 2.78536 20.2782 2.83094L15.8819 7.22719C15.7197 7.38935 15.5975 7.58708 15.525 7.80469C15.4528 8.0228 15.3308 8.22108 15.1686 8.38381C15.0064 8.54655 14.8085 8.66925 14.5907 8.74219C14.3729 8.81475 14.175 8.93692 14.0125 9.09906L2.73816 20.3709C2.69259 20.4165 2.66699 20.4783 2.66699 20.5428C2.66699 20.6073 2.69259 20.6691 2.73816 20.7147L5.49629 23.4728C5.53924 23.5161 5.597 23.5417 5.65796 23.5442C5.71893 23.5468 5.77861 23.5262 5.82504 23.4866C6.38314 23.0072 7.1017 22.7564 7.83685 22.7843C8.572 22.8122 9.26949 23.1167 9.78969 23.6369C10.3099 24.1571 10.6144 24.8546 10.6423 25.5898C10.6702 26.3249 10.4193 27.0435 9.94004 27.6016C9.90044 27.648 9.87985 27.7077 9.8824 27.7686C9.88495 27.8296 9.91045 27.8874 9.95379 27.9303L12.7119 30.6884C12.7575 30.734 12.8193 30.7596 12.8838 30.7596C12.9482 30.7596 13.0101 30.734 13.0557 30.6884L24.3307 19.4141C24.4928 19.2516 24.615 19.0537 24.6875 18.8359C24.7597 18.6178 24.8818 18.4195 25.044 18.2568C25.2062 18.0941 25.404 17.9714 25.6219 17.8984C25.8395 17.826 26.0373 17.7038 26.1994 17.5416L30.5957 13.1453C30.6412 13.0997 30.6668 13.0379 30.6668 12.9734C30.6668 12.909 30.6412 12.8472 30.5957 12.8016L27.8375 10.0434C27.7946 10.0001 27.7368 9.9746 27.6759 9.97205C27.6149 9.9695 27.5552 9.99009 27.5088 10.0297C26.9513 10.5093 26.2334 10.7608 25.4985 10.7339C24.7636 10.707 24.066 10.4037 23.545 9.88469Z" fill="#E6ECF6" stroke="black" stroke-width="1.5" stroke-miterlimit="10"/>
<path id="Vector_2" d="M16.3229 9.53773L15.291 8.50586M19.0741 12.289L18.386 11.6015M21.8254 15.0409L21.1379 14.3527M24.921 18.1359L23.8891 17.104" stroke="black" stroke-width="1.5" stroke-miterlimit="10" stroke-linecap="round"/>
<path id="Vector_3" d="M28.8 26.6909C28.8 27.1587 28.6277 27.533 28.2585 27.8371C27.9138 28.1412 27.3969 28.3283 26.7077 28.3985V29.4277H26.0431V28.4219C25.2062 28.3985 24.5169 28.2815 24 28.0476V27.0418C24.2954 27.1821 24.6154 27.2991 25.0092 27.3693C25.4031 27.4628 25.7477 27.5096 26.0431 27.5096V25.7084L25.6246 25.5681C25.0831 25.3576 24.6646 25.1236 24.4185 24.8429C24.1723 24.5622 24.0492 24.2114 24.0492 23.8137C24.0492 23.3693 24.2215 23.0184 24.5908 22.7377C24.96 22.457 25.4523 22.2932 26.0677 22.2231V21.4277H26.7077V22.2231C27.3969 22.2464 28.0369 22.3868 28.6523 22.6207L28.2831 23.4862C27.7662 23.2991 27.2492 23.1587 26.7077 23.1353V24.8663L27.1015 25.0067C27.7415 25.2406 28.1846 25.4745 28.4308 25.7552C28.6769 26.0125 28.8 26.3166 28.8 26.6909ZM25.2308 23.8137C25.2308 24.0008 25.28 24.1412 25.4031 24.2581C25.5262 24.3751 25.7477 24.4921 26.0431 24.609V23.1587C25.7723 23.2055 25.5754 23.2757 25.4277 23.3926C25.3046 23.5096 25.2308 23.65 25.2308 23.8137ZM27.5938 26.7611C27.5938 26.5739 27.52 26.4336 27.3969 26.2932C27.2492 26.1763 27.0277 26.0593 26.7077 25.9424V27.4628C27.2985 27.416 27.5938 27.1587 27.5938 26.7611Z" fill="black"/>
<path id="Vector_4" fill-rule="evenodd" clip-rule="evenodd" d="M3.58477 12.7322C1.61502 10.9273 1.56139 7.94156 3.48682 6.00923C5.28629 4.20331 8.16093 4.00448 10.1085 5.4782L9.33477 6.25475C9.20881 6.38116 9.19247 6.53893 9.24894 6.69432C9.24977 6.76418 9.32341 6.83165 9.39704 6.89913C9.43386 6.93287 9.48909 6.98347 9.5803 6.99796L12.6841 7.70011C12.867 7.76401 13.0482 7.6882 13.1561 7.57985C13.2821 7.45343 13.3712 7.29328 13.278 7.10415L12.4055 4.16267C12.3682 4.094 12.349 4.00728 12.3122 3.97354L12.2754 3.9398C12.2385 3.90607 12.1289 3.87471 12.0741 3.85903C11.9277 3.79394 11.7281 3.85288 11.5841 3.99735L10.7923 4.79196C8.45855 2.99891 4.98304 3.19993 2.80569 5.38509C0.52037 7.6786 0.56304 11.2762 2.90097 13.4185L3.58477 12.7322Z" fill="black"/>
</g>
<defs>
<clipPath id="clip0_2159_9702">
<rect width="32" height="32" fill="white" transform="translate(0 0.09375)"/>
</clipPath>
</defs>
</svg>
