<svg width="32" height="33" viewBox="0 0 32 33" fill="none" xmlns="http://www.w3.org/2000/svg">
<g id="Icon / help-circle-outline">
<path id="Vector" d="M16 5.27344C13.8244 5.27344 11.6977 5.91858 9.88873 7.12727C8.07979 8.33597 6.66989 10.0539 5.83733 12.0639C5.00477 14.0739 4.78693 16.2856 5.21137 18.4194C5.6358 20.5532 6.68345 22.5132 8.22183 24.0516C9.76021 25.59 11.7202 26.6376 13.854 27.0621C15.9878 27.4865 18.1995 27.2687 20.2095 26.4361C22.2195 25.6035 23.9375 24.1937 25.1462 22.3847C26.3549 20.5758 27 18.449 27 16.2734C27 13.3561 25.8411 10.5582 23.7782 8.49526C21.7153 6.43236 18.9174 5.27344 16 5.27344Z" stroke="black" stroke-width="1.5" stroke-miterlimit="10"/>
<path id="Vector_2" d="M12.5 12.917C12.5 12.917 12.5525 11.8233 13.7231 10.8814C14.4175 10.322 15.25 10.1602 16 10.1489C16.6831 10.1402 17.2931 10.2533 17.6581 10.427C18.2831 10.7245 19.5 11.4508 19.5 12.9952C19.5 14.6202 18.4375 15.3583 17.2269 16.1702C16.0163 16.982 15.6875 17.8633 15.6875 18.7739" stroke="black" stroke-width="1.5" stroke-miterlimit="10" stroke-linecap="round"/>
<path id="Vector_3" d="M15.625 23.2734C16.3154 23.2734 16.875 22.7138 16.875 22.0234C16.875 21.3331 16.3154 20.7734 15.625 20.7734C14.9346 20.7734 14.375 21.3331 14.375 22.0234C14.375 22.7138 14.9346 23.2734 15.625 23.2734Z" fill="black"/>
</g>
</svg>
