<svg width="32" height="33" viewBox="0 0 32 33" fill="none" xmlns="http://www.w3.org/2000/svg">
<g id="Icon / help-circle-outline">
<path id="Vector" d="M16 5.80859C13.8244 5.80859 11.6977 6.45373 9.88873 7.66243C8.07979 8.87112 6.66989 10.5891 5.83733 12.5991C5.00477 14.6091 4.78693 16.8208 5.21137 18.9546C5.6358 21.0884 6.68345 23.0484 8.22183 24.5868C9.76021 26.1251 11.7202 27.1728 13.854 27.5972C15.9878 28.0217 18.1995 27.8038 20.2095 26.9713C22.2195 26.1387 23.9375 24.7288 25.1462 22.9199C26.3549 21.1109 27 18.9842 27 16.8086C27 13.8912 25.8411 11.0933 23.7782 9.03042C21.7153 6.96752 18.9174 5.80859 16 5.80859Z" fill="#E6ECF6" stroke="black" stroke-width="1.5" stroke-miterlimit="10"/>
<path id="Vector_2" d="M12.5 13.4522C12.5 13.4522 12.5525 12.3584 13.7231 11.4166C14.4175 10.8572 15.25 10.6953 16 10.6841C16.6831 10.6753 17.2931 10.7884 17.6581 10.9622C18.2831 11.2597 19.5 11.9859 19.5 13.5303C19.5 15.1553 18.4375 15.8934 17.2269 16.7053C16.0163 17.5172 15.6875 18.3984 15.6875 19.3091" stroke="black" stroke-width="1.5" stroke-miterlimit="10" stroke-linecap="round"/>
<path id="Vector_3" d="M15.625 23.8086C16.3154 23.8086 16.875 23.2489 16.875 22.5586C16.875 21.8682 16.3154 21.3086 15.625 21.3086C14.9346 21.3086 14.375 21.8682 14.375 22.5586C14.375 23.2489 14.9346 23.8086 15.625 23.8086Z" fill="black"/>
</g>
</svg>
