<svg width="32" height="33" viewBox="0 0 32 33" fill="none" xmlns="http://www.w3.org/2000/svg">
<g id="Icon / ticket-outline">
<path id="Vector" d="M22.878 9.91203C22.3581 9.39191 22.0537 8.69469 22.0256 7.95979C21.9976 7.2249 22.248 6.5065 22.7268 5.94828C22.7664 5.90185 22.787 5.84217 22.7844 5.78121C22.7819 5.72024 22.7564 5.66249 22.713 5.61953L19.9549 2.85828C19.9093 2.81271 19.8475 2.78711 19.783 2.78711C19.7186 2.78711 19.6568 2.81271 19.6112 2.85828L15.2149 7.25453C15.0527 7.41669 14.9305 7.61442 14.858 7.83203C14.7858 8.05014 14.6638 8.24843 14.5016 8.41116C14.3394 8.57389 14.1415 8.69659 13.9237 8.76953C13.7059 8.84209 13.508 8.96426 13.3455 9.1264L2.07117 20.3983C2.0256 20.4439 2 20.5057 2 20.5702C2 20.6346 2.0256 20.6964 2.07117 20.742L4.82929 23.5002C4.87225 23.5435 4.93 23.569 4.99097 23.5715C5.05194 23.5741 5.11162 23.5535 5.15804 23.5139C5.71615 23.0346 6.4347 22.7838 7.16985 22.8116C7.905 22.8395 8.6025 23.144 9.1227 23.6642C9.6429 24.1845 9.94743 24.8819 9.9753 25.6171C10.0032 26.3522 9.75236 27.0708 9.27304 27.6289C9.23344 27.6753 9.21286 27.735 9.21541 27.796C9.21796 27.8569 9.24346 27.9147 9.28679 27.9577L12.0449 30.7158C12.0905 30.7613 12.1523 30.7869 12.2168 30.7869C12.2813 30.7869 12.3431 30.7613 12.3887 30.7158L23.6637 19.4414C23.8258 19.2789 23.948 19.081 24.0205 18.8633C24.0928 18.6452 24.2148 18.4469 24.377 18.2841C24.5392 18.1214 24.7371 17.9987 24.9549 17.9258C25.1725 17.8533 25.3703 17.7311 25.5324 17.5689L29.9287 13.1727C29.9742 13.1271 29.9998 13.0652 29.9998 13.0008C29.9998 12.9363 29.9742 12.8745 29.9287 12.8289L27.1705 10.0708C27.1276 10.0274 27.0698 10.0019 27.0089 9.99939C26.9479 9.99684 26.8882 10.0174 26.8418 10.057C26.2843 10.5366 25.5664 10.7881 24.8315 10.7613C24.0966 10.7344 23.399 10.4311 22.878 9.91203Z" stroke="black" stroke-width="1.5" stroke-miterlimit="10"/>
<path id="Vector_2" d="M15.6559 9.56508L14.624 8.5332M18.4071 12.3163L17.719 11.6288M21.1584 15.0682L20.4709 14.3801M24.254 18.1632L23.2221 17.1313" stroke="black" stroke-width="1.5" stroke-miterlimit="10" stroke-linecap="round"/>
</g>
</svg>
