<svg width="32" height="33" viewBox="0 0 32 33" fill="none" xmlns="http://www.w3.org/2000/svg">
<g id="Icon / ticket-outline">
<path id="Vector" d="M22.878 9.50383C22.3581 8.98371 22.0537 8.28649 22.0256 7.55159C21.9976 6.8167 22.248 6.0983 22.7268 5.54008C22.7664 5.49365 22.787 5.43397 22.7844 5.373C22.7819 5.31203 22.7564 5.25428 22.713 5.21133L19.9549 2.45008C19.9093 2.40451 19.8475 2.37891 19.783 2.37891C19.7186 2.37891 19.6568 2.40451 19.6112 2.45008L15.2149 6.84633C15.0527 7.00849 14.9305 7.20622 14.858 7.42383C14.7858 7.64194 14.6638 7.84022 14.5016 8.00296C14.3394 8.16569 14.1415 8.28839 13.9237 8.36133C13.7059 8.43389 13.508 8.55606 13.3455 8.7182L2.07117 19.9901C2.0256 20.0357 2 20.0975 2 20.162C2 20.2264 2.0256 20.2882 2.07117 20.3338L4.82929 23.092C4.87225 23.1353 4.93 23.1608 4.99097 23.1633C5.05194 23.1659 5.11162 23.1453 5.15804 23.1057C5.71615 22.6264 6.4347 22.3756 7.16985 22.4034C7.905 22.4313 8.6025 22.7358 9.1227 23.256C9.6429 23.7762 9.94743 24.4737 9.9753 25.2089C10.0032 25.944 9.75236 26.6626 9.27304 27.2207C9.23344 27.2671 9.21286 27.3268 9.21541 27.3878C9.21796 27.4487 9.24346 27.5065 9.28679 27.5495L12.0449 30.3076C12.0905 30.3531 12.1523 30.3787 12.2168 30.3787C12.2813 30.3787 12.3431 30.3531 12.3887 30.3076L23.6637 19.0332C23.8258 18.8707 23.948 18.6728 24.0205 18.4551C24.0928 18.237 24.2148 18.0387 24.377 17.8759C24.5392 17.7132 24.7371 17.5905 24.9549 17.5176C25.1725 17.4451 25.3703 17.3229 25.5324 17.1607L29.9287 12.7645C29.9742 12.7189 29.9998 12.657 29.9998 12.5926C29.9998 12.5281 29.9742 12.4663 29.9287 12.4207L27.1705 9.66258C27.1276 9.61924 27.0698 9.59374 27.0089 9.59119C26.9479 9.58864 26.8882 9.60923 26.8418 9.64883C26.2843 10.1284 25.5664 10.3799 24.8315 10.3531C24.0966 10.3262 23.399 10.0229 22.878 9.50383Z" fill="#E6ECF6" stroke="black" stroke-width="1.5" stroke-miterlimit="10"/>
<path id="Vector_2" d="M15.6559 9.15688L14.624 8.125M18.4071 11.9081L17.719 11.2206M21.1584 14.66L20.4709 13.9719M24.254 17.755L23.2221 16.7231" stroke="black" stroke-width="1.5" stroke-miterlimit="10" stroke-linecap="round"/>
</g>
</svg>
