<svg width="32" height="33" viewBox="0 0 32 33" fill="none" xmlns="http://www.w3.org/2000/svg">
<g id="Icon/ trail-sign-outline">
<g id="Vector">
<path d="M16 25.291V29.291V25.291ZM16 13.291V17.291V13.291ZM16 3.29102V5.29102V3.29102ZM26 13.291H6.41437C6.28297 13.291 6.15285 13.2652 6.03145 13.2149C5.91006 13.1646 5.79976 13.0908 5.70687 12.9979L2 9.29102L5.70687 5.58414C5.79976 5.49119 5.91006 5.41746 6.03145 5.36717C6.15285 5.31687 6.28297 5.29099 6.41437 5.29102H26C26.2652 5.29102 26.5196 5.39637 26.7071 5.58391C26.8946 5.77145 27 6.0258 27 6.29102V12.291C27 12.5562 26.8946 12.8106 26.7071 12.9981C26.5196 13.1857 26.2652 13.291 26 13.291ZM6 25.291H25.5856C25.717 25.291 25.8471 25.2652 25.9685 25.2149C26.0899 25.1646 26.2002 25.0908 26.2931 24.9979L30 21.291L26.2931 17.5841C26.2002 17.4912 26.0899 17.4175 25.9685 17.3672C25.8471 17.3169 25.717 17.291 25.5856 17.291H6C5.73478 17.291 5.48043 17.3964 5.29289 17.5839C5.10536 17.7714 5 18.0258 5 18.291V24.291C5 24.5562 5.10536 24.8106 5.29289 24.9981C5.48043 25.1857 5.73478 25.291 6 25.291Z" fill="#E6ECF6"/>
<path d="M16 25.291V29.291M16 13.291V17.291M16 3.29102V5.29102M26 13.291H6.41437C6.28297 13.291 6.15285 13.2652 6.03145 13.2149C5.91006 13.1646 5.79976 13.0908 5.70687 12.9979L2 9.29102L5.70687 5.58414C5.79976 5.49119 5.91006 5.41746 6.03145 5.36717C6.15285 5.31687 6.28297 5.29099 6.41437 5.29102H26C26.2652 5.29102 26.5196 5.39637 26.7071 5.58391C26.8946 5.77145 27 6.0258 27 6.29102V12.291C27 12.5562 26.8946 12.8106 26.7071 12.9981C26.5196 13.1857 26.2652 13.291 26 13.291ZM6 25.291H25.5856C25.717 25.291 25.8471 25.2652 25.9685 25.2149C26.0899 25.1646 26.2002 25.0908 26.2931 24.9979L30 21.291L26.2931 17.5841C26.2002 17.4912 26.0899 17.4175 25.9685 17.3672C25.8471 17.3169 25.717 17.291 25.5856 17.291H6C5.73478 17.291 5.48043 17.3964 5.29289 17.5839C5.10536 17.7714 5 18.0258 5 18.291V24.291C5 24.5562 5.10536 24.8106 5.29289 24.9981C5.48043 25.1857 5.73478 25.291 6 25.291Z" stroke="black" stroke-width="1.5" stroke-linecap="round" stroke-linejoin="round"/>
</g>
</g>
</svg>
