<svg width="32" height="33" viewBox="0 0 32 33" fill="none" xmlns="http://www.w3.org/2000/svg">
<g id="Icon/ trail-sign-outline">
<path id="Vector" d="M16 25.0293V29.0293M16 13.0293V17.0293M16 3.0293V5.0293M26 13.0293H6.41437C6.28297 13.0293 6.15285 13.0034 6.03145 12.9531C5.91006 12.9028 5.79976 12.8291 5.70687 12.7362L2 9.0293L5.70687 5.32242C5.79976 5.22947 5.91006 5.15575 6.03145 5.10545C6.15285 5.05515 6.28297 5.02928 6.41437 5.0293H26C26.2652 5.0293 26.5196 5.13465 26.7071 5.32219C26.8946 5.50973 27 5.76408 27 6.0293V12.0293C27 12.2945 26.8946 12.5489 26.7071 12.7364C26.5196 12.9239 26.2652 13.0293 26 13.0293ZM6 25.0293H25.5856C25.717 25.0293 25.8471 25.0034 25.9685 24.9531C26.0899 24.9028 26.2002 24.8291 26.2931 24.7362L30 21.0293L26.2931 17.3224C26.2002 17.2295 26.0899 17.1557 25.9685 17.1054C25.8471 17.0552 25.717 17.0293 25.5856 17.0293H6C5.73478 17.0293 5.48043 17.1347 5.29289 17.3222C5.10536 17.5097 5 17.7641 5 18.0293V24.0293C5 24.2945 5.10536 24.5489 5.29289 24.7364C5.48043 24.9239 5.73478 25.0293 6 25.0293Z" stroke="black" stroke-width="1.5" stroke-linecap="round" stroke-linejoin="round"/>
</g>
</svg>
